%TF.GenerationSoftware,KiCad,Pcbnew,9.0.1*%
%TF.CreationDate,2025-06-14T00:03:42-03:00*%
%TF.ProjectId,cartelmatriz,63617274-656c-46d6-9174-72697a2e6b69,rev?*%
%TF.SameCoordinates,Original*%
%TF.FileFunction,Profile,NP*%
%FSLAX46Y46*%
G04 Gerber Fmt 4.6, Leading zero omitted, Abs format (unit mm)*
G04 Created by KiCad (PCBNEW 9.0.1) date 2025-06-14 00:03:42*
%MOMM*%
%LPD*%
G01*
G04 APERTURE LIST*
%TA.AperFunction,Profile*%
%ADD10C,0.200000*%
%TD*%
%TA.AperFunction,Profile*%
%ADD11C,0.010050*%
%TD*%
G04 APERTURE END LIST*
D10*
X674083700Y-100173550D02*
G75*
G02*
X669083700Y-100173550I-2500000J0D01*
G01*
X669083700Y-100173550D02*
G75*
G02*
X674083700Y-100173550I2500000J0D01*
G01*
D11*
X588255225Y-16840050D02*
G75*
G02*
X588245175Y-16840050I-5025J0D01*
G01*
X588245175Y-16840050D02*
G75*
G02*
X588255225Y-16840050I5025J0D01*
G01*
X604921925Y-383507450D02*
G75*
G02*
X604911875Y-383507450I-5025J0D01*
G01*
X604911875Y-383507450D02*
G75*
G02*
X604921925Y-383507450I5025J0D01*
G01*
X788255625Y-333507350D02*
G75*
G02*
X788245575Y-333507350I-5025J0D01*
G01*
X788245575Y-333507350D02*
G75*
G02*
X788255625Y-333507350I5025J0D01*
G01*
X754922225Y-16840050D02*
G75*
G02*
X754912175Y-16840050I-5025J0D01*
G01*
X754912175Y-16840050D02*
G75*
G02*
X754922225Y-16840050I5025J0D01*
G01*
X504921725Y-150173650D02*
G75*
G02*
X504911675Y-150173650I-5025J0D01*
G01*
X504911675Y-150173650D02*
G75*
G02*
X504921725Y-150173650I5025J0D01*
G01*
X538255125Y-216840450D02*
G75*
G02*
X538245075Y-216840450I-5025J0D01*
G01*
X538245075Y-216840450D02*
G75*
G02*
X538255125Y-216840450I5025J0D01*
G01*
D10*
X624083600Y-83506850D02*
G75*
G02*
X619083600Y-83506850I-2500000J0D01*
G01*
X619083600Y-83506850D02*
G75*
G02*
X624083600Y-83506850I2500000J0D01*
G01*
D11*
X621588625Y-150173650D02*
G75*
G02*
X621578575Y-150173650I-5025J0D01*
G01*
X621578575Y-150173650D02*
G75*
G02*
X621588625Y-150173650I5025J0D01*
G01*
X571588525Y-16840050D02*
G75*
G02*
X571578475Y-16840050I-5025J0D01*
G01*
X571578475Y-16840050D02*
G75*
G02*
X571588525Y-16840050I5025J0D01*
G01*
X521588425Y-100173550D02*
G75*
G02*
X521578375Y-100173550I-5025J0D01*
G01*
X521578375Y-100173550D02*
G75*
G02*
X521588425Y-100173550I5025J0D01*
G01*
D10*
X624083600Y-266840550D02*
G75*
G02*
X619083600Y-266840550I-2500000J0D01*
G01*
X619083600Y-266840550D02*
G75*
G02*
X624083600Y-266840550I2500000J0D01*
G01*
X557416800Y-50173450D02*
G75*
G02*
X552416800Y-50173450I-2500000J0D01*
G01*
X552416800Y-50173450D02*
G75*
G02*
X557416800Y-50173450I2500000J0D01*
G01*
X524083400Y-350174050D02*
G75*
G02*
X519083400Y-350174050I-2500000J0D01*
G01*
X519083400Y-350174050D02*
G75*
G02*
X524083400Y-350174050I2500000J0D01*
G01*
X740750500Y-16840050D02*
G75*
G02*
X735750500Y-16840050I-2500000J0D01*
G01*
X735750500Y-16840050D02*
G75*
G02*
X740750500Y-16840050I2500000J0D01*
G01*
X757417200Y-116840250D02*
G75*
G02*
X752417200Y-116840250I-2500000J0D01*
G01*
X752417200Y-116840250D02*
G75*
G02*
X757417200Y-116840250I2500000J0D01*
G01*
D11*
X554921825Y-233507150D02*
G75*
G02*
X554911775Y-233507150I-5025J0D01*
G01*
X554911775Y-233507150D02*
G75*
G02*
X554921825Y-233507150I5025J0D01*
G01*
X688255425Y-33506750D02*
G75*
G02*
X688245375Y-33506750I-5025J0D01*
G01*
X688245375Y-33506750D02*
G75*
G02*
X688255425Y-33506750I5025J0D01*
G01*
X771588925Y-33506750D02*
G75*
G02*
X771578875Y-33506750I-5025J0D01*
G01*
X771578875Y-33506750D02*
G75*
G02*
X771588925Y-33506750I5025J0D01*
G01*
D10*
X674083700Y-116840250D02*
G75*
G02*
X669083700Y-116840250I-2500000J0D01*
G01*
X669083700Y-116840250D02*
G75*
G02*
X674083700Y-116840250I2500000J0D01*
G01*
X540750100Y-173350D02*
G75*
G02*
X535750100Y-173350I-2500000J0D01*
G01*
X535750100Y-173350D02*
G75*
G02*
X540750100Y-173350I2500000J0D01*
G01*
X740750500Y-333507350D02*
G75*
G02*
X735750500Y-333507350I-2500000J0D01*
G01*
X735750500Y-333507350D02*
G75*
G02*
X740750500Y-333507350I2500000J0D01*
G01*
X707417100Y-166840350D02*
G75*
G02*
X702417100Y-166840350I-2500000J0D01*
G01*
X702417100Y-166840350D02*
G75*
G02*
X707417100Y-166840350I2500000J0D01*
G01*
D11*
X571588525Y-216840450D02*
G75*
G02*
X571578475Y-216840450I-5025J0D01*
G01*
X571578475Y-216840450D02*
G75*
G02*
X571588525Y-216840450I5025J0D01*
G01*
D10*
X807417300Y-250173850D02*
G75*
G02*
X802417300Y-250173850I-2500000J0D01*
G01*
X802417300Y-250173850D02*
G75*
G02*
X807417300Y-250173850I2500000J0D01*
G01*
D11*
X788255625Y-266840550D02*
G75*
G02*
X788245575Y-266840550I-5025J0D01*
G01*
X788245575Y-266840550D02*
G75*
G02*
X788255625Y-266840550I5025J0D01*
G01*
X738255525Y-100173550D02*
G75*
G02*
X738245475Y-100173550I-5025J0D01*
G01*
X738245475Y-100173550D02*
G75*
G02*
X738255525Y-100173550I5025J0D01*
G01*
D10*
X740750500Y-283507250D02*
G75*
G02*
X735750500Y-283507250I-2500000J0D01*
G01*
X735750500Y-283507250D02*
G75*
G02*
X740750500Y-283507250I2500000J0D01*
G01*
D11*
X804922325Y-233507150D02*
G75*
G02*
X804912275Y-233507150I-5025J0D01*
G01*
X804912275Y-233507150D02*
G75*
G02*
X804922325Y-233507150I5025J0D01*
G01*
D10*
X490750000Y-16840050D02*
G75*
G02*
X485750000Y-16840050I-2500000J0D01*
G01*
X485750000Y-16840050D02*
G75*
G02*
X490750000Y-16840050I2500000J0D01*
G01*
X724083800Y-300173950D02*
G75*
G02*
X719083800Y-300173950I-2500000J0D01*
G01*
X719083800Y-300173950D02*
G75*
G02*
X724083800Y-300173950I2500000J0D01*
G01*
X690750400Y-116840250D02*
G75*
G02*
X685750400Y-116840250I-2500000J0D01*
G01*
X685750400Y-116840250D02*
G75*
G02*
X690750400Y-116840250I2500000J0D01*
G01*
D11*
X804922325Y-316840650D02*
G75*
G02*
X804912275Y-316840650I-5025J0D01*
G01*
X804912275Y-316840650D02*
G75*
G02*
X804922325Y-316840650I5025J0D01*
G01*
X704922125Y-350174050D02*
G75*
G02*
X704912075Y-350174050I-5025J0D01*
G01*
X704912075Y-350174050D02*
G75*
G02*
X704922125Y-350174050I5025J0D01*
G01*
X788255625Y-16840050D02*
G75*
G02*
X788245575Y-16840050I-5025J0D01*
G01*
X788245575Y-16840050D02*
G75*
G02*
X788255625Y-16840050I5025J0D01*
G01*
X638255325Y-383507450D02*
G75*
G02*
X638245275Y-383507450I-5025J0D01*
G01*
X638245275Y-383507450D02*
G75*
G02*
X638255325Y-383507450I5025J0D01*
G01*
X654922025Y-116840250D02*
G75*
G02*
X654911975Y-116840250I-5025J0D01*
G01*
X654911975Y-116840250D02*
G75*
G02*
X654922025Y-116840250I5025J0D01*
G01*
D10*
X807417300Y-150173650D02*
G75*
G02*
X802417300Y-150173650I-2500000J0D01*
G01*
X802417300Y-150173650D02*
G75*
G02*
X807417300Y-150173650I2500000J0D01*
G01*
X724083800Y-116840250D02*
G75*
G02*
X719083800Y-116840250I-2500000J0D01*
G01*
X719083800Y-116840250D02*
G75*
G02*
X724083800Y-116840250I2500000J0D01*
G01*
X640750300Y-283507250D02*
G75*
G02*
X635750300Y-283507250I-2500000J0D01*
G01*
X635750300Y-283507250D02*
G75*
G02*
X640750300Y-283507250I2500000J0D01*
G01*
X607416900Y-250173850D02*
G75*
G02*
X602416900Y-250173850I-2500000J0D01*
G01*
X602416900Y-250173850D02*
G75*
G02*
X607416900Y-250173850I2500000J0D01*
G01*
X574083500Y-166840350D02*
G75*
G02*
X569083500Y-166840350I-2500000J0D01*
G01*
X569083500Y-166840350D02*
G75*
G02*
X574083500Y-166840350I2500000J0D01*
G01*
D11*
X504921725Y-16840050D02*
G75*
G02*
X504911675Y-16840050I-5025J0D01*
G01*
X504911675Y-16840050D02*
G75*
G02*
X504921725Y-16840050I5025J0D01*
G01*
D10*
X690750400Y-366840750D02*
G75*
G02*
X685750400Y-366840750I-2500000J0D01*
G01*
X685750400Y-366840750D02*
G75*
G02*
X690750400Y-366840750I2500000J0D01*
G01*
X490750000Y-66840150D02*
G75*
G02*
X485750000Y-66840150I-2500000J0D01*
G01*
X485750000Y-66840150D02*
G75*
G02*
X490750000Y-66840150I2500000J0D01*
G01*
D11*
X638255325Y-283507250D02*
G75*
G02*
X638245275Y-283507250I-5025J0D01*
G01*
X638245275Y-283507250D02*
G75*
G02*
X638255325Y-283507250I5025J0D01*
G01*
X504921725Y-383507450D02*
G75*
G02*
X504911675Y-383507450I-5025J0D01*
G01*
X504911675Y-383507450D02*
G75*
G02*
X504921725Y-383507450I5025J0D01*
G01*
D10*
X740750500Y-166840350D02*
G75*
G02*
X735750500Y-166840350I-2500000J0D01*
G01*
X735750500Y-166840350D02*
G75*
G02*
X740750500Y-166840350I2500000J0D01*
G01*
D11*
X638255325Y-83506850D02*
G75*
G02*
X638245275Y-83506850I-5025J0D01*
G01*
X638245275Y-83506850D02*
G75*
G02*
X638255325Y-83506850I5025J0D01*
G01*
X688255425Y-166840350D02*
G75*
G02*
X688245375Y-166840350I-5025J0D01*
G01*
X688245375Y-166840350D02*
G75*
G02*
X688255425Y-166840350I5025J0D01*
G01*
X638255325Y-333507350D02*
G75*
G02*
X638245275Y-333507350I-5025J0D01*
G01*
X638245275Y-333507350D02*
G75*
G02*
X638255325Y-333507350I5025J0D01*
G01*
X788255625Y-100173550D02*
G75*
G02*
X788245575Y-100173550I-5025J0D01*
G01*
X788245575Y-100173550D02*
G75*
G02*
X788255625Y-100173550I5025J0D01*
G01*
D10*
X724083800Y-200173750D02*
G75*
G02*
X719083800Y-200173750I-2500000J0D01*
G01*
X719083800Y-200173750D02*
G75*
G02*
X724083800Y-200173750I2500000J0D01*
G01*
X790750600Y-33506750D02*
G75*
G02*
X785750600Y-33506750I-2500000J0D01*
G01*
X785750600Y-33506750D02*
G75*
G02*
X790750600Y-33506750I2500000J0D01*
G01*
X590750200Y-83506850D02*
G75*
G02*
X585750200Y-83506850I-2500000J0D01*
G01*
X585750200Y-83506850D02*
G75*
G02*
X590750200Y-83506850I2500000J0D01*
G01*
X807417300Y-200173750D02*
G75*
G02*
X802417300Y-200173750I-2500000J0D01*
G01*
X802417300Y-200173750D02*
G75*
G02*
X807417300Y-200173750I2500000J0D01*
G01*
D11*
X571588525Y-233507150D02*
G75*
G02*
X571578475Y-233507150I-5025J0D01*
G01*
X571578475Y-233507150D02*
G75*
G02*
X571588525Y-233507150I5025J0D01*
G01*
X638255325Y-150173650D02*
G75*
G02*
X638245275Y-150173650I-5025J0D01*
G01*
X638245275Y-150173650D02*
G75*
G02*
X638255325Y-150173650I5025J0D01*
G01*
X721588825Y-350174050D02*
G75*
G02*
X721578775Y-350174050I-5025J0D01*
G01*
X721578775Y-350174050D02*
G75*
G02*
X721588825Y-350174050I5025J0D01*
G01*
D10*
X557416800Y-233507150D02*
G75*
G02*
X552416800Y-233507150I-2500000J0D01*
G01*
X552416800Y-233507150D02*
G75*
G02*
X557416800Y-233507150I2500000J0D01*
G01*
X490750000Y-233507150D02*
G75*
G02*
X485750000Y-233507150I-2500000J0D01*
G01*
X485750000Y-233507150D02*
G75*
G02*
X490750000Y-233507150I2500000J0D01*
G01*
D11*
X671588725Y-366840750D02*
G75*
G02*
X671578675Y-366840750I-5025J0D01*
G01*
X671578675Y-366840750D02*
G75*
G02*
X671588725Y-366840750I5025J0D01*
G01*
D10*
X490750000Y-173350D02*
G75*
G02*
X485750000Y-173350I-2500000J0D01*
G01*
X485750000Y-173350D02*
G75*
G02*
X490750000Y-173350I2500000J0D01*
G01*
X624083600Y-173350D02*
G75*
G02*
X619083600Y-173350I-2500000J0D01*
G01*
X619083600Y-173350D02*
G75*
G02*
X624083600Y-173350I2500000J0D01*
G01*
X707417100Y-16840050D02*
G75*
G02*
X702417100Y-16840050I-2500000J0D01*
G01*
X702417100Y-16840050D02*
G75*
G02*
X707417100Y-16840050I2500000J0D01*
G01*
D11*
X488255025Y-133506950D02*
G75*
G02*
X488244975Y-133506950I-5025J0D01*
G01*
X488244975Y-133506950D02*
G75*
G02*
X488255025Y-133506950I5025J0D01*
G01*
D10*
X707417100Y-300173950D02*
G75*
G02*
X702417100Y-300173950I-2500000J0D01*
G01*
X702417100Y-300173950D02*
G75*
G02*
X707417100Y-300173950I2500000J0D01*
G01*
D11*
X738255525Y-16840050D02*
G75*
G02*
X738245475Y-16840050I-5025J0D01*
G01*
X738245475Y-16840050D02*
G75*
G02*
X738255525Y-16840050I5025J0D01*
G01*
X538255125Y-150173650D02*
G75*
G02*
X538245075Y-150173650I-5025J0D01*
G01*
X538245075Y-150173650D02*
G75*
G02*
X538255125Y-150173650I5025J0D01*
G01*
X621588625Y-50173450D02*
G75*
G02*
X621578575Y-50173450I-5025J0D01*
G01*
X621578575Y-50173450D02*
G75*
G02*
X621588625Y-50173450I5025J0D01*
G01*
X788255625Y-66840150D02*
G75*
G02*
X788245575Y-66840150I-5025J0D01*
G01*
X788245575Y-66840150D02*
G75*
G02*
X788255625Y-66840150I5025J0D01*
G01*
X521588425Y-66840150D02*
G75*
G02*
X521578375Y-66840150I-5025J0D01*
G01*
X521578375Y-66840150D02*
G75*
G02*
X521588425Y-66840150I5025J0D01*
G01*
X588255225Y-150173650D02*
G75*
G02*
X588245175Y-150173650I-5025J0D01*
G01*
X588245175Y-150173650D02*
G75*
G02*
X588255225Y-150173650I5025J0D01*
G01*
D10*
X807417300Y-366840750D02*
G75*
G02*
X802417300Y-366840750I-2500000J0D01*
G01*
X802417300Y-366840750D02*
G75*
G02*
X807417300Y-366840750I2500000J0D01*
G01*
X524083400Y-300173950D02*
G75*
G02*
X519083400Y-300173950I-2500000J0D01*
G01*
X519083400Y-300173950D02*
G75*
G02*
X524083400Y-300173950I2500000J0D01*
G01*
X657417000Y-266840550D02*
G75*
G02*
X652417000Y-266840550I-2500000J0D01*
G01*
X652417000Y-266840550D02*
G75*
G02*
X657417000Y-266840550I2500000J0D01*
G01*
X740750500Y-50173450D02*
G75*
G02*
X735750500Y-50173450I-2500000J0D01*
G01*
X735750500Y-50173450D02*
G75*
G02*
X740750500Y-50173450I2500000J0D01*
G01*
X790750600Y-183507050D02*
G75*
G02*
X785750600Y-183507050I-2500000J0D01*
G01*
X785750600Y-183507050D02*
G75*
G02*
X790750600Y-183507050I2500000J0D01*
G01*
D11*
X504921725Y-83506850D02*
G75*
G02*
X504911675Y-83506850I-5025J0D01*
G01*
X504911675Y-83506850D02*
G75*
G02*
X504921725Y-83506850I5025J0D01*
G01*
X654922025Y-366840750D02*
G75*
G02*
X654911975Y-366840750I-5025J0D01*
G01*
X654911975Y-366840750D02*
G75*
G02*
X654922025Y-366840750I5025J0D01*
G01*
D10*
X524083400Y-116840250D02*
G75*
G02*
X519083400Y-116840250I-2500000J0D01*
G01*
X519083400Y-116840250D02*
G75*
G02*
X524083400Y-116840250I2500000J0D01*
G01*
D11*
X604921925Y-233507150D02*
G75*
G02*
X604911875Y-233507150I-5025J0D01*
G01*
X604911875Y-233507150D02*
G75*
G02*
X604921925Y-233507150I5025J0D01*
G01*
D10*
X724083800Y-350174050D02*
G75*
G02*
X719083800Y-350174050I-2500000J0D01*
G01*
X719083800Y-350174050D02*
G75*
G02*
X724083800Y-350174050I2500000J0D01*
G01*
X590750200Y-216840450D02*
G75*
G02*
X585750200Y-216840450I-2500000J0D01*
G01*
X585750200Y-216840450D02*
G75*
G02*
X590750200Y-216840450I2500000J0D01*
G01*
D11*
X671588725Y-66840150D02*
G75*
G02*
X671578675Y-66840150I-5025J0D01*
G01*
X671578675Y-66840150D02*
G75*
G02*
X671588725Y-66840150I5025J0D01*
G01*
X654922025Y-233507150D02*
G75*
G02*
X654911975Y-233507150I-5025J0D01*
G01*
X654911975Y-233507150D02*
G75*
G02*
X654922025Y-233507150I5025J0D01*
G01*
X571588525Y-300173950D02*
G75*
G02*
X571578475Y-300173950I-5025J0D01*
G01*
X571578475Y-300173950D02*
G75*
G02*
X571588525Y-300173950I5025J0D01*
G01*
D10*
X540750100Y-266840550D02*
G75*
G02*
X535750100Y-266840550I-2500000J0D01*
G01*
X535750100Y-266840550D02*
G75*
G02*
X540750100Y-266840550I2500000J0D01*
G01*
X707417100Y-316840650D02*
G75*
G02*
X702417100Y-316840650I-2500000J0D01*
G01*
X702417100Y-316840650D02*
G75*
G02*
X707417100Y-316840650I2500000J0D01*
G01*
D11*
X588255225Y-250173850D02*
G75*
G02*
X588245175Y-250173850I-5025J0D01*
G01*
X588245175Y-250173850D02*
G75*
G02*
X588255225Y-250173850I5025J0D01*
G01*
X488255025Y-50173450D02*
G75*
G02*
X488244975Y-50173450I-5025J0D01*
G01*
X488244975Y-50173450D02*
G75*
G02*
X488255025Y-50173450I5025J0D01*
G01*
D10*
X557416800Y-100173550D02*
G75*
G02*
X552416800Y-100173550I-2500000J0D01*
G01*
X552416800Y-100173550D02*
G75*
G02*
X557416800Y-100173550I2500000J0D01*
G01*
D11*
X554921825Y-100173550D02*
G75*
G02*
X554911775Y-100173550I-5025J0D01*
G01*
X554911775Y-100173550D02*
G75*
G02*
X554921825Y-100173550I5025J0D01*
G01*
D10*
X774083900Y-16840050D02*
G75*
G02*
X769083900Y-16840050I-2500000J0D01*
G01*
X769083900Y-16840050D02*
G75*
G02*
X774083900Y-16840050I2500000J0D01*
G01*
X740750500Y-266840550D02*
G75*
G02*
X735750500Y-266840550I-2500000J0D01*
G01*
X735750500Y-266840550D02*
G75*
G02*
X740750500Y-266840550I2500000J0D01*
G01*
X590750200Y-283507250D02*
G75*
G02*
X585750200Y-283507250I-2500000J0D01*
G01*
X585750200Y-283507250D02*
G75*
G02*
X590750200Y-283507250I2500000J0D01*
G01*
X607416900Y-266840550D02*
G75*
G02*
X602416900Y-266840550I-2500000J0D01*
G01*
X602416900Y-266840550D02*
G75*
G02*
X607416900Y-266840550I2500000J0D01*
G01*
D11*
X504921725Y-283507250D02*
G75*
G02*
X504911675Y-283507250I-5025J0D01*
G01*
X504911675Y-283507250D02*
G75*
G02*
X504921725Y-283507250I5025J0D01*
G01*
D10*
X640750300Y-250173850D02*
G75*
G02*
X635750300Y-250173850I-2500000J0D01*
G01*
X635750300Y-250173850D02*
G75*
G02*
X640750300Y-250173850I2500000J0D01*
G01*
X640750300Y-366840750D02*
G75*
G02*
X635750300Y-366840750I-2500000J0D01*
G01*
X635750300Y-366840750D02*
G75*
G02*
X640750300Y-366840750I2500000J0D01*
G01*
X790750600Y-316840650D02*
G75*
G02*
X785750600Y-316840650I-2500000J0D01*
G01*
X785750600Y-316840650D02*
G75*
G02*
X790750600Y-316840650I2500000J0D01*
G01*
D11*
X638255325Y-100173550D02*
G75*
G02*
X638245275Y-100173550I-5025J0D01*
G01*
X638245275Y-100173550D02*
G75*
G02*
X638255325Y-100173550I5025J0D01*
G01*
D10*
X674083700Y-166840350D02*
G75*
G02*
X669083700Y-166840350I-2500000J0D01*
G01*
X669083700Y-166840350D02*
G75*
G02*
X674083700Y-166840350I2500000J0D01*
G01*
X657417000Y-300173950D02*
G75*
G02*
X652417000Y-300173950I-2500000J0D01*
G01*
X652417000Y-300173950D02*
G75*
G02*
X657417000Y-300173950I2500000J0D01*
G01*
D11*
X704922125Y-183507050D02*
G75*
G02*
X704912075Y-183507050I-5025J0D01*
G01*
X704912075Y-183507050D02*
G75*
G02*
X704922125Y-183507050I5025J0D01*
G01*
D10*
X807417300Y-316840650D02*
G75*
G02*
X802417300Y-316840650I-2500000J0D01*
G01*
X802417300Y-316840650D02*
G75*
G02*
X807417300Y-316840650I2500000J0D01*
G01*
D11*
X771588925Y-283507250D02*
G75*
G02*
X771578875Y-283507250I-5025J0D01*
G01*
X771578875Y-283507250D02*
G75*
G02*
X771588925Y-283507250I5025J0D01*
G01*
D10*
X690750400Y-50173450D02*
G75*
G02*
X685750400Y-50173450I-2500000J0D01*
G01*
X685750400Y-50173450D02*
G75*
G02*
X690750400Y-50173450I2500000J0D01*
G01*
D11*
X688255425Y-150173650D02*
G75*
G02*
X688245375Y-150173650I-5025J0D01*
G01*
X688245375Y-150173650D02*
G75*
G02*
X688255425Y-150173650I5025J0D01*
G01*
D10*
X690750400Y-266840550D02*
G75*
G02*
X685750400Y-266840550I-2500000J0D01*
G01*
X685750400Y-266840550D02*
G75*
G02*
X690750400Y-266840550I2500000J0D01*
G01*
D11*
X688255425Y-66840150D02*
G75*
G02*
X688245375Y-66840150I-5025J0D01*
G01*
X688245375Y-66840150D02*
G75*
G02*
X688255425Y-66840150I5025J0D01*
G01*
X621588625Y-166840350D02*
G75*
G02*
X621578575Y-166840350I-5025J0D01*
G01*
X621578575Y-166840350D02*
G75*
G02*
X621588625Y-166840350I5025J0D01*
G01*
D10*
X790750600Y-216840450D02*
G75*
G02*
X785750600Y-216840450I-2500000J0D01*
G01*
X785750600Y-216840450D02*
G75*
G02*
X790750600Y-216840450I2500000J0D01*
G01*
X590750200Y-266840550D02*
G75*
G02*
X585750200Y-266840550I-2500000J0D01*
G01*
X585750200Y-266840550D02*
G75*
G02*
X590750200Y-266840550I2500000J0D01*
G01*
D11*
X588255225Y-100173550D02*
G75*
G02*
X588245175Y-100173550I-5025J0D01*
G01*
X588245175Y-100173550D02*
G75*
G02*
X588255225Y-100173550I5025J0D01*
G01*
D10*
X540750100Y-83506850D02*
G75*
G02*
X535750100Y-83506850I-2500000J0D01*
G01*
X535750100Y-83506850D02*
G75*
G02*
X540750100Y-83506850I2500000J0D01*
G01*
X490750000Y-216840450D02*
G75*
G02*
X485750000Y-216840450I-2500000J0D01*
G01*
X485750000Y-216840450D02*
G75*
G02*
X490750000Y-216840450I2500000J0D01*
G01*
D11*
X738255525Y-216840450D02*
G75*
G02*
X738245475Y-216840450I-5025J0D01*
G01*
X738245475Y-216840450D02*
G75*
G02*
X738255525Y-216840450I5025J0D01*
G01*
D10*
X674083700Y-50173450D02*
G75*
G02*
X669083700Y-50173450I-2500000J0D01*
G01*
X669083700Y-50173450D02*
G75*
G02*
X674083700Y-50173450I2500000J0D01*
G01*
D11*
X754922225Y-100173550D02*
G75*
G02*
X754912175Y-100173550I-5025J0D01*
G01*
X754912175Y-100173550D02*
G75*
G02*
X754922225Y-100173550I5025J0D01*
G01*
D10*
X724083800Y-266840550D02*
G75*
G02*
X719083800Y-266840550I-2500000J0D01*
G01*
X719083800Y-266840550D02*
G75*
G02*
X724083800Y-266840550I2500000J0D01*
G01*
D11*
X521588425Y-350174050D02*
G75*
G02*
X521578375Y-350174050I-5025J0D01*
G01*
X521578375Y-350174050D02*
G75*
G02*
X521588425Y-350174050I5025J0D01*
G01*
D10*
X707417100Y-33506750D02*
G75*
G02*
X702417100Y-33506750I-2500000J0D01*
G01*
X702417100Y-33506750D02*
G75*
G02*
X707417100Y-33506750I2500000J0D01*
G01*
X590750200Y-350174050D02*
G75*
G02*
X585750200Y-350174050I-2500000J0D01*
G01*
X585750200Y-350174050D02*
G75*
G02*
X590750200Y-350174050I2500000J0D01*
G01*
D11*
X721588825Y-133506950D02*
G75*
G02*
X721578775Y-133506950I-5025J0D01*
G01*
X721578775Y-133506950D02*
G75*
G02*
X721588825Y-133506950I5025J0D01*
G01*
D10*
X757417200Y-383507450D02*
G75*
G02*
X752417200Y-383507450I-2500000J0D01*
G01*
X752417200Y-383507450D02*
G75*
G02*
X757417200Y-383507450I2500000J0D01*
G01*
D11*
X804922325Y-350174050D02*
G75*
G02*
X804912275Y-350174050I-5025J0D01*
G01*
X804912275Y-350174050D02*
G75*
G02*
X804922325Y-350174050I5025J0D01*
G01*
X571588525Y-250173850D02*
G75*
G02*
X571578475Y-250173850I-5025J0D01*
G01*
X571578475Y-250173850D02*
G75*
G02*
X571588525Y-250173850I5025J0D01*
G01*
X604921925Y-350174050D02*
G75*
G02*
X604911875Y-350174050I-5025J0D01*
G01*
X604911875Y-350174050D02*
G75*
G02*
X604921925Y-350174050I5025J0D01*
G01*
D10*
X607416900Y-100173550D02*
G75*
G02*
X602416900Y-100173550I-2500000J0D01*
G01*
X602416900Y-100173550D02*
G75*
G02*
X607416900Y-100173550I2500000J0D01*
G01*
D11*
X488255025Y-333507350D02*
G75*
G02*
X488244975Y-333507350I-5025J0D01*
G01*
X488244975Y-333507350D02*
G75*
G02*
X488255025Y-333507350I5025J0D01*
G01*
X721588825Y-116840250D02*
G75*
G02*
X721578775Y-116840250I-5025J0D01*
G01*
X721578775Y-116840250D02*
G75*
G02*
X721588825Y-116840250I5025J0D01*
G01*
X638255325Y-216840450D02*
G75*
G02*
X638245275Y-216840450I-5025J0D01*
G01*
X638245275Y-216840450D02*
G75*
G02*
X638255325Y-216840450I5025J0D01*
G01*
X771588925Y-366840750D02*
G75*
G02*
X771578875Y-366840750I-5025J0D01*
G01*
X771578875Y-366840750D02*
G75*
G02*
X771588925Y-366840750I5025J0D01*
G01*
X554921825Y-383507450D02*
G75*
G02*
X554911775Y-383507450I-5025J0D01*
G01*
X554911775Y-383507450D02*
G75*
G02*
X554921825Y-383507450I5025J0D01*
G01*
D10*
X524083400Y-166840350D02*
G75*
G02*
X519083400Y-166840350I-2500000J0D01*
G01*
X519083400Y-166840350D02*
G75*
G02*
X524083400Y-166840350I2500000J0D01*
G01*
D11*
X621588625Y-173350D02*
G75*
G02*
X621578575Y-173350I-5025J0D01*
G01*
X621578575Y-173350D02*
G75*
G02*
X621588625Y-173350I5025J0D01*
G01*
D10*
X807417300Y-133506950D02*
G75*
G02*
X802417300Y-133506950I-2500000J0D01*
G01*
X802417300Y-133506950D02*
G75*
G02*
X807417300Y-133506950I2500000J0D01*
G01*
D11*
X504921725Y-33506750D02*
G75*
G02*
X504911675Y-33506750I-5025J0D01*
G01*
X504911675Y-33506750D02*
G75*
G02*
X504921725Y-33506750I5025J0D01*
G01*
D10*
X590750200Y-66840150D02*
G75*
G02*
X585750200Y-66840150I-2500000J0D01*
G01*
X585750200Y-66840150D02*
G75*
G02*
X590750200Y-66840150I2500000J0D01*
G01*
X478250000Y8160000D02*
X814917300Y8160000D01*
D11*
X688255425Y-333507350D02*
G75*
G02*
X688245375Y-333507350I-5025J0D01*
G01*
X688245375Y-333507350D02*
G75*
G02*
X688255425Y-333507350I5025J0D01*
G01*
X571588525Y-383507450D02*
G75*
G02*
X571578475Y-383507450I-5025J0D01*
G01*
X571578475Y-383507450D02*
G75*
G02*
X571588525Y-383507450I5025J0D01*
G01*
D10*
X807417300Y-66840150D02*
G75*
G02*
X802417300Y-66840150I-2500000J0D01*
G01*
X802417300Y-66840150D02*
G75*
G02*
X807417300Y-66840150I2500000J0D01*
G01*
X707417100Y-233507150D02*
G75*
G02*
X702417100Y-233507150I-2500000J0D01*
G01*
X702417100Y-233507150D02*
G75*
G02*
X707417100Y-233507150I2500000J0D01*
G01*
D11*
X521588425Y-133506950D02*
G75*
G02*
X521578375Y-133506950I-5025J0D01*
G01*
X521578375Y-133506950D02*
G75*
G02*
X521588425Y-133506950I5025J0D01*
G01*
X804922325Y-133506950D02*
G75*
G02*
X804912275Y-133506950I-5025J0D01*
G01*
X804912275Y-133506950D02*
G75*
G02*
X804922325Y-133506950I5025J0D01*
G01*
D10*
X607416900Y-150173650D02*
G75*
G02*
X602416900Y-150173650I-2500000J0D01*
G01*
X602416900Y-150173650D02*
G75*
G02*
X607416900Y-150173650I2500000J0D01*
G01*
D11*
X521588425Y-316840650D02*
G75*
G02*
X521578375Y-316840650I-5025J0D01*
G01*
X521578375Y-316840650D02*
G75*
G02*
X521588425Y-316840650I5025J0D01*
G01*
X521588425Y-333507350D02*
G75*
G02*
X521578375Y-333507350I-5025J0D01*
G01*
X521578375Y-333507350D02*
G75*
G02*
X521588425Y-333507350I5025J0D01*
G01*
D10*
X624083600Y-150173650D02*
G75*
G02*
X619083600Y-150173650I-2500000J0D01*
G01*
X619083600Y-150173650D02*
G75*
G02*
X624083600Y-150173650I2500000J0D01*
G01*
X607416900Y-83506850D02*
G75*
G02*
X602416900Y-83506850I-2500000J0D01*
G01*
X602416900Y-83506850D02*
G75*
G02*
X607416900Y-83506850I2500000J0D01*
G01*
D11*
X538255125Y-100173550D02*
G75*
G02*
X538245075Y-100173550I-5025J0D01*
G01*
X538245075Y-100173550D02*
G75*
G02*
X538255125Y-100173550I5025J0D01*
G01*
X521588425Y-33506750D02*
G75*
G02*
X521578375Y-33506750I-5025J0D01*
G01*
X521578375Y-33506750D02*
G75*
G02*
X521588425Y-33506750I5025J0D01*
G01*
X521588425Y-366840750D02*
G75*
G02*
X521578375Y-366840750I-5025J0D01*
G01*
X521578375Y-366840750D02*
G75*
G02*
X521588425Y-366840750I5025J0D01*
G01*
X738255525Y-33506750D02*
G75*
G02*
X738245475Y-33506750I-5025J0D01*
G01*
X738245475Y-33506750D02*
G75*
G02*
X738255525Y-33506750I5025J0D01*
G01*
X688255425Y-183507050D02*
G75*
G02*
X688245375Y-183507050I-5025J0D01*
G01*
X688245375Y-183507050D02*
G75*
G02*
X688255425Y-183507050I5025J0D01*
G01*
D10*
X724083800Y-283507250D02*
G75*
G02*
X719083800Y-283507250I-2500000J0D01*
G01*
X719083800Y-283507250D02*
G75*
G02*
X724083800Y-283507250I2500000J0D01*
G01*
X657417000Y-16840050D02*
G75*
G02*
X652417000Y-16840050I-2500000J0D01*
G01*
X652417000Y-16840050D02*
G75*
G02*
X657417000Y-16840050I2500000J0D01*
G01*
D11*
X804922325Y-300173950D02*
G75*
G02*
X804912275Y-300173950I-5025J0D01*
G01*
X804912275Y-300173950D02*
G75*
G02*
X804922325Y-300173950I5025J0D01*
G01*
D10*
X814917300Y-391840800D02*
X478250000Y-391840800D01*
D11*
X604921925Y-200173750D02*
G75*
G02*
X604911875Y-200173750I-5025J0D01*
G01*
X604911875Y-200173750D02*
G75*
G02*
X604921925Y-200173750I5025J0D01*
G01*
X571588525Y-333507350D02*
G75*
G02*
X571578475Y-333507350I-5025J0D01*
G01*
X571578475Y-333507350D02*
G75*
G02*
X571588525Y-333507350I5025J0D01*
G01*
X654922025Y-200173750D02*
G75*
G02*
X654911975Y-200173750I-5025J0D01*
G01*
X654911975Y-200173750D02*
G75*
G02*
X654922025Y-200173750I5025J0D01*
G01*
D10*
X690750400Y-350174050D02*
G75*
G02*
X685750400Y-350174050I-2500000J0D01*
G01*
X685750400Y-350174050D02*
G75*
G02*
X690750400Y-350174050I2500000J0D01*
G01*
D11*
X488255025Y-116840250D02*
G75*
G02*
X488244975Y-116840250I-5025J0D01*
G01*
X488244975Y-116840250D02*
G75*
G02*
X488255025Y-116840250I5025J0D01*
G01*
X571588525Y-183507050D02*
G75*
G02*
X571578475Y-183507050I-5025J0D01*
G01*
X571578475Y-183507050D02*
G75*
G02*
X571588525Y-183507050I5025J0D01*
G01*
D10*
X574083500Y-333507350D02*
G75*
G02*
X569083500Y-333507350I-2500000J0D01*
G01*
X569083500Y-333507350D02*
G75*
G02*
X574083500Y-333507350I2500000J0D01*
G01*
X790750600Y-83506850D02*
G75*
G02*
X785750600Y-83506850I-2500000J0D01*
G01*
X785750600Y-83506850D02*
G75*
G02*
X790750600Y-83506850I2500000J0D01*
G01*
D11*
X488255025Y-33506750D02*
G75*
G02*
X488244975Y-33506750I-5025J0D01*
G01*
X488244975Y-33506750D02*
G75*
G02*
X488255025Y-33506750I5025J0D01*
G01*
D10*
X674083700Y-266840550D02*
G75*
G02*
X669083700Y-266840550I-2500000J0D01*
G01*
X669083700Y-266840550D02*
G75*
G02*
X674083700Y-266840550I2500000J0D01*
G01*
X624083600Y-50173450D02*
G75*
G02*
X619083600Y-50173450I-2500000J0D01*
G01*
X619083600Y-50173450D02*
G75*
G02*
X624083600Y-50173450I2500000J0D01*
G01*
D11*
X738255525Y-250173850D02*
G75*
G02*
X738245475Y-250173850I-5025J0D01*
G01*
X738245475Y-250173850D02*
G75*
G02*
X738255525Y-250173850I5025J0D01*
G01*
D10*
X490750000Y-33506750D02*
G75*
G02*
X485750000Y-33506750I-2500000J0D01*
G01*
X485750000Y-33506750D02*
G75*
G02*
X490750000Y-33506750I2500000J0D01*
G01*
D11*
X788255625Y-166840350D02*
G75*
G02*
X788245575Y-166840350I-5025J0D01*
G01*
X788245575Y-166840350D02*
G75*
G02*
X788255625Y-166840350I5025J0D01*
G01*
D10*
X624083600Y-200173750D02*
G75*
G02*
X619083600Y-200173750I-2500000J0D01*
G01*
X619083600Y-200173750D02*
G75*
G02*
X624083600Y-200173750I2500000J0D01*
G01*
X640750300Y-183507050D02*
G75*
G02*
X635750300Y-183507050I-2500000J0D01*
G01*
X635750300Y-183507050D02*
G75*
G02*
X640750300Y-183507050I2500000J0D01*
G01*
X774083900Y-116840250D02*
G75*
G02*
X769083900Y-116840250I-2500000J0D01*
G01*
X769083900Y-116840250D02*
G75*
G02*
X774083900Y-116840250I2500000J0D01*
G01*
D11*
X488255025Y-250173850D02*
G75*
G02*
X488244975Y-250173850I-5025J0D01*
G01*
X488244975Y-250173850D02*
G75*
G02*
X488255025Y-250173850I5025J0D01*
G01*
X571588525Y-133506950D02*
G75*
G02*
X571578475Y-133506950I-5025J0D01*
G01*
X571578475Y-133506950D02*
G75*
G02*
X571588525Y-133506950I5025J0D01*
G01*
X588255225Y-83506850D02*
G75*
G02*
X588245175Y-83506850I-5025J0D01*
G01*
X588245175Y-83506850D02*
G75*
G02*
X588255225Y-83506850I5025J0D01*
G01*
D10*
X590750200Y-150173650D02*
G75*
G02*
X585750200Y-150173650I-2500000J0D01*
G01*
X585750200Y-150173650D02*
G75*
G02*
X590750200Y-150173650I2500000J0D01*
G01*
D11*
X721588825Y-216840450D02*
G75*
G02*
X721578775Y-216840450I-5025J0D01*
G01*
X721578775Y-216840450D02*
G75*
G02*
X721588825Y-216840450I5025J0D01*
G01*
X804922325Y-266840550D02*
G75*
G02*
X804912275Y-266840550I-5025J0D01*
G01*
X804912275Y-266840550D02*
G75*
G02*
X804922325Y-266840550I5025J0D01*
G01*
D10*
X724083800Y-333507350D02*
G75*
G02*
X719083800Y-333507350I-2500000J0D01*
G01*
X719083800Y-333507350D02*
G75*
G02*
X724083800Y-333507350I2500000J0D01*
G01*
D11*
X688255425Y-200173750D02*
G75*
G02*
X688245375Y-200173750I-5025J0D01*
G01*
X688245375Y-200173750D02*
G75*
G02*
X688255425Y-200173750I5025J0D01*
G01*
X804922325Y-16840050D02*
G75*
G02*
X804912275Y-16840050I-5025J0D01*
G01*
X804912275Y-16840050D02*
G75*
G02*
X804922325Y-16840050I5025J0D01*
G01*
X488255025Y-233507150D02*
G75*
G02*
X488244975Y-233507150I-5025J0D01*
G01*
X488244975Y-233507150D02*
G75*
G02*
X488255025Y-233507150I5025J0D01*
G01*
X638255325Y-300173950D02*
G75*
G02*
X638245275Y-300173950I-5025J0D01*
G01*
X638245275Y-300173950D02*
G75*
G02*
X638255325Y-300173950I5025J0D01*
G01*
X621588625Y-16840050D02*
G75*
G02*
X621578575Y-16840050I-5025J0D01*
G01*
X621578575Y-16840050D02*
G75*
G02*
X621588625Y-16840050I5025J0D01*
G01*
X554921825Y-16840050D02*
G75*
G02*
X554911775Y-16840050I-5025J0D01*
G01*
X554911775Y-16840050D02*
G75*
G02*
X554921825Y-16840050I5025J0D01*
G01*
D10*
X624083600Y-383507450D02*
G75*
G02*
X619083600Y-383507450I-2500000J0D01*
G01*
X619083600Y-383507450D02*
G75*
G02*
X624083600Y-383507450I2500000J0D01*
G01*
D11*
X788255625Y-33506750D02*
G75*
G02*
X788245575Y-33506750I-5025J0D01*
G01*
X788245575Y-33506750D02*
G75*
G02*
X788255625Y-33506750I5025J0D01*
G01*
X571588525Y-33506750D02*
G75*
G02*
X571578475Y-33506750I-5025J0D01*
G01*
X571578475Y-33506750D02*
G75*
G02*
X571588525Y-33506750I5025J0D01*
G01*
D10*
X640750300Y-300173950D02*
G75*
G02*
X635750300Y-300173950I-2500000J0D01*
G01*
X635750300Y-300173950D02*
G75*
G02*
X640750300Y-300173950I2500000J0D01*
G01*
D11*
X554921825Y-33506750D02*
G75*
G02*
X554911775Y-33506750I-5025J0D01*
G01*
X554911775Y-33506750D02*
G75*
G02*
X554921825Y-33506750I5025J0D01*
G01*
D10*
X707417100Y-100173550D02*
G75*
G02*
X702417100Y-100173550I-2500000J0D01*
G01*
X702417100Y-100173550D02*
G75*
G02*
X707417100Y-100173550I2500000J0D01*
G01*
D11*
X754922225Y-166840350D02*
G75*
G02*
X754912175Y-166840350I-5025J0D01*
G01*
X754912175Y-166840350D02*
G75*
G02*
X754922225Y-166840350I5025J0D01*
G01*
X571588525Y-283507250D02*
G75*
G02*
X571578475Y-283507250I-5025J0D01*
G01*
X571578475Y-283507250D02*
G75*
G02*
X571588525Y-283507250I5025J0D01*
G01*
D10*
X607416900Y-183507050D02*
G75*
G02*
X602416900Y-183507050I-2500000J0D01*
G01*
X602416900Y-183507050D02*
G75*
G02*
X607416900Y-183507050I2500000J0D01*
G01*
X707417100Y-200173750D02*
G75*
G02*
X702417100Y-200173750I-2500000J0D01*
G01*
X702417100Y-200173750D02*
G75*
G02*
X707417100Y-200173750I2500000J0D01*
G01*
X774083900Y-150173650D02*
G75*
G02*
X769083900Y-150173650I-2500000J0D01*
G01*
X769083900Y-150173650D02*
G75*
G02*
X774083900Y-150173650I2500000J0D01*
G01*
X757417200Y-283507250D02*
G75*
G02*
X752417200Y-283507250I-2500000J0D01*
G01*
X752417200Y-283507250D02*
G75*
G02*
X757417200Y-283507250I2500000J0D01*
G01*
X640750300Y-316840650D02*
G75*
G02*
X635750300Y-316840650I-2500000J0D01*
G01*
X635750300Y-316840650D02*
G75*
G02*
X640750300Y-316840650I2500000J0D01*
G01*
X524083400Y-250173850D02*
G75*
G02*
X519083400Y-250173850I-2500000J0D01*
G01*
X519083400Y-250173850D02*
G75*
G02*
X524083400Y-250173850I2500000J0D01*
G01*
X674083700Y-200173750D02*
G75*
G02*
X669083700Y-200173750I-2500000J0D01*
G01*
X669083700Y-200173750D02*
G75*
G02*
X674083700Y-200173750I2500000J0D01*
G01*
X774083900Y-250173850D02*
G75*
G02*
X769083900Y-250173850I-2500000J0D01*
G01*
X769083900Y-250173850D02*
G75*
G02*
X774083900Y-250173850I2500000J0D01*
G01*
X574083500Y-133506950D02*
G75*
G02*
X569083500Y-133506950I-2500000J0D01*
G01*
X569083500Y-133506950D02*
G75*
G02*
X574083500Y-133506950I2500000J0D01*
G01*
D11*
X738255525Y-116840250D02*
G75*
G02*
X738245475Y-116840250I-5025J0D01*
G01*
X738245475Y-116840250D02*
G75*
G02*
X738255525Y-116840250I5025J0D01*
G01*
X704922125Y-233507150D02*
G75*
G02*
X704912075Y-233507150I-5025J0D01*
G01*
X704912075Y-233507150D02*
G75*
G02*
X704922125Y-233507150I5025J0D01*
G01*
X688255425Y-116840250D02*
G75*
G02*
X688245375Y-116840250I-5025J0D01*
G01*
X688245375Y-116840250D02*
G75*
G02*
X688255425Y-116840250I5025J0D01*
G01*
D10*
X540750100Y-50173450D02*
G75*
G02*
X535750100Y-50173450I-2500000J0D01*
G01*
X535750100Y-50173450D02*
G75*
G02*
X540750100Y-50173450I2500000J0D01*
G01*
X707417100Y-350174050D02*
G75*
G02*
X702417100Y-350174050I-2500000J0D01*
G01*
X702417100Y-350174050D02*
G75*
G02*
X707417100Y-350174050I2500000J0D01*
G01*
X740750500Y-133506950D02*
G75*
G02*
X735750500Y-133506950I-2500000J0D01*
G01*
X735750500Y-133506950D02*
G75*
G02*
X740750500Y-133506950I2500000J0D01*
G01*
D11*
X788255625Y-50173450D02*
G75*
G02*
X788245575Y-50173450I-5025J0D01*
G01*
X788245575Y-50173450D02*
G75*
G02*
X788255625Y-50173450I5025J0D01*
G01*
X738255525Y-66840150D02*
G75*
G02*
X738245475Y-66840150I-5025J0D01*
G01*
X738245475Y-66840150D02*
G75*
G02*
X738255525Y-66840150I5025J0D01*
G01*
X571588525Y-116840250D02*
G75*
G02*
X571578475Y-116840250I-5025J0D01*
G01*
X571578475Y-116840250D02*
G75*
G02*
X571588525Y-116840250I5025J0D01*
G01*
X788255625Y-173350D02*
G75*
G02*
X788245575Y-173350I-5025J0D01*
G01*
X788245575Y-173350D02*
G75*
G02*
X788255625Y-173350I5025J0D01*
G01*
D10*
X657417000Y-366840750D02*
G75*
G02*
X652417000Y-366840750I-2500000J0D01*
G01*
X652417000Y-366840750D02*
G75*
G02*
X657417000Y-366840750I2500000J0D01*
G01*
D11*
X754922225Y-50173450D02*
G75*
G02*
X754912175Y-50173450I-5025J0D01*
G01*
X754912175Y-50173450D02*
G75*
G02*
X754922225Y-50173450I5025J0D01*
G01*
D10*
X707417100Y-283507250D02*
G75*
G02*
X702417100Y-283507250I-2500000J0D01*
G01*
X702417100Y-283507250D02*
G75*
G02*
X707417100Y-283507250I2500000J0D01*
G01*
X624083600Y-283507250D02*
G75*
G02*
X619083600Y-283507250I-2500000J0D01*
G01*
X619083600Y-283507250D02*
G75*
G02*
X624083600Y-283507250I2500000J0D01*
G01*
X490750000Y-166840350D02*
G75*
G02*
X485750000Y-166840350I-2500000J0D01*
G01*
X485750000Y-166840350D02*
G75*
G02*
X490750000Y-166840350I2500000J0D01*
G01*
X757417200Y-166840350D02*
G75*
G02*
X752417200Y-166840350I-2500000J0D01*
G01*
X752417200Y-166840350D02*
G75*
G02*
X757417200Y-166840350I2500000J0D01*
G01*
X540750100Y-183507050D02*
G75*
G02*
X535750100Y-183507050I-2500000J0D01*
G01*
X535750100Y-183507050D02*
G75*
G02*
X540750100Y-183507050I2500000J0D01*
G01*
X807417300Y-173350D02*
G75*
G02*
X802417300Y-173350I-2500000J0D01*
G01*
X802417300Y-173350D02*
G75*
G02*
X807417300Y-173350I2500000J0D01*
G01*
X507416700Y-283507250D02*
G75*
G02*
X502416700Y-283507250I-2500000J0D01*
G01*
X502416700Y-283507250D02*
G75*
G02*
X507416700Y-283507250I2500000J0D01*
G01*
X624083600Y-250173850D02*
G75*
G02*
X619083600Y-250173850I-2500000J0D01*
G01*
X619083600Y-250173850D02*
G75*
G02*
X624083600Y-250173850I2500000J0D01*
G01*
D11*
X488255025Y-300173950D02*
G75*
G02*
X488244975Y-300173950I-5025J0D01*
G01*
X488244975Y-300173950D02*
G75*
G02*
X488255025Y-300173950I5025J0D01*
G01*
X638255325Y-183507050D02*
G75*
G02*
X638245275Y-183507050I-5025J0D01*
G01*
X638245275Y-183507050D02*
G75*
G02*
X638255325Y-183507050I5025J0D01*
G01*
D10*
X657417000Y-100173550D02*
G75*
G02*
X652417000Y-100173550I-2500000J0D01*
G01*
X652417000Y-100173550D02*
G75*
G02*
X657417000Y-100173550I2500000J0D01*
G01*
D11*
X488255025Y-100173550D02*
G75*
G02*
X488244975Y-100173550I-5025J0D01*
G01*
X488244975Y-100173550D02*
G75*
G02*
X488255025Y-100173550I5025J0D01*
G01*
D10*
X490750000Y-266840550D02*
G75*
G02*
X485750000Y-266840550I-2500000J0D01*
G01*
X485750000Y-266840550D02*
G75*
G02*
X490750000Y-266840550I2500000J0D01*
G01*
X607416900Y-216840450D02*
G75*
G02*
X602416900Y-216840450I-2500000J0D01*
G01*
X602416900Y-216840450D02*
G75*
G02*
X607416900Y-216840450I2500000J0D01*
G01*
X774083900Y-216840450D02*
G75*
G02*
X769083900Y-216840450I-2500000J0D01*
G01*
X769083900Y-216840450D02*
G75*
G02*
X774083900Y-216840450I2500000J0D01*
G01*
X540750100Y-216840450D02*
G75*
G02*
X535750100Y-216840450I-2500000J0D01*
G01*
X535750100Y-216840450D02*
G75*
G02*
X540750100Y-216840450I2500000J0D01*
G01*
D11*
X654922025Y-266840550D02*
G75*
G02*
X654911975Y-266840550I-5025J0D01*
G01*
X654911975Y-266840550D02*
G75*
G02*
X654922025Y-266840550I5025J0D01*
G01*
D10*
X757417200Y-333507350D02*
G75*
G02*
X752417200Y-333507350I-2500000J0D01*
G01*
X752417200Y-333507350D02*
G75*
G02*
X757417200Y-333507350I2500000J0D01*
G01*
D11*
X771588925Y-216840450D02*
G75*
G02*
X771578875Y-216840450I-5025J0D01*
G01*
X771578875Y-216840450D02*
G75*
G02*
X771588925Y-216840450I5025J0D01*
G01*
D10*
X807417300Y-116840250D02*
G75*
G02*
X802417300Y-116840250I-2500000J0D01*
G01*
X802417300Y-116840250D02*
G75*
G02*
X807417300Y-116840250I2500000J0D01*
G01*
D11*
X788255625Y-183507050D02*
G75*
G02*
X788245575Y-183507050I-5025J0D01*
G01*
X788245575Y-183507050D02*
G75*
G02*
X788255625Y-183507050I5025J0D01*
G01*
D10*
X690750400Y-66840150D02*
G75*
G02*
X685750400Y-66840150I-2500000J0D01*
G01*
X685750400Y-66840150D02*
G75*
G02*
X690750400Y-66840150I2500000J0D01*
G01*
D11*
X738255525Y-283507250D02*
G75*
G02*
X738245475Y-283507250I-5025J0D01*
G01*
X738245475Y-283507250D02*
G75*
G02*
X738255525Y-283507250I5025J0D01*
G01*
X621588625Y-383507450D02*
G75*
G02*
X621578575Y-383507450I-5025J0D01*
G01*
X621578575Y-383507450D02*
G75*
G02*
X621588625Y-383507450I5025J0D01*
G01*
D10*
X657417000Y-50173450D02*
G75*
G02*
X652417000Y-50173450I-2500000J0D01*
G01*
X652417000Y-50173450D02*
G75*
G02*
X657417000Y-50173450I2500000J0D01*
G01*
X540750100Y-333507350D02*
G75*
G02*
X535750100Y-333507350I-2500000J0D01*
G01*
X535750100Y-333507350D02*
G75*
G02*
X540750100Y-333507350I2500000J0D01*
G01*
D11*
X671588725Y-150173650D02*
G75*
G02*
X671578675Y-150173650I-5025J0D01*
G01*
X671578675Y-150173650D02*
G75*
G02*
X671588725Y-150173650I5025J0D01*
G01*
D10*
X624083600Y-66840150D02*
G75*
G02*
X619083600Y-66840150I-2500000J0D01*
G01*
X619083600Y-66840150D02*
G75*
G02*
X624083600Y-66840150I2500000J0D01*
G01*
X640750300Y-150173650D02*
G75*
G02*
X635750300Y-150173650I-2500000J0D01*
G01*
X635750300Y-150173650D02*
G75*
G02*
X640750300Y-150173650I2500000J0D01*
G01*
D11*
X771588925Y-16840050D02*
G75*
G02*
X771578875Y-16840050I-5025J0D01*
G01*
X771578875Y-16840050D02*
G75*
G02*
X771588925Y-16840050I5025J0D01*
G01*
D10*
X790750600Y-200173750D02*
G75*
G02*
X785750600Y-200173750I-2500000J0D01*
G01*
X785750600Y-200173750D02*
G75*
G02*
X790750600Y-200173750I2500000J0D01*
G01*
D11*
X654922025Y-16840050D02*
G75*
G02*
X654911975Y-16840050I-5025J0D01*
G01*
X654911975Y-16840050D02*
G75*
G02*
X654922025Y-16840050I5025J0D01*
G01*
D10*
X607416900Y-383507450D02*
G75*
G02*
X602416900Y-383507450I-2500000J0D01*
G01*
X602416900Y-383507450D02*
G75*
G02*
X607416900Y-383507450I2500000J0D01*
G01*
X740750500Y-150173650D02*
G75*
G02*
X735750500Y-150173650I-2500000J0D01*
G01*
X735750500Y-150173650D02*
G75*
G02*
X740750500Y-150173650I2500000J0D01*
G01*
X640750300Y-383507450D02*
G75*
G02*
X635750300Y-383507450I-2500000J0D01*
G01*
X635750300Y-383507450D02*
G75*
G02*
X640750300Y-383507450I2500000J0D01*
G01*
X807417300Y-166840350D02*
G75*
G02*
X802417300Y-166840350I-2500000J0D01*
G01*
X802417300Y-166840350D02*
G75*
G02*
X807417300Y-166840350I2500000J0D01*
G01*
X540750100Y-350174050D02*
G75*
G02*
X535750100Y-350174050I-2500000J0D01*
G01*
X535750100Y-350174050D02*
G75*
G02*
X540750100Y-350174050I2500000J0D01*
G01*
X590750200Y-16840050D02*
G75*
G02*
X585750200Y-16840050I-2500000J0D01*
G01*
X585750200Y-16840050D02*
G75*
G02*
X590750200Y-16840050I2500000J0D01*
G01*
X640750300Y-16840050D02*
G75*
G02*
X635750300Y-16840050I-2500000J0D01*
G01*
X635750300Y-16840050D02*
G75*
G02*
X640750300Y-16840050I2500000J0D01*
G01*
X657417000Y-216840450D02*
G75*
G02*
X652417000Y-216840450I-2500000J0D01*
G01*
X652417000Y-216840450D02*
G75*
G02*
X657417000Y-216840450I2500000J0D01*
G01*
X674083700Y-300173950D02*
G75*
G02*
X669083700Y-300173950I-2500000J0D01*
G01*
X669083700Y-300173950D02*
G75*
G02*
X674083700Y-300173950I2500000J0D01*
G01*
X757417200Y-366840750D02*
G75*
G02*
X752417200Y-366840750I-2500000J0D01*
G01*
X752417200Y-366840750D02*
G75*
G02*
X757417200Y-366840750I2500000J0D01*
G01*
D11*
X488255025Y-383507450D02*
G75*
G02*
X488244975Y-383507450I-5025J0D01*
G01*
X488244975Y-383507450D02*
G75*
G02*
X488255025Y-383507450I5025J0D01*
G01*
X704922125Y-166840350D02*
G75*
G02*
X704912075Y-166840350I-5025J0D01*
G01*
X704912075Y-166840350D02*
G75*
G02*
X704922125Y-166840350I5025J0D01*
G01*
X571588525Y-100173550D02*
G75*
G02*
X571578475Y-100173550I-5025J0D01*
G01*
X571578475Y-100173550D02*
G75*
G02*
X571588525Y-100173550I5025J0D01*
G01*
X771588925Y-266840550D02*
G75*
G02*
X771578875Y-266840550I-5025J0D01*
G01*
X771578875Y-266840550D02*
G75*
G02*
X771588925Y-266840550I5025J0D01*
G01*
X621588625Y-216840450D02*
G75*
G02*
X621578575Y-216840450I-5025J0D01*
G01*
X621578575Y-216840450D02*
G75*
G02*
X621588625Y-216840450I5025J0D01*
G01*
X571588525Y-83506850D02*
G75*
G02*
X571578475Y-83506850I-5025J0D01*
G01*
X571578475Y-83506850D02*
G75*
G02*
X571588525Y-83506850I5025J0D01*
G01*
D10*
X557416800Y-283507250D02*
G75*
G02*
X552416800Y-283507250I-2500000J0D01*
G01*
X552416800Y-283507250D02*
G75*
G02*
X557416800Y-283507250I2500000J0D01*
G01*
X557416800Y-316840650D02*
G75*
G02*
X552416800Y-316840650I-2500000J0D01*
G01*
X552416800Y-316840650D02*
G75*
G02*
X557416800Y-316840650I2500000J0D01*
G01*
X724083800Y-316840650D02*
G75*
G02*
X719083800Y-316840650I-2500000J0D01*
G01*
X719083800Y-316840650D02*
G75*
G02*
X724083800Y-316840650I2500000J0D01*
G01*
D11*
X788255625Y-133506950D02*
G75*
G02*
X788245575Y-133506950I-5025J0D01*
G01*
X788245575Y-133506950D02*
G75*
G02*
X788255625Y-133506950I5025J0D01*
G01*
X704922125Y-100173550D02*
G75*
G02*
X704912075Y-100173550I-5025J0D01*
G01*
X704912075Y-100173550D02*
G75*
G02*
X704922125Y-100173550I5025J0D01*
G01*
D10*
X774083900Y-166840350D02*
G75*
G02*
X769083900Y-166840350I-2500000J0D01*
G01*
X769083900Y-166840350D02*
G75*
G02*
X774083900Y-166840350I2500000J0D01*
G01*
D11*
X704922125Y-16840050D02*
G75*
G02*
X704912075Y-16840050I-5025J0D01*
G01*
X704912075Y-16840050D02*
G75*
G02*
X704922125Y-16840050I5025J0D01*
G01*
D10*
X740750500Y-250173850D02*
G75*
G02*
X735750500Y-250173850I-2500000J0D01*
G01*
X735750500Y-250173850D02*
G75*
G02*
X740750500Y-250173850I2500000J0D01*
G01*
X507416700Y-200173750D02*
G75*
G02*
X502416700Y-200173750I-2500000J0D01*
G01*
X502416700Y-200173750D02*
G75*
G02*
X507416700Y-200173750I2500000J0D01*
G01*
X707417100Y-366840750D02*
G75*
G02*
X702417100Y-366840750I-2500000J0D01*
G01*
X702417100Y-366840750D02*
G75*
G02*
X707417100Y-366840750I2500000J0D01*
G01*
D11*
X538255125Y-200173750D02*
G75*
G02*
X538245075Y-200173750I-5025J0D01*
G01*
X538245075Y-200173750D02*
G75*
G02*
X538255125Y-200173750I5025J0D01*
G01*
X704922125Y-333507350D02*
G75*
G02*
X704912075Y-333507350I-5025J0D01*
G01*
X704912075Y-333507350D02*
G75*
G02*
X704922125Y-333507350I5025J0D01*
G01*
X688255425Y-383507450D02*
G75*
G02*
X688245375Y-383507450I-5025J0D01*
G01*
X688245375Y-383507450D02*
G75*
G02*
X688255425Y-383507450I5025J0D01*
G01*
X604921925Y-183507050D02*
G75*
G02*
X604911875Y-183507050I-5025J0D01*
G01*
X604911875Y-183507050D02*
G75*
G02*
X604921925Y-183507050I5025J0D01*
G01*
X704922125Y-383507450D02*
G75*
G02*
X704912075Y-383507450I-5025J0D01*
G01*
X704912075Y-383507450D02*
G75*
G02*
X704922125Y-383507450I5025J0D01*
G01*
D10*
X757417200Y-300173950D02*
G75*
G02*
X752417200Y-300173950I-2500000J0D01*
G01*
X752417200Y-300173950D02*
G75*
G02*
X757417200Y-300173950I2500000J0D01*
G01*
X624083600Y-183507050D02*
G75*
G02*
X619083600Y-183507050I-2500000J0D01*
G01*
X619083600Y-183507050D02*
G75*
G02*
X624083600Y-183507050I2500000J0D01*
G01*
D11*
X788255625Y-200173750D02*
G75*
G02*
X788245575Y-200173750I-5025J0D01*
G01*
X788245575Y-200173750D02*
G75*
G02*
X788255625Y-200173750I5025J0D01*
G01*
D10*
X490750000Y-200173750D02*
G75*
G02*
X485750000Y-200173750I-2500000J0D01*
G01*
X485750000Y-200173750D02*
G75*
G02*
X490750000Y-200173750I2500000J0D01*
G01*
X757417200Y-233507150D02*
G75*
G02*
X752417200Y-233507150I-2500000J0D01*
G01*
X752417200Y-233507150D02*
G75*
G02*
X757417200Y-233507150I2500000J0D01*
G01*
X557416800Y-33506750D02*
G75*
G02*
X552416800Y-33506750I-2500000J0D01*
G01*
X552416800Y-33506750D02*
G75*
G02*
X557416800Y-33506750I2500000J0D01*
G01*
X640750300Y-216840450D02*
G75*
G02*
X635750300Y-216840450I-2500000J0D01*
G01*
X635750300Y-216840450D02*
G75*
G02*
X640750300Y-216840450I2500000J0D01*
G01*
X640750300Y-100173550D02*
G75*
G02*
X635750300Y-100173550I-2500000J0D01*
G01*
X635750300Y-100173550D02*
G75*
G02*
X640750300Y-100173550I2500000J0D01*
G01*
X790750600Y-100173550D02*
G75*
G02*
X785750600Y-100173550I-2500000J0D01*
G01*
X785750600Y-100173550D02*
G75*
G02*
X790750600Y-100173550I2500000J0D01*
G01*
X757417200Y-133506950D02*
G75*
G02*
X752417200Y-133506950I-2500000J0D01*
G01*
X752417200Y-133506950D02*
G75*
G02*
X757417200Y-133506950I2500000J0D01*
G01*
D11*
X721588825Y-300173950D02*
G75*
G02*
X721578775Y-300173950I-5025J0D01*
G01*
X721578775Y-300173950D02*
G75*
G02*
X721588825Y-300173950I5025J0D01*
G01*
D10*
X574083500Y-250173850D02*
G75*
G02*
X569083500Y-250173850I-2500000J0D01*
G01*
X569083500Y-250173850D02*
G75*
G02*
X574083500Y-250173850I2500000J0D01*
G01*
X524083400Y-316840650D02*
G75*
G02*
X519083400Y-316840650I-2500000J0D01*
G01*
X519083400Y-316840650D02*
G75*
G02*
X524083400Y-316840650I2500000J0D01*
G01*
X690750400Y-283507250D02*
G75*
G02*
X685750400Y-283507250I-2500000J0D01*
G01*
X685750400Y-283507250D02*
G75*
G02*
X690750400Y-283507250I2500000J0D01*
G01*
D11*
X538255125Y-316840650D02*
G75*
G02*
X538245075Y-316840650I-5025J0D01*
G01*
X538245075Y-316840650D02*
G75*
G02*
X538255125Y-316840650I5025J0D01*
G01*
D10*
X524083400Y-366840750D02*
G75*
G02*
X519083400Y-366840750I-2500000J0D01*
G01*
X519083400Y-366840750D02*
G75*
G02*
X524083400Y-366840750I2500000J0D01*
G01*
X590750200Y-250173850D02*
G75*
G02*
X585750200Y-250173850I-2500000J0D01*
G01*
X585750200Y-250173850D02*
G75*
G02*
X590750200Y-250173850I2500000J0D01*
G01*
D11*
X754922225Y-183507050D02*
G75*
G02*
X754912175Y-183507050I-5025J0D01*
G01*
X754912175Y-183507050D02*
G75*
G02*
X754922225Y-183507050I5025J0D01*
G01*
D10*
X507416700Y-250173850D02*
G75*
G02*
X502416700Y-250173850I-2500000J0D01*
G01*
X502416700Y-250173850D02*
G75*
G02*
X507416700Y-250173850I2500000J0D01*
G01*
D11*
X754922225Y-150173650D02*
G75*
G02*
X754912175Y-150173650I-5025J0D01*
G01*
X754912175Y-150173650D02*
G75*
G02*
X754922225Y-150173650I5025J0D01*
G01*
D10*
X590750200Y-100173550D02*
G75*
G02*
X585750200Y-100173550I-2500000J0D01*
G01*
X585750200Y-100173550D02*
G75*
G02*
X590750200Y-100173550I2500000J0D01*
G01*
D11*
X788255625Y-300173950D02*
G75*
G02*
X788245575Y-300173950I-5025J0D01*
G01*
X788245575Y-300173950D02*
G75*
G02*
X788255625Y-300173950I5025J0D01*
G01*
X504921725Y-333507350D02*
G75*
G02*
X504911675Y-333507350I-5025J0D01*
G01*
X504911675Y-333507350D02*
G75*
G02*
X504921725Y-333507350I5025J0D01*
G01*
D10*
X657417000Y-150173650D02*
G75*
G02*
X652417000Y-150173650I-2500000J0D01*
G01*
X652417000Y-150173650D02*
G75*
G02*
X657417000Y-150173650I2500000J0D01*
G01*
X524083400Y-333507350D02*
G75*
G02*
X519083400Y-333507350I-2500000J0D01*
G01*
X519083400Y-333507350D02*
G75*
G02*
X524083400Y-333507350I2500000J0D01*
G01*
D11*
X504921725Y-116840250D02*
G75*
G02*
X504911675Y-116840250I-5025J0D01*
G01*
X504911675Y-116840250D02*
G75*
G02*
X504921725Y-116840250I5025J0D01*
G01*
D10*
X490750000Y-50173450D02*
G75*
G02*
X485750000Y-50173450I-2500000J0D01*
G01*
X485750000Y-50173450D02*
G75*
G02*
X490750000Y-50173450I2500000J0D01*
G01*
X607416900Y-200173750D02*
G75*
G02*
X602416900Y-200173750I-2500000J0D01*
G01*
X602416900Y-200173750D02*
G75*
G02*
X607416900Y-200173750I2500000J0D01*
G01*
X790750600Y-350174050D02*
G75*
G02*
X785750600Y-350174050I-2500000J0D01*
G01*
X785750600Y-350174050D02*
G75*
G02*
X790750600Y-350174050I2500000J0D01*
G01*
X507416700Y-366840750D02*
G75*
G02*
X502416700Y-366840750I-2500000J0D01*
G01*
X502416700Y-366840750D02*
G75*
G02*
X507416700Y-366840750I2500000J0D01*
G01*
D11*
X504921725Y-66840150D02*
G75*
G02*
X504911675Y-66840150I-5025J0D01*
G01*
X504911675Y-66840150D02*
G75*
G02*
X504921725Y-66840150I5025J0D01*
G01*
D10*
X640750300Y-133506950D02*
G75*
G02*
X635750300Y-133506950I-2500000J0D01*
G01*
X635750300Y-133506950D02*
G75*
G02*
X640750300Y-133506950I2500000J0D01*
G01*
X490750000Y-250173850D02*
G75*
G02*
X485750000Y-250173850I-2500000J0D01*
G01*
X485750000Y-250173850D02*
G75*
G02*
X490750000Y-250173850I2500000J0D01*
G01*
D11*
X688255425Y-300173950D02*
G75*
G02*
X688245375Y-300173950I-5025J0D01*
G01*
X688245375Y-300173950D02*
G75*
G02*
X688255425Y-300173950I5025J0D01*
G01*
D10*
X524083400Y-100173550D02*
G75*
G02*
X519083400Y-100173550I-2500000J0D01*
G01*
X519083400Y-100173550D02*
G75*
G02*
X524083400Y-100173550I2500000J0D01*
G01*
X790750600Y-383507450D02*
G75*
G02*
X785750600Y-383507450I-2500000J0D01*
G01*
X785750600Y-383507450D02*
G75*
G02*
X790750600Y-383507450I2500000J0D01*
G01*
D11*
X571588525Y-316840650D02*
G75*
G02*
X571578475Y-316840650I-5025J0D01*
G01*
X571578475Y-316840650D02*
G75*
G02*
X571588525Y-316840650I5025J0D01*
G01*
D10*
X507416700Y-173350D02*
G75*
G02*
X502416700Y-173350I-2500000J0D01*
G01*
X502416700Y-173350D02*
G75*
G02*
X507416700Y-173350I2500000J0D01*
G01*
X490750000Y-150173650D02*
G75*
G02*
X485750000Y-150173650I-2500000J0D01*
G01*
X485750000Y-150173650D02*
G75*
G02*
X490750000Y-150173650I2500000J0D01*
G01*
D11*
X604921925Y-83506850D02*
G75*
G02*
X604911875Y-83506850I-5025J0D01*
G01*
X604911875Y-83506850D02*
G75*
G02*
X604921925Y-83506850I5025J0D01*
G01*
X571588525Y-150173650D02*
G75*
G02*
X571578475Y-150173650I-5025J0D01*
G01*
X571578475Y-150173650D02*
G75*
G02*
X571588525Y-150173650I5025J0D01*
G01*
X554921825Y-50173450D02*
G75*
G02*
X554911775Y-50173450I-5025J0D01*
G01*
X554911775Y-50173450D02*
G75*
G02*
X554921825Y-50173450I5025J0D01*
G01*
X604921925Y-133506950D02*
G75*
G02*
X604911875Y-133506950I-5025J0D01*
G01*
X604911875Y-133506950D02*
G75*
G02*
X604921925Y-133506950I5025J0D01*
G01*
X738255525Y-83506850D02*
G75*
G02*
X738245475Y-83506850I-5025J0D01*
G01*
X738245475Y-83506850D02*
G75*
G02*
X738255525Y-83506850I5025J0D01*
G01*
D10*
X557416800Y-66840150D02*
G75*
G02*
X552416800Y-66840150I-2500000J0D01*
G01*
X552416800Y-66840150D02*
G75*
G02*
X557416800Y-66840150I2500000J0D01*
G01*
X707417100Y-116840250D02*
G75*
G02*
X702417100Y-116840250I-2500000J0D01*
G01*
X702417100Y-116840250D02*
G75*
G02*
X707417100Y-116840250I2500000J0D01*
G01*
X724083800Y-166840350D02*
G75*
G02*
X719083800Y-166840350I-2500000J0D01*
G01*
X719083800Y-166840350D02*
G75*
G02*
X724083800Y-166840350I2500000J0D01*
G01*
D11*
X804922325Y-66840150D02*
G75*
G02*
X804912275Y-66840150I-5025J0D01*
G01*
X804912275Y-66840150D02*
G75*
G02*
X804922325Y-66840150I5025J0D01*
G01*
D10*
X790750600Y-300173950D02*
G75*
G02*
X785750600Y-300173950I-2500000J0D01*
G01*
X785750600Y-300173950D02*
G75*
G02*
X790750600Y-300173950I2500000J0D01*
G01*
D11*
X804922325Y-216840450D02*
G75*
G02*
X804912275Y-216840450I-5025J0D01*
G01*
X804912275Y-216840450D02*
G75*
G02*
X804922325Y-216840450I5025J0D01*
G01*
X671588725Y-300173950D02*
G75*
G02*
X671578675Y-300173950I-5025J0D01*
G01*
X671578675Y-300173950D02*
G75*
G02*
X671588725Y-300173950I5025J0D01*
G01*
X654922025Y-66840150D02*
G75*
G02*
X654911975Y-66840150I-5025J0D01*
G01*
X654911975Y-66840150D02*
G75*
G02*
X654922025Y-66840150I5025J0D01*
G01*
D10*
X607416900Y-283507250D02*
G75*
G02*
X602416900Y-283507250I-2500000J0D01*
G01*
X602416900Y-283507250D02*
G75*
G02*
X607416900Y-283507250I2500000J0D01*
G01*
D11*
X554921825Y-300173950D02*
G75*
G02*
X554911775Y-300173950I-5025J0D01*
G01*
X554911775Y-300173950D02*
G75*
G02*
X554921825Y-300173950I5025J0D01*
G01*
D10*
X624083600Y-16840050D02*
G75*
G02*
X619083600Y-16840050I-2500000J0D01*
G01*
X619083600Y-16840050D02*
G75*
G02*
X624083600Y-16840050I2500000J0D01*
G01*
D11*
X654922025Y-83506850D02*
G75*
G02*
X654911975Y-83506850I-5025J0D01*
G01*
X654911975Y-83506850D02*
G75*
G02*
X654922025Y-83506850I5025J0D01*
G01*
X671588725Y-250173850D02*
G75*
G02*
X671578675Y-250173850I-5025J0D01*
G01*
X671578675Y-250173850D02*
G75*
G02*
X671588725Y-250173850I5025J0D01*
G01*
X704922125Y-316840650D02*
G75*
G02*
X704912075Y-316840650I-5025J0D01*
G01*
X704912075Y-316840650D02*
G75*
G02*
X704922125Y-316840650I5025J0D01*
G01*
X721588825Y-316840650D02*
G75*
G02*
X721578775Y-316840650I-5025J0D01*
G01*
X721578775Y-316840650D02*
G75*
G02*
X721588825Y-316840650I5025J0D01*
G01*
X771588925Y-116840250D02*
G75*
G02*
X771578875Y-116840250I-5025J0D01*
G01*
X771578875Y-116840250D02*
G75*
G02*
X771588925Y-116840250I5025J0D01*
G01*
D10*
X640750300Y-173350D02*
G75*
G02*
X635750300Y-173350I-2500000J0D01*
G01*
X635750300Y-173350D02*
G75*
G02*
X640750300Y-173350I2500000J0D01*
G01*
X557416800Y-183507050D02*
G75*
G02*
X552416800Y-183507050I-2500000J0D01*
G01*
X552416800Y-183507050D02*
G75*
G02*
X557416800Y-183507050I2500000J0D01*
G01*
D11*
X688255425Y-83506850D02*
G75*
G02*
X688245375Y-83506850I-5025J0D01*
G01*
X688245375Y-83506850D02*
G75*
G02*
X688255425Y-83506850I5025J0D01*
G01*
D10*
X757417200Y-183507050D02*
G75*
G02*
X752417200Y-183507050I-2500000J0D01*
G01*
X752417200Y-183507050D02*
G75*
G02*
X757417200Y-183507050I2500000J0D01*
G01*
D11*
X504921725Y-133506950D02*
G75*
G02*
X504911675Y-133506950I-5025J0D01*
G01*
X504911675Y-133506950D02*
G75*
G02*
X504921725Y-133506950I5025J0D01*
G01*
X638255325Y-133506950D02*
G75*
G02*
X638245275Y-133506950I-5025J0D01*
G01*
X638245275Y-133506950D02*
G75*
G02*
X638255325Y-133506950I5025J0D01*
G01*
X804922325Y-200173750D02*
G75*
G02*
X804912275Y-200173750I-5025J0D01*
G01*
X804912275Y-200173750D02*
G75*
G02*
X804922325Y-200173750I5025J0D01*
G01*
X688255425Y-216840450D02*
G75*
G02*
X688245375Y-216840450I-5025J0D01*
G01*
X688245375Y-216840450D02*
G75*
G02*
X688255425Y-216840450I5025J0D01*
G01*
X654922025Y-183507050D02*
G75*
G02*
X654911975Y-183507050I-5025J0D01*
G01*
X654911975Y-183507050D02*
G75*
G02*
X654922025Y-183507050I5025J0D01*
G01*
X488255025Y-266840550D02*
G75*
G02*
X488244975Y-266840550I-5025J0D01*
G01*
X488244975Y-266840550D02*
G75*
G02*
X488255025Y-266840550I5025J0D01*
G01*
X671588725Y-233507150D02*
G75*
G02*
X671578675Y-233507150I-5025J0D01*
G01*
X671578675Y-233507150D02*
G75*
G02*
X671588725Y-233507150I5025J0D01*
G01*
D10*
X757417200Y-350174050D02*
G75*
G02*
X752417200Y-350174050I-2500000J0D01*
G01*
X752417200Y-350174050D02*
G75*
G02*
X757417200Y-350174050I2500000J0D01*
G01*
X557416800Y-216840450D02*
G75*
G02*
X552416800Y-216840450I-2500000J0D01*
G01*
X552416800Y-216840450D02*
G75*
G02*
X557416800Y-216840450I2500000J0D01*
G01*
X524083400Y-216840450D02*
G75*
G02*
X519083400Y-216840450I-2500000J0D01*
G01*
X519083400Y-216840450D02*
G75*
G02*
X524083400Y-216840450I2500000J0D01*
G01*
D11*
X521588425Y-150173650D02*
G75*
G02*
X521578375Y-150173650I-5025J0D01*
G01*
X521578375Y-150173650D02*
G75*
G02*
X521588425Y-150173650I5025J0D01*
G01*
D10*
X790750600Y-283507250D02*
G75*
G02*
X785750600Y-283507250I-2500000J0D01*
G01*
X785750600Y-283507250D02*
G75*
G02*
X790750600Y-283507250I2500000J0D01*
G01*
X507416700Y-166840350D02*
G75*
G02*
X502416700Y-166840350I-2500000J0D01*
G01*
X502416700Y-166840350D02*
G75*
G02*
X507416700Y-166840350I2500000J0D01*
G01*
D11*
X504921725Y-173350D02*
G75*
G02*
X504911675Y-173350I-5025J0D01*
G01*
X504911675Y-173350D02*
G75*
G02*
X504921725Y-173350I5025J0D01*
G01*
D10*
X507416700Y-150173650D02*
G75*
G02*
X502416700Y-150173650I-2500000J0D01*
G01*
X502416700Y-150173650D02*
G75*
G02*
X507416700Y-150173650I2500000J0D01*
G01*
X607416900Y-233507150D02*
G75*
G02*
X602416900Y-233507150I-2500000J0D01*
G01*
X602416900Y-233507150D02*
G75*
G02*
X607416900Y-233507150I2500000J0D01*
G01*
X557416800Y-350174050D02*
G75*
G02*
X552416800Y-350174050I-2500000J0D01*
G01*
X552416800Y-350174050D02*
G75*
G02*
X557416800Y-350174050I2500000J0D01*
G01*
D11*
X771588925Y-350174050D02*
G75*
G02*
X771578875Y-350174050I-5025J0D01*
G01*
X771578875Y-350174050D02*
G75*
G02*
X771588925Y-350174050I5025J0D01*
G01*
X488255025Y-200173750D02*
G75*
G02*
X488244975Y-200173750I-5025J0D01*
G01*
X488244975Y-200173750D02*
G75*
G02*
X488255025Y-200173750I5025J0D01*
G01*
D10*
X574083500Y-200173750D02*
G75*
G02*
X569083500Y-200173750I-2500000J0D01*
G01*
X569083500Y-200173750D02*
G75*
G02*
X574083500Y-200173750I2500000J0D01*
G01*
X557416800Y-383507450D02*
G75*
G02*
X552416800Y-383507450I-2500000J0D01*
G01*
X552416800Y-383507450D02*
G75*
G02*
X557416800Y-383507450I2500000J0D01*
G01*
D11*
X621588625Y-116840250D02*
G75*
G02*
X621578575Y-116840250I-5025J0D01*
G01*
X621578575Y-116840250D02*
G75*
G02*
X621588625Y-116840250I5025J0D01*
G01*
X638255325Y-200173750D02*
G75*
G02*
X638245275Y-200173750I-5025J0D01*
G01*
X638245275Y-200173750D02*
G75*
G02*
X638255325Y-200173750I5025J0D01*
G01*
X654922025Y-383507450D02*
G75*
G02*
X654911975Y-383507450I-5025J0D01*
G01*
X654911975Y-383507450D02*
G75*
G02*
X654922025Y-383507450I5025J0D01*
G01*
X754922225Y-283507250D02*
G75*
G02*
X754912175Y-283507250I-5025J0D01*
G01*
X754912175Y-283507250D02*
G75*
G02*
X754922225Y-283507250I5025J0D01*
G01*
X654922025Y-100173550D02*
G75*
G02*
X654911975Y-100173550I-5025J0D01*
G01*
X654911975Y-100173550D02*
G75*
G02*
X654922025Y-100173550I5025J0D01*
G01*
D10*
X524083400Y-200173750D02*
G75*
G02*
X519083400Y-200173750I-2500000J0D01*
G01*
X519083400Y-200173750D02*
G75*
G02*
X524083400Y-200173750I2500000J0D01*
G01*
D11*
X671588725Y-50173450D02*
G75*
G02*
X671578675Y-50173450I-5025J0D01*
G01*
X671578675Y-50173450D02*
G75*
G02*
X671588725Y-50173450I5025J0D01*
G01*
D10*
X757417200Y-16840050D02*
G75*
G02*
X752417200Y-16840050I-2500000J0D01*
G01*
X752417200Y-16840050D02*
G75*
G02*
X757417200Y-16840050I2500000J0D01*
G01*
D11*
X788255625Y-250173850D02*
G75*
G02*
X788245575Y-250173850I-5025J0D01*
G01*
X788245575Y-250173850D02*
G75*
G02*
X788255625Y-250173850I5025J0D01*
G01*
D10*
X790750600Y-116840250D02*
G75*
G02*
X785750600Y-116840250I-2500000J0D01*
G01*
X785750600Y-116840250D02*
G75*
G02*
X790750600Y-116840250I2500000J0D01*
G01*
X574083500Y-283507250D02*
G75*
G02*
X569083500Y-283507250I-2500000J0D01*
G01*
X569083500Y-283507250D02*
G75*
G02*
X574083500Y-283507250I2500000J0D01*
G01*
D11*
X738255525Y-350174050D02*
G75*
G02*
X738245475Y-350174050I-5025J0D01*
G01*
X738245475Y-350174050D02*
G75*
G02*
X738255525Y-350174050I5025J0D01*
G01*
X538255125Y-166840350D02*
G75*
G02*
X538245075Y-166840350I-5025J0D01*
G01*
X538245075Y-166840350D02*
G75*
G02*
X538255125Y-166840350I5025J0D01*
G01*
D10*
X757417200Y-200173750D02*
G75*
G02*
X752417200Y-200173750I-2500000J0D01*
G01*
X752417200Y-200173750D02*
G75*
G02*
X757417200Y-200173750I2500000J0D01*
G01*
D11*
X621588625Y-183507050D02*
G75*
G02*
X621578575Y-183507050I-5025J0D01*
G01*
X621578575Y-183507050D02*
G75*
G02*
X621588625Y-183507050I5025J0D01*
G01*
D10*
X507416700Y-233507150D02*
G75*
G02*
X502416700Y-233507150I-2500000J0D01*
G01*
X502416700Y-233507150D02*
G75*
G02*
X507416700Y-233507150I2500000J0D01*
G01*
D11*
X638255325Y-250173850D02*
G75*
G02*
X638245275Y-250173850I-5025J0D01*
G01*
X638245275Y-250173850D02*
G75*
G02*
X638255325Y-250173850I5025J0D01*
G01*
X754922225Y-216840450D02*
G75*
G02*
X754912175Y-216840450I-5025J0D01*
G01*
X754912175Y-216840450D02*
G75*
G02*
X754922225Y-216840450I5025J0D01*
G01*
D10*
X624083600Y-366840750D02*
G75*
G02*
X619083600Y-366840750I-2500000J0D01*
G01*
X619083600Y-366840750D02*
G75*
G02*
X624083600Y-366840750I2500000J0D01*
G01*
X574083500Y-266840550D02*
G75*
G02*
X569083500Y-266840550I-2500000J0D01*
G01*
X569083500Y-266840550D02*
G75*
G02*
X574083500Y-266840550I2500000J0D01*
G01*
D11*
X704922125Y-116840250D02*
G75*
G02*
X704912075Y-116840250I-5025J0D01*
G01*
X704912075Y-116840250D02*
G75*
G02*
X704922125Y-116840250I5025J0D01*
G01*
X788255625Y-283507250D02*
G75*
G02*
X788245575Y-283507250I-5025J0D01*
G01*
X788245575Y-283507250D02*
G75*
G02*
X788255625Y-283507250I5025J0D01*
G01*
D10*
X507416700Y-66840150D02*
G75*
G02*
X502416700Y-66840150I-2500000J0D01*
G01*
X502416700Y-66840150D02*
G75*
G02*
X507416700Y-66840150I2500000J0D01*
G01*
D11*
X538255125Y-366840750D02*
G75*
G02*
X538245075Y-366840750I-5025J0D01*
G01*
X538245075Y-366840750D02*
G75*
G02*
X538255125Y-366840750I5025J0D01*
G01*
D10*
X524083400Y-83506850D02*
G75*
G02*
X519083400Y-83506850I-2500000J0D01*
G01*
X519083400Y-83506850D02*
G75*
G02*
X524083400Y-83506850I2500000J0D01*
G01*
X707417100Y-66840150D02*
G75*
G02*
X702417100Y-66840150I-2500000J0D01*
G01*
X702417100Y-66840150D02*
G75*
G02*
X707417100Y-66840150I2500000J0D01*
G01*
X790750600Y-16840050D02*
G75*
G02*
X785750600Y-16840050I-2500000J0D01*
G01*
X785750600Y-16840050D02*
G75*
G02*
X790750600Y-16840050I2500000J0D01*
G01*
D11*
X504921725Y-250173850D02*
G75*
G02*
X504911675Y-250173850I-5025J0D01*
G01*
X504911675Y-250173850D02*
G75*
G02*
X504921725Y-250173850I5025J0D01*
G01*
X654922025Y-350174050D02*
G75*
G02*
X654911975Y-350174050I-5025J0D01*
G01*
X654911975Y-350174050D02*
G75*
G02*
X654922025Y-350174050I5025J0D01*
G01*
X771588925Y-66840150D02*
G75*
G02*
X771578875Y-66840150I-5025J0D01*
G01*
X771578875Y-66840150D02*
G75*
G02*
X771588925Y-66840150I5025J0D01*
G01*
X804922325Y-150173650D02*
G75*
G02*
X804912275Y-150173650I-5025J0D01*
G01*
X804912275Y-150173650D02*
G75*
G02*
X804922325Y-150173650I5025J0D01*
G01*
D10*
X740750500Y-33506750D02*
G75*
G02*
X735750500Y-33506750I-2500000J0D01*
G01*
X735750500Y-33506750D02*
G75*
G02*
X740750500Y-33506750I2500000J0D01*
G01*
X674083700Y-216840450D02*
G75*
G02*
X669083700Y-216840450I-2500000J0D01*
G01*
X669083700Y-216840450D02*
G75*
G02*
X674083700Y-216840450I2500000J0D01*
G01*
D11*
X804922325Y-116840250D02*
G75*
G02*
X804912275Y-116840250I-5025J0D01*
G01*
X804912275Y-116840250D02*
G75*
G02*
X804922325Y-116840250I5025J0D01*
G01*
D10*
X757417200Y-83506850D02*
G75*
G02*
X752417200Y-83506850I-2500000J0D01*
G01*
X752417200Y-83506850D02*
G75*
G02*
X757417200Y-83506850I2500000J0D01*
G01*
D11*
X521588425Y-200173750D02*
G75*
G02*
X521578375Y-200173750I-5025J0D01*
G01*
X521578375Y-200173750D02*
G75*
G02*
X521588425Y-200173750I5025J0D01*
G01*
X738255525Y-173350D02*
G75*
G02*
X738245475Y-173350I-5025J0D01*
G01*
X738245475Y-173350D02*
G75*
G02*
X738255525Y-173350I5025J0D01*
G01*
D10*
X657417000Y-250173850D02*
G75*
G02*
X652417000Y-250173850I-2500000J0D01*
G01*
X652417000Y-250173850D02*
G75*
G02*
X657417000Y-250173850I2500000J0D01*
G01*
D11*
X771588925Y-83506850D02*
G75*
G02*
X771578875Y-83506850I-5025J0D01*
G01*
X771578875Y-83506850D02*
G75*
G02*
X771588925Y-83506850I5025J0D01*
G01*
X621588625Y-350174050D02*
G75*
G02*
X621578575Y-350174050I-5025J0D01*
G01*
X621578575Y-350174050D02*
G75*
G02*
X621588625Y-350174050I5025J0D01*
G01*
X704922125Y-216840450D02*
G75*
G02*
X704912075Y-216840450I-5025J0D01*
G01*
X704912075Y-216840450D02*
G75*
G02*
X704922125Y-216840450I5025J0D01*
G01*
D10*
X774083900Y-83506850D02*
G75*
G02*
X769083900Y-83506850I-2500000J0D01*
G01*
X769083900Y-83506850D02*
G75*
G02*
X774083900Y-83506850I2500000J0D01*
G01*
D11*
X688255425Y-350174050D02*
G75*
G02*
X688245375Y-350174050I-5025J0D01*
G01*
X688245375Y-350174050D02*
G75*
G02*
X688255425Y-350174050I5025J0D01*
G01*
D10*
X757417200Y-316840650D02*
G75*
G02*
X752417200Y-316840650I-2500000J0D01*
G01*
X752417200Y-316840650D02*
G75*
G02*
X757417200Y-316840650I2500000J0D01*
G01*
X774083900Y-33506750D02*
G75*
G02*
X769083900Y-33506750I-2500000J0D01*
G01*
X769083900Y-33506750D02*
G75*
G02*
X774083900Y-33506750I2500000J0D01*
G01*
D11*
X538255125Y-116840250D02*
G75*
G02*
X538245075Y-116840250I-5025J0D01*
G01*
X538245075Y-116840250D02*
G75*
G02*
X538255125Y-116840250I5025J0D01*
G01*
D10*
X674083700Y-183507050D02*
G75*
G02*
X669083700Y-183507050I-2500000J0D01*
G01*
X669083700Y-183507050D02*
G75*
G02*
X674083700Y-183507050I2500000J0D01*
G01*
X740750500Y-383507450D02*
G75*
G02*
X735750500Y-383507450I-2500000J0D01*
G01*
X735750500Y-383507450D02*
G75*
G02*
X740750500Y-383507450I2500000J0D01*
G01*
X657417000Y-283507250D02*
G75*
G02*
X652417000Y-283507250I-2500000J0D01*
G01*
X652417000Y-283507250D02*
G75*
G02*
X657417000Y-283507250I2500000J0D01*
G01*
D11*
X488255025Y-316840650D02*
G75*
G02*
X488244975Y-316840650I-5025J0D01*
G01*
X488244975Y-316840650D02*
G75*
G02*
X488255025Y-316840650I5025J0D01*
G01*
X504921725Y-200173750D02*
G75*
G02*
X504911675Y-200173750I-5025J0D01*
G01*
X504911675Y-200173750D02*
G75*
G02*
X504921725Y-200173750I5025J0D01*
G01*
X488255025Y-366840750D02*
G75*
G02*
X488244975Y-366840750I-5025J0D01*
G01*
X488244975Y-366840750D02*
G75*
G02*
X488255025Y-366840750I5025J0D01*
G01*
X621588625Y-283507250D02*
G75*
G02*
X621578575Y-283507250I-5025J0D01*
G01*
X621578575Y-283507250D02*
G75*
G02*
X621588625Y-283507250I5025J0D01*
G01*
X721588825Y-83506850D02*
G75*
G02*
X721578775Y-83506850I-5025J0D01*
G01*
X721578775Y-83506850D02*
G75*
G02*
X721588825Y-83506850I5025J0D01*
G01*
D10*
X657417000Y-350174050D02*
G75*
G02*
X652417000Y-350174050I-2500000J0D01*
G01*
X652417000Y-350174050D02*
G75*
G02*
X657417000Y-350174050I2500000J0D01*
G01*
D11*
X521588425Y-83506850D02*
G75*
G02*
X521578375Y-83506850I-5025J0D01*
G01*
X521578375Y-83506850D02*
G75*
G02*
X521588425Y-83506850I5025J0D01*
G01*
D10*
X807417300Y-350174050D02*
G75*
G02*
X802417300Y-350174050I-2500000J0D01*
G01*
X802417300Y-350174050D02*
G75*
G02*
X807417300Y-350174050I2500000J0D01*
G01*
X740750500Y-200173750D02*
G75*
G02*
X735750500Y-200173750I-2500000J0D01*
G01*
X735750500Y-200173750D02*
G75*
G02*
X740750500Y-200173750I2500000J0D01*
G01*
D11*
X704922125Y-50173450D02*
G75*
G02*
X704912075Y-50173450I-5025J0D01*
G01*
X704912075Y-50173450D02*
G75*
G02*
X704922125Y-50173450I5025J0D01*
G01*
X804922325Y-283507250D02*
G75*
G02*
X804912275Y-283507250I-5025J0D01*
G01*
X804912275Y-283507250D02*
G75*
G02*
X804922325Y-283507250I5025J0D01*
G01*
X521588425Y-250173850D02*
G75*
G02*
X521578375Y-250173850I-5025J0D01*
G01*
X521578375Y-250173850D02*
G75*
G02*
X521588425Y-250173850I5025J0D01*
G01*
X721588825Y-233507150D02*
G75*
G02*
X721578775Y-233507150I-5025J0D01*
G01*
X721578775Y-233507150D02*
G75*
G02*
X721588825Y-233507150I5025J0D01*
G01*
D10*
X507416700Y-333507350D02*
G75*
G02*
X502416700Y-333507350I-2500000J0D01*
G01*
X502416700Y-333507350D02*
G75*
G02*
X507416700Y-333507350I2500000J0D01*
G01*
D11*
X638255325Y-366840750D02*
G75*
G02*
X638245275Y-366840750I-5025J0D01*
G01*
X638245275Y-366840750D02*
G75*
G02*
X638255325Y-366840750I5025J0D01*
G01*
X638255325Y-116840250D02*
G75*
G02*
X638245275Y-116840250I-5025J0D01*
G01*
X638245275Y-116840250D02*
G75*
G02*
X638255325Y-116840250I5025J0D01*
G01*
D10*
X807417300Y-33506750D02*
G75*
G02*
X802417300Y-33506750I-2500000J0D01*
G01*
X802417300Y-33506750D02*
G75*
G02*
X807417300Y-33506750I2500000J0D01*
G01*
D11*
X521588425Y-183507050D02*
G75*
G02*
X521578375Y-183507050I-5025J0D01*
G01*
X521578375Y-183507050D02*
G75*
G02*
X521588425Y-183507050I5025J0D01*
G01*
X671588725Y-133506950D02*
G75*
G02*
X671578675Y-133506950I-5025J0D01*
G01*
X671578675Y-133506950D02*
G75*
G02*
X671588725Y-133506950I5025J0D01*
G01*
D10*
X490750000Y-183507050D02*
G75*
G02*
X485750000Y-183507050I-2500000J0D01*
G01*
X485750000Y-183507050D02*
G75*
G02*
X490750000Y-183507050I2500000J0D01*
G01*
X814917300Y8160000D02*
X814917300Y-391840800D01*
X590750200Y-173350D02*
G75*
G02*
X585750200Y-173350I-2500000J0D01*
G01*
X585750200Y-173350D02*
G75*
G02*
X590750200Y-173350I2500000J0D01*
G01*
D11*
X738255525Y-266840550D02*
G75*
G02*
X738245475Y-266840550I-5025J0D01*
G01*
X738245475Y-266840550D02*
G75*
G02*
X738255525Y-266840550I5025J0D01*
G01*
X554921825Y-116840250D02*
G75*
G02*
X554911775Y-116840250I-5025J0D01*
G01*
X554911775Y-116840250D02*
G75*
G02*
X554921825Y-116840250I5025J0D01*
G01*
D10*
X590750200Y-366840750D02*
G75*
G02*
X585750200Y-366840750I-2500000J0D01*
G01*
X585750200Y-366840750D02*
G75*
G02*
X590750200Y-366840750I2500000J0D01*
G01*
D11*
X704922125Y-250173850D02*
G75*
G02*
X704912075Y-250173850I-5025J0D01*
G01*
X704912075Y-250173850D02*
G75*
G02*
X704922125Y-250173850I5025J0D01*
G01*
D10*
X540750100Y-300173950D02*
G75*
G02*
X535750100Y-300173950I-2500000J0D01*
G01*
X535750100Y-300173950D02*
G75*
G02*
X540750100Y-300173950I2500000J0D01*
G01*
X607416900Y-66840150D02*
G75*
G02*
X602416900Y-66840150I-2500000J0D01*
G01*
X602416900Y-66840150D02*
G75*
G02*
X607416900Y-66840150I2500000J0D01*
G01*
X507416700Y-183507050D02*
G75*
G02*
X502416700Y-183507050I-2500000J0D01*
G01*
X502416700Y-183507050D02*
G75*
G02*
X507416700Y-183507050I2500000J0D01*
G01*
D11*
X554921825Y-350174050D02*
G75*
G02*
X554911775Y-350174050I-5025J0D01*
G01*
X554911775Y-350174050D02*
G75*
G02*
X554921825Y-350174050I5025J0D01*
G01*
X688255425Y-366840750D02*
G75*
G02*
X688245375Y-366840750I-5025J0D01*
G01*
X688245375Y-366840750D02*
G75*
G02*
X688255425Y-366840750I5025J0D01*
G01*
D10*
X807417300Y-266840550D02*
G75*
G02*
X802417300Y-266840550I-2500000J0D01*
G01*
X802417300Y-266840550D02*
G75*
G02*
X807417300Y-266840550I2500000J0D01*
G01*
X657417000Y-200173750D02*
G75*
G02*
X652417000Y-200173750I-2500000J0D01*
G01*
X652417000Y-200173750D02*
G75*
G02*
X657417000Y-200173750I2500000J0D01*
G01*
D11*
X521588425Y-383507450D02*
G75*
G02*
X521578375Y-383507450I-5025J0D01*
G01*
X521578375Y-383507450D02*
G75*
G02*
X521588425Y-383507450I5025J0D01*
G01*
X804922325Y-33506750D02*
G75*
G02*
X804912275Y-33506750I-5025J0D01*
G01*
X804912275Y-33506750D02*
G75*
G02*
X804922325Y-33506750I5025J0D01*
G01*
D10*
X774083900Y-183507050D02*
G75*
G02*
X769083900Y-183507050I-2500000J0D01*
G01*
X769083900Y-183507050D02*
G75*
G02*
X774083900Y-183507050I2500000J0D01*
G01*
D11*
X488255025Y-83506850D02*
G75*
G02*
X488244975Y-83506850I-5025J0D01*
G01*
X488244975Y-83506850D02*
G75*
G02*
X488255025Y-83506850I5025J0D01*
G01*
D10*
X724083800Y-150173650D02*
G75*
G02*
X719083800Y-150173650I-2500000J0D01*
G01*
X719083800Y-150173650D02*
G75*
G02*
X724083800Y-150173650I2500000J0D01*
G01*
X507416700Y-100173550D02*
G75*
G02*
X502416700Y-100173550I-2500000J0D01*
G01*
X502416700Y-100173550D02*
G75*
G02*
X507416700Y-100173550I2500000J0D01*
G01*
D11*
X654922025Y-216840450D02*
G75*
G02*
X654911975Y-216840450I-5025J0D01*
G01*
X654911975Y-216840450D02*
G75*
G02*
X654922025Y-216840450I5025J0D01*
G01*
X688255425Y-173350D02*
G75*
G02*
X688245375Y-173350I-5025J0D01*
G01*
X688245375Y-173350D02*
G75*
G02*
X688255425Y-173350I5025J0D01*
G01*
D10*
X740750500Y-173350D02*
G75*
G02*
X735750500Y-173350I-2500000J0D01*
G01*
X735750500Y-173350D02*
G75*
G02*
X740750500Y-173350I2500000J0D01*
G01*
X774083900Y-350174050D02*
G75*
G02*
X769083900Y-350174050I-2500000J0D01*
G01*
X769083900Y-350174050D02*
G75*
G02*
X774083900Y-350174050I2500000J0D01*
G01*
D11*
X621588625Y-266840550D02*
G75*
G02*
X621578575Y-266840550I-5025J0D01*
G01*
X621578575Y-266840550D02*
G75*
G02*
X621588625Y-266840550I5025J0D01*
G01*
X738255525Y-183507050D02*
G75*
G02*
X738245475Y-183507050I-5025J0D01*
G01*
X738245475Y-183507050D02*
G75*
G02*
X738255525Y-183507050I5025J0D01*
G01*
X654922025Y-133506950D02*
G75*
G02*
X654911975Y-133506950I-5025J0D01*
G01*
X654911975Y-133506950D02*
G75*
G02*
X654922025Y-133506950I5025J0D01*
G01*
X738255525Y-333507350D02*
G75*
G02*
X738245475Y-333507350I-5025J0D01*
G01*
X738245475Y-333507350D02*
G75*
G02*
X738255525Y-333507350I5025J0D01*
G01*
D10*
X657417000Y-166840350D02*
G75*
G02*
X652417000Y-166840350I-2500000J0D01*
G01*
X652417000Y-166840350D02*
G75*
G02*
X657417000Y-166840350I2500000J0D01*
G01*
D11*
X504921725Y-216840450D02*
G75*
G02*
X504911675Y-216840450I-5025J0D01*
G01*
X504911675Y-216840450D02*
G75*
G02*
X504921725Y-216840450I5025J0D01*
G01*
D10*
X690750400Y-83506850D02*
G75*
G02*
X685750400Y-83506850I-2500000J0D01*
G01*
X685750400Y-83506850D02*
G75*
G02*
X690750400Y-83506850I2500000J0D01*
G01*
X774083900Y-300173950D02*
G75*
G02*
X769083900Y-300173950I-2500000J0D01*
G01*
X769083900Y-300173950D02*
G75*
G02*
X774083900Y-300173950I2500000J0D01*
G01*
X757417200Y-266840550D02*
G75*
G02*
X752417200Y-266840550I-2500000J0D01*
G01*
X752417200Y-266840550D02*
G75*
G02*
X757417200Y-266840550I2500000J0D01*
G01*
D11*
X588255225Y-200173750D02*
G75*
G02*
X588245175Y-200173750I-5025J0D01*
G01*
X588245175Y-200173750D02*
G75*
G02*
X588255225Y-200173750I5025J0D01*
G01*
D10*
X790750600Y-333507350D02*
G75*
G02*
X785750600Y-333507350I-2500000J0D01*
G01*
X785750600Y-333507350D02*
G75*
G02*
X790750600Y-333507350I2500000J0D01*
G01*
X657417000Y-83506850D02*
G75*
G02*
X652417000Y-83506850I-2500000J0D01*
G01*
X652417000Y-83506850D02*
G75*
G02*
X657417000Y-83506850I2500000J0D01*
G01*
D11*
X621588625Y-83506850D02*
G75*
G02*
X621578575Y-83506850I-5025J0D01*
G01*
X621578575Y-83506850D02*
G75*
G02*
X621588625Y-83506850I5025J0D01*
G01*
D10*
X607416900Y-33506750D02*
G75*
G02*
X602416900Y-33506750I-2500000J0D01*
G01*
X602416900Y-33506750D02*
G75*
G02*
X607416900Y-33506750I2500000J0D01*
G01*
D11*
X604921925Y-250173850D02*
G75*
G02*
X604911875Y-250173850I-5025J0D01*
G01*
X604911875Y-250173850D02*
G75*
G02*
X604921925Y-250173850I5025J0D01*
G01*
D10*
X657417000Y-173350D02*
G75*
G02*
X652417000Y-173350I-2500000J0D01*
G01*
X652417000Y-173350D02*
G75*
G02*
X657417000Y-173350I2500000J0D01*
G01*
D11*
X671588725Y-100173550D02*
G75*
G02*
X671578675Y-100173550I-5025J0D01*
G01*
X671578675Y-100173550D02*
G75*
G02*
X671588725Y-100173550I5025J0D01*
G01*
D10*
X724083800Y-233507150D02*
G75*
G02*
X719083800Y-233507150I-2500000J0D01*
G01*
X719083800Y-233507150D02*
G75*
G02*
X724083800Y-233507150I2500000J0D01*
G01*
X807417300Y-100173550D02*
G75*
G02*
X802417300Y-100173550I-2500000J0D01*
G01*
X802417300Y-100173550D02*
G75*
G02*
X807417300Y-100173550I2500000J0D01*
G01*
X690750400Y-133506950D02*
G75*
G02*
X685750400Y-133506950I-2500000J0D01*
G01*
X685750400Y-133506950D02*
G75*
G02*
X690750400Y-133506950I2500000J0D01*
G01*
D11*
X771588925Y-233507150D02*
G75*
G02*
X771578875Y-233507150I-5025J0D01*
G01*
X771578875Y-233507150D02*
G75*
G02*
X771588925Y-233507150I5025J0D01*
G01*
D10*
X807417300Y-233507150D02*
G75*
G02*
X802417300Y-233507150I-2500000J0D01*
G01*
X802417300Y-233507150D02*
G75*
G02*
X807417300Y-233507150I2500000J0D01*
G01*
X740750500Y-316840650D02*
G75*
G02*
X735750500Y-316840650I-2500000J0D01*
G01*
X735750500Y-316840650D02*
G75*
G02*
X740750500Y-316840650I2500000J0D01*
G01*
D11*
X804922325Y-250173850D02*
G75*
G02*
X804912275Y-250173850I-5025J0D01*
G01*
X804912275Y-250173850D02*
G75*
G02*
X804922325Y-250173850I5025J0D01*
G01*
X671588725Y-116840250D02*
G75*
G02*
X671578675Y-116840250I-5025J0D01*
G01*
X671578675Y-116840250D02*
G75*
G02*
X671588725Y-116840250I5025J0D01*
G01*
X604921925Y-16840050D02*
G75*
G02*
X604911875Y-16840050I-5025J0D01*
G01*
X604911875Y-16840050D02*
G75*
G02*
X604921925Y-16840050I5025J0D01*
G01*
D10*
X478250000Y-391840800D02*
X478250000Y8160000D01*
X690750400Y-200173750D02*
G75*
G02*
X685750400Y-200173750I-2500000J0D01*
G01*
X685750400Y-200173750D02*
G75*
G02*
X690750400Y-200173750I2500000J0D01*
G01*
X807417300Y-283507250D02*
G75*
G02*
X802417300Y-283507250I-2500000J0D01*
G01*
X802417300Y-283507250D02*
G75*
G02*
X807417300Y-283507250I2500000J0D01*
G01*
X624083600Y-166840350D02*
G75*
G02*
X619083600Y-166840350I-2500000J0D01*
G01*
X619083600Y-166840350D02*
G75*
G02*
X624083600Y-166840350I2500000J0D01*
G01*
X507416700Y-50173450D02*
G75*
G02*
X502416700Y-50173450I-2500000J0D01*
G01*
X502416700Y-50173450D02*
G75*
G02*
X507416700Y-50173450I2500000J0D01*
G01*
D11*
X588255225Y-350174050D02*
G75*
G02*
X588245175Y-350174050I-5025J0D01*
G01*
X588245175Y-350174050D02*
G75*
G02*
X588255225Y-350174050I5025J0D01*
G01*
X571588525Y-200173750D02*
G75*
G02*
X571578475Y-200173750I-5025J0D01*
G01*
X571578475Y-200173750D02*
G75*
G02*
X571588525Y-200173750I5025J0D01*
G01*
D10*
X707417100Y-333507350D02*
G75*
G02*
X702417100Y-333507350I-2500000J0D01*
G01*
X702417100Y-333507350D02*
G75*
G02*
X707417100Y-333507350I2500000J0D01*
G01*
X624083600Y-216840450D02*
G75*
G02*
X619083600Y-216840450I-2500000J0D01*
G01*
X619083600Y-216840450D02*
G75*
G02*
X624083600Y-216840450I2500000J0D01*
G01*
D11*
X554921825Y-316840650D02*
G75*
G02*
X554911775Y-316840650I-5025J0D01*
G01*
X554911775Y-316840650D02*
G75*
G02*
X554921825Y-316840650I5025J0D01*
G01*
X804922325Y-166840350D02*
G75*
G02*
X804912275Y-166840350I-5025J0D01*
G01*
X804912275Y-166840350D02*
G75*
G02*
X804922325Y-166840350I5025J0D01*
G01*
X721588825Y-333507350D02*
G75*
G02*
X721578775Y-333507350I-5025J0D01*
G01*
X721578775Y-333507350D02*
G75*
G02*
X721588825Y-333507350I5025J0D01*
G01*
X588255225Y-66840150D02*
G75*
G02*
X588245175Y-66840150I-5025J0D01*
G01*
X588245175Y-66840150D02*
G75*
G02*
X588255225Y-66840150I5025J0D01*
G01*
D10*
X807417300Y-383507450D02*
G75*
G02*
X802417300Y-383507450I-2500000J0D01*
G01*
X802417300Y-383507450D02*
G75*
G02*
X807417300Y-383507450I2500000J0D01*
G01*
X557416800Y-173350D02*
G75*
G02*
X552416800Y-173350I-2500000J0D01*
G01*
X552416800Y-173350D02*
G75*
G02*
X557416800Y-173350I2500000J0D01*
G01*
X674083700Y-383507450D02*
G75*
G02*
X669083700Y-383507450I-2500000J0D01*
G01*
X669083700Y-383507450D02*
G75*
G02*
X674083700Y-383507450I2500000J0D01*
G01*
D11*
X638255325Y-16840050D02*
G75*
G02*
X638245275Y-16840050I-5025J0D01*
G01*
X638245275Y-16840050D02*
G75*
G02*
X638255325Y-16840050I5025J0D01*
G01*
X671588725Y-316840650D02*
G75*
G02*
X671578675Y-316840650I-5025J0D01*
G01*
X671578675Y-316840650D02*
G75*
G02*
X671588725Y-316840650I5025J0D01*
G01*
D10*
X807417300Y-50173450D02*
G75*
G02*
X802417300Y-50173450I-2500000J0D01*
G01*
X802417300Y-50173450D02*
G75*
G02*
X807417300Y-50173450I2500000J0D01*
G01*
D11*
X504921725Y-50173450D02*
G75*
G02*
X504911675Y-50173450I-5025J0D01*
G01*
X504911675Y-50173450D02*
G75*
G02*
X504921725Y-50173450I5025J0D01*
G01*
D10*
X524083400Y-233507150D02*
G75*
G02*
X519083400Y-233507150I-2500000J0D01*
G01*
X519083400Y-233507150D02*
G75*
G02*
X524083400Y-233507150I2500000J0D01*
G01*
D11*
X488255025Y-66840150D02*
G75*
G02*
X488244975Y-66840150I-5025J0D01*
G01*
X488244975Y-66840150D02*
G75*
G02*
X488255025Y-66840150I5025J0D01*
G01*
D10*
X590750200Y-316840650D02*
G75*
G02*
X585750200Y-316840650I-2500000J0D01*
G01*
X585750200Y-316840650D02*
G75*
G02*
X590750200Y-316840650I2500000J0D01*
G01*
D11*
X754922225Y-383507450D02*
G75*
G02*
X754912175Y-383507450I-5025J0D01*
G01*
X754912175Y-383507450D02*
G75*
G02*
X754922225Y-383507450I5025J0D01*
G01*
D10*
X790750600Y-233507150D02*
G75*
G02*
X785750600Y-233507150I-2500000J0D01*
G01*
X785750600Y-233507150D02*
G75*
G02*
X790750600Y-233507150I2500000J0D01*
G01*
D11*
X521588425Y-16840050D02*
G75*
G02*
X521578375Y-16840050I-5025J0D01*
G01*
X521578375Y-16840050D02*
G75*
G02*
X521588425Y-16840050I5025J0D01*
G01*
D10*
X557416800Y-83506850D02*
G75*
G02*
X552416800Y-83506850I-2500000J0D01*
G01*
X552416800Y-83506850D02*
G75*
G02*
X557416800Y-83506850I2500000J0D01*
G01*
D11*
X654922025Y-50173450D02*
G75*
G02*
X654911975Y-50173450I-5025J0D01*
G01*
X654911975Y-50173450D02*
G75*
G02*
X654922025Y-50173450I5025J0D01*
G01*
D10*
X540750100Y-16840050D02*
G75*
G02*
X535750100Y-16840050I-2500000J0D01*
G01*
X535750100Y-16840050D02*
G75*
G02*
X540750100Y-16840050I2500000J0D01*
G01*
D11*
X604921925Y-116840250D02*
G75*
G02*
X604911875Y-116840250I-5025J0D01*
G01*
X604911875Y-116840250D02*
G75*
G02*
X604921925Y-116840250I5025J0D01*
G01*
D10*
X757417200Y-150173650D02*
G75*
G02*
X752417200Y-150173650I-2500000J0D01*
G01*
X752417200Y-150173650D02*
G75*
G02*
X757417200Y-150173650I2500000J0D01*
G01*
D11*
X804922325Y-366840750D02*
G75*
G02*
X804912275Y-366840750I-5025J0D01*
G01*
X804912275Y-366840750D02*
G75*
G02*
X804922325Y-366840750I5025J0D01*
G01*
X521588425Y-116840250D02*
G75*
G02*
X521578375Y-116840250I-5025J0D01*
G01*
X521578375Y-116840250D02*
G75*
G02*
X521588425Y-116840250I5025J0D01*
G01*
D10*
X574083500Y-383507450D02*
G75*
G02*
X569083500Y-383507450I-2500000J0D01*
G01*
X569083500Y-383507450D02*
G75*
G02*
X574083500Y-383507450I2500000J0D01*
G01*
D11*
X538255125Y-66840150D02*
G75*
G02*
X538245075Y-66840150I-5025J0D01*
G01*
X538245075Y-66840150D02*
G75*
G02*
X538255125Y-66840150I5025J0D01*
G01*
X538255125Y-233507150D02*
G75*
G02*
X538245075Y-233507150I-5025J0D01*
G01*
X538245075Y-233507150D02*
G75*
G02*
X538255125Y-233507150I5025J0D01*
G01*
X771588925Y-133506950D02*
G75*
G02*
X771578875Y-133506950I-5025J0D01*
G01*
X771578875Y-133506950D02*
G75*
G02*
X771588925Y-133506950I5025J0D01*
G01*
X538255125Y-50173450D02*
G75*
G02*
X538245075Y-50173450I-5025J0D01*
G01*
X538245075Y-50173450D02*
G75*
G02*
X538255125Y-50173450I5025J0D01*
G01*
D10*
X540750100Y-316840650D02*
G75*
G02*
X535750100Y-316840650I-2500000J0D01*
G01*
X535750100Y-316840650D02*
G75*
G02*
X540750100Y-316840650I2500000J0D01*
G01*
X524083400Y-16840050D02*
G75*
G02*
X519083400Y-16840050I-2500000J0D01*
G01*
X519083400Y-16840050D02*
G75*
G02*
X524083400Y-16840050I2500000J0D01*
G01*
D11*
X538255125Y-266840550D02*
G75*
G02*
X538245075Y-266840550I-5025J0D01*
G01*
X538245075Y-266840550D02*
G75*
G02*
X538255125Y-266840550I5025J0D01*
G01*
D10*
X590750200Y-166840350D02*
G75*
G02*
X585750200Y-166840350I-2500000J0D01*
G01*
X585750200Y-166840350D02*
G75*
G02*
X590750200Y-166840350I2500000J0D01*
G01*
X707417100Y-83506850D02*
G75*
G02*
X702417100Y-83506850I-2500000J0D01*
G01*
X702417100Y-83506850D02*
G75*
G02*
X707417100Y-83506850I2500000J0D01*
G01*
D11*
X554921825Y-333507350D02*
G75*
G02*
X554911775Y-333507350I-5025J0D01*
G01*
X554911775Y-333507350D02*
G75*
G02*
X554921825Y-333507350I5025J0D01*
G01*
X621588625Y-66840150D02*
G75*
G02*
X621578575Y-66840150I-5025J0D01*
G01*
X621578575Y-66840150D02*
G75*
G02*
X621588625Y-66840150I5025J0D01*
G01*
D10*
X690750400Y-100173550D02*
G75*
G02*
X685750400Y-100173550I-2500000J0D01*
G01*
X685750400Y-100173550D02*
G75*
G02*
X690750400Y-100173550I2500000J0D01*
G01*
D11*
X754922225Y-133506950D02*
G75*
G02*
X754912175Y-133506950I-5025J0D01*
G01*
X754912175Y-133506950D02*
G75*
G02*
X754922225Y-133506950I5025J0D01*
G01*
D10*
X690750400Y-333507350D02*
G75*
G02*
X685750400Y-333507350I-2500000J0D01*
G01*
X685750400Y-333507350D02*
G75*
G02*
X690750400Y-333507350I2500000J0D01*
G01*
X574083500Y-216840450D02*
G75*
G02*
X569083500Y-216840450I-2500000J0D01*
G01*
X569083500Y-216840450D02*
G75*
G02*
X574083500Y-216840450I2500000J0D01*
G01*
X790750600Y-266840550D02*
G75*
G02*
X785750600Y-266840550I-2500000J0D01*
G01*
X785750600Y-266840550D02*
G75*
G02*
X790750600Y-266840550I2500000J0D01*
G01*
X540750100Y-150173650D02*
G75*
G02*
X535750100Y-150173650I-2500000J0D01*
G01*
X535750100Y-150173650D02*
G75*
G02*
X540750100Y-150173650I2500000J0D01*
G01*
D11*
X721588825Y-183507050D02*
G75*
G02*
X721578775Y-183507050I-5025J0D01*
G01*
X721578775Y-183507050D02*
G75*
G02*
X721588825Y-183507050I5025J0D01*
G01*
D10*
X640750300Y-83506850D02*
G75*
G02*
X635750300Y-83506850I-2500000J0D01*
G01*
X635750300Y-83506850D02*
G75*
G02*
X640750300Y-83506850I2500000J0D01*
G01*
X724083800Y-216840450D02*
G75*
G02*
X719083800Y-216840450I-2500000J0D01*
G01*
X719083800Y-216840450D02*
G75*
G02*
X724083800Y-216840450I2500000J0D01*
G01*
D11*
X804922325Y-183507050D02*
G75*
G02*
X804912275Y-183507050I-5025J0D01*
G01*
X804912275Y-183507050D02*
G75*
G02*
X804922325Y-183507050I5025J0D01*
G01*
D10*
X507416700Y-33506750D02*
G75*
G02*
X502416700Y-33506750I-2500000J0D01*
G01*
X502416700Y-33506750D02*
G75*
G02*
X507416700Y-33506750I2500000J0D01*
G01*
D11*
X621588625Y-133506950D02*
G75*
G02*
X621578575Y-133506950I-5025J0D01*
G01*
X621578575Y-133506950D02*
G75*
G02*
X621588625Y-133506950I5025J0D01*
G01*
D10*
X490750000Y-300173950D02*
G75*
G02*
X485750000Y-300173950I-2500000J0D01*
G01*
X485750000Y-300173950D02*
G75*
G02*
X490750000Y-300173950I2500000J0D01*
G01*
D11*
X504921725Y-233507150D02*
G75*
G02*
X504911675Y-233507150I-5025J0D01*
G01*
X504911675Y-233507150D02*
G75*
G02*
X504921725Y-233507150I5025J0D01*
G01*
X538255125Y-250173850D02*
G75*
G02*
X538245075Y-250173850I-5025J0D01*
G01*
X538245075Y-250173850D02*
G75*
G02*
X538255125Y-250173850I5025J0D01*
G01*
X554921825Y-250173850D02*
G75*
G02*
X554911775Y-250173850I-5025J0D01*
G01*
X554911775Y-250173850D02*
G75*
G02*
X554921825Y-250173850I5025J0D01*
G01*
X754922225Y-333507350D02*
G75*
G02*
X754912175Y-333507350I-5025J0D01*
G01*
X754912175Y-333507350D02*
G75*
G02*
X754922225Y-333507350I5025J0D01*
G01*
D10*
X640750300Y-200173750D02*
G75*
G02*
X635750300Y-200173750I-2500000J0D01*
G01*
X635750300Y-200173750D02*
G75*
G02*
X640750300Y-200173750I2500000J0D01*
G01*
D11*
X604921925Y-316840650D02*
G75*
G02*
X604911875Y-316840650I-5025J0D01*
G01*
X604911875Y-316840650D02*
G75*
G02*
X604921925Y-316840650I5025J0D01*
G01*
D10*
X640750300Y-66840150D02*
G75*
G02*
X635750300Y-66840150I-2500000J0D01*
G01*
X635750300Y-66840150D02*
G75*
G02*
X640750300Y-66840150I2500000J0D01*
G01*
X607416900Y-333507350D02*
G75*
G02*
X602416900Y-333507350I-2500000J0D01*
G01*
X602416900Y-333507350D02*
G75*
G02*
X607416900Y-333507350I2500000J0D01*
G01*
D11*
X588255225Y-316840650D02*
G75*
G02*
X588245175Y-316840650I-5025J0D01*
G01*
X588245175Y-316840650D02*
G75*
G02*
X588255225Y-316840650I5025J0D01*
G01*
X738255525Y-200173750D02*
G75*
G02*
X738245475Y-200173750I-5025J0D01*
G01*
X738245475Y-200173750D02*
G75*
G02*
X738255525Y-200173750I5025J0D01*
G01*
D10*
X807417300Y-183507050D02*
G75*
G02*
X802417300Y-183507050I-2500000J0D01*
G01*
X802417300Y-183507050D02*
G75*
G02*
X807417300Y-183507050I2500000J0D01*
G01*
D11*
X538255125Y-33506750D02*
G75*
G02*
X538245075Y-33506750I-5025J0D01*
G01*
X538245075Y-33506750D02*
G75*
G02*
X538255125Y-33506750I5025J0D01*
G01*
X671588725Y-216840450D02*
G75*
G02*
X671578675Y-216840450I-5025J0D01*
G01*
X671578675Y-216840450D02*
G75*
G02*
X671588725Y-216840450I5025J0D01*
G01*
D10*
X557416800Y-166840350D02*
G75*
G02*
X552416800Y-166840350I-2500000J0D01*
G01*
X552416800Y-166840350D02*
G75*
G02*
X557416800Y-166840350I2500000J0D01*
G01*
X707417100Y-133506950D02*
G75*
G02*
X702417100Y-133506950I-2500000J0D01*
G01*
X702417100Y-133506950D02*
G75*
G02*
X707417100Y-133506950I2500000J0D01*
G01*
D11*
X671588725Y-183507050D02*
G75*
G02*
X671578675Y-183507050I-5025J0D01*
G01*
X671578675Y-183507050D02*
G75*
G02*
X671588725Y-183507050I5025J0D01*
G01*
X538255125Y-333507350D02*
G75*
G02*
X538245075Y-333507350I-5025J0D01*
G01*
X538245075Y-333507350D02*
G75*
G02*
X538255125Y-333507350I5025J0D01*
G01*
X704922125Y-33506750D02*
G75*
G02*
X704912075Y-33506750I-5025J0D01*
G01*
X704912075Y-33506750D02*
G75*
G02*
X704922125Y-33506750I5025J0D01*
G01*
X754922225Y-66840150D02*
G75*
G02*
X754912175Y-66840150I-5025J0D01*
G01*
X754912175Y-66840150D02*
G75*
G02*
X754922225Y-66840150I5025J0D01*
G01*
X704922125Y-300173950D02*
G75*
G02*
X704912075Y-300173950I-5025J0D01*
G01*
X704912075Y-300173950D02*
G75*
G02*
X704922125Y-300173950I5025J0D01*
G01*
X721588825Y-150173650D02*
G75*
G02*
X721578775Y-150173650I-5025J0D01*
G01*
X721578775Y-150173650D02*
G75*
G02*
X721588825Y-150173650I5025J0D01*
G01*
D10*
X557416800Y-150173650D02*
G75*
G02*
X552416800Y-150173650I-2500000J0D01*
G01*
X552416800Y-150173650D02*
G75*
G02*
X557416800Y-150173650I2500000J0D01*
G01*
X774083900Y-233507150D02*
G75*
G02*
X769083900Y-233507150I-2500000J0D01*
G01*
X769083900Y-233507150D02*
G75*
G02*
X774083900Y-233507150I2500000J0D01*
G01*
X757417200Y-33506750D02*
G75*
G02*
X752417200Y-33506750I-2500000J0D01*
G01*
X752417200Y-33506750D02*
G75*
G02*
X757417200Y-33506750I2500000J0D01*
G01*
D11*
X688255425Y-133506950D02*
G75*
G02*
X688245375Y-133506950I-5025J0D01*
G01*
X688245375Y-133506950D02*
G75*
G02*
X688255425Y-133506950I5025J0D01*
G01*
X588255225Y-233507150D02*
G75*
G02*
X588245175Y-233507150I-5025J0D01*
G01*
X588245175Y-233507150D02*
G75*
G02*
X588255225Y-233507150I5025J0D01*
G01*
X804922325Y-83506850D02*
G75*
G02*
X804912275Y-83506850I-5025J0D01*
G01*
X804912275Y-83506850D02*
G75*
G02*
X804922325Y-83506850I5025J0D01*
G01*
D10*
X740750500Y-216840450D02*
G75*
G02*
X735750500Y-216840450I-2500000J0D01*
G01*
X735750500Y-216840450D02*
G75*
G02*
X740750500Y-216840450I2500000J0D01*
G01*
D11*
X721588825Y-173350D02*
G75*
G02*
X721578775Y-173350I-5025J0D01*
G01*
X721578775Y-173350D02*
G75*
G02*
X721588825Y-173350I5025J0D01*
G01*
D10*
X740750500Y-116840250D02*
G75*
G02*
X735750500Y-116840250I-2500000J0D01*
G01*
X735750500Y-116840250D02*
G75*
G02*
X740750500Y-116840250I2500000J0D01*
G01*
D11*
X488255025Y-183507050D02*
G75*
G02*
X488244975Y-183507050I-5025J0D01*
G01*
X488244975Y-183507050D02*
G75*
G02*
X488255025Y-183507050I5025J0D01*
G01*
D10*
X590750200Y-300173950D02*
G75*
G02*
X585750200Y-300173950I-2500000J0D01*
G01*
X585750200Y-300173950D02*
G75*
G02*
X590750200Y-300173950I2500000J0D01*
G01*
D11*
X654922025Y-300173950D02*
G75*
G02*
X654911975Y-300173950I-5025J0D01*
G01*
X654911975Y-300173950D02*
G75*
G02*
X654922025Y-300173950I5025J0D01*
G01*
X571588525Y-366840750D02*
G75*
G02*
X571578475Y-366840750I-5025J0D01*
G01*
X571578475Y-366840750D02*
G75*
G02*
X571588525Y-366840750I5025J0D01*
G01*
X671588725Y-200173750D02*
G75*
G02*
X671578675Y-200173750I-5025J0D01*
G01*
X671578675Y-200173750D02*
G75*
G02*
X671588725Y-200173750I5025J0D01*
G01*
D10*
X490750000Y-333507350D02*
G75*
G02*
X485750000Y-333507350I-2500000J0D01*
G01*
X485750000Y-333507350D02*
G75*
G02*
X490750000Y-333507350I2500000J0D01*
G01*
X490750000Y-283507250D02*
G75*
G02*
X485750000Y-283507250I-2500000J0D01*
G01*
X485750000Y-283507250D02*
G75*
G02*
X490750000Y-283507250I2500000J0D01*
G01*
X724083800Y-183507050D02*
G75*
G02*
X719083800Y-183507050I-2500000J0D01*
G01*
X719083800Y-183507050D02*
G75*
G02*
X724083800Y-183507050I2500000J0D01*
G01*
X674083700Y-33506750D02*
G75*
G02*
X669083700Y-33506750I-2500000J0D01*
G01*
X669083700Y-33506750D02*
G75*
G02*
X674083700Y-33506750I2500000J0D01*
G01*
X640750300Y-166840350D02*
G75*
G02*
X635750300Y-166840350I-2500000J0D01*
G01*
X635750300Y-166840350D02*
G75*
G02*
X640750300Y-166840350I2500000J0D01*
G01*
D11*
X488255025Y-173350D02*
G75*
G02*
X488244975Y-173350I-5025J0D01*
G01*
X488244975Y-173350D02*
G75*
G02*
X488255025Y-173350I5025J0D01*
G01*
D10*
X490750000Y-316840650D02*
G75*
G02*
X485750000Y-316840650I-2500000J0D01*
G01*
X485750000Y-316840650D02*
G75*
G02*
X490750000Y-316840650I2500000J0D01*
G01*
X574083500Y-66840150D02*
G75*
G02*
X569083500Y-66840150I-2500000J0D01*
G01*
X569083500Y-66840150D02*
G75*
G02*
X574083500Y-66840150I2500000J0D01*
G01*
D11*
X504921725Y-350174050D02*
G75*
G02*
X504911675Y-350174050I-5025J0D01*
G01*
X504911675Y-350174050D02*
G75*
G02*
X504921725Y-350174050I5025J0D01*
G01*
X588255225Y-183507050D02*
G75*
G02*
X588245175Y-183507050I-5025J0D01*
G01*
X588245175Y-183507050D02*
G75*
G02*
X588255225Y-183507050I5025J0D01*
G01*
X721588825Y-266840550D02*
G75*
G02*
X721578775Y-266840550I-5025J0D01*
G01*
X721578775Y-266840550D02*
G75*
G02*
X721588825Y-266840550I5025J0D01*
G01*
X804922325Y-333507350D02*
G75*
G02*
X804912275Y-333507350I-5025J0D01*
G01*
X804912275Y-333507350D02*
G75*
G02*
X804922325Y-333507350I5025J0D01*
G01*
D10*
X557416800Y-366840750D02*
G75*
G02*
X552416800Y-366840750I-2500000J0D01*
G01*
X552416800Y-366840750D02*
G75*
G02*
X557416800Y-366840750I2500000J0D01*
G01*
D11*
X688255425Y-100173550D02*
G75*
G02*
X688245375Y-100173550I-5025J0D01*
G01*
X688245375Y-100173550D02*
G75*
G02*
X688255425Y-100173550I5025J0D01*
G01*
X671588725Y-383507450D02*
G75*
G02*
X671578675Y-383507450I-5025J0D01*
G01*
X671578675Y-383507450D02*
G75*
G02*
X671588725Y-383507450I5025J0D01*
G01*
X771588925Y-383507450D02*
G75*
G02*
X771578875Y-383507450I-5025J0D01*
G01*
X771578875Y-383507450D02*
G75*
G02*
X771588925Y-383507450I5025J0D01*
G01*
D10*
X774083900Y-333507350D02*
G75*
G02*
X769083900Y-333507350I-2500000J0D01*
G01*
X769083900Y-333507350D02*
G75*
G02*
X774083900Y-333507350I2500000J0D01*
G01*
D11*
X521588425Y-166840350D02*
G75*
G02*
X521578375Y-166840350I-5025J0D01*
G01*
X521578375Y-166840350D02*
G75*
G02*
X521588425Y-166840350I5025J0D01*
G01*
D10*
X490750000Y-350174050D02*
G75*
G02*
X485750000Y-350174050I-2500000J0D01*
G01*
X485750000Y-350174050D02*
G75*
G02*
X490750000Y-350174050I2500000J0D01*
G01*
D11*
X754922225Y-366840750D02*
G75*
G02*
X754912175Y-366840750I-5025J0D01*
G01*
X754912175Y-366840750D02*
G75*
G02*
X754922225Y-366840750I5025J0D01*
G01*
X771588925Y-173350D02*
G75*
G02*
X771578875Y-173350I-5025J0D01*
G01*
X771578875Y-173350D02*
G75*
G02*
X771588925Y-173350I5025J0D01*
G01*
D10*
X674083700Y-250173850D02*
G75*
G02*
X669083700Y-250173850I-2500000J0D01*
G01*
X669083700Y-250173850D02*
G75*
G02*
X674083700Y-250173850I2500000J0D01*
G01*
D11*
X621588625Y-250173850D02*
G75*
G02*
X621578575Y-250173850I-5025J0D01*
G01*
X621578575Y-250173850D02*
G75*
G02*
X621588625Y-250173850I5025J0D01*
G01*
D10*
X590750200Y-200173750D02*
G75*
G02*
X585750200Y-200173750I-2500000J0D01*
G01*
X585750200Y-200173750D02*
G75*
G02*
X590750200Y-200173750I2500000J0D01*
G01*
X807417300Y-83506850D02*
G75*
G02*
X802417300Y-83506850I-2500000J0D01*
G01*
X802417300Y-83506850D02*
G75*
G02*
X807417300Y-83506850I2500000J0D01*
G01*
X557416800Y-200173750D02*
G75*
G02*
X552416800Y-200173750I-2500000J0D01*
G01*
X552416800Y-200173750D02*
G75*
G02*
X557416800Y-200173750I2500000J0D01*
G01*
D11*
X754922225Y-300173950D02*
G75*
G02*
X754912175Y-300173950I-5025J0D01*
G01*
X754912175Y-300173950D02*
G75*
G02*
X754922225Y-300173950I5025J0D01*
G01*
D10*
X757417200Y-216840450D02*
G75*
G02*
X752417200Y-216840450I-2500000J0D01*
G01*
X752417200Y-216840450D02*
G75*
G02*
X757417200Y-216840450I2500000J0D01*
G01*
X557416800Y-250173850D02*
G75*
G02*
X552416800Y-250173850I-2500000J0D01*
G01*
X552416800Y-250173850D02*
G75*
G02*
X557416800Y-250173850I2500000J0D01*
G01*
D11*
X604921925Y-283507250D02*
G75*
G02*
X604911875Y-283507250I-5025J0D01*
G01*
X604911875Y-283507250D02*
G75*
G02*
X604921925Y-283507250I5025J0D01*
G01*
D10*
X624083600Y-333507350D02*
G75*
G02*
X619083600Y-333507350I-2500000J0D01*
G01*
X619083600Y-333507350D02*
G75*
G02*
X624083600Y-333507350I2500000J0D01*
G01*
D11*
X638255325Y-233507150D02*
G75*
G02*
X638245275Y-233507150I-5025J0D01*
G01*
X638245275Y-233507150D02*
G75*
G02*
X638255325Y-233507150I5025J0D01*
G01*
X638255325Y-33506750D02*
G75*
G02*
X638245275Y-33506750I-5025J0D01*
G01*
X638245275Y-33506750D02*
G75*
G02*
X638255325Y-33506750I5025J0D01*
G01*
X671588725Y-173350D02*
G75*
G02*
X671578675Y-173350I-5025J0D01*
G01*
X671578675Y-173350D02*
G75*
G02*
X671588725Y-173350I5025J0D01*
G01*
X538255125Y-350174050D02*
G75*
G02*
X538245075Y-350174050I-5025J0D01*
G01*
X538245075Y-350174050D02*
G75*
G02*
X538255125Y-350174050I5025J0D01*
G01*
D10*
X707417100Y-150173650D02*
G75*
G02*
X702417100Y-150173650I-2500000J0D01*
G01*
X702417100Y-150173650D02*
G75*
G02*
X707417100Y-150173650I2500000J0D01*
G01*
D11*
X521588425Y-50173450D02*
G75*
G02*
X521578375Y-50173450I-5025J0D01*
G01*
X521578375Y-50173450D02*
G75*
G02*
X521588425Y-50173450I5025J0D01*
G01*
X654922025Y-173350D02*
G75*
G02*
X654911975Y-173350I-5025J0D01*
G01*
X654911975Y-173350D02*
G75*
G02*
X654922025Y-173350I5025J0D01*
G01*
X604921925Y-173350D02*
G75*
G02*
X604911875Y-173350I-5025J0D01*
G01*
X604911875Y-173350D02*
G75*
G02*
X604921925Y-173350I5025J0D01*
G01*
D10*
X774083900Y-133506950D02*
G75*
G02*
X769083900Y-133506950I-2500000J0D01*
G01*
X769083900Y-133506950D02*
G75*
G02*
X774083900Y-133506950I2500000J0D01*
G01*
X574083500Y-316840650D02*
G75*
G02*
X569083500Y-316840650I-2500000J0D01*
G01*
X569083500Y-316840650D02*
G75*
G02*
X574083500Y-316840650I2500000J0D01*
G01*
X707417100Y-250173850D02*
G75*
G02*
X702417100Y-250173850I-2500000J0D01*
G01*
X702417100Y-250173850D02*
G75*
G02*
X707417100Y-250173850I2500000J0D01*
G01*
X540750100Y-116840250D02*
G75*
G02*
X535750100Y-116840250I-2500000J0D01*
G01*
X535750100Y-116840250D02*
G75*
G02*
X540750100Y-116840250I2500000J0D01*
G01*
D11*
X771588925Y-183507050D02*
G75*
G02*
X771578875Y-183507050I-5025J0D01*
G01*
X771578875Y-183507050D02*
G75*
G02*
X771588925Y-183507050I5025J0D01*
G01*
X654922025Y-333507350D02*
G75*
G02*
X654911975Y-333507350I-5025J0D01*
G01*
X654911975Y-333507350D02*
G75*
G02*
X654922025Y-333507350I5025J0D01*
G01*
D10*
X657417000Y-383507450D02*
G75*
G02*
X652417000Y-383507450I-2500000J0D01*
G01*
X652417000Y-383507450D02*
G75*
G02*
X657417000Y-383507450I2500000J0D01*
G01*
D11*
X771588925Y-333507350D02*
G75*
G02*
X771578875Y-333507350I-5025J0D01*
G01*
X771578875Y-333507350D02*
G75*
G02*
X771588925Y-333507350I5025J0D01*
G01*
D10*
X674083700Y-16840050D02*
G75*
G02*
X669083700Y-16840050I-2500000J0D01*
G01*
X669083700Y-16840050D02*
G75*
G02*
X674083700Y-16840050I2500000J0D01*
G01*
D11*
X738255525Y-233507150D02*
G75*
G02*
X738245475Y-233507150I-5025J0D01*
G01*
X738245475Y-233507150D02*
G75*
G02*
X738255525Y-233507150I5025J0D01*
G01*
X604921925Y-300173950D02*
G75*
G02*
X604911875Y-300173950I-5025J0D01*
G01*
X604911875Y-300173950D02*
G75*
G02*
X604921925Y-300173950I5025J0D01*
G01*
X721588825Y-100173550D02*
G75*
G02*
X721578775Y-100173550I-5025J0D01*
G01*
X721578775Y-100173550D02*
G75*
G02*
X721588825Y-100173550I5025J0D01*
G01*
X721588825Y-250173850D02*
G75*
G02*
X721578775Y-250173850I-5025J0D01*
G01*
X721578775Y-250173850D02*
G75*
G02*
X721588825Y-250173850I5025J0D01*
G01*
X688255425Y-316840650D02*
G75*
G02*
X688245375Y-316840650I-5025J0D01*
G01*
X688245375Y-316840650D02*
G75*
G02*
X688255425Y-316840650I5025J0D01*
G01*
D10*
X657417000Y-316840650D02*
G75*
G02*
X652417000Y-316840650I-2500000J0D01*
G01*
X652417000Y-316840650D02*
G75*
G02*
X657417000Y-316840650I2500000J0D01*
G01*
X690750400Y-183507050D02*
G75*
G02*
X685750400Y-183507050I-2500000J0D01*
G01*
X685750400Y-183507050D02*
G75*
G02*
X690750400Y-183507050I2500000J0D01*
G01*
X807417300Y-333507350D02*
G75*
G02*
X802417300Y-333507350I-2500000J0D01*
G01*
X802417300Y-333507350D02*
G75*
G02*
X807417300Y-333507350I2500000J0D01*
G01*
D11*
X588255225Y-116840250D02*
G75*
G02*
X588245175Y-116840250I-5025J0D01*
G01*
X588245175Y-116840250D02*
G75*
G02*
X588255225Y-116840250I5025J0D01*
G01*
X488255025Y-283507250D02*
G75*
G02*
X488244975Y-283507250I-5025J0D01*
G01*
X488244975Y-283507250D02*
G75*
G02*
X488255025Y-283507250I5025J0D01*
G01*
X688255425Y-16840050D02*
G75*
G02*
X688245375Y-16840050I-5025J0D01*
G01*
X688245375Y-16840050D02*
G75*
G02*
X688255425Y-16840050I5025J0D01*
G01*
X538255125Y-383507450D02*
G75*
G02*
X538245075Y-383507450I-5025J0D01*
G01*
X538245075Y-383507450D02*
G75*
G02*
X538255125Y-383507450I5025J0D01*
G01*
D10*
X624083600Y-133506950D02*
G75*
G02*
X619083600Y-133506950I-2500000J0D01*
G01*
X619083600Y-133506950D02*
G75*
G02*
X624083600Y-133506950I2500000J0D01*
G01*
X774083900Y-200173750D02*
G75*
G02*
X769083900Y-200173750I-2500000J0D01*
G01*
X769083900Y-200173750D02*
G75*
G02*
X774083900Y-200173750I2500000J0D01*
G01*
D11*
X638255325Y-316840650D02*
G75*
G02*
X638245275Y-316840650I-5025J0D01*
G01*
X638245275Y-316840650D02*
G75*
G02*
X638255325Y-316840650I5025J0D01*
G01*
D10*
X574083500Y-173350D02*
G75*
G02*
X569083500Y-173350I-2500000J0D01*
G01*
X569083500Y-173350D02*
G75*
G02*
X574083500Y-173350I2500000J0D01*
G01*
X574083500Y-300173950D02*
G75*
G02*
X569083500Y-300173950I-2500000J0D01*
G01*
X569083500Y-300173950D02*
G75*
G02*
X574083500Y-300173950I2500000J0D01*
G01*
X657417000Y-233507150D02*
G75*
G02*
X652417000Y-233507150I-2500000J0D01*
G01*
X652417000Y-233507150D02*
G75*
G02*
X657417000Y-233507150I2500000J0D01*
G01*
D11*
X771588925Y-250173850D02*
G75*
G02*
X771578875Y-250173850I-5025J0D01*
G01*
X771578875Y-250173850D02*
G75*
G02*
X771588925Y-250173850I5025J0D01*
G01*
X671588725Y-33506750D02*
G75*
G02*
X671578675Y-33506750I-5025J0D01*
G01*
X671578675Y-33506750D02*
G75*
G02*
X671588725Y-33506750I5025J0D01*
G01*
X654922025Y-33506750D02*
G75*
G02*
X654911975Y-33506750I-5025J0D01*
G01*
X654911975Y-33506750D02*
G75*
G02*
X654922025Y-33506750I5025J0D01*
G01*
X721588825Y-166840350D02*
G75*
G02*
X721578775Y-166840350I-5025J0D01*
G01*
X721578775Y-166840350D02*
G75*
G02*
X721588825Y-166840350I5025J0D01*
G01*
X571588525Y-266840550D02*
G75*
G02*
X571578475Y-266840550I-5025J0D01*
G01*
X571578475Y-266840550D02*
G75*
G02*
X571588525Y-266840550I5025J0D01*
G01*
X788255625Y-83506850D02*
G75*
G02*
X788245575Y-83506850I-5025J0D01*
G01*
X788245575Y-83506850D02*
G75*
G02*
X788255625Y-83506850I5025J0D01*
G01*
X704922125Y-173350D02*
G75*
G02*
X704912075Y-173350I-5025J0D01*
G01*
X704912075Y-173350D02*
G75*
G02*
X704922125Y-173350I5025J0D01*
G01*
D10*
X640750300Y-33506750D02*
G75*
G02*
X635750300Y-33506750I-2500000J0D01*
G01*
X635750300Y-33506750D02*
G75*
G02*
X640750300Y-33506750I2500000J0D01*
G01*
D11*
X788255625Y-383507450D02*
G75*
G02*
X788245575Y-383507450I-5025J0D01*
G01*
X788245575Y-383507450D02*
G75*
G02*
X788255625Y-383507450I5025J0D01*
G01*
D10*
X707417100Y-266840550D02*
G75*
G02*
X702417100Y-266840550I-2500000J0D01*
G01*
X702417100Y-266840550D02*
G75*
G02*
X707417100Y-266840550I2500000J0D01*
G01*
X607416900Y-173350D02*
G75*
G02*
X602416900Y-173350I-2500000J0D01*
G01*
X602416900Y-173350D02*
G75*
G02*
X607416900Y-173350I2500000J0D01*
G01*
X557416800Y-133506950D02*
G75*
G02*
X552416800Y-133506950I-2500000J0D01*
G01*
X552416800Y-133506950D02*
G75*
G02*
X557416800Y-133506950I2500000J0D01*
G01*
X657417000Y-133506950D02*
G75*
G02*
X652417000Y-133506950I-2500000J0D01*
G01*
X652417000Y-133506950D02*
G75*
G02*
X657417000Y-133506950I2500000J0D01*
G01*
D11*
X488255025Y-16840050D02*
G75*
G02*
X488244975Y-16840050I-5025J0D01*
G01*
X488244975Y-16840050D02*
G75*
G02*
X488255025Y-16840050I5025J0D01*
G01*
D10*
X607416900Y-116840250D02*
G75*
G02*
X602416900Y-116840250I-2500000J0D01*
G01*
X602416900Y-116840250D02*
G75*
G02*
X607416900Y-116840250I2500000J0D01*
G01*
X524083400Y-183507050D02*
G75*
G02*
X519083400Y-183507050I-2500000J0D01*
G01*
X519083400Y-183507050D02*
G75*
G02*
X524083400Y-183507050I2500000J0D01*
G01*
D11*
X771588925Y-200173750D02*
G75*
G02*
X771578875Y-200173750I-5025J0D01*
G01*
X771578875Y-200173750D02*
G75*
G02*
X771588925Y-200173750I5025J0D01*
G01*
X671588725Y-16840050D02*
G75*
G02*
X671578675Y-16840050I-5025J0D01*
G01*
X671578675Y-16840050D02*
G75*
G02*
X671588725Y-16840050I5025J0D01*
G01*
D10*
X674083700Y-316840650D02*
G75*
G02*
X669083700Y-316840650I-2500000J0D01*
G01*
X669083700Y-316840650D02*
G75*
G02*
X674083700Y-316840650I2500000J0D01*
G01*
D11*
X604921925Y-216840450D02*
G75*
G02*
X604911875Y-216840450I-5025J0D01*
G01*
X604911875Y-216840450D02*
G75*
G02*
X604921925Y-216840450I5025J0D01*
G01*
X771588925Y-316840650D02*
G75*
G02*
X771578875Y-316840650I-5025J0D01*
G01*
X771578875Y-316840650D02*
G75*
G02*
X771588925Y-316840650I5025J0D01*
G01*
D10*
X574083500Y-116840250D02*
G75*
G02*
X569083500Y-116840250I-2500000J0D01*
G01*
X569083500Y-116840250D02*
G75*
G02*
X574083500Y-116840250I2500000J0D01*
G01*
X657417000Y-183507050D02*
G75*
G02*
X652417000Y-183507050I-2500000J0D01*
G01*
X652417000Y-183507050D02*
G75*
G02*
X657417000Y-183507050I2500000J0D01*
G01*
X507416700Y-316840650D02*
G75*
G02*
X502416700Y-316840650I-2500000J0D01*
G01*
X502416700Y-316840650D02*
G75*
G02*
X507416700Y-316840650I2500000J0D01*
G01*
X774083900Y-383507450D02*
G75*
G02*
X769083900Y-383507450I-2500000J0D01*
G01*
X769083900Y-383507450D02*
G75*
G02*
X774083900Y-383507450I2500000J0D01*
G01*
D11*
X554921825Y-366840750D02*
G75*
G02*
X554911775Y-366840750I-5025J0D01*
G01*
X554911775Y-366840750D02*
G75*
G02*
X554921825Y-366840750I5025J0D01*
G01*
X588255225Y-166840350D02*
G75*
G02*
X588245175Y-166840350I-5025J0D01*
G01*
X588245175Y-166840350D02*
G75*
G02*
X588255225Y-166840350I5025J0D01*
G01*
X688255425Y-266840550D02*
G75*
G02*
X688245375Y-266840550I-5025J0D01*
G01*
X688245375Y-266840550D02*
G75*
G02*
X688255425Y-266840550I5025J0D01*
G01*
X554921825Y-200173750D02*
G75*
G02*
X554911775Y-200173750I-5025J0D01*
G01*
X554911775Y-200173750D02*
G75*
G02*
X554921825Y-200173750I5025J0D01*
G01*
D10*
X774083900Y-66840150D02*
G75*
G02*
X769083900Y-66840150I-2500000J0D01*
G01*
X769083900Y-66840150D02*
G75*
G02*
X774083900Y-66840150I2500000J0D01*
G01*
D11*
X754922225Y-316840650D02*
G75*
G02*
X754912175Y-316840650I-5025J0D01*
G01*
X754912175Y-316840650D02*
G75*
G02*
X754922225Y-316840650I5025J0D01*
G01*
D10*
X640750300Y-266840550D02*
G75*
G02*
X635750300Y-266840550I-2500000J0D01*
G01*
X635750300Y-266840550D02*
G75*
G02*
X640750300Y-266840550I2500000J0D01*
G01*
D11*
X504921725Y-300173950D02*
G75*
G02*
X504911675Y-300173950I-5025J0D01*
G01*
X504911675Y-300173950D02*
G75*
G02*
X504921725Y-300173950I5025J0D01*
G01*
X521588425Y-216840450D02*
G75*
G02*
X521578375Y-216840450I-5025J0D01*
G01*
X521578375Y-216840450D02*
G75*
G02*
X521588425Y-216840450I5025J0D01*
G01*
D10*
X707417100Y-183507050D02*
G75*
G02*
X702417100Y-183507050I-2500000J0D01*
G01*
X702417100Y-183507050D02*
G75*
G02*
X707417100Y-183507050I2500000J0D01*
G01*
X524083400Y-33506750D02*
G75*
G02*
X519083400Y-33506750I-2500000J0D01*
G01*
X519083400Y-33506750D02*
G75*
G02*
X524083400Y-33506750I2500000J0D01*
G01*
D11*
X738255525Y-366840750D02*
G75*
G02*
X738245475Y-366840750I-5025J0D01*
G01*
X738245475Y-366840750D02*
G75*
G02*
X738255525Y-366840750I5025J0D01*
G01*
D10*
X774083900Y-283507250D02*
G75*
G02*
X769083900Y-283507250I-2500000J0D01*
G01*
X769083900Y-283507250D02*
G75*
G02*
X774083900Y-283507250I2500000J0D01*
G01*
D11*
X504921725Y-366840750D02*
G75*
G02*
X504911675Y-366840750I-5025J0D01*
G01*
X504911675Y-366840750D02*
G75*
G02*
X504921725Y-366840750I5025J0D01*
G01*
D10*
X757417200Y-66840150D02*
G75*
G02*
X752417200Y-66840150I-2500000J0D01*
G01*
X752417200Y-66840150D02*
G75*
G02*
X757417200Y-66840150I2500000J0D01*
G01*
X724083800Y-16840050D02*
G75*
G02*
X719083800Y-16840050I-2500000J0D01*
G01*
X719083800Y-16840050D02*
G75*
G02*
X724083800Y-16840050I2500000J0D01*
G01*
X707417100Y-173350D02*
G75*
G02*
X702417100Y-173350I-2500000J0D01*
G01*
X702417100Y-173350D02*
G75*
G02*
X707417100Y-173350I2500000J0D01*
G01*
X624083600Y-116840250D02*
G75*
G02*
X619083600Y-116840250I-2500000J0D01*
G01*
X619083600Y-116840250D02*
G75*
G02*
X624083600Y-116840250I2500000J0D01*
G01*
D11*
X588255225Y-366840750D02*
G75*
G02*
X588245175Y-366840750I-5025J0D01*
G01*
X588245175Y-366840750D02*
G75*
G02*
X588255225Y-366840750I5025J0D01*
G01*
X654922025Y-166840350D02*
G75*
G02*
X654911975Y-166840350I-5025J0D01*
G01*
X654911975Y-166840350D02*
G75*
G02*
X654922025Y-166840350I5025J0D01*
G01*
X704922125Y-150173650D02*
G75*
G02*
X704912075Y-150173650I-5025J0D01*
G01*
X704912075Y-150173650D02*
G75*
G02*
X704922125Y-150173650I5025J0D01*
G01*
D10*
X490750000Y-133506950D02*
G75*
G02*
X485750000Y-133506950I-2500000J0D01*
G01*
X485750000Y-133506950D02*
G75*
G02*
X490750000Y-133506950I2500000J0D01*
G01*
X507416700Y-383507450D02*
G75*
G02*
X502416700Y-383507450I-2500000J0D01*
G01*
X502416700Y-383507450D02*
G75*
G02*
X507416700Y-383507450I2500000J0D01*
G01*
X757417200Y-250173850D02*
G75*
G02*
X752417200Y-250173850I-2500000J0D01*
G01*
X752417200Y-250173850D02*
G75*
G02*
X757417200Y-250173850I2500000J0D01*
G01*
X507416700Y-300173950D02*
G75*
G02*
X502416700Y-300173950I-2500000J0D01*
G01*
X502416700Y-300173950D02*
G75*
G02*
X507416700Y-300173950I2500000J0D01*
G01*
D11*
X554921825Y-83506850D02*
G75*
G02*
X554911775Y-83506850I-5025J0D01*
G01*
X554911775Y-83506850D02*
G75*
G02*
X554921825Y-83506850I5025J0D01*
G01*
D10*
X690750400Y-173350D02*
G75*
G02*
X685750400Y-173350I-2500000J0D01*
G01*
X685750400Y-173350D02*
G75*
G02*
X690750400Y-173350I2500000J0D01*
G01*
X574083500Y-150173650D02*
G75*
G02*
X569083500Y-150173650I-2500000J0D01*
G01*
X569083500Y-150173650D02*
G75*
G02*
X574083500Y-150173650I2500000J0D01*
G01*
D11*
X638255325Y-173350D02*
G75*
G02*
X638245275Y-173350I-5025J0D01*
G01*
X638245275Y-173350D02*
G75*
G02*
X638255325Y-173350I5025J0D01*
G01*
D10*
X657417000Y-116840250D02*
G75*
G02*
X652417000Y-116840250I-2500000J0D01*
G01*
X652417000Y-116840250D02*
G75*
G02*
X657417000Y-116840250I2500000J0D01*
G01*
X540750100Y-33506750D02*
G75*
G02*
X535750100Y-33506750I-2500000J0D01*
G01*
X535750100Y-33506750D02*
G75*
G02*
X540750100Y-33506750I2500000J0D01*
G01*
X690750400Y-33506750D02*
G75*
G02*
X685750400Y-33506750I-2500000J0D01*
G01*
X685750400Y-33506750D02*
G75*
G02*
X690750400Y-33506750I2500000J0D01*
G01*
X624083600Y-233507150D02*
G75*
G02*
X619083600Y-233507150I-2500000J0D01*
G01*
X619083600Y-233507150D02*
G75*
G02*
X624083600Y-233507150I2500000J0D01*
G01*
D11*
X504921725Y-316840650D02*
G75*
G02*
X504911675Y-316840650I-5025J0D01*
G01*
X504911675Y-316840650D02*
G75*
G02*
X504921725Y-316840650I5025J0D01*
G01*
D10*
X590750200Y-133506950D02*
G75*
G02*
X585750200Y-133506950I-2500000J0D01*
G01*
X585750200Y-133506950D02*
G75*
G02*
X590750200Y-133506950I2500000J0D01*
G01*
X524083400Y-66840150D02*
G75*
G02*
X519083400Y-66840150I-2500000J0D01*
G01*
X519083400Y-66840150D02*
G75*
G02*
X524083400Y-66840150I2500000J0D01*
G01*
D11*
X754922225Y-233507150D02*
G75*
G02*
X754912175Y-233507150I-5025J0D01*
G01*
X754912175Y-233507150D02*
G75*
G02*
X754922225Y-233507150I5025J0D01*
G01*
D10*
X507416700Y-266840550D02*
G75*
G02*
X502416700Y-266840550I-2500000J0D01*
G01*
X502416700Y-266840550D02*
G75*
G02*
X507416700Y-266840550I2500000J0D01*
G01*
X690750400Y-300173950D02*
G75*
G02*
X685750400Y-300173950I-2500000J0D01*
G01*
X685750400Y-300173950D02*
G75*
G02*
X690750400Y-300173950I2500000J0D01*
G01*
D11*
X804922325Y-173350D02*
G75*
G02*
X804912275Y-173350I-5025J0D01*
G01*
X804912275Y-173350D02*
G75*
G02*
X804922325Y-173350I5025J0D01*
G01*
X754922225Y-33506750D02*
G75*
G02*
X754912175Y-33506750I-5025J0D01*
G01*
X754912175Y-33506750D02*
G75*
G02*
X754922225Y-33506750I5025J0D01*
G01*
D10*
X774083900Y-100173550D02*
G75*
G02*
X769083900Y-100173550I-2500000J0D01*
G01*
X769083900Y-100173550D02*
G75*
G02*
X774083900Y-100173550I2500000J0D01*
G01*
X524083400Y-383507450D02*
G75*
G02*
X519083400Y-383507450I-2500000J0D01*
G01*
X519083400Y-383507450D02*
G75*
G02*
X524083400Y-383507450I2500000J0D01*
G01*
D11*
X538255125Y-173350D02*
G75*
G02*
X538245075Y-173350I-5025J0D01*
G01*
X538245075Y-173350D02*
G75*
G02*
X538255125Y-173350I5025J0D01*
G01*
X488255025Y-350174050D02*
G75*
G02*
X488244975Y-350174050I-5025J0D01*
G01*
X488244975Y-350174050D02*
G75*
G02*
X488255025Y-350174050I5025J0D01*
G01*
D10*
X490750000Y-383507450D02*
G75*
G02*
X485750000Y-383507450I-2500000J0D01*
G01*
X485750000Y-383507450D02*
G75*
G02*
X490750000Y-383507450I2500000J0D01*
G01*
X607416900Y-166840350D02*
G75*
G02*
X602416900Y-166840350I-2500000J0D01*
G01*
X602416900Y-166840350D02*
G75*
G02*
X607416900Y-166840350I2500000J0D01*
G01*
D11*
X621588625Y-33506750D02*
G75*
G02*
X621578575Y-33506750I-5025J0D01*
G01*
X621578575Y-33506750D02*
G75*
G02*
X621588625Y-33506750I5025J0D01*
G01*
X671588725Y-283507250D02*
G75*
G02*
X671578675Y-283507250I-5025J0D01*
G01*
X671578675Y-283507250D02*
G75*
G02*
X671588725Y-283507250I5025J0D01*
G01*
X654922025Y-150173650D02*
G75*
G02*
X654911975Y-150173650I-5025J0D01*
G01*
X654911975Y-150173650D02*
G75*
G02*
X654922025Y-150173650I5025J0D01*
G01*
X638255325Y-50173450D02*
G75*
G02*
X638245275Y-50173450I-5025J0D01*
G01*
X638245275Y-50173450D02*
G75*
G02*
X638255325Y-50173450I5025J0D01*
G01*
D10*
X690750400Y-383507450D02*
G75*
G02*
X685750400Y-383507450I-2500000J0D01*
G01*
X685750400Y-383507450D02*
G75*
G02*
X690750400Y-383507450I2500000J0D01*
G01*
X540750100Y-133506950D02*
G75*
G02*
X535750100Y-133506950I-2500000J0D01*
G01*
X535750100Y-133506950D02*
G75*
G02*
X540750100Y-133506950I2500000J0D01*
G01*
D11*
X588255225Y-33506750D02*
G75*
G02*
X588245175Y-33506750I-5025J0D01*
G01*
X588245175Y-33506750D02*
G75*
G02*
X588255225Y-33506750I5025J0D01*
G01*
D10*
X774083900Y-366840750D02*
G75*
G02*
X769083900Y-366840750I-2500000J0D01*
G01*
X769083900Y-366840750D02*
G75*
G02*
X774083900Y-366840750I2500000J0D01*
G01*
X624083600Y-316840650D02*
G75*
G02*
X619083600Y-316840650I-2500000J0D01*
G01*
X619083600Y-316840650D02*
G75*
G02*
X624083600Y-316840650I2500000J0D01*
G01*
X724083800Y-66840150D02*
G75*
G02*
X719083800Y-66840150I-2500000J0D01*
G01*
X719083800Y-66840150D02*
G75*
G02*
X724083800Y-66840150I2500000J0D01*
G01*
X574083500Y-366840750D02*
G75*
G02*
X569083500Y-366840750I-2500000J0D01*
G01*
X569083500Y-366840750D02*
G75*
G02*
X574083500Y-366840750I2500000J0D01*
G01*
D11*
X738255525Y-50173450D02*
G75*
G02*
X738245475Y-50173450I-5025J0D01*
G01*
X738245475Y-50173450D02*
G75*
G02*
X738255525Y-50173450I5025J0D01*
G01*
X521588425Y-173350D02*
G75*
G02*
X521578375Y-173350I-5025J0D01*
G01*
X521578375Y-173350D02*
G75*
G02*
X521588425Y-173350I5025J0D01*
G01*
X621588625Y-333507350D02*
G75*
G02*
X621578575Y-333507350I-5025J0D01*
G01*
X621578575Y-333507350D02*
G75*
G02*
X621588625Y-333507350I5025J0D01*
G01*
X588255225Y-283507250D02*
G75*
G02*
X588245175Y-283507250I-5025J0D01*
G01*
X588245175Y-283507250D02*
G75*
G02*
X588255225Y-283507250I5025J0D01*
G01*
D10*
X690750400Y-233507150D02*
G75*
G02*
X685750400Y-233507150I-2500000J0D01*
G01*
X685750400Y-233507150D02*
G75*
G02*
X690750400Y-233507150I2500000J0D01*
G01*
X790750600Y-366840750D02*
G75*
G02*
X785750600Y-366840750I-2500000J0D01*
G01*
X785750600Y-366840750D02*
G75*
G02*
X790750600Y-366840750I2500000J0D01*
G01*
X790750600Y-173350D02*
G75*
G02*
X785750600Y-173350I-2500000J0D01*
G01*
X785750600Y-173350D02*
G75*
G02*
X790750600Y-173350I2500000J0D01*
G01*
X757417200Y-173350D02*
G75*
G02*
X752417200Y-173350I-2500000J0D01*
G01*
X752417200Y-173350D02*
G75*
G02*
X757417200Y-173350I2500000J0D01*
G01*
D11*
X488255025Y-166840350D02*
G75*
G02*
X488244975Y-166840350I-5025J0D01*
G01*
X488244975Y-166840350D02*
G75*
G02*
X488255025Y-166840350I5025J0D01*
G01*
X721588825Y-66840150D02*
G75*
G02*
X721578775Y-66840150I-5025J0D01*
G01*
X721578775Y-66840150D02*
G75*
G02*
X721588825Y-66840150I5025J0D01*
G01*
X804922325Y-50173450D02*
G75*
G02*
X804912275Y-50173450I-5025J0D01*
G01*
X804912275Y-50173450D02*
G75*
G02*
X804922325Y-50173450I5025J0D01*
G01*
X671588725Y-266840550D02*
G75*
G02*
X671578675Y-266840550I-5025J0D01*
G01*
X671578675Y-266840550D02*
G75*
G02*
X671588725Y-266840550I5025J0D01*
G01*
D10*
X790750600Y-166840350D02*
G75*
G02*
X785750600Y-166840350I-2500000J0D01*
G01*
X785750600Y-166840350D02*
G75*
G02*
X790750600Y-166840350I2500000J0D01*
G01*
X674083700Y-283507250D02*
G75*
G02*
X669083700Y-283507250I-2500000J0D01*
G01*
X669083700Y-283507250D02*
G75*
G02*
X674083700Y-283507250I2500000J0D01*
G01*
D11*
X554921825Y-150173650D02*
G75*
G02*
X554911775Y-150173650I-5025J0D01*
G01*
X554911775Y-150173650D02*
G75*
G02*
X554921825Y-150173650I5025J0D01*
G01*
D10*
X524083400Y-266840550D02*
G75*
G02*
X519083400Y-266840550I-2500000J0D01*
G01*
X519083400Y-266840550D02*
G75*
G02*
X524083400Y-266840550I2500000J0D01*
G01*
D11*
X788255625Y-216840450D02*
G75*
G02*
X788245575Y-216840450I-5025J0D01*
G01*
X788245575Y-216840450D02*
G75*
G02*
X788255625Y-216840450I5025J0D01*
G01*
D10*
X607416900Y-50173450D02*
G75*
G02*
X602416900Y-50173450I-2500000J0D01*
G01*
X602416900Y-50173450D02*
G75*
G02*
X607416900Y-50173450I2500000J0D01*
G01*
D11*
X721588825Y-16840050D02*
G75*
G02*
X721578775Y-16840050I-5025J0D01*
G01*
X721578775Y-16840050D02*
G75*
G02*
X721588825Y-16840050I5025J0D01*
G01*
X721588825Y-366840750D02*
G75*
G02*
X721578775Y-366840750I-5025J0D01*
G01*
X721578775Y-366840750D02*
G75*
G02*
X721588825Y-366840750I5025J0D01*
G01*
X621588625Y-200173750D02*
G75*
G02*
X621578575Y-200173750I-5025J0D01*
G01*
X621578575Y-200173750D02*
G75*
G02*
X621588625Y-200173750I5025J0D01*
G01*
D10*
X540750100Y-233507150D02*
G75*
G02*
X535750100Y-233507150I-2500000J0D01*
G01*
X535750100Y-233507150D02*
G75*
G02*
X540750100Y-233507150I2500000J0D01*
G01*
X674083700Y-233507150D02*
G75*
G02*
X669083700Y-233507150I-2500000J0D01*
G01*
X669083700Y-233507150D02*
G75*
G02*
X674083700Y-233507150I2500000J0D01*
G01*
X490750000Y-366840750D02*
G75*
G02*
X485750000Y-366840750I-2500000J0D01*
G01*
X485750000Y-366840750D02*
G75*
G02*
X490750000Y-366840750I2500000J0D01*
G01*
X724083800Y-33506750D02*
G75*
G02*
X719083800Y-33506750I-2500000J0D01*
G01*
X719083800Y-33506750D02*
G75*
G02*
X724083800Y-33506750I2500000J0D01*
G01*
D11*
X804922325Y-100173550D02*
G75*
G02*
X804912275Y-100173550I-5025J0D01*
G01*
X804912275Y-100173550D02*
G75*
G02*
X804922325Y-100173550I5025J0D01*
G01*
X554921825Y-266840550D02*
G75*
G02*
X554911775Y-266840550I-5025J0D01*
G01*
X554911775Y-266840550D02*
G75*
G02*
X554921825Y-266840550I5025J0D01*
G01*
X621588625Y-300173950D02*
G75*
G02*
X621578575Y-300173950I-5025J0D01*
G01*
X621578575Y-300173950D02*
G75*
G02*
X621588625Y-300173950I5025J0D01*
G01*
X788255625Y-350174050D02*
G75*
G02*
X788245575Y-350174050I-5025J0D01*
G01*
X788245575Y-350174050D02*
G75*
G02*
X788255625Y-350174050I5025J0D01*
G01*
D10*
X590750200Y-50173450D02*
G75*
G02*
X585750200Y-50173450I-2500000J0D01*
G01*
X585750200Y-50173450D02*
G75*
G02*
X590750200Y-50173450I2500000J0D01*
G01*
X507416700Y-83506850D02*
G75*
G02*
X502416700Y-83506850I-2500000J0D01*
G01*
X502416700Y-83506850D02*
G75*
G02*
X507416700Y-83506850I2500000J0D01*
G01*
X590750200Y-33506750D02*
G75*
G02*
X585750200Y-33506750I-2500000J0D01*
G01*
X585750200Y-33506750D02*
G75*
G02*
X590750200Y-33506750I2500000J0D01*
G01*
D11*
X688255425Y-50173450D02*
G75*
G02*
X688245375Y-50173450I-5025J0D01*
G01*
X688245375Y-50173450D02*
G75*
G02*
X688255425Y-50173450I5025J0D01*
G01*
D10*
X757417200Y-100173550D02*
G75*
G02*
X752417200Y-100173550I-2500000J0D01*
G01*
X752417200Y-100173550D02*
G75*
G02*
X757417200Y-100173550I2500000J0D01*
G01*
X524083400Y-283507250D02*
G75*
G02*
X519083400Y-283507250I-2500000J0D01*
G01*
X519083400Y-283507250D02*
G75*
G02*
X524083400Y-283507250I2500000J0D01*
G01*
X574083500Y-100173550D02*
G75*
G02*
X569083500Y-100173550I-2500000J0D01*
G01*
X569083500Y-100173550D02*
G75*
G02*
X574083500Y-100173550I2500000J0D01*
G01*
D11*
X771588925Y-300173950D02*
G75*
G02*
X771578875Y-300173950I-5025J0D01*
G01*
X771578875Y-300173950D02*
G75*
G02*
X771588925Y-300173950I5025J0D01*
G01*
X788255625Y-150173650D02*
G75*
G02*
X788245575Y-150173650I-5025J0D01*
G01*
X788245575Y-150173650D02*
G75*
G02*
X788255625Y-150173650I5025J0D01*
G01*
D10*
X790750600Y-133506950D02*
G75*
G02*
X785750600Y-133506950I-2500000J0D01*
G01*
X785750600Y-133506950D02*
G75*
G02*
X790750600Y-133506950I2500000J0D01*
G01*
X657417000Y-66840150D02*
G75*
G02*
X652417000Y-66840150I-2500000J0D01*
G01*
X652417000Y-66840150D02*
G75*
G02*
X657417000Y-66840150I2500000J0D01*
G01*
X674083700Y-333507350D02*
G75*
G02*
X669083700Y-333507350I-2500000J0D01*
G01*
X669083700Y-333507350D02*
G75*
G02*
X674083700Y-333507350I2500000J0D01*
G01*
X740750500Y-366840750D02*
G75*
G02*
X735750500Y-366840750I-2500000J0D01*
G01*
X735750500Y-366840750D02*
G75*
G02*
X740750500Y-366840750I2500000J0D01*
G01*
X490750000Y-116840250D02*
G75*
G02*
X485750000Y-116840250I-2500000J0D01*
G01*
X485750000Y-116840250D02*
G75*
G02*
X490750000Y-116840250I2500000J0D01*
G01*
X674083700Y-350174050D02*
G75*
G02*
X669083700Y-350174050I-2500000J0D01*
G01*
X669083700Y-350174050D02*
G75*
G02*
X674083700Y-350174050I2500000J0D01*
G01*
X624083600Y-100173550D02*
G75*
G02*
X619083600Y-100173550I-2500000J0D01*
G01*
X619083600Y-100173550D02*
G75*
G02*
X624083600Y-100173550I2500000J0D01*
G01*
X540750100Y-100173550D02*
G75*
G02*
X535750100Y-100173550I-2500000J0D01*
G01*
X535750100Y-100173550D02*
G75*
G02*
X540750100Y-100173550I2500000J0D01*
G01*
D11*
X554921825Y-66840150D02*
G75*
G02*
X554911775Y-66840150I-5025J0D01*
G01*
X554911775Y-66840150D02*
G75*
G02*
X554921825Y-66840150I5025J0D01*
G01*
X688255425Y-283507250D02*
G75*
G02*
X688245375Y-283507250I-5025J0D01*
G01*
X688245375Y-283507250D02*
G75*
G02*
X688255425Y-283507250I5025J0D01*
G01*
D10*
X724083800Y-366840750D02*
G75*
G02*
X719083800Y-366840750I-2500000J0D01*
G01*
X719083800Y-366840750D02*
G75*
G02*
X724083800Y-366840750I2500000J0D01*
G01*
D11*
X754922225Y-200173750D02*
G75*
G02*
X754912175Y-200173750I-5025J0D01*
G01*
X754912175Y-200173750D02*
G75*
G02*
X754922225Y-200173750I5025J0D01*
G01*
D10*
X574083500Y-50173450D02*
G75*
G02*
X569083500Y-50173450I-2500000J0D01*
G01*
X569083500Y-50173450D02*
G75*
G02*
X574083500Y-50173450I2500000J0D01*
G01*
X690750400Y-16840050D02*
G75*
G02*
X685750400Y-16840050I-2500000J0D01*
G01*
X685750400Y-16840050D02*
G75*
G02*
X690750400Y-16840050I2500000J0D01*
G01*
X557416800Y-300173950D02*
G75*
G02*
X552416800Y-300173950I-2500000J0D01*
G01*
X552416800Y-300173950D02*
G75*
G02*
X557416800Y-300173950I2500000J0D01*
G01*
X624083600Y-33506750D02*
G75*
G02*
X619083600Y-33506750I-2500000J0D01*
G01*
X619083600Y-33506750D02*
G75*
G02*
X624083600Y-33506750I2500000J0D01*
G01*
D11*
X654922025Y-283507250D02*
G75*
G02*
X654911975Y-283507250I-5025J0D01*
G01*
X654911975Y-283507250D02*
G75*
G02*
X654922025Y-283507250I5025J0D01*
G01*
X521588425Y-300173950D02*
G75*
G02*
X521578375Y-300173950I-5025J0D01*
G01*
X521578375Y-300173950D02*
G75*
G02*
X521588425Y-300173950I5025J0D01*
G01*
X804922325Y-383507450D02*
G75*
G02*
X804912275Y-383507450I-5025J0D01*
G01*
X804912275Y-383507450D02*
G75*
G02*
X804922325Y-383507450I5025J0D01*
G01*
X604921925Y-33506750D02*
G75*
G02*
X604911875Y-33506750I-5025J0D01*
G01*
X604911875Y-33506750D02*
G75*
G02*
X604921925Y-33506750I5025J0D01*
G01*
D10*
X674083700Y-83506850D02*
G75*
G02*
X669083700Y-83506850I-2500000J0D01*
G01*
X669083700Y-83506850D02*
G75*
G02*
X674083700Y-83506850I2500000J0D01*
G01*
X557416800Y-333507350D02*
G75*
G02*
X552416800Y-333507350I-2500000J0D01*
G01*
X552416800Y-333507350D02*
G75*
G02*
X557416800Y-333507350I2500000J0D01*
G01*
X774083900Y-173350D02*
G75*
G02*
X769083900Y-173350I-2500000J0D01*
G01*
X769083900Y-173350D02*
G75*
G02*
X774083900Y-173350I2500000J0D01*
G01*
D11*
X654922025Y-316840650D02*
G75*
G02*
X654911975Y-316840650I-5025J0D01*
G01*
X654911975Y-316840650D02*
G75*
G02*
X654922025Y-316840650I5025J0D01*
G01*
X571588525Y-350174050D02*
G75*
G02*
X571578475Y-350174050I-5025J0D01*
G01*
X571578475Y-350174050D02*
G75*
G02*
X571588525Y-350174050I5025J0D01*
G01*
X538255125Y-133506950D02*
G75*
G02*
X538245075Y-133506950I-5025J0D01*
G01*
X538245075Y-133506950D02*
G75*
G02*
X538255125Y-133506950I5025J0D01*
G01*
D10*
X640750300Y-233507150D02*
G75*
G02*
X635750300Y-233507150I-2500000J0D01*
G01*
X635750300Y-233507150D02*
G75*
G02*
X640750300Y-233507150I2500000J0D01*
G01*
X590750200Y-333507350D02*
G75*
G02*
X585750200Y-333507350I-2500000J0D01*
G01*
X585750200Y-333507350D02*
G75*
G02*
X590750200Y-333507350I2500000J0D01*
G01*
X707417100Y-50173450D02*
G75*
G02*
X702417100Y-50173450I-2500000J0D01*
G01*
X702417100Y-50173450D02*
G75*
G02*
X707417100Y-50173450I2500000J0D01*
G01*
D11*
X488255025Y-150173650D02*
G75*
G02*
X488244975Y-150173650I-5025J0D01*
G01*
X488244975Y-150173650D02*
G75*
G02*
X488255025Y-150173650I5025J0D01*
G01*
D10*
X574083500Y-83506850D02*
G75*
G02*
X569083500Y-83506850I-2500000J0D01*
G01*
X569083500Y-83506850D02*
G75*
G02*
X574083500Y-83506850I2500000J0D01*
G01*
D11*
X754922225Y-173350D02*
G75*
G02*
X754912175Y-173350I-5025J0D01*
G01*
X754912175Y-173350D02*
G75*
G02*
X754922225Y-173350I5025J0D01*
G01*
D10*
X624083600Y-300173950D02*
G75*
G02*
X619083600Y-300173950I-2500000J0D01*
G01*
X619083600Y-300173950D02*
G75*
G02*
X624083600Y-300173950I2500000J0D01*
G01*
X690750400Y-316840650D02*
G75*
G02*
X685750400Y-316840650I-2500000J0D01*
G01*
X685750400Y-316840650D02*
G75*
G02*
X690750400Y-316840650I2500000J0D01*
G01*
X774083900Y-266840550D02*
G75*
G02*
X769083900Y-266840550I-2500000J0D01*
G01*
X769083900Y-266840550D02*
G75*
G02*
X774083900Y-266840550I2500000J0D01*
G01*
D11*
X788255625Y-116840250D02*
G75*
G02*
X788245575Y-116840250I-5025J0D01*
G01*
X788245575Y-116840250D02*
G75*
G02*
X788255625Y-116840250I5025J0D01*
G01*
D10*
X607416900Y-133506950D02*
G75*
G02*
X602416900Y-133506950I-2500000J0D01*
G01*
X602416900Y-133506950D02*
G75*
G02*
X607416900Y-133506950I2500000J0D01*
G01*
X707417100Y-216840450D02*
G75*
G02*
X702417100Y-216840450I-2500000J0D01*
G01*
X702417100Y-216840450D02*
G75*
G02*
X707417100Y-216840450I2500000J0D01*
G01*
D11*
X571588525Y-166840350D02*
G75*
G02*
X571578475Y-166840350I-5025J0D01*
G01*
X571578475Y-166840350D02*
G75*
G02*
X571588525Y-166840350I5025J0D01*
G01*
D10*
X607416900Y-366840750D02*
G75*
G02*
X602416900Y-366840750I-2500000J0D01*
G01*
X602416900Y-366840750D02*
G75*
G02*
X607416900Y-366840750I2500000J0D01*
G01*
X607416900Y-316840650D02*
G75*
G02*
X602416900Y-316840650I-2500000J0D01*
G01*
X602416900Y-316840650D02*
G75*
G02*
X607416900Y-316840650I2500000J0D01*
G01*
X790750600Y-66840150D02*
G75*
G02*
X785750600Y-66840150I-2500000J0D01*
G01*
X785750600Y-66840150D02*
G75*
G02*
X790750600Y-66840150I2500000J0D01*
G01*
X640750300Y-350174050D02*
G75*
G02*
X635750300Y-350174050I-2500000J0D01*
G01*
X635750300Y-350174050D02*
G75*
G02*
X640750300Y-350174050I2500000J0D01*
G01*
X574083500Y-183507050D02*
G75*
G02*
X569083500Y-183507050I-2500000J0D01*
G01*
X569083500Y-183507050D02*
G75*
G02*
X574083500Y-183507050I2500000J0D01*
G01*
X790750600Y-50173450D02*
G75*
G02*
X785750600Y-50173450I-2500000J0D01*
G01*
X785750600Y-50173450D02*
G75*
G02*
X790750600Y-50173450I2500000J0D01*
G01*
X574083500Y-233507150D02*
G75*
G02*
X569083500Y-233507150I-2500000J0D01*
G01*
X569083500Y-233507150D02*
G75*
G02*
X574083500Y-233507150I2500000J0D01*
G01*
D11*
X588255225Y-383507450D02*
G75*
G02*
X588245175Y-383507450I-5025J0D01*
G01*
X588245175Y-383507450D02*
G75*
G02*
X588255225Y-383507450I5025J0D01*
G01*
D10*
X740750500Y-350174050D02*
G75*
G02*
X735750500Y-350174050I-2500000J0D01*
G01*
X735750500Y-350174050D02*
G75*
G02*
X740750500Y-350174050I2500000J0D01*
G01*
D11*
X704922125Y-133506950D02*
G75*
G02*
X704912075Y-133506950I-5025J0D01*
G01*
X704912075Y-133506950D02*
G75*
G02*
X704922125Y-133506950I5025J0D01*
G01*
D10*
X607416900Y-300173950D02*
G75*
G02*
X602416900Y-300173950I-2500000J0D01*
G01*
X602416900Y-300173950D02*
G75*
G02*
X607416900Y-300173950I2500000J0D01*
G01*
X774083900Y-50173450D02*
G75*
G02*
X769083900Y-50173450I-2500000J0D01*
G01*
X769083900Y-50173450D02*
G75*
G02*
X774083900Y-50173450I2500000J0D01*
G01*
D11*
X738255525Y-133506950D02*
G75*
G02*
X738245475Y-133506950I-5025J0D01*
G01*
X738245475Y-133506950D02*
G75*
G02*
X738255525Y-133506950I5025J0D01*
G01*
D10*
X507416700Y-350174050D02*
G75*
G02*
X502416700Y-350174050I-2500000J0D01*
G01*
X502416700Y-350174050D02*
G75*
G02*
X507416700Y-350174050I2500000J0D01*
G01*
D11*
X604921925Y-50173450D02*
G75*
G02*
X604911875Y-50173450I-5025J0D01*
G01*
X604911875Y-50173450D02*
G75*
G02*
X604921925Y-50173450I5025J0D01*
G01*
X588255225Y-266840550D02*
G75*
G02*
X588245175Y-266840550I-5025J0D01*
G01*
X588245175Y-266840550D02*
G75*
G02*
X588255225Y-266840550I5025J0D01*
G01*
D10*
X540750100Y-250173850D02*
G75*
G02*
X535750100Y-250173850I-2500000J0D01*
G01*
X535750100Y-250173850D02*
G75*
G02*
X540750100Y-250173850I2500000J0D01*
G01*
X540750100Y-66840150D02*
G75*
G02*
X535750100Y-66840150I-2500000J0D01*
G01*
X535750100Y-66840150D02*
G75*
G02*
X540750100Y-66840150I2500000J0D01*
G01*
X790750600Y-150173650D02*
G75*
G02*
X785750600Y-150173650I-2500000J0D01*
G01*
X785750600Y-150173650D02*
G75*
G02*
X790750600Y-150173650I2500000J0D01*
G01*
D11*
X788255625Y-316840650D02*
G75*
G02*
X788245575Y-316840650I-5025J0D01*
G01*
X788245575Y-316840650D02*
G75*
G02*
X788255625Y-316840650I5025J0D01*
G01*
D10*
X607416900Y-16840050D02*
G75*
G02*
X602416900Y-16840050I-2500000J0D01*
G01*
X602416900Y-16840050D02*
G75*
G02*
X607416900Y-16840050I2500000J0D01*
G01*
D11*
X604921925Y-66840150D02*
G75*
G02*
X604911875Y-66840150I-5025J0D01*
G01*
X604911875Y-66840150D02*
G75*
G02*
X604921925Y-66840150I5025J0D01*
G01*
X554921825Y-283507250D02*
G75*
G02*
X554911775Y-283507250I-5025J0D01*
G01*
X554911775Y-283507250D02*
G75*
G02*
X554921825Y-283507250I5025J0D01*
G01*
D10*
X590750200Y-183507050D02*
G75*
G02*
X585750200Y-183507050I-2500000J0D01*
G01*
X585750200Y-183507050D02*
G75*
G02*
X590750200Y-183507050I2500000J0D01*
G01*
D11*
X638255325Y-350174050D02*
G75*
G02*
X638245275Y-350174050I-5025J0D01*
G01*
X638245275Y-350174050D02*
G75*
G02*
X638255325Y-350174050I5025J0D01*
G01*
D10*
X540750100Y-166840350D02*
G75*
G02*
X535750100Y-166840350I-2500000J0D01*
G01*
X535750100Y-166840350D02*
G75*
G02*
X540750100Y-166840350I2500000J0D01*
G01*
D11*
X538255125Y-300173950D02*
G75*
G02*
X538245075Y-300173950I-5025J0D01*
G01*
X538245075Y-300173950D02*
G75*
G02*
X538255125Y-300173950I5025J0D01*
G01*
D10*
X707417100Y-383507450D02*
G75*
G02*
X702417100Y-383507450I-2500000J0D01*
G01*
X702417100Y-383507450D02*
G75*
G02*
X707417100Y-383507450I2500000J0D01*
G01*
D11*
X554921825Y-183507050D02*
G75*
G02*
X554911775Y-183507050I-5025J0D01*
G01*
X554911775Y-183507050D02*
G75*
G02*
X554921825Y-183507050I5025J0D01*
G01*
X588255225Y-333507350D02*
G75*
G02*
X588245175Y-333507350I-5025J0D01*
G01*
X588245175Y-333507350D02*
G75*
G02*
X588255225Y-333507350I5025J0D01*
G01*
D10*
X540750100Y-366840750D02*
G75*
G02*
X535750100Y-366840750I-2500000J0D01*
G01*
X535750100Y-366840750D02*
G75*
G02*
X540750100Y-366840750I2500000J0D01*
G01*
D11*
X638255325Y-266840550D02*
G75*
G02*
X638245275Y-266840550I-5025J0D01*
G01*
X638245275Y-266840550D02*
G75*
G02*
X638255325Y-266840550I5025J0D01*
G01*
D10*
X540750100Y-383507450D02*
G75*
G02*
X535750100Y-383507450I-2500000J0D01*
G01*
X535750100Y-383507450D02*
G75*
G02*
X540750100Y-383507450I2500000J0D01*
G01*
D11*
X754922225Y-266840550D02*
G75*
G02*
X754912175Y-266840550I-5025J0D01*
G01*
X754912175Y-266840550D02*
G75*
G02*
X754922225Y-266840550I5025J0D01*
G01*
D10*
X724083800Y-83506850D02*
G75*
G02*
X719083800Y-83506850I-2500000J0D01*
G01*
X719083800Y-83506850D02*
G75*
G02*
X724083800Y-83506850I2500000J0D01*
G01*
D11*
X738255525Y-300173950D02*
G75*
G02*
X738245475Y-300173950I-5025J0D01*
G01*
X738245475Y-300173950D02*
G75*
G02*
X738255525Y-300173950I5025J0D01*
G01*
D10*
X507416700Y-133506950D02*
G75*
G02*
X502416700Y-133506950I-2500000J0D01*
G01*
X502416700Y-133506950D02*
G75*
G02*
X507416700Y-133506950I2500000J0D01*
G01*
D11*
X721588825Y-383507450D02*
G75*
G02*
X721578775Y-383507450I-5025J0D01*
G01*
X721578775Y-383507450D02*
G75*
G02*
X721588825Y-383507450I5025J0D01*
G01*
X604921925Y-166840350D02*
G75*
G02*
X604911875Y-166840350I-5025J0D01*
G01*
X604911875Y-166840350D02*
G75*
G02*
X604921925Y-166840350I5025J0D01*
G01*
X721588825Y-283507250D02*
G75*
G02*
X721578775Y-283507250I-5025J0D01*
G01*
X721578775Y-283507250D02*
G75*
G02*
X721588825Y-283507250I5025J0D01*
G01*
D10*
X507416700Y-16840050D02*
G75*
G02*
X502416700Y-16840050I-2500000J0D01*
G01*
X502416700Y-16840050D02*
G75*
G02*
X507416700Y-16840050I2500000J0D01*
G01*
X724083800Y-250173850D02*
G75*
G02*
X719083800Y-250173850I-2500000J0D01*
G01*
X719083800Y-250173850D02*
G75*
G02*
X724083800Y-250173850I2500000J0D01*
G01*
X674083700Y-66840150D02*
G75*
G02*
X669083700Y-66840150I-2500000J0D01*
G01*
X669083700Y-66840150D02*
G75*
G02*
X674083700Y-66840150I2500000J0D01*
G01*
D11*
X738255525Y-316840650D02*
G75*
G02*
X738245475Y-316840650I-5025J0D01*
G01*
X738245475Y-316840650D02*
G75*
G02*
X738255525Y-316840650I5025J0D01*
G01*
X571588525Y-66840150D02*
G75*
G02*
X571578475Y-66840150I-5025J0D01*
G01*
X571578475Y-66840150D02*
G75*
G02*
X571588525Y-66840150I5025J0D01*
G01*
D10*
X690750400Y-150173650D02*
G75*
G02*
X685750400Y-150173650I-2500000J0D01*
G01*
X685750400Y-150173650D02*
G75*
G02*
X690750400Y-150173650I2500000J0D01*
G01*
X590750200Y-116840250D02*
G75*
G02*
X585750200Y-116840250I-2500000J0D01*
G01*
X585750200Y-116840250D02*
G75*
G02*
X590750200Y-116840250I2500000J0D01*
G01*
X574083500Y-16840050D02*
G75*
G02*
X569083500Y-16840050I-2500000J0D01*
G01*
X569083500Y-16840050D02*
G75*
G02*
X574083500Y-16840050I2500000J0D01*
G01*
X490750000Y-100173550D02*
G75*
G02*
X485750000Y-100173550I-2500000J0D01*
G01*
X485750000Y-100173550D02*
G75*
G02*
X490750000Y-100173550I2500000J0D01*
G01*
X690750400Y-166840350D02*
G75*
G02*
X685750400Y-166840350I-2500000J0D01*
G01*
X685750400Y-166840350D02*
G75*
G02*
X690750400Y-166840350I2500000J0D01*
G01*
D11*
X521588425Y-266840550D02*
G75*
G02*
X521578375Y-266840550I-5025J0D01*
G01*
X521578375Y-266840550D02*
G75*
G02*
X521588425Y-266840550I5025J0D01*
G01*
X688255425Y-233507150D02*
G75*
G02*
X688245375Y-233507150I-5025J0D01*
G01*
X688245375Y-233507150D02*
G75*
G02*
X688255425Y-233507150I5025J0D01*
G01*
X788255625Y-233507150D02*
G75*
G02*
X788245575Y-233507150I-5025J0D01*
G01*
X788245575Y-233507150D02*
G75*
G02*
X788255625Y-233507150I5025J0D01*
G01*
D10*
X740750500Y-83506850D02*
G75*
G02*
X735750500Y-83506850I-2500000J0D01*
G01*
X735750500Y-83506850D02*
G75*
G02*
X740750500Y-83506850I2500000J0D01*
G01*
D11*
X638255325Y-166840350D02*
G75*
G02*
X638245275Y-166840350I-5025J0D01*
G01*
X638245275Y-166840350D02*
G75*
G02*
X638255325Y-166840350I5025J0D01*
G01*
D10*
X690750400Y-250173850D02*
G75*
G02*
X685750400Y-250173850I-2500000J0D01*
G01*
X685750400Y-250173850D02*
G75*
G02*
X690750400Y-250173850I2500000J0D01*
G01*
X757417200Y-50173450D02*
G75*
G02*
X752417200Y-50173450I-2500000J0D01*
G01*
X752417200Y-50173450D02*
G75*
G02*
X757417200Y-50173450I2500000J0D01*
G01*
D11*
X504921725Y-166840350D02*
G75*
G02*
X504911675Y-166840350I-5025J0D01*
G01*
X504911675Y-166840350D02*
G75*
G02*
X504921725Y-166840350I5025J0D01*
G01*
X504921725Y-183507050D02*
G75*
G02*
X504911675Y-183507050I-5025J0D01*
G01*
X504911675Y-183507050D02*
G75*
G02*
X504921725Y-183507050I5025J0D01*
G01*
D10*
X724083800Y-100173550D02*
G75*
G02*
X719083800Y-100173550I-2500000J0D01*
G01*
X719083800Y-100173550D02*
G75*
G02*
X724083800Y-100173550I2500000J0D01*
G01*
D11*
X488255025Y-216840450D02*
G75*
G02*
X488244975Y-216840450I-5025J0D01*
G01*
X488244975Y-216840450D02*
G75*
G02*
X488255025Y-216840450I5025J0D01*
G01*
X588255225Y-133506950D02*
G75*
G02*
X588245175Y-133506950I-5025J0D01*
G01*
X588245175Y-133506950D02*
G75*
G02*
X588255225Y-133506950I5025J0D01*
G01*
X754922225Y-116840250D02*
G75*
G02*
X754912175Y-116840250I-5025J0D01*
G01*
X754912175Y-116840250D02*
G75*
G02*
X754922225Y-116840250I5025J0D01*
G01*
X554921825Y-216840450D02*
G75*
G02*
X554911775Y-216840450I-5025J0D01*
G01*
X554911775Y-216840450D02*
G75*
G02*
X554921825Y-216840450I5025J0D01*
G01*
D10*
X724083800Y-50173450D02*
G75*
G02*
X719083800Y-50173450I-2500000J0D01*
G01*
X719083800Y-50173450D02*
G75*
G02*
X724083800Y-50173450I2500000J0D01*
G01*
X574083500Y-350174050D02*
G75*
G02*
X569083500Y-350174050I-2500000J0D01*
G01*
X569083500Y-350174050D02*
G75*
G02*
X574083500Y-350174050I2500000J0D01*
G01*
D11*
X754922225Y-250173850D02*
G75*
G02*
X754912175Y-250173850I-5025J0D01*
G01*
X754912175Y-250173850D02*
G75*
G02*
X754922225Y-250173850I5025J0D01*
G01*
D10*
X740750500Y-183507050D02*
G75*
G02*
X735750500Y-183507050I-2500000J0D01*
G01*
X735750500Y-183507050D02*
G75*
G02*
X740750500Y-183507050I2500000J0D01*
G01*
X807417300Y-300173950D02*
G75*
G02*
X802417300Y-300173950I-2500000J0D01*
G01*
X802417300Y-300173950D02*
G75*
G02*
X807417300Y-300173950I2500000J0D01*
G01*
D11*
X638255325Y-66840150D02*
G75*
G02*
X638245275Y-66840150I-5025J0D01*
G01*
X638245275Y-66840150D02*
G75*
G02*
X638255325Y-66840150I5025J0D01*
G01*
D10*
X724083800Y-173350D02*
G75*
G02*
X719083800Y-173350I-2500000J0D01*
G01*
X719083800Y-173350D02*
G75*
G02*
X724083800Y-173350I2500000J0D01*
G01*
X740750500Y-233507150D02*
G75*
G02*
X735750500Y-233507150I-2500000J0D01*
G01*
X735750500Y-233507150D02*
G75*
G02*
X740750500Y-233507150I2500000J0D01*
G01*
X540750100Y-200173750D02*
G75*
G02*
X535750100Y-200173750I-2500000J0D01*
G01*
X535750100Y-200173750D02*
G75*
G02*
X540750100Y-200173750I2500000J0D01*
G01*
D11*
X671588725Y-166840350D02*
G75*
G02*
X671578675Y-166840350I-5025J0D01*
G01*
X671578675Y-166840350D02*
G75*
G02*
X671588725Y-166840350I5025J0D01*
G01*
D10*
X524083400Y-150173650D02*
G75*
G02*
X519083400Y-150173650I-2500000J0D01*
G01*
X519083400Y-150173650D02*
G75*
G02*
X524083400Y-150173650I2500000J0D01*
G01*
D11*
X771588925Y-166840350D02*
G75*
G02*
X771578875Y-166840350I-5025J0D01*
G01*
X771578875Y-166840350D02*
G75*
G02*
X771588925Y-166840350I5025J0D01*
G01*
X588255225Y-50173450D02*
G75*
G02*
X588245175Y-50173450I-5025J0D01*
G01*
X588245175Y-50173450D02*
G75*
G02*
X588255225Y-50173450I5025J0D01*
G01*
D10*
X740750500Y-300173950D02*
G75*
G02*
X735750500Y-300173950I-2500000J0D01*
G01*
X735750500Y-300173950D02*
G75*
G02*
X740750500Y-300173950I2500000J0D01*
G01*
X657417000Y-333507350D02*
G75*
G02*
X652417000Y-333507350I-2500000J0D01*
G01*
X652417000Y-333507350D02*
G75*
G02*
X657417000Y-333507350I2500000J0D01*
G01*
X790750600Y-250173850D02*
G75*
G02*
X785750600Y-250173850I-2500000J0D01*
G01*
X785750600Y-250173850D02*
G75*
G02*
X790750600Y-250173850I2500000J0D01*
G01*
D11*
X621588625Y-366840750D02*
G75*
G02*
X621578575Y-366840750I-5025J0D01*
G01*
X621578575Y-366840750D02*
G75*
G02*
X621588625Y-366840750I5025J0D01*
G01*
D10*
X490750000Y-83506850D02*
G75*
G02*
X485750000Y-83506850I-2500000J0D01*
G01*
X485750000Y-83506850D02*
G75*
G02*
X490750000Y-83506850I2500000J0D01*
G01*
X524083400Y-173350D02*
G75*
G02*
X519083400Y-173350I-2500000J0D01*
G01*
X519083400Y-173350D02*
G75*
G02*
X524083400Y-173350I2500000J0D01*
G01*
X674083700Y-133506950D02*
G75*
G02*
X669083700Y-133506950I-2500000J0D01*
G01*
X669083700Y-133506950D02*
G75*
G02*
X674083700Y-133506950I2500000J0D01*
G01*
D11*
X554921825Y-166840350D02*
G75*
G02*
X554911775Y-166840350I-5025J0D01*
G01*
X554911775Y-166840350D02*
G75*
G02*
X554921825Y-166840350I5025J0D01*
G01*
X704922125Y-66840150D02*
G75*
G02*
X704912075Y-66840150I-5025J0D01*
G01*
X704912075Y-66840150D02*
G75*
G02*
X704922125Y-66840150I5025J0D01*
G01*
X588255225Y-173350D02*
G75*
G02*
X588245175Y-173350I-5025J0D01*
G01*
X588245175Y-173350D02*
G75*
G02*
X588255225Y-173350I5025J0D01*
G01*
X754922225Y-83506850D02*
G75*
G02*
X754912175Y-83506850I-5025J0D01*
G01*
X754912175Y-83506850D02*
G75*
G02*
X754922225Y-83506850I5025J0D01*
G01*
X588255225Y-216840450D02*
G75*
G02*
X588245175Y-216840450I-5025J0D01*
G01*
X588245175Y-216840450D02*
G75*
G02*
X588255225Y-216840450I5025J0D01*
G01*
X538255125Y-83506850D02*
G75*
G02*
X538245075Y-83506850I-5025J0D01*
G01*
X538245075Y-83506850D02*
G75*
G02*
X538255125Y-83506850I5025J0D01*
G01*
D10*
X590750200Y-233507150D02*
G75*
G02*
X585750200Y-233507150I-2500000J0D01*
G01*
X585750200Y-233507150D02*
G75*
G02*
X590750200Y-233507150I2500000J0D01*
G01*
D11*
X654922025Y-250173850D02*
G75*
G02*
X654911975Y-250173850I-5025J0D01*
G01*
X654911975Y-250173850D02*
G75*
G02*
X654922025Y-250173850I5025J0D01*
G01*
D10*
X540750100Y-283507250D02*
G75*
G02*
X535750100Y-283507250I-2500000J0D01*
G01*
X535750100Y-283507250D02*
G75*
G02*
X540750100Y-283507250I2500000J0D01*
G01*
D11*
X538255125Y-16840050D02*
G75*
G02*
X538245075Y-16840050I-5025J0D01*
G01*
X538245075Y-16840050D02*
G75*
G02*
X538255125Y-16840050I5025J0D01*
G01*
X704922125Y-83506850D02*
G75*
G02*
X704912075Y-83506850I-5025J0D01*
G01*
X704912075Y-83506850D02*
G75*
G02*
X704922125Y-83506850I5025J0D01*
G01*
X771588925Y-50173450D02*
G75*
G02*
X771578875Y-50173450I-5025J0D01*
G01*
X771578875Y-50173450D02*
G75*
G02*
X771588925Y-50173450I5025J0D01*
G01*
X604921925Y-100173550D02*
G75*
G02*
X604911875Y-100173550I-5025J0D01*
G01*
X604911875Y-100173550D02*
G75*
G02*
X604921925Y-100173550I5025J0D01*
G01*
X671588725Y-333507350D02*
G75*
G02*
X671578675Y-333507350I-5025J0D01*
G01*
X671578675Y-333507350D02*
G75*
G02*
X671588725Y-333507350I5025J0D01*
G01*
D10*
X524083400Y-133506950D02*
G75*
G02*
X519083400Y-133506950I-2500000J0D01*
G01*
X519083400Y-133506950D02*
G75*
G02*
X524083400Y-133506950I2500000J0D01*
G01*
D11*
X504921725Y-100173550D02*
G75*
G02*
X504911675Y-100173550I-5025J0D01*
G01*
X504911675Y-100173550D02*
G75*
G02*
X504921725Y-100173550I5025J0D01*
G01*
D10*
X674083700Y-366840750D02*
G75*
G02*
X669083700Y-366840750I-2500000J0D01*
G01*
X669083700Y-366840750D02*
G75*
G02*
X674083700Y-366840750I2500000J0D01*
G01*
X640750300Y-333507350D02*
G75*
G02*
X635750300Y-333507350I-2500000J0D01*
G01*
X635750300Y-333507350D02*
G75*
G02*
X640750300Y-333507350I2500000J0D01*
G01*
D11*
X738255525Y-150173650D02*
G75*
G02*
X738245475Y-150173650I-5025J0D01*
G01*
X738245475Y-150173650D02*
G75*
G02*
X738255525Y-150173650I5025J0D01*
G01*
D10*
X557416800Y-16840050D02*
G75*
G02*
X552416800Y-16840050I-2500000J0D01*
G01*
X552416800Y-16840050D02*
G75*
G02*
X557416800Y-16840050I2500000J0D01*
G01*
X557416800Y-116840250D02*
G75*
G02*
X552416800Y-116840250I-2500000J0D01*
G01*
X552416800Y-116840250D02*
G75*
G02*
X557416800Y-116840250I2500000J0D01*
G01*
D11*
X771588925Y-100173550D02*
G75*
G02*
X771578875Y-100173550I-5025J0D01*
G01*
X771578875Y-100173550D02*
G75*
G02*
X771588925Y-100173550I5025J0D01*
G01*
X604921925Y-150173650D02*
G75*
G02*
X604911875Y-150173650I-5025J0D01*
G01*
X604911875Y-150173650D02*
G75*
G02*
X604921925Y-150173650I5025J0D01*
G01*
X704922125Y-200173750D02*
G75*
G02*
X704912075Y-200173750I-5025J0D01*
G01*
X704912075Y-200173750D02*
G75*
G02*
X704922125Y-200173750I5025J0D01*
G01*
X604921925Y-333507350D02*
G75*
G02*
X604911875Y-333507350I-5025J0D01*
G01*
X604911875Y-333507350D02*
G75*
G02*
X604921925Y-333507350I5025J0D01*
G01*
D10*
X807417300Y-216840450D02*
G75*
G02*
X802417300Y-216840450I-2500000J0D01*
G01*
X802417300Y-216840450D02*
G75*
G02*
X807417300Y-216840450I2500000J0D01*
G01*
D11*
X621588625Y-233507150D02*
G75*
G02*
X621578575Y-233507150I-5025J0D01*
G01*
X621578575Y-233507150D02*
G75*
G02*
X621588625Y-233507150I5025J0D01*
G01*
D10*
X507416700Y-116840250D02*
G75*
G02*
X502416700Y-116840250I-2500000J0D01*
G01*
X502416700Y-116840250D02*
G75*
G02*
X507416700Y-116840250I2500000J0D01*
G01*
D11*
X554921825Y-133506950D02*
G75*
G02*
X554911775Y-133506950I-5025J0D01*
G01*
X554911775Y-133506950D02*
G75*
G02*
X554921825Y-133506950I5025J0D01*
G01*
D10*
X574083500Y-33506750D02*
G75*
G02*
X569083500Y-33506750I-2500000J0D01*
G01*
X569083500Y-33506750D02*
G75*
G02*
X574083500Y-33506750I2500000J0D01*
G01*
X590750200Y-383507450D02*
G75*
G02*
X585750200Y-383507450I-2500000J0D01*
G01*
X585750200Y-383507450D02*
G75*
G02*
X590750200Y-383507450I2500000J0D01*
G01*
D11*
X538255125Y-283507250D02*
G75*
G02*
X538245075Y-283507250I-5025J0D01*
G01*
X538245075Y-283507250D02*
G75*
G02*
X538255125Y-283507250I5025J0D01*
G01*
X554921825Y-173350D02*
G75*
G02*
X554911775Y-173350I-5025J0D01*
G01*
X554911775Y-173350D02*
G75*
G02*
X554921825Y-173350I5025J0D01*
G01*
X671588725Y-350174050D02*
G75*
G02*
X671578675Y-350174050I-5025J0D01*
G01*
X671578675Y-350174050D02*
G75*
G02*
X671588725Y-350174050I5025J0D01*
G01*
D10*
X557416800Y-266840550D02*
G75*
G02*
X552416800Y-266840550I-2500000J0D01*
G01*
X552416800Y-266840550D02*
G75*
G02*
X557416800Y-266840550I2500000J0D01*
G01*
D11*
X771588925Y-150173650D02*
G75*
G02*
X771578875Y-150173650I-5025J0D01*
G01*
X771578875Y-150173650D02*
G75*
G02*
X771588925Y-150173650I5025J0D01*
G01*
D10*
X674083700Y-150173650D02*
G75*
G02*
X669083700Y-150173650I-2500000J0D01*
G01*
X669083700Y-150173650D02*
G75*
G02*
X674083700Y-150173650I2500000J0D01*
G01*
D11*
X688255425Y-250173850D02*
G75*
G02*
X688245375Y-250173850I-5025J0D01*
G01*
X688245375Y-250173850D02*
G75*
G02*
X688255425Y-250173850I5025J0D01*
G01*
D10*
X724083800Y-383507450D02*
G75*
G02*
X719083800Y-383507450I-2500000J0D01*
G01*
X719083800Y-383507450D02*
G75*
G02*
X724083800Y-383507450I2500000J0D01*
G01*
D11*
X604921925Y-366840750D02*
G75*
G02*
X604911875Y-366840750I-5025J0D01*
G01*
X604911875Y-366840750D02*
G75*
G02*
X604921925Y-366840750I5025J0D01*
G01*
D10*
X740750500Y-100173550D02*
G75*
G02*
X735750500Y-100173550I-2500000J0D01*
G01*
X735750500Y-100173550D02*
G75*
G02*
X740750500Y-100173550I2500000J0D01*
G01*
D11*
X504921725Y-266840550D02*
G75*
G02*
X504911675Y-266840550I-5025J0D01*
G01*
X504911675Y-266840550D02*
G75*
G02*
X504921725Y-266840550I5025J0D01*
G01*
X721588825Y-33506750D02*
G75*
G02*
X721578775Y-33506750I-5025J0D01*
G01*
X721578775Y-33506750D02*
G75*
G02*
X721588825Y-33506750I5025J0D01*
G01*
D10*
X624083600Y-350174050D02*
G75*
G02*
X619083600Y-350174050I-2500000J0D01*
G01*
X619083600Y-350174050D02*
G75*
G02*
X624083600Y-350174050I2500000J0D01*
G01*
D11*
X704922125Y-283507250D02*
G75*
G02*
X704912075Y-283507250I-5025J0D01*
G01*
X704912075Y-283507250D02*
G75*
G02*
X704922125Y-283507250I5025J0D01*
G01*
X704922125Y-366840750D02*
G75*
G02*
X704912075Y-366840750I-5025J0D01*
G01*
X704912075Y-366840750D02*
G75*
G02*
X704922125Y-366840750I5025J0D01*
G01*
X521588425Y-233507150D02*
G75*
G02*
X521578375Y-233507150I-5025J0D01*
G01*
X521578375Y-233507150D02*
G75*
G02*
X521588425Y-233507150I5025J0D01*
G01*
X754922225Y-350174050D02*
G75*
G02*
X754912175Y-350174050I-5025J0D01*
G01*
X754912175Y-350174050D02*
G75*
G02*
X754922225Y-350174050I5025J0D01*
G01*
D10*
X807417300Y-16840050D02*
G75*
G02*
X802417300Y-16840050I-2500000J0D01*
G01*
X802417300Y-16840050D02*
G75*
G02*
X807417300Y-16840050I2500000J0D01*
G01*
D11*
X621588625Y-316840650D02*
G75*
G02*
X621578575Y-316840650I-5025J0D01*
G01*
X621578575Y-316840650D02*
G75*
G02*
X621588625Y-316840650I5025J0D01*
G01*
D10*
X740750500Y-66840150D02*
G75*
G02*
X735750500Y-66840150I-2500000J0D01*
G01*
X735750500Y-66840150D02*
G75*
G02*
X740750500Y-66840150I2500000J0D01*
G01*
D11*
X521588425Y-283507250D02*
G75*
G02*
X521578375Y-283507250I-5025J0D01*
G01*
X521578375Y-283507250D02*
G75*
G02*
X521588425Y-283507250I5025J0D01*
G01*
D10*
X640750300Y-116840250D02*
G75*
G02*
X635750300Y-116840250I-2500000J0D01*
G01*
X635750300Y-116840250D02*
G75*
G02*
X640750300Y-116840250I2500000J0D01*
G01*
X607416900Y-350174050D02*
G75*
G02*
X602416900Y-350174050I-2500000J0D01*
G01*
X602416900Y-350174050D02*
G75*
G02*
X607416900Y-350174050I2500000J0D01*
G01*
D11*
X571588525Y-173350D02*
G75*
G02*
X571578475Y-173350I-5025J0D01*
G01*
X571578475Y-173350D02*
G75*
G02*
X571588525Y-173350I5025J0D01*
G01*
X721588825Y-50173450D02*
G75*
G02*
X721578775Y-50173450I-5025J0D01*
G01*
X721578775Y-50173450D02*
G75*
G02*
X721588825Y-50173450I5025J0D01*
G01*
D10*
X640750300Y-50173450D02*
G75*
G02*
X635750300Y-50173450I-2500000J0D01*
G01*
X635750300Y-50173450D02*
G75*
G02*
X640750300Y-50173450I2500000J0D01*
G01*
D11*
X538255125Y-183507050D02*
G75*
G02*
X538245075Y-183507050I-5025J0D01*
G01*
X538245075Y-183507050D02*
G75*
G02*
X538255125Y-183507050I5025J0D01*
G01*
X604921925Y-266840550D02*
G75*
G02*
X604911875Y-266840550I-5025J0D01*
G01*
X604911875Y-266840550D02*
G75*
G02*
X604921925Y-266840550I5025J0D01*
G01*
D10*
X774083900Y-316840650D02*
G75*
G02*
X769083900Y-316840650I-2500000J0D01*
G01*
X769083900Y-316840650D02*
G75*
G02*
X774083900Y-316840650I2500000J0D01*
G01*
D11*
X671588725Y-83506850D02*
G75*
G02*
X671578675Y-83506850I-5025J0D01*
G01*
X671578675Y-83506850D02*
G75*
G02*
X671588725Y-83506850I5025J0D01*
G01*
X738255525Y-166840350D02*
G75*
G02*
X738245475Y-166840350I-5025J0D01*
G01*
X738245475Y-166840350D02*
G75*
G02*
X738255525Y-166840350I5025J0D01*
G01*
X704922125Y-266840550D02*
G75*
G02*
X704912075Y-266840550I-5025J0D01*
G01*
X704912075Y-266840550D02*
G75*
G02*
X704922125Y-266840550I5025J0D01*
G01*
X571588525Y-50173450D02*
G75*
G02*
X571578475Y-50173450I-5025J0D01*
G01*
X571578475Y-50173450D02*
G75*
G02*
X571588525Y-50173450I5025J0D01*
G01*
D10*
X674083700Y-173350D02*
G75*
G02*
X669083700Y-173350I-2500000J0D01*
G01*
X669083700Y-173350D02*
G75*
G02*
X674083700Y-173350I2500000J0D01*
G01*
X724083800Y-133506950D02*
G75*
G02*
X719083800Y-133506950I-2500000J0D01*
G01*
X719083800Y-133506950D02*
G75*
G02*
X724083800Y-133506950I2500000J0D01*
G01*
D11*
X721588825Y-200173750D02*
G75*
G02*
X721578775Y-200173750I-5025J0D01*
G01*
X721578775Y-200173750D02*
G75*
G02*
X721588825Y-200173750I5025J0D01*
G01*
D10*
X657417000Y-33506750D02*
G75*
G02*
X652417000Y-33506750I-2500000J0D01*
G01*
X652417000Y-33506750D02*
G75*
G02*
X657417000Y-33506750I2500000J0D01*
G01*
X524083400Y-50173450D02*
G75*
G02*
X519083400Y-50173450I-2500000J0D01*
G01*
X519083400Y-50173450D02*
G75*
G02*
X524083400Y-50173450I2500000J0D01*
G01*
D11*
X738255525Y-383507450D02*
G75*
G02*
X738245475Y-383507450I-5025J0D01*
G01*
X738245475Y-383507450D02*
G75*
G02*
X738255525Y-383507450I5025J0D01*
G01*
X788255625Y-366840750D02*
G75*
G02*
X788245575Y-366840750I-5025J0D01*
G01*
X788245575Y-366840750D02*
G75*
G02*
X788255625Y-366840750I5025J0D01*
G01*
D10*
X690750400Y-216840450D02*
G75*
G02*
X685750400Y-216840450I-2500000J0D01*
G01*
X685750400Y-216840450D02*
G75*
G02*
X690750400Y-216840450I2500000J0D01*
G01*
D11*
X621588625Y-100173550D02*
G75*
G02*
X621578575Y-100173550I-5025J0D01*
G01*
X621578575Y-100173550D02*
G75*
G02*
X621588625Y-100173550I5025J0D01*
G01*
X588255225Y-300173950D02*
G75*
G02*
X588245175Y-300173950I-5025J0D01*
G01*
X588245175Y-300173950D02*
G75*
G02*
X588255225Y-300173950I5025J0D01*
G01*
D10*
X507416700Y-216840450D02*
G75*
G02*
X502416700Y-216840450I-2500000J0D01*
G01*
X502416700Y-216840450D02*
G75*
G02*
X507416700Y-216840450I2500000J0D01*
G01*
M02*
