%TF.GenerationSoftware,KiCad,Pcbnew,9.0.3*%
%TF.CreationDate,2025-09-26T16:00:34-03:00*%
%TF.ProjectId,cartelmatriz,63617274-656c-46d6-9174-72697a2e6b69,rev?*%
%TF.SameCoordinates,Original*%
%TF.FileFunction,Copper,L2,Bot*%
%TF.FilePolarity,Positive*%
%FSLAX46Y46*%
G04 Gerber Fmt 4.6, Leading zero omitted, Abs format (unit mm)*
G04 Created by KiCad (PCBNEW 9.0.3) date 2025-09-26 16:00:34*
%MOMM*%
%LPD*%
G01*
G04 APERTURE LIST*
%ADD10C,0.100000*%
%ADD11C,0.150000*%
%ADD12C,0.300000*%
%ADD13C,0.400000*%
%TA.AperFunction,ComponentPad*%
%ADD14R,1.700000X1.700000*%
%TD*%
%TA.AperFunction,ComponentPad*%
%ADD15C,1.700000*%
%TD*%
%TA.AperFunction,ComponentPad*%
%ADD16R,1.800000X1.800000*%
%TD*%
%TA.AperFunction,ComponentPad*%
%ADD17C,1.800000*%
%TD*%
%TA.AperFunction,ComponentPad*%
%ADD18C,1.000000*%
%TD*%
G04 APERTURE END LIST*
D10*
D11*
X980000000Y-1056000000D02*
X1088000000Y-1056000000D01*
X1088000000Y-1088000000D01*
X980000000Y-1088000000D01*
X980000000Y-1056000000D01*
D10*
D11*
X10000000Y-10000000D02*
X1090000000Y-10000000D01*
X1090000000Y-1090000000D01*
X10000000Y-1090000000D01*
X10000000Y-10000000D01*
D10*
D11*
X12000000Y-12000000D02*
X1088000000Y-12000000D01*
X1088000000Y-1088000000D01*
X12000000Y-1088000000D01*
X12000000Y-12000000D01*
D10*
D11*
X60000000Y-12000000D02*
X60000000Y-10000000D01*
D10*
D11*
X110000000Y-12000000D02*
X110000000Y-10000000D01*
D10*
D11*
X160000000Y-12000000D02*
X160000000Y-10000000D01*
D10*
D11*
X210000000Y-12000000D02*
X210000000Y-10000000D01*
D10*
D11*
X260000000Y-12000000D02*
X260000000Y-10000000D01*
D10*
D11*
X310000000Y-12000000D02*
X310000000Y-10000000D01*
D10*
D11*
X360000000Y-12000000D02*
X360000000Y-10000000D01*
D10*
D11*
X410000000Y-12000000D02*
X410000000Y-10000000D01*
D10*
D11*
X460000000Y-12000000D02*
X460000000Y-10000000D01*
D10*
D11*
X510000000Y-12000000D02*
X510000000Y-10000000D01*
D10*
D11*
X560000000Y-12000000D02*
X560000000Y-10000000D01*
D10*
D11*
X610000000Y-12000000D02*
X610000000Y-10000000D01*
D10*
D11*
X660000000Y-12000000D02*
X660000000Y-10000000D01*
D10*
D11*
X710000000Y-12000000D02*
X710000000Y-10000000D01*
D10*
D11*
X760000000Y-12000000D02*
X760000000Y-10000000D01*
D10*
D11*
X810000000Y-12000000D02*
X810000000Y-10000000D01*
D10*
D11*
X860000000Y-12000000D02*
X860000000Y-10000000D01*
D10*
D11*
X910000000Y-12000000D02*
X910000000Y-10000000D01*
D10*
D11*
X960000000Y-12000000D02*
X960000000Y-10000000D01*
D10*
D11*
X1010000000Y-12000000D02*
X1010000000Y-10000000D01*
D10*
D11*
X1060000000Y-12000000D02*
X1060000000Y-10000000D01*
D10*
D11*
X36089160Y-11593604D02*
X35346303Y-11593604D01*
X35717731Y-11593604D02*
X35717731Y-10293604D01*
X35717731Y-10293604D02*
X35593922Y-10479319D01*
X35593922Y-10479319D02*
X35470112Y-10603128D01*
X35470112Y-10603128D02*
X35346303Y-10665033D01*
D10*
D11*
X85346303Y-10417414D02*
X85408207Y-10355509D01*
X85408207Y-10355509D02*
X85532017Y-10293604D01*
X85532017Y-10293604D02*
X85841541Y-10293604D01*
X85841541Y-10293604D02*
X85965350Y-10355509D01*
X85965350Y-10355509D02*
X86027255Y-10417414D01*
X86027255Y-10417414D02*
X86089160Y-10541223D01*
X86089160Y-10541223D02*
X86089160Y-10665033D01*
X86089160Y-10665033D02*
X86027255Y-10850747D01*
X86027255Y-10850747D02*
X85284398Y-11593604D01*
X85284398Y-11593604D02*
X86089160Y-11593604D01*
D10*
D11*
X135284398Y-10293604D02*
X136089160Y-10293604D01*
X136089160Y-10293604D02*
X135655826Y-10788842D01*
X135655826Y-10788842D02*
X135841541Y-10788842D01*
X135841541Y-10788842D02*
X135965350Y-10850747D01*
X135965350Y-10850747D02*
X136027255Y-10912652D01*
X136027255Y-10912652D02*
X136089160Y-11036461D01*
X136089160Y-11036461D02*
X136089160Y-11345985D01*
X136089160Y-11345985D02*
X136027255Y-11469795D01*
X136027255Y-11469795D02*
X135965350Y-11531700D01*
X135965350Y-11531700D02*
X135841541Y-11593604D01*
X135841541Y-11593604D02*
X135470112Y-11593604D01*
X135470112Y-11593604D02*
X135346303Y-11531700D01*
X135346303Y-11531700D02*
X135284398Y-11469795D01*
D10*
D11*
X185965350Y-10726938D02*
X185965350Y-11593604D01*
X185655826Y-10231700D02*
X185346303Y-11160271D01*
X185346303Y-11160271D02*
X186151064Y-11160271D01*
D10*
D11*
X236027255Y-10293604D02*
X235408207Y-10293604D01*
X235408207Y-10293604D02*
X235346303Y-10912652D01*
X235346303Y-10912652D02*
X235408207Y-10850747D01*
X235408207Y-10850747D02*
X235532017Y-10788842D01*
X235532017Y-10788842D02*
X235841541Y-10788842D01*
X235841541Y-10788842D02*
X235965350Y-10850747D01*
X235965350Y-10850747D02*
X236027255Y-10912652D01*
X236027255Y-10912652D02*
X236089160Y-11036461D01*
X236089160Y-11036461D02*
X236089160Y-11345985D01*
X236089160Y-11345985D02*
X236027255Y-11469795D01*
X236027255Y-11469795D02*
X235965350Y-11531700D01*
X235965350Y-11531700D02*
X235841541Y-11593604D01*
X235841541Y-11593604D02*
X235532017Y-11593604D01*
X235532017Y-11593604D02*
X235408207Y-11531700D01*
X235408207Y-11531700D02*
X235346303Y-11469795D01*
D10*
D11*
X285965350Y-10293604D02*
X285717731Y-10293604D01*
X285717731Y-10293604D02*
X285593922Y-10355509D01*
X285593922Y-10355509D02*
X285532017Y-10417414D01*
X285532017Y-10417414D02*
X285408207Y-10603128D01*
X285408207Y-10603128D02*
X285346303Y-10850747D01*
X285346303Y-10850747D02*
X285346303Y-11345985D01*
X285346303Y-11345985D02*
X285408207Y-11469795D01*
X285408207Y-11469795D02*
X285470112Y-11531700D01*
X285470112Y-11531700D02*
X285593922Y-11593604D01*
X285593922Y-11593604D02*
X285841541Y-11593604D01*
X285841541Y-11593604D02*
X285965350Y-11531700D01*
X285965350Y-11531700D02*
X286027255Y-11469795D01*
X286027255Y-11469795D02*
X286089160Y-11345985D01*
X286089160Y-11345985D02*
X286089160Y-11036461D01*
X286089160Y-11036461D02*
X286027255Y-10912652D01*
X286027255Y-10912652D02*
X285965350Y-10850747D01*
X285965350Y-10850747D02*
X285841541Y-10788842D01*
X285841541Y-10788842D02*
X285593922Y-10788842D01*
X285593922Y-10788842D02*
X285470112Y-10850747D01*
X285470112Y-10850747D02*
X285408207Y-10912652D01*
X285408207Y-10912652D02*
X285346303Y-11036461D01*
D10*
D11*
X335284398Y-10293604D02*
X336151064Y-10293604D01*
X336151064Y-10293604D02*
X335593922Y-11593604D01*
D10*
D11*
X385593922Y-10850747D02*
X385470112Y-10788842D01*
X385470112Y-10788842D02*
X385408207Y-10726938D01*
X385408207Y-10726938D02*
X385346303Y-10603128D01*
X385346303Y-10603128D02*
X385346303Y-10541223D01*
X385346303Y-10541223D02*
X385408207Y-10417414D01*
X385408207Y-10417414D02*
X385470112Y-10355509D01*
X385470112Y-10355509D02*
X385593922Y-10293604D01*
X385593922Y-10293604D02*
X385841541Y-10293604D01*
X385841541Y-10293604D02*
X385965350Y-10355509D01*
X385965350Y-10355509D02*
X386027255Y-10417414D01*
X386027255Y-10417414D02*
X386089160Y-10541223D01*
X386089160Y-10541223D02*
X386089160Y-10603128D01*
X386089160Y-10603128D02*
X386027255Y-10726938D01*
X386027255Y-10726938D02*
X385965350Y-10788842D01*
X385965350Y-10788842D02*
X385841541Y-10850747D01*
X385841541Y-10850747D02*
X385593922Y-10850747D01*
X385593922Y-10850747D02*
X385470112Y-10912652D01*
X385470112Y-10912652D02*
X385408207Y-10974557D01*
X385408207Y-10974557D02*
X385346303Y-11098366D01*
X385346303Y-11098366D02*
X385346303Y-11345985D01*
X385346303Y-11345985D02*
X385408207Y-11469795D01*
X385408207Y-11469795D02*
X385470112Y-11531700D01*
X385470112Y-11531700D02*
X385593922Y-11593604D01*
X385593922Y-11593604D02*
X385841541Y-11593604D01*
X385841541Y-11593604D02*
X385965350Y-11531700D01*
X385965350Y-11531700D02*
X386027255Y-11469795D01*
X386027255Y-11469795D02*
X386089160Y-11345985D01*
X386089160Y-11345985D02*
X386089160Y-11098366D01*
X386089160Y-11098366D02*
X386027255Y-10974557D01*
X386027255Y-10974557D02*
X385965350Y-10912652D01*
X385965350Y-10912652D02*
X385841541Y-10850747D01*
D10*
D11*
X435470112Y-11593604D02*
X435717731Y-11593604D01*
X435717731Y-11593604D02*
X435841541Y-11531700D01*
X435841541Y-11531700D02*
X435903445Y-11469795D01*
X435903445Y-11469795D02*
X436027255Y-11284080D01*
X436027255Y-11284080D02*
X436089160Y-11036461D01*
X436089160Y-11036461D02*
X436089160Y-10541223D01*
X436089160Y-10541223D02*
X436027255Y-10417414D01*
X436027255Y-10417414D02*
X435965350Y-10355509D01*
X435965350Y-10355509D02*
X435841541Y-10293604D01*
X435841541Y-10293604D02*
X435593922Y-10293604D01*
X435593922Y-10293604D02*
X435470112Y-10355509D01*
X435470112Y-10355509D02*
X435408207Y-10417414D01*
X435408207Y-10417414D02*
X435346303Y-10541223D01*
X435346303Y-10541223D02*
X435346303Y-10850747D01*
X435346303Y-10850747D02*
X435408207Y-10974557D01*
X435408207Y-10974557D02*
X435470112Y-11036461D01*
X435470112Y-11036461D02*
X435593922Y-11098366D01*
X435593922Y-11098366D02*
X435841541Y-11098366D01*
X435841541Y-11098366D02*
X435965350Y-11036461D01*
X435965350Y-11036461D02*
X436027255Y-10974557D01*
X436027255Y-10974557D02*
X436089160Y-10850747D01*
D10*
D11*
X486089160Y-11593604D02*
X485346303Y-11593604D01*
X485717731Y-11593604D02*
X485717731Y-10293604D01*
X485717731Y-10293604D02*
X485593922Y-10479319D01*
X485593922Y-10479319D02*
X485470112Y-10603128D01*
X485470112Y-10603128D02*
X485346303Y-10665033D01*
X486893921Y-10293604D02*
X487017731Y-10293604D01*
X487017731Y-10293604D02*
X487141540Y-10355509D01*
X487141540Y-10355509D02*
X487203445Y-10417414D01*
X487203445Y-10417414D02*
X487265350Y-10541223D01*
X487265350Y-10541223D02*
X487327255Y-10788842D01*
X487327255Y-10788842D02*
X487327255Y-11098366D01*
X487327255Y-11098366D02*
X487265350Y-11345985D01*
X487265350Y-11345985D02*
X487203445Y-11469795D01*
X487203445Y-11469795D02*
X487141540Y-11531700D01*
X487141540Y-11531700D02*
X487017731Y-11593604D01*
X487017731Y-11593604D02*
X486893921Y-11593604D01*
X486893921Y-11593604D02*
X486770112Y-11531700D01*
X486770112Y-11531700D02*
X486708207Y-11469795D01*
X486708207Y-11469795D02*
X486646302Y-11345985D01*
X486646302Y-11345985D02*
X486584398Y-11098366D01*
X486584398Y-11098366D02*
X486584398Y-10788842D01*
X486584398Y-10788842D02*
X486646302Y-10541223D01*
X486646302Y-10541223D02*
X486708207Y-10417414D01*
X486708207Y-10417414D02*
X486770112Y-10355509D01*
X486770112Y-10355509D02*
X486893921Y-10293604D01*
D10*
D11*
X536089160Y-11593604D02*
X535346303Y-11593604D01*
X535717731Y-11593604D02*
X535717731Y-10293604D01*
X535717731Y-10293604D02*
X535593922Y-10479319D01*
X535593922Y-10479319D02*
X535470112Y-10603128D01*
X535470112Y-10603128D02*
X535346303Y-10665033D01*
X537327255Y-11593604D02*
X536584398Y-11593604D01*
X536955826Y-11593604D02*
X536955826Y-10293604D01*
X536955826Y-10293604D02*
X536832017Y-10479319D01*
X536832017Y-10479319D02*
X536708207Y-10603128D01*
X536708207Y-10603128D02*
X536584398Y-10665033D01*
D10*
D11*
X586089160Y-11593604D02*
X585346303Y-11593604D01*
X585717731Y-11593604D02*
X585717731Y-10293604D01*
X585717731Y-10293604D02*
X585593922Y-10479319D01*
X585593922Y-10479319D02*
X585470112Y-10603128D01*
X585470112Y-10603128D02*
X585346303Y-10665033D01*
X586584398Y-10417414D02*
X586646302Y-10355509D01*
X586646302Y-10355509D02*
X586770112Y-10293604D01*
X586770112Y-10293604D02*
X587079636Y-10293604D01*
X587079636Y-10293604D02*
X587203445Y-10355509D01*
X587203445Y-10355509D02*
X587265350Y-10417414D01*
X587265350Y-10417414D02*
X587327255Y-10541223D01*
X587327255Y-10541223D02*
X587327255Y-10665033D01*
X587327255Y-10665033D02*
X587265350Y-10850747D01*
X587265350Y-10850747D02*
X586522493Y-11593604D01*
X586522493Y-11593604D02*
X587327255Y-11593604D01*
D10*
D11*
X636089160Y-11593604D02*
X635346303Y-11593604D01*
X635717731Y-11593604D02*
X635717731Y-10293604D01*
X635717731Y-10293604D02*
X635593922Y-10479319D01*
X635593922Y-10479319D02*
X635470112Y-10603128D01*
X635470112Y-10603128D02*
X635346303Y-10665033D01*
X636522493Y-10293604D02*
X637327255Y-10293604D01*
X637327255Y-10293604D02*
X636893921Y-10788842D01*
X636893921Y-10788842D02*
X637079636Y-10788842D01*
X637079636Y-10788842D02*
X637203445Y-10850747D01*
X637203445Y-10850747D02*
X637265350Y-10912652D01*
X637265350Y-10912652D02*
X637327255Y-11036461D01*
X637327255Y-11036461D02*
X637327255Y-11345985D01*
X637327255Y-11345985D02*
X637265350Y-11469795D01*
X637265350Y-11469795D02*
X637203445Y-11531700D01*
X637203445Y-11531700D02*
X637079636Y-11593604D01*
X637079636Y-11593604D02*
X636708207Y-11593604D01*
X636708207Y-11593604D02*
X636584398Y-11531700D01*
X636584398Y-11531700D02*
X636522493Y-11469795D01*
D10*
D11*
X686089160Y-11593604D02*
X685346303Y-11593604D01*
X685717731Y-11593604D02*
X685717731Y-10293604D01*
X685717731Y-10293604D02*
X685593922Y-10479319D01*
X685593922Y-10479319D02*
X685470112Y-10603128D01*
X685470112Y-10603128D02*
X685346303Y-10665033D01*
X687203445Y-10726938D02*
X687203445Y-11593604D01*
X686893921Y-10231700D02*
X686584398Y-11160271D01*
X686584398Y-11160271D02*
X687389159Y-11160271D01*
D10*
D11*
X736089160Y-11593604D02*
X735346303Y-11593604D01*
X735717731Y-11593604D02*
X735717731Y-10293604D01*
X735717731Y-10293604D02*
X735593922Y-10479319D01*
X735593922Y-10479319D02*
X735470112Y-10603128D01*
X735470112Y-10603128D02*
X735346303Y-10665033D01*
X737265350Y-10293604D02*
X736646302Y-10293604D01*
X736646302Y-10293604D02*
X736584398Y-10912652D01*
X736584398Y-10912652D02*
X736646302Y-10850747D01*
X736646302Y-10850747D02*
X736770112Y-10788842D01*
X736770112Y-10788842D02*
X737079636Y-10788842D01*
X737079636Y-10788842D02*
X737203445Y-10850747D01*
X737203445Y-10850747D02*
X737265350Y-10912652D01*
X737265350Y-10912652D02*
X737327255Y-11036461D01*
X737327255Y-11036461D02*
X737327255Y-11345985D01*
X737327255Y-11345985D02*
X737265350Y-11469795D01*
X737265350Y-11469795D02*
X737203445Y-11531700D01*
X737203445Y-11531700D02*
X737079636Y-11593604D01*
X737079636Y-11593604D02*
X736770112Y-11593604D01*
X736770112Y-11593604D02*
X736646302Y-11531700D01*
X736646302Y-11531700D02*
X736584398Y-11469795D01*
D10*
D11*
X786089160Y-11593604D02*
X785346303Y-11593604D01*
X785717731Y-11593604D02*
X785717731Y-10293604D01*
X785717731Y-10293604D02*
X785593922Y-10479319D01*
X785593922Y-10479319D02*
X785470112Y-10603128D01*
X785470112Y-10603128D02*
X785346303Y-10665033D01*
X787203445Y-10293604D02*
X786955826Y-10293604D01*
X786955826Y-10293604D02*
X786832017Y-10355509D01*
X786832017Y-10355509D02*
X786770112Y-10417414D01*
X786770112Y-10417414D02*
X786646302Y-10603128D01*
X786646302Y-10603128D02*
X786584398Y-10850747D01*
X786584398Y-10850747D02*
X786584398Y-11345985D01*
X786584398Y-11345985D02*
X786646302Y-11469795D01*
X786646302Y-11469795D02*
X786708207Y-11531700D01*
X786708207Y-11531700D02*
X786832017Y-11593604D01*
X786832017Y-11593604D02*
X787079636Y-11593604D01*
X787079636Y-11593604D02*
X787203445Y-11531700D01*
X787203445Y-11531700D02*
X787265350Y-11469795D01*
X787265350Y-11469795D02*
X787327255Y-11345985D01*
X787327255Y-11345985D02*
X787327255Y-11036461D01*
X787327255Y-11036461D02*
X787265350Y-10912652D01*
X787265350Y-10912652D02*
X787203445Y-10850747D01*
X787203445Y-10850747D02*
X787079636Y-10788842D01*
X787079636Y-10788842D02*
X786832017Y-10788842D01*
X786832017Y-10788842D02*
X786708207Y-10850747D01*
X786708207Y-10850747D02*
X786646302Y-10912652D01*
X786646302Y-10912652D02*
X786584398Y-11036461D01*
D10*
D11*
X836089160Y-11593604D02*
X835346303Y-11593604D01*
X835717731Y-11593604D02*
X835717731Y-10293604D01*
X835717731Y-10293604D02*
X835593922Y-10479319D01*
X835593922Y-10479319D02*
X835470112Y-10603128D01*
X835470112Y-10603128D02*
X835346303Y-10665033D01*
X836522493Y-10293604D02*
X837389159Y-10293604D01*
X837389159Y-10293604D02*
X836832017Y-11593604D01*
D10*
D11*
X886089160Y-11593604D02*
X885346303Y-11593604D01*
X885717731Y-11593604D02*
X885717731Y-10293604D01*
X885717731Y-10293604D02*
X885593922Y-10479319D01*
X885593922Y-10479319D02*
X885470112Y-10603128D01*
X885470112Y-10603128D02*
X885346303Y-10665033D01*
X886832017Y-10850747D02*
X886708207Y-10788842D01*
X886708207Y-10788842D02*
X886646302Y-10726938D01*
X886646302Y-10726938D02*
X886584398Y-10603128D01*
X886584398Y-10603128D02*
X886584398Y-10541223D01*
X886584398Y-10541223D02*
X886646302Y-10417414D01*
X886646302Y-10417414D02*
X886708207Y-10355509D01*
X886708207Y-10355509D02*
X886832017Y-10293604D01*
X886832017Y-10293604D02*
X887079636Y-10293604D01*
X887079636Y-10293604D02*
X887203445Y-10355509D01*
X887203445Y-10355509D02*
X887265350Y-10417414D01*
X887265350Y-10417414D02*
X887327255Y-10541223D01*
X887327255Y-10541223D02*
X887327255Y-10603128D01*
X887327255Y-10603128D02*
X887265350Y-10726938D01*
X887265350Y-10726938D02*
X887203445Y-10788842D01*
X887203445Y-10788842D02*
X887079636Y-10850747D01*
X887079636Y-10850747D02*
X886832017Y-10850747D01*
X886832017Y-10850747D02*
X886708207Y-10912652D01*
X886708207Y-10912652D02*
X886646302Y-10974557D01*
X886646302Y-10974557D02*
X886584398Y-11098366D01*
X886584398Y-11098366D02*
X886584398Y-11345985D01*
X886584398Y-11345985D02*
X886646302Y-11469795D01*
X886646302Y-11469795D02*
X886708207Y-11531700D01*
X886708207Y-11531700D02*
X886832017Y-11593604D01*
X886832017Y-11593604D02*
X887079636Y-11593604D01*
X887079636Y-11593604D02*
X887203445Y-11531700D01*
X887203445Y-11531700D02*
X887265350Y-11469795D01*
X887265350Y-11469795D02*
X887327255Y-11345985D01*
X887327255Y-11345985D02*
X887327255Y-11098366D01*
X887327255Y-11098366D02*
X887265350Y-10974557D01*
X887265350Y-10974557D02*
X887203445Y-10912652D01*
X887203445Y-10912652D02*
X887079636Y-10850747D01*
D10*
D11*
X936089160Y-11593604D02*
X935346303Y-11593604D01*
X935717731Y-11593604D02*
X935717731Y-10293604D01*
X935717731Y-10293604D02*
X935593922Y-10479319D01*
X935593922Y-10479319D02*
X935470112Y-10603128D01*
X935470112Y-10603128D02*
X935346303Y-10665033D01*
X936708207Y-11593604D02*
X936955826Y-11593604D01*
X936955826Y-11593604D02*
X937079636Y-11531700D01*
X937079636Y-11531700D02*
X937141540Y-11469795D01*
X937141540Y-11469795D02*
X937265350Y-11284080D01*
X937265350Y-11284080D02*
X937327255Y-11036461D01*
X937327255Y-11036461D02*
X937327255Y-10541223D01*
X937327255Y-10541223D02*
X937265350Y-10417414D01*
X937265350Y-10417414D02*
X937203445Y-10355509D01*
X937203445Y-10355509D02*
X937079636Y-10293604D01*
X937079636Y-10293604D02*
X936832017Y-10293604D01*
X936832017Y-10293604D02*
X936708207Y-10355509D01*
X936708207Y-10355509D02*
X936646302Y-10417414D01*
X936646302Y-10417414D02*
X936584398Y-10541223D01*
X936584398Y-10541223D02*
X936584398Y-10850747D01*
X936584398Y-10850747D02*
X936646302Y-10974557D01*
X936646302Y-10974557D02*
X936708207Y-11036461D01*
X936708207Y-11036461D02*
X936832017Y-11098366D01*
X936832017Y-11098366D02*
X937079636Y-11098366D01*
X937079636Y-11098366D02*
X937203445Y-11036461D01*
X937203445Y-11036461D02*
X937265350Y-10974557D01*
X937265350Y-10974557D02*
X937327255Y-10850747D01*
D10*
D11*
X985346303Y-10417414D02*
X985408207Y-10355509D01*
X985408207Y-10355509D02*
X985532017Y-10293604D01*
X985532017Y-10293604D02*
X985841541Y-10293604D01*
X985841541Y-10293604D02*
X985965350Y-10355509D01*
X985965350Y-10355509D02*
X986027255Y-10417414D01*
X986027255Y-10417414D02*
X986089160Y-10541223D01*
X986089160Y-10541223D02*
X986089160Y-10665033D01*
X986089160Y-10665033D02*
X986027255Y-10850747D01*
X986027255Y-10850747D02*
X985284398Y-11593604D01*
X985284398Y-11593604D02*
X986089160Y-11593604D01*
X986893921Y-10293604D02*
X987017731Y-10293604D01*
X987017731Y-10293604D02*
X987141540Y-10355509D01*
X987141540Y-10355509D02*
X987203445Y-10417414D01*
X987203445Y-10417414D02*
X987265350Y-10541223D01*
X987265350Y-10541223D02*
X987327255Y-10788842D01*
X987327255Y-10788842D02*
X987327255Y-11098366D01*
X987327255Y-11098366D02*
X987265350Y-11345985D01*
X987265350Y-11345985D02*
X987203445Y-11469795D01*
X987203445Y-11469795D02*
X987141540Y-11531700D01*
X987141540Y-11531700D02*
X987017731Y-11593604D01*
X987017731Y-11593604D02*
X986893921Y-11593604D01*
X986893921Y-11593604D02*
X986770112Y-11531700D01*
X986770112Y-11531700D02*
X986708207Y-11469795D01*
X986708207Y-11469795D02*
X986646302Y-11345985D01*
X986646302Y-11345985D02*
X986584398Y-11098366D01*
X986584398Y-11098366D02*
X986584398Y-10788842D01*
X986584398Y-10788842D02*
X986646302Y-10541223D01*
X986646302Y-10541223D02*
X986708207Y-10417414D01*
X986708207Y-10417414D02*
X986770112Y-10355509D01*
X986770112Y-10355509D02*
X986893921Y-10293604D01*
D10*
D11*
X1035346303Y-10417414D02*
X1035408207Y-10355509D01*
X1035408207Y-10355509D02*
X1035532017Y-10293604D01*
X1035532017Y-10293604D02*
X1035841541Y-10293604D01*
X1035841541Y-10293604D02*
X1035965350Y-10355509D01*
X1035965350Y-10355509D02*
X1036027255Y-10417414D01*
X1036027255Y-10417414D02*
X1036089160Y-10541223D01*
X1036089160Y-10541223D02*
X1036089160Y-10665033D01*
X1036089160Y-10665033D02*
X1036027255Y-10850747D01*
X1036027255Y-10850747D02*
X1035284398Y-11593604D01*
X1035284398Y-11593604D02*
X1036089160Y-11593604D01*
X1037327255Y-11593604D02*
X1036584398Y-11593604D01*
X1036955826Y-11593604D02*
X1036955826Y-10293604D01*
X1036955826Y-10293604D02*
X1036832017Y-10479319D01*
X1036832017Y-10479319D02*
X1036708207Y-10603128D01*
X1036708207Y-10603128D02*
X1036584398Y-10665033D01*
D10*
D11*
X1085346303Y-10417414D02*
X1085408207Y-10355509D01*
X1085408207Y-10355509D02*
X1085532017Y-10293604D01*
X1085532017Y-10293604D02*
X1085841541Y-10293604D01*
X1085841541Y-10293604D02*
X1085965350Y-10355509D01*
X1085965350Y-10355509D02*
X1086027255Y-10417414D01*
X1086027255Y-10417414D02*
X1086089160Y-10541223D01*
X1086089160Y-10541223D02*
X1086089160Y-10665033D01*
X1086089160Y-10665033D02*
X1086027255Y-10850747D01*
X1086027255Y-10850747D02*
X1085284398Y-11593604D01*
X1085284398Y-11593604D02*
X1086089160Y-11593604D01*
X1086584398Y-10417414D02*
X1086646302Y-10355509D01*
X1086646302Y-10355509D02*
X1086770112Y-10293604D01*
X1086770112Y-10293604D02*
X1087079636Y-10293604D01*
X1087079636Y-10293604D02*
X1087203445Y-10355509D01*
X1087203445Y-10355509D02*
X1087265350Y-10417414D01*
X1087265350Y-10417414D02*
X1087327255Y-10541223D01*
X1087327255Y-10541223D02*
X1087327255Y-10665033D01*
X1087327255Y-10665033D02*
X1087265350Y-10850747D01*
X1087265350Y-10850747D02*
X1086522493Y-11593604D01*
X1086522493Y-11593604D02*
X1087327255Y-11593604D01*
D10*
D11*
X60000000Y-1088000000D02*
X60000000Y-1090000000D01*
D10*
D11*
X110000000Y-1088000000D02*
X110000000Y-1090000000D01*
D10*
D11*
X160000000Y-1088000000D02*
X160000000Y-1090000000D01*
D10*
D11*
X210000000Y-1088000000D02*
X210000000Y-1090000000D01*
D10*
D11*
X260000000Y-1088000000D02*
X260000000Y-1090000000D01*
D10*
D11*
X310000000Y-1088000000D02*
X310000000Y-1090000000D01*
D10*
D11*
X360000000Y-1088000000D02*
X360000000Y-1090000000D01*
D10*
D11*
X410000000Y-1088000000D02*
X410000000Y-1090000000D01*
D10*
D11*
X460000000Y-1088000000D02*
X460000000Y-1090000000D01*
D10*
D11*
X510000000Y-1088000000D02*
X510000000Y-1090000000D01*
D10*
D11*
X560000000Y-1088000000D02*
X560000000Y-1090000000D01*
D10*
D11*
X610000000Y-1088000000D02*
X610000000Y-1090000000D01*
D10*
D11*
X660000000Y-1088000000D02*
X660000000Y-1090000000D01*
D10*
D11*
X710000000Y-1088000000D02*
X710000000Y-1090000000D01*
D10*
D11*
X760000000Y-1088000000D02*
X760000000Y-1090000000D01*
D10*
D11*
X810000000Y-1088000000D02*
X810000000Y-1090000000D01*
D10*
D11*
X860000000Y-1088000000D02*
X860000000Y-1090000000D01*
D10*
D11*
X910000000Y-1088000000D02*
X910000000Y-1090000000D01*
D10*
D11*
X960000000Y-1088000000D02*
X960000000Y-1090000000D01*
D10*
D11*
X1010000000Y-1088000000D02*
X1010000000Y-1090000000D01*
D10*
D11*
X1060000000Y-1088000000D02*
X1060000000Y-1090000000D01*
D10*
D11*
X36089160Y-1089593604D02*
X35346303Y-1089593604D01*
X35717731Y-1089593604D02*
X35717731Y-1088293604D01*
X35717731Y-1088293604D02*
X35593922Y-1088479319D01*
X35593922Y-1088479319D02*
X35470112Y-1088603128D01*
X35470112Y-1088603128D02*
X35346303Y-1088665033D01*
D10*
D11*
X85346303Y-1088417414D02*
X85408207Y-1088355509D01*
X85408207Y-1088355509D02*
X85532017Y-1088293604D01*
X85532017Y-1088293604D02*
X85841541Y-1088293604D01*
X85841541Y-1088293604D02*
X85965350Y-1088355509D01*
X85965350Y-1088355509D02*
X86027255Y-1088417414D01*
X86027255Y-1088417414D02*
X86089160Y-1088541223D01*
X86089160Y-1088541223D02*
X86089160Y-1088665033D01*
X86089160Y-1088665033D02*
X86027255Y-1088850747D01*
X86027255Y-1088850747D02*
X85284398Y-1089593604D01*
X85284398Y-1089593604D02*
X86089160Y-1089593604D01*
D10*
D11*
X135284398Y-1088293604D02*
X136089160Y-1088293604D01*
X136089160Y-1088293604D02*
X135655826Y-1088788842D01*
X135655826Y-1088788842D02*
X135841541Y-1088788842D01*
X135841541Y-1088788842D02*
X135965350Y-1088850747D01*
X135965350Y-1088850747D02*
X136027255Y-1088912652D01*
X136027255Y-1088912652D02*
X136089160Y-1089036461D01*
X136089160Y-1089036461D02*
X136089160Y-1089345985D01*
X136089160Y-1089345985D02*
X136027255Y-1089469795D01*
X136027255Y-1089469795D02*
X135965350Y-1089531700D01*
X135965350Y-1089531700D02*
X135841541Y-1089593604D01*
X135841541Y-1089593604D02*
X135470112Y-1089593604D01*
X135470112Y-1089593604D02*
X135346303Y-1089531700D01*
X135346303Y-1089531700D02*
X135284398Y-1089469795D01*
D10*
D11*
X185965350Y-1088726938D02*
X185965350Y-1089593604D01*
X185655826Y-1088231700D02*
X185346303Y-1089160271D01*
X185346303Y-1089160271D02*
X186151064Y-1089160271D01*
D10*
D11*
X236027255Y-1088293604D02*
X235408207Y-1088293604D01*
X235408207Y-1088293604D02*
X235346303Y-1088912652D01*
X235346303Y-1088912652D02*
X235408207Y-1088850747D01*
X235408207Y-1088850747D02*
X235532017Y-1088788842D01*
X235532017Y-1088788842D02*
X235841541Y-1088788842D01*
X235841541Y-1088788842D02*
X235965350Y-1088850747D01*
X235965350Y-1088850747D02*
X236027255Y-1088912652D01*
X236027255Y-1088912652D02*
X236089160Y-1089036461D01*
X236089160Y-1089036461D02*
X236089160Y-1089345985D01*
X236089160Y-1089345985D02*
X236027255Y-1089469795D01*
X236027255Y-1089469795D02*
X235965350Y-1089531700D01*
X235965350Y-1089531700D02*
X235841541Y-1089593604D01*
X235841541Y-1089593604D02*
X235532017Y-1089593604D01*
X235532017Y-1089593604D02*
X235408207Y-1089531700D01*
X235408207Y-1089531700D02*
X235346303Y-1089469795D01*
D10*
D11*
X285965350Y-1088293604D02*
X285717731Y-1088293604D01*
X285717731Y-1088293604D02*
X285593922Y-1088355509D01*
X285593922Y-1088355509D02*
X285532017Y-1088417414D01*
X285532017Y-1088417414D02*
X285408207Y-1088603128D01*
X285408207Y-1088603128D02*
X285346303Y-1088850747D01*
X285346303Y-1088850747D02*
X285346303Y-1089345985D01*
X285346303Y-1089345985D02*
X285408207Y-1089469795D01*
X285408207Y-1089469795D02*
X285470112Y-1089531700D01*
X285470112Y-1089531700D02*
X285593922Y-1089593604D01*
X285593922Y-1089593604D02*
X285841541Y-1089593604D01*
X285841541Y-1089593604D02*
X285965350Y-1089531700D01*
X285965350Y-1089531700D02*
X286027255Y-1089469795D01*
X286027255Y-1089469795D02*
X286089160Y-1089345985D01*
X286089160Y-1089345985D02*
X286089160Y-1089036461D01*
X286089160Y-1089036461D02*
X286027255Y-1088912652D01*
X286027255Y-1088912652D02*
X285965350Y-1088850747D01*
X285965350Y-1088850747D02*
X285841541Y-1088788842D01*
X285841541Y-1088788842D02*
X285593922Y-1088788842D01*
X285593922Y-1088788842D02*
X285470112Y-1088850747D01*
X285470112Y-1088850747D02*
X285408207Y-1088912652D01*
X285408207Y-1088912652D02*
X285346303Y-1089036461D01*
D10*
D11*
X335284398Y-1088293604D02*
X336151064Y-1088293604D01*
X336151064Y-1088293604D02*
X335593922Y-1089593604D01*
D10*
D11*
X385593922Y-1088850747D02*
X385470112Y-1088788842D01*
X385470112Y-1088788842D02*
X385408207Y-1088726938D01*
X385408207Y-1088726938D02*
X385346303Y-1088603128D01*
X385346303Y-1088603128D02*
X385346303Y-1088541223D01*
X385346303Y-1088541223D02*
X385408207Y-1088417414D01*
X385408207Y-1088417414D02*
X385470112Y-1088355509D01*
X385470112Y-1088355509D02*
X385593922Y-1088293604D01*
X385593922Y-1088293604D02*
X385841541Y-1088293604D01*
X385841541Y-1088293604D02*
X385965350Y-1088355509D01*
X385965350Y-1088355509D02*
X386027255Y-1088417414D01*
X386027255Y-1088417414D02*
X386089160Y-1088541223D01*
X386089160Y-1088541223D02*
X386089160Y-1088603128D01*
X386089160Y-1088603128D02*
X386027255Y-1088726938D01*
X386027255Y-1088726938D02*
X385965350Y-1088788842D01*
X385965350Y-1088788842D02*
X385841541Y-1088850747D01*
X385841541Y-1088850747D02*
X385593922Y-1088850747D01*
X385593922Y-1088850747D02*
X385470112Y-1088912652D01*
X385470112Y-1088912652D02*
X385408207Y-1088974557D01*
X385408207Y-1088974557D02*
X385346303Y-1089098366D01*
X385346303Y-1089098366D02*
X385346303Y-1089345985D01*
X385346303Y-1089345985D02*
X385408207Y-1089469795D01*
X385408207Y-1089469795D02*
X385470112Y-1089531700D01*
X385470112Y-1089531700D02*
X385593922Y-1089593604D01*
X385593922Y-1089593604D02*
X385841541Y-1089593604D01*
X385841541Y-1089593604D02*
X385965350Y-1089531700D01*
X385965350Y-1089531700D02*
X386027255Y-1089469795D01*
X386027255Y-1089469795D02*
X386089160Y-1089345985D01*
X386089160Y-1089345985D02*
X386089160Y-1089098366D01*
X386089160Y-1089098366D02*
X386027255Y-1088974557D01*
X386027255Y-1088974557D02*
X385965350Y-1088912652D01*
X385965350Y-1088912652D02*
X385841541Y-1088850747D01*
D10*
D11*
X435470112Y-1089593604D02*
X435717731Y-1089593604D01*
X435717731Y-1089593604D02*
X435841541Y-1089531700D01*
X435841541Y-1089531700D02*
X435903445Y-1089469795D01*
X435903445Y-1089469795D02*
X436027255Y-1089284080D01*
X436027255Y-1089284080D02*
X436089160Y-1089036461D01*
X436089160Y-1089036461D02*
X436089160Y-1088541223D01*
X436089160Y-1088541223D02*
X436027255Y-1088417414D01*
X436027255Y-1088417414D02*
X435965350Y-1088355509D01*
X435965350Y-1088355509D02*
X435841541Y-1088293604D01*
X435841541Y-1088293604D02*
X435593922Y-1088293604D01*
X435593922Y-1088293604D02*
X435470112Y-1088355509D01*
X435470112Y-1088355509D02*
X435408207Y-1088417414D01*
X435408207Y-1088417414D02*
X435346303Y-1088541223D01*
X435346303Y-1088541223D02*
X435346303Y-1088850747D01*
X435346303Y-1088850747D02*
X435408207Y-1088974557D01*
X435408207Y-1088974557D02*
X435470112Y-1089036461D01*
X435470112Y-1089036461D02*
X435593922Y-1089098366D01*
X435593922Y-1089098366D02*
X435841541Y-1089098366D01*
X435841541Y-1089098366D02*
X435965350Y-1089036461D01*
X435965350Y-1089036461D02*
X436027255Y-1088974557D01*
X436027255Y-1088974557D02*
X436089160Y-1088850747D01*
D10*
D11*
X486089160Y-1089593604D02*
X485346303Y-1089593604D01*
X485717731Y-1089593604D02*
X485717731Y-1088293604D01*
X485717731Y-1088293604D02*
X485593922Y-1088479319D01*
X485593922Y-1088479319D02*
X485470112Y-1088603128D01*
X485470112Y-1088603128D02*
X485346303Y-1088665033D01*
X486893921Y-1088293604D02*
X487017731Y-1088293604D01*
X487017731Y-1088293604D02*
X487141540Y-1088355509D01*
X487141540Y-1088355509D02*
X487203445Y-1088417414D01*
X487203445Y-1088417414D02*
X487265350Y-1088541223D01*
X487265350Y-1088541223D02*
X487327255Y-1088788842D01*
X487327255Y-1088788842D02*
X487327255Y-1089098366D01*
X487327255Y-1089098366D02*
X487265350Y-1089345985D01*
X487265350Y-1089345985D02*
X487203445Y-1089469795D01*
X487203445Y-1089469795D02*
X487141540Y-1089531700D01*
X487141540Y-1089531700D02*
X487017731Y-1089593604D01*
X487017731Y-1089593604D02*
X486893921Y-1089593604D01*
X486893921Y-1089593604D02*
X486770112Y-1089531700D01*
X486770112Y-1089531700D02*
X486708207Y-1089469795D01*
X486708207Y-1089469795D02*
X486646302Y-1089345985D01*
X486646302Y-1089345985D02*
X486584398Y-1089098366D01*
X486584398Y-1089098366D02*
X486584398Y-1088788842D01*
X486584398Y-1088788842D02*
X486646302Y-1088541223D01*
X486646302Y-1088541223D02*
X486708207Y-1088417414D01*
X486708207Y-1088417414D02*
X486770112Y-1088355509D01*
X486770112Y-1088355509D02*
X486893921Y-1088293604D01*
D10*
D11*
X536089160Y-1089593604D02*
X535346303Y-1089593604D01*
X535717731Y-1089593604D02*
X535717731Y-1088293604D01*
X535717731Y-1088293604D02*
X535593922Y-1088479319D01*
X535593922Y-1088479319D02*
X535470112Y-1088603128D01*
X535470112Y-1088603128D02*
X535346303Y-1088665033D01*
X537327255Y-1089593604D02*
X536584398Y-1089593604D01*
X536955826Y-1089593604D02*
X536955826Y-1088293604D01*
X536955826Y-1088293604D02*
X536832017Y-1088479319D01*
X536832017Y-1088479319D02*
X536708207Y-1088603128D01*
X536708207Y-1088603128D02*
X536584398Y-1088665033D01*
D10*
D11*
X586089160Y-1089593604D02*
X585346303Y-1089593604D01*
X585717731Y-1089593604D02*
X585717731Y-1088293604D01*
X585717731Y-1088293604D02*
X585593922Y-1088479319D01*
X585593922Y-1088479319D02*
X585470112Y-1088603128D01*
X585470112Y-1088603128D02*
X585346303Y-1088665033D01*
X586584398Y-1088417414D02*
X586646302Y-1088355509D01*
X586646302Y-1088355509D02*
X586770112Y-1088293604D01*
X586770112Y-1088293604D02*
X587079636Y-1088293604D01*
X587079636Y-1088293604D02*
X587203445Y-1088355509D01*
X587203445Y-1088355509D02*
X587265350Y-1088417414D01*
X587265350Y-1088417414D02*
X587327255Y-1088541223D01*
X587327255Y-1088541223D02*
X587327255Y-1088665033D01*
X587327255Y-1088665033D02*
X587265350Y-1088850747D01*
X587265350Y-1088850747D02*
X586522493Y-1089593604D01*
X586522493Y-1089593604D02*
X587327255Y-1089593604D01*
D10*
D11*
X636089160Y-1089593604D02*
X635346303Y-1089593604D01*
X635717731Y-1089593604D02*
X635717731Y-1088293604D01*
X635717731Y-1088293604D02*
X635593922Y-1088479319D01*
X635593922Y-1088479319D02*
X635470112Y-1088603128D01*
X635470112Y-1088603128D02*
X635346303Y-1088665033D01*
X636522493Y-1088293604D02*
X637327255Y-1088293604D01*
X637327255Y-1088293604D02*
X636893921Y-1088788842D01*
X636893921Y-1088788842D02*
X637079636Y-1088788842D01*
X637079636Y-1088788842D02*
X637203445Y-1088850747D01*
X637203445Y-1088850747D02*
X637265350Y-1088912652D01*
X637265350Y-1088912652D02*
X637327255Y-1089036461D01*
X637327255Y-1089036461D02*
X637327255Y-1089345985D01*
X637327255Y-1089345985D02*
X637265350Y-1089469795D01*
X637265350Y-1089469795D02*
X637203445Y-1089531700D01*
X637203445Y-1089531700D02*
X637079636Y-1089593604D01*
X637079636Y-1089593604D02*
X636708207Y-1089593604D01*
X636708207Y-1089593604D02*
X636584398Y-1089531700D01*
X636584398Y-1089531700D02*
X636522493Y-1089469795D01*
D10*
D11*
X686089160Y-1089593604D02*
X685346303Y-1089593604D01*
X685717731Y-1089593604D02*
X685717731Y-1088293604D01*
X685717731Y-1088293604D02*
X685593922Y-1088479319D01*
X685593922Y-1088479319D02*
X685470112Y-1088603128D01*
X685470112Y-1088603128D02*
X685346303Y-1088665033D01*
X687203445Y-1088726938D02*
X687203445Y-1089593604D01*
X686893921Y-1088231700D02*
X686584398Y-1089160271D01*
X686584398Y-1089160271D02*
X687389159Y-1089160271D01*
D10*
D11*
X736089160Y-1089593604D02*
X735346303Y-1089593604D01*
X735717731Y-1089593604D02*
X735717731Y-1088293604D01*
X735717731Y-1088293604D02*
X735593922Y-1088479319D01*
X735593922Y-1088479319D02*
X735470112Y-1088603128D01*
X735470112Y-1088603128D02*
X735346303Y-1088665033D01*
X737265350Y-1088293604D02*
X736646302Y-1088293604D01*
X736646302Y-1088293604D02*
X736584398Y-1088912652D01*
X736584398Y-1088912652D02*
X736646302Y-1088850747D01*
X736646302Y-1088850747D02*
X736770112Y-1088788842D01*
X736770112Y-1088788842D02*
X737079636Y-1088788842D01*
X737079636Y-1088788842D02*
X737203445Y-1088850747D01*
X737203445Y-1088850747D02*
X737265350Y-1088912652D01*
X737265350Y-1088912652D02*
X737327255Y-1089036461D01*
X737327255Y-1089036461D02*
X737327255Y-1089345985D01*
X737327255Y-1089345985D02*
X737265350Y-1089469795D01*
X737265350Y-1089469795D02*
X737203445Y-1089531700D01*
X737203445Y-1089531700D02*
X737079636Y-1089593604D01*
X737079636Y-1089593604D02*
X736770112Y-1089593604D01*
X736770112Y-1089593604D02*
X736646302Y-1089531700D01*
X736646302Y-1089531700D02*
X736584398Y-1089469795D01*
D10*
D11*
X786089160Y-1089593604D02*
X785346303Y-1089593604D01*
X785717731Y-1089593604D02*
X785717731Y-1088293604D01*
X785717731Y-1088293604D02*
X785593922Y-1088479319D01*
X785593922Y-1088479319D02*
X785470112Y-1088603128D01*
X785470112Y-1088603128D02*
X785346303Y-1088665033D01*
X787203445Y-1088293604D02*
X786955826Y-1088293604D01*
X786955826Y-1088293604D02*
X786832017Y-1088355509D01*
X786832017Y-1088355509D02*
X786770112Y-1088417414D01*
X786770112Y-1088417414D02*
X786646302Y-1088603128D01*
X786646302Y-1088603128D02*
X786584398Y-1088850747D01*
X786584398Y-1088850747D02*
X786584398Y-1089345985D01*
X786584398Y-1089345985D02*
X786646302Y-1089469795D01*
X786646302Y-1089469795D02*
X786708207Y-1089531700D01*
X786708207Y-1089531700D02*
X786832017Y-1089593604D01*
X786832017Y-1089593604D02*
X787079636Y-1089593604D01*
X787079636Y-1089593604D02*
X787203445Y-1089531700D01*
X787203445Y-1089531700D02*
X787265350Y-1089469795D01*
X787265350Y-1089469795D02*
X787327255Y-1089345985D01*
X787327255Y-1089345985D02*
X787327255Y-1089036461D01*
X787327255Y-1089036461D02*
X787265350Y-1088912652D01*
X787265350Y-1088912652D02*
X787203445Y-1088850747D01*
X787203445Y-1088850747D02*
X787079636Y-1088788842D01*
X787079636Y-1088788842D02*
X786832017Y-1088788842D01*
X786832017Y-1088788842D02*
X786708207Y-1088850747D01*
X786708207Y-1088850747D02*
X786646302Y-1088912652D01*
X786646302Y-1088912652D02*
X786584398Y-1089036461D01*
D10*
D11*
X836089160Y-1089593604D02*
X835346303Y-1089593604D01*
X835717731Y-1089593604D02*
X835717731Y-1088293604D01*
X835717731Y-1088293604D02*
X835593922Y-1088479319D01*
X835593922Y-1088479319D02*
X835470112Y-1088603128D01*
X835470112Y-1088603128D02*
X835346303Y-1088665033D01*
X836522493Y-1088293604D02*
X837389159Y-1088293604D01*
X837389159Y-1088293604D02*
X836832017Y-1089593604D01*
D10*
D11*
X886089160Y-1089593604D02*
X885346303Y-1089593604D01*
X885717731Y-1089593604D02*
X885717731Y-1088293604D01*
X885717731Y-1088293604D02*
X885593922Y-1088479319D01*
X885593922Y-1088479319D02*
X885470112Y-1088603128D01*
X885470112Y-1088603128D02*
X885346303Y-1088665033D01*
X886832017Y-1088850747D02*
X886708207Y-1088788842D01*
X886708207Y-1088788842D02*
X886646302Y-1088726938D01*
X886646302Y-1088726938D02*
X886584398Y-1088603128D01*
X886584398Y-1088603128D02*
X886584398Y-1088541223D01*
X886584398Y-1088541223D02*
X886646302Y-1088417414D01*
X886646302Y-1088417414D02*
X886708207Y-1088355509D01*
X886708207Y-1088355509D02*
X886832017Y-1088293604D01*
X886832017Y-1088293604D02*
X887079636Y-1088293604D01*
X887079636Y-1088293604D02*
X887203445Y-1088355509D01*
X887203445Y-1088355509D02*
X887265350Y-1088417414D01*
X887265350Y-1088417414D02*
X887327255Y-1088541223D01*
X887327255Y-1088541223D02*
X887327255Y-1088603128D01*
X887327255Y-1088603128D02*
X887265350Y-1088726938D01*
X887265350Y-1088726938D02*
X887203445Y-1088788842D01*
X887203445Y-1088788842D02*
X887079636Y-1088850747D01*
X887079636Y-1088850747D02*
X886832017Y-1088850747D01*
X886832017Y-1088850747D02*
X886708207Y-1088912652D01*
X886708207Y-1088912652D02*
X886646302Y-1088974557D01*
X886646302Y-1088974557D02*
X886584398Y-1089098366D01*
X886584398Y-1089098366D02*
X886584398Y-1089345985D01*
X886584398Y-1089345985D02*
X886646302Y-1089469795D01*
X886646302Y-1089469795D02*
X886708207Y-1089531700D01*
X886708207Y-1089531700D02*
X886832017Y-1089593604D01*
X886832017Y-1089593604D02*
X887079636Y-1089593604D01*
X887079636Y-1089593604D02*
X887203445Y-1089531700D01*
X887203445Y-1089531700D02*
X887265350Y-1089469795D01*
X887265350Y-1089469795D02*
X887327255Y-1089345985D01*
X887327255Y-1089345985D02*
X887327255Y-1089098366D01*
X887327255Y-1089098366D02*
X887265350Y-1088974557D01*
X887265350Y-1088974557D02*
X887203445Y-1088912652D01*
X887203445Y-1088912652D02*
X887079636Y-1088850747D01*
D10*
D11*
X936089160Y-1089593604D02*
X935346303Y-1089593604D01*
X935717731Y-1089593604D02*
X935717731Y-1088293604D01*
X935717731Y-1088293604D02*
X935593922Y-1088479319D01*
X935593922Y-1088479319D02*
X935470112Y-1088603128D01*
X935470112Y-1088603128D02*
X935346303Y-1088665033D01*
X936708207Y-1089593604D02*
X936955826Y-1089593604D01*
X936955826Y-1089593604D02*
X937079636Y-1089531700D01*
X937079636Y-1089531700D02*
X937141540Y-1089469795D01*
X937141540Y-1089469795D02*
X937265350Y-1089284080D01*
X937265350Y-1089284080D02*
X937327255Y-1089036461D01*
X937327255Y-1089036461D02*
X937327255Y-1088541223D01*
X937327255Y-1088541223D02*
X937265350Y-1088417414D01*
X937265350Y-1088417414D02*
X937203445Y-1088355509D01*
X937203445Y-1088355509D02*
X937079636Y-1088293604D01*
X937079636Y-1088293604D02*
X936832017Y-1088293604D01*
X936832017Y-1088293604D02*
X936708207Y-1088355509D01*
X936708207Y-1088355509D02*
X936646302Y-1088417414D01*
X936646302Y-1088417414D02*
X936584398Y-1088541223D01*
X936584398Y-1088541223D02*
X936584398Y-1088850747D01*
X936584398Y-1088850747D02*
X936646302Y-1088974557D01*
X936646302Y-1088974557D02*
X936708207Y-1089036461D01*
X936708207Y-1089036461D02*
X936832017Y-1089098366D01*
X936832017Y-1089098366D02*
X937079636Y-1089098366D01*
X937079636Y-1089098366D02*
X937203445Y-1089036461D01*
X937203445Y-1089036461D02*
X937265350Y-1088974557D01*
X937265350Y-1088974557D02*
X937327255Y-1088850747D01*
D10*
D11*
X985346303Y-1088417414D02*
X985408207Y-1088355509D01*
X985408207Y-1088355509D02*
X985532017Y-1088293604D01*
X985532017Y-1088293604D02*
X985841541Y-1088293604D01*
X985841541Y-1088293604D02*
X985965350Y-1088355509D01*
X985965350Y-1088355509D02*
X986027255Y-1088417414D01*
X986027255Y-1088417414D02*
X986089160Y-1088541223D01*
X986089160Y-1088541223D02*
X986089160Y-1088665033D01*
X986089160Y-1088665033D02*
X986027255Y-1088850747D01*
X986027255Y-1088850747D02*
X985284398Y-1089593604D01*
X985284398Y-1089593604D02*
X986089160Y-1089593604D01*
X986893921Y-1088293604D02*
X987017731Y-1088293604D01*
X987017731Y-1088293604D02*
X987141540Y-1088355509D01*
X987141540Y-1088355509D02*
X987203445Y-1088417414D01*
X987203445Y-1088417414D02*
X987265350Y-1088541223D01*
X987265350Y-1088541223D02*
X987327255Y-1088788842D01*
X987327255Y-1088788842D02*
X987327255Y-1089098366D01*
X987327255Y-1089098366D02*
X987265350Y-1089345985D01*
X987265350Y-1089345985D02*
X987203445Y-1089469795D01*
X987203445Y-1089469795D02*
X987141540Y-1089531700D01*
X987141540Y-1089531700D02*
X987017731Y-1089593604D01*
X987017731Y-1089593604D02*
X986893921Y-1089593604D01*
X986893921Y-1089593604D02*
X986770112Y-1089531700D01*
X986770112Y-1089531700D02*
X986708207Y-1089469795D01*
X986708207Y-1089469795D02*
X986646302Y-1089345985D01*
X986646302Y-1089345985D02*
X986584398Y-1089098366D01*
X986584398Y-1089098366D02*
X986584398Y-1088788842D01*
X986584398Y-1088788842D02*
X986646302Y-1088541223D01*
X986646302Y-1088541223D02*
X986708207Y-1088417414D01*
X986708207Y-1088417414D02*
X986770112Y-1088355509D01*
X986770112Y-1088355509D02*
X986893921Y-1088293604D01*
D10*
D11*
X1035346303Y-1088417414D02*
X1035408207Y-1088355509D01*
X1035408207Y-1088355509D02*
X1035532017Y-1088293604D01*
X1035532017Y-1088293604D02*
X1035841541Y-1088293604D01*
X1035841541Y-1088293604D02*
X1035965350Y-1088355509D01*
X1035965350Y-1088355509D02*
X1036027255Y-1088417414D01*
X1036027255Y-1088417414D02*
X1036089160Y-1088541223D01*
X1036089160Y-1088541223D02*
X1036089160Y-1088665033D01*
X1036089160Y-1088665033D02*
X1036027255Y-1088850747D01*
X1036027255Y-1088850747D02*
X1035284398Y-1089593604D01*
X1035284398Y-1089593604D02*
X1036089160Y-1089593604D01*
X1037327255Y-1089593604D02*
X1036584398Y-1089593604D01*
X1036955826Y-1089593604D02*
X1036955826Y-1088293604D01*
X1036955826Y-1088293604D02*
X1036832017Y-1088479319D01*
X1036832017Y-1088479319D02*
X1036708207Y-1088603128D01*
X1036708207Y-1088603128D02*
X1036584398Y-1088665033D01*
D10*
D11*
X1085346303Y-1088417414D02*
X1085408207Y-1088355509D01*
X1085408207Y-1088355509D02*
X1085532017Y-1088293604D01*
X1085532017Y-1088293604D02*
X1085841541Y-1088293604D01*
X1085841541Y-1088293604D02*
X1085965350Y-1088355509D01*
X1085965350Y-1088355509D02*
X1086027255Y-1088417414D01*
X1086027255Y-1088417414D02*
X1086089160Y-1088541223D01*
X1086089160Y-1088541223D02*
X1086089160Y-1088665033D01*
X1086089160Y-1088665033D02*
X1086027255Y-1088850747D01*
X1086027255Y-1088850747D02*
X1085284398Y-1089593604D01*
X1085284398Y-1089593604D02*
X1086089160Y-1089593604D01*
X1086584398Y-1088417414D02*
X1086646302Y-1088355509D01*
X1086646302Y-1088355509D02*
X1086770112Y-1088293604D01*
X1086770112Y-1088293604D02*
X1087079636Y-1088293604D01*
X1087079636Y-1088293604D02*
X1087203445Y-1088355509D01*
X1087203445Y-1088355509D02*
X1087265350Y-1088417414D01*
X1087265350Y-1088417414D02*
X1087327255Y-1088541223D01*
X1087327255Y-1088541223D02*
X1087327255Y-1088665033D01*
X1087327255Y-1088665033D02*
X1087265350Y-1088850747D01*
X1087265350Y-1088850747D02*
X1086522493Y-1089593604D01*
X1086522493Y-1089593604D02*
X1087327255Y-1089593604D01*
D10*
D11*
X10000000Y-60000000D02*
X12000000Y-60000000D01*
D10*
D11*
X10000000Y-110000000D02*
X12000000Y-110000000D01*
D10*
D11*
X10000000Y-160000000D02*
X12000000Y-160000000D01*
D10*
D11*
X10000000Y-210000000D02*
X12000000Y-210000000D01*
D10*
D11*
X10000000Y-260000000D02*
X12000000Y-260000000D01*
D10*
D11*
X10000000Y-310000000D02*
X12000000Y-310000000D01*
D10*
D11*
X10000000Y-360000000D02*
X12000000Y-360000000D01*
D10*
D11*
X10000000Y-410000000D02*
X12000000Y-410000000D01*
D10*
D11*
X10000000Y-460000000D02*
X12000000Y-460000000D01*
D10*
D11*
X10000000Y-510000000D02*
X12000000Y-510000000D01*
D10*
D11*
X10000000Y-560000000D02*
X12000000Y-560000000D01*
D10*
D11*
X10000000Y-610000000D02*
X12000000Y-610000000D01*
D10*
D11*
X10000000Y-660000000D02*
X12000000Y-660000000D01*
D10*
D11*
X10000000Y-710000000D02*
X12000000Y-710000000D01*
D10*
D11*
X10000000Y-760000000D02*
X12000000Y-760000000D01*
D10*
D11*
X10000000Y-810000000D02*
X12000000Y-810000000D01*
D10*
D11*
X10000000Y-860000000D02*
X12000000Y-860000000D01*
D10*
D11*
X10000000Y-910000000D02*
X12000000Y-910000000D01*
D10*
D11*
X10000000Y-960000000D02*
X12000000Y-960000000D01*
D10*
D11*
X10000000Y-1010000000D02*
X12000000Y-1010000000D01*
D10*
D11*
X10000000Y-1060000000D02*
X12000000Y-1060000000D01*
D10*
D11*
X10690476Y-35222176D02*
X11309523Y-35222176D01*
X10566666Y-35593604D02*
X10999999Y-34293604D01*
X10999999Y-34293604D02*
X11433333Y-35593604D01*
D10*
D11*
X11092857Y-84912652D02*
X11278571Y-84974557D01*
X11278571Y-84974557D02*
X11340476Y-85036461D01*
X11340476Y-85036461D02*
X11402380Y-85160271D01*
X11402380Y-85160271D02*
X11402380Y-85345985D01*
X11402380Y-85345985D02*
X11340476Y-85469795D01*
X11340476Y-85469795D02*
X11278571Y-85531700D01*
X11278571Y-85531700D02*
X11154761Y-85593604D01*
X11154761Y-85593604D02*
X10659523Y-85593604D01*
X10659523Y-85593604D02*
X10659523Y-84293604D01*
X10659523Y-84293604D02*
X11092857Y-84293604D01*
X11092857Y-84293604D02*
X11216666Y-84355509D01*
X11216666Y-84355509D02*
X11278571Y-84417414D01*
X11278571Y-84417414D02*
X11340476Y-84541223D01*
X11340476Y-84541223D02*
X11340476Y-84665033D01*
X11340476Y-84665033D02*
X11278571Y-84788842D01*
X11278571Y-84788842D02*
X11216666Y-84850747D01*
X11216666Y-84850747D02*
X11092857Y-84912652D01*
X11092857Y-84912652D02*
X10659523Y-84912652D01*
D10*
D11*
X11402380Y-135469795D02*
X11340476Y-135531700D01*
X11340476Y-135531700D02*
X11154761Y-135593604D01*
X11154761Y-135593604D02*
X11030952Y-135593604D01*
X11030952Y-135593604D02*
X10845238Y-135531700D01*
X10845238Y-135531700D02*
X10721428Y-135407890D01*
X10721428Y-135407890D02*
X10659523Y-135284080D01*
X10659523Y-135284080D02*
X10597619Y-135036461D01*
X10597619Y-135036461D02*
X10597619Y-134850747D01*
X10597619Y-134850747D02*
X10659523Y-134603128D01*
X10659523Y-134603128D02*
X10721428Y-134479319D01*
X10721428Y-134479319D02*
X10845238Y-134355509D01*
X10845238Y-134355509D02*
X11030952Y-134293604D01*
X11030952Y-134293604D02*
X11154761Y-134293604D01*
X11154761Y-134293604D02*
X11340476Y-134355509D01*
X11340476Y-134355509D02*
X11402380Y-134417414D01*
D10*
D11*
X10659523Y-185593604D02*
X10659523Y-184293604D01*
X10659523Y-184293604D02*
X10969047Y-184293604D01*
X10969047Y-184293604D02*
X11154761Y-184355509D01*
X11154761Y-184355509D02*
X11278571Y-184479319D01*
X11278571Y-184479319D02*
X11340476Y-184603128D01*
X11340476Y-184603128D02*
X11402380Y-184850747D01*
X11402380Y-184850747D02*
X11402380Y-185036461D01*
X11402380Y-185036461D02*
X11340476Y-185284080D01*
X11340476Y-185284080D02*
X11278571Y-185407890D01*
X11278571Y-185407890D02*
X11154761Y-185531700D01*
X11154761Y-185531700D02*
X10969047Y-185593604D01*
X10969047Y-185593604D02*
X10659523Y-185593604D01*
D10*
D11*
X10721428Y-234912652D02*
X11154762Y-234912652D01*
X11340476Y-235593604D02*
X10721428Y-235593604D01*
X10721428Y-235593604D02*
X10721428Y-234293604D01*
X10721428Y-234293604D02*
X11340476Y-234293604D01*
D10*
D11*
X11185714Y-284912652D02*
X10752380Y-284912652D01*
X10752380Y-285593604D02*
X10752380Y-284293604D01*
X10752380Y-284293604D02*
X11371428Y-284293604D01*
D10*
D11*
X11340476Y-334355509D02*
X11216666Y-334293604D01*
X11216666Y-334293604D02*
X11030952Y-334293604D01*
X11030952Y-334293604D02*
X10845238Y-334355509D01*
X10845238Y-334355509D02*
X10721428Y-334479319D01*
X10721428Y-334479319D02*
X10659523Y-334603128D01*
X10659523Y-334603128D02*
X10597619Y-334850747D01*
X10597619Y-334850747D02*
X10597619Y-335036461D01*
X10597619Y-335036461D02*
X10659523Y-335284080D01*
X10659523Y-335284080D02*
X10721428Y-335407890D01*
X10721428Y-335407890D02*
X10845238Y-335531700D01*
X10845238Y-335531700D02*
X11030952Y-335593604D01*
X11030952Y-335593604D02*
X11154761Y-335593604D01*
X11154761Y-335593604D02*
X11340476Y-335531700D01*
X11340476Y-335531700D02*
X11402380Y-335469795D01*
X11402380Y-335469795D02*
X11402380Y-335036461D01*
X11402380Y-335036461D02*
X11154761Y-335036461D01*
D10*
D11*
X10628571Y-385593604D02*
X10628571Y-384293604D01*
X10628571Y-384912652D02*
X11371428Y-384912652D01*
X11371428Y-385593604D02*
X11371428Y-384293604D01*
D10*
D11*
X10999999Y-435593604D02*
X10999999Y-434293604D01*
D10*
D11*
X11185714Y-484293604D02*
X11185714Y-485222176D01*
X11185714Y-485222176D02*
X11123809Y-485407890D01*
X11123809Y-485407890D02*
X11000000Y-485531700D01*
X11000000Y-485531700D02*
X10814285Y-485593604D01*
X10814285Y-485593604D02*
X10690476Y-485593604D01*
D10*
D11*
X10659523Y-535593604D02*
X10659523Y-534293604D01*
X11402380Y-535593604D02*
X10845238Y-534850747D01*
X11402380Y-534293604D02*
X10659523Y-535036461D01*
D10*
D11*
X11402381Y-585593604D02*
X10783333Y-585593604D01*
X10783333Y-585593604D02*
X10783333Y-584293604D01*
D10*
D11*
X10566666Y-635593604D02*
X10566666Y-634293604D01*
X10566666Y-634293604D02*
X11000000Y-635222176D01*
X11000000Y-635222176D02*
X11433333Y-634293604D01*
X11433333Y-634293604D02*
X11433333Y-635593604D01*
D10*
D11*
X10628571Y-685593604D02*
X10628571Y-684293604D01*
X10628571Y-684293604D02*
X11371428Y-685593604D01*
X11371428Y-685593604D02*
X11371428Y-684293604D01*
D10*
D11*
X10876190Y-734293604D02*
X11123809Y-734293604D01*
X11123809Y-734293604D02*
X11247619Y-734355509D01*
X11247619Y-734355509D02*
X11371428Y-734479319D01*
X11371428Y-734479319D02*
X11433333Y-734726938D01*
X11433333Y-734726938D02*
X11433333Y-735160271D01*
X11433333Y-735160271D02*
X11371428Y-735407890D01*
X11371428Y-735407890D02*
X11247619Y-735531700D01*
X11247619Y-735531700D02*
X11123809Y-735593604D01*
X11123809Y-735593604D02*
X10876190Y-735593604D01*
X10876190Y-735593604D02*
X10752381Y-735531700D01*
X10752381Y-735531700D02*
X10628571Y-735407890D01*
X10628571Y-735407890D02*
X10566667Y-735160271D01*
X10566667Y-735160271D02*
X10566667Y-734726938D01*
X10566667Y-734726938D02*
X10628571Y-734479319D01*
X10628571Y-734479319D02*
X10752381Y-734355509D01*
X10752381Y-734355509D02*
X10876190Y-734293604D01*
D10*
D11*
X10659523Y-785593604D02*
X10659523Y-784293604D01*
X10659523Y-784293604D02*
X11154761Y-784293604D01*
X11154761Y-784293604D02*
X11278571Y-784355509D01*
X11278571Y-784355509D02*
X11340476Y-784417414D01*
X11340476Y-784417414D02*
X11402380Y-784541223D01*
X11402380Y-784541223D02*
X11402380Y-784726938D01*
X11402380Y-784726938D02*
X11340476Y-784850747D01*
X11340476Y-784850747D02*
X11278571Y-784912652D01*
X11278571Y-784912652D02*
X11154761Y-784974557D01*
X11154761Y-784974557D02*
X10659523Y-784974557D01*
D10*
D11*
X11495238Y-835717414D02*
X11371428Y-835655509D01*
X11371428Y-835655509D02*
X11247619Y-835531700D01*
X11247619Y-835531700D02*
X11061905Y-835345985D01*
X11061905Y-835345985D02*
X10938095Y-835284080D01*
X10938095Y-835284080D02*
X10814286Y-835284080D01*
X10876190Y-835593604D02*
X10752381Y-835531700D01*
X10752381Y-835531700D02*
X10628571Y-835407890D01*
X10628571Y-835407890D02*
X10566667Y-835160271D01*
X10566667Y-835160271D02*
X10566667Y-834726938D01*
X10566667Y-834726938D02*
X10628571Y-834479319D01*
X10628571Y-834479319D02*
X10752381Y-834355509D01*
X10752381Y-834355509D02*
X10876190Y-834293604D01*
X10876190Y-834293604D02*
X11123809Y-834293604D01*
X11123809Y-834293604D02*
X11247619Y-834355509D01*
X11247619Y-834355509D02*
X11371428Y-834479319D01*
X11371428Y-834479319D02*
X11433333Y-834726938D01*
X11433333Y-834726938D02*
X11433333Y-835160271D01*
X11433333Y-835160271D02*
X11371428Y-835407890D01*
X11371428Y-835407890D02*
X11247619Y-835531700D01*
X11247619Y-835531700D02*
X11123809Y-835593604D01*
X11123809Y-835593604D02*
X10876190Y-835593604D01*
D10*
D11*
X11402380Y-885593604D02*
X10969047Y-884974557D01*
X10659523Y-885593604D02*
X10659523Y-884293604D01*
X10659523Y-884293604D02*
X11154761Y-884293604D01*
X11154761Y-884293604D02*
X11278571Y-884355509D01*
X11278571Y-884355509D02*
X11340476Y-884417414D01*
X11340476Y-884417414D02*
X11402380Y-884541223D01*
X11402380Y-884541223D02*
X11402380Y-884726938D01*
X11402380Y-884726938D02*
X11340476Y-884850747D01*
X11340476Y-884850747D02*
X11278571Y-884912652D01*
X11278571Y-884912652D02*
X11154761Y-884974557D01*
X11154761Y-884974557D02*
X10659523Y-884974557D01*
D10*
D11*
X10628572Y-935531700D02*
X10814286Y-935593604D01*
X10814286Y-935593604D02*
X11123810Y-935593604D01*
X11123810Y-935593604D02*
X11247619Y-935531700D01*
X11247619Y-935531700D02*
X11309524Y-935469795D01*
X11309524Y-935469795D02*
X11371429Y-935345985D01*
X11371429Y-935345985D02*
X11371429Y-935222176D01*
X11371429Y-935222176D02*
X11309524Y-935098366D01*
X11309524Y-935098366D02*
X11247619Y-935036461D01*
X11247619Y-935036461D02*
X11123810Y-934974557D01*
X11123810Y-934974557D02*
X10876191Y-934912652D01*
X10876191Y-934912652D02*
X10752381Y-934850747D01*
X10752381Y-934850747D02*
X10690476Y-934788842D01*
X10690476Y-934788842D02*
X10628572Y-934665033D01*
X10628572Y-934665033D02*
X10628572Y-934541223D01*
X10628572Y-934541223D02*
X10690476Y-934417414D01*
X10690476Y-934417414D02*
X10752381Y-934355509D01*
X10752381Y-934355509D02*
X10876191Y-934293604D01*
X10876191Y-934293604D02*
X11185714Y-934293604D01*
X11185714Y-934293604D02*
X11371429Y-934355509D01*
D10*
D11*
X10628571Y-984293604D02*
X11371428Y-984293604D01*
X11000000Y-985593604D02*
X11000000Y-984293604D01*
D10*
D11*
X10628571Y-1034293604D02*
X10628571Y-1035345985D01*
X10628571Y-1035345985D02*
X10690476Y-1035469795D01*
X10690476Y-1035469795D02*
X10752381Y-1035531700D01*
X10752381Y-1035531700D02*
X10876190Y-1035593604D01*
X10876190Y-1035593604D02*
X11123809Y-1035593604D01*
X11123809Y-1035593604D02*
X11247619Y-1035531700D01*
X11247619Y-1035531700D02*
X11309524Y-1035469795D01*
X11309524Y-1035469795D02*
X11371428Y-1035345985D01*
X11371428Y-1035345985D02*
X11371428Y-1034293604D01*
D10*
D11*
X10566666Y-1084293604D02*
X10999999Y-1085593604D01*
X10999999Y-1085593604D02*
X11433333Y-1084293604D01*
D10*
D11*
X1090000000Y-60000000D02*
X1088000000Y-60000000D01*
D10*
D11*
X1090000000Y-110000000D02*
X1088000000Y-110000000D01*
D10*
D11*
X1090000000Y-160000000D02*
X1088000000Y-160000000D01*
D10*
D11*
X1090000000Y-210000000D02*
X1088000000Y-210000000D01*
D10*
D11*
X1090000000Y-260000000D02*
X1088000000Y-260000000D01*
D10*
D11*
X1090000000Y-310000000D02*
X1088000000Y-310000000D01*
D10*
D11*
X1090000000Y-360000000D02*
X1088000000Y-360000000D01*
D10*
D11*
X1090000000Y-410000000D02*
X1088000000Y-410000000D01*
D10*
D11*
X1090000000Y-460000000D02*
X1088000000Y-460000000D01*
D10*
D11*
X1090000000Y-510000000D02*
X1088000000Y-510000000D01*
D10*
D11*
X1090000000Y-560000000D02*
X1088000000Y-560000000D01*
D10*
D11*
X1090000000Y-610000000D02*
X1088000000Y-610000000D01*
D10*
D11*
X1090000000Y-660000000D02*
X1088000000Y-660000000D01*
D10*
D11*
X1090000000Y-710000000D02*
X1088000000Y-710000000D01*
D10*
D11*
X1090000000Y-760000000D02*
X1088000000Y-760000000D01*
D10*
D11*
X1090000000Y-810000000D02*
X1088000000Y-810000000D01*
D10*
D11*
X1090000000Y-860000000D02*
X1088000000Y-860000000D01*
D10*
D11*
X1090000000Y-910000000D02*
X1088000000Y-910000000D01*
D10*
D11*
X1090000000Y-960000000D02*
X1088000000Y-960000000D01*
D10*
D11*
X1090000000Y-1010000000D02*
X1088000000Y-1010000000D01*
D10*
D11*
X1090000000Y-1060000000D02*
X1088000000Y-1060000000D01*
D10*
D11*
X1088690476Y-35222176D02*
X1089309523Y-35222176D01*
X1088566666Y-35593604D02*
X1088999999Y-34293604D01*
X1088999999Y-34293604D02*
X1089433333Y-35593604D01*
D10*
D11*
X1089092857Y-84912652D02*
X1089278571Y-84974557D01*
X1089278571Y-84974557D02*
X1089340476Y-85036461D01*
X1089340476Y-85036461D02*
X1089402380Y-85160271D01*
X1089402380Y-85160271D02*
X1089402380Y-85345985D01*
X1089402380Y-85345985D02*
X1089340476Y-85469795D01*
X1089340476Y-85469795D02*
X1089278571Y-85531700D01*
X1089278571Y-85531700D02*
X1089154761Y-85593604D01*
X1089154761Y-85593604D02*
X1088659523Y-85593604D01*
X1088659523Y-85593604D02*
X1088659523Y-84293604D01*
X1088659523Y-84293604D02*
X1089092857Y-84293604D01*
X1089092857Y-84293604D02*
X1089216666Y-84355509D01*
X1089216666Y-84355509D02*
X1089278571Y-84417414D01*
X1089278571Y-84417414D02*
X1089340476Y-84541223D01*
X1089340476Y-84541223D02*
X1089340476Y-84665033D01*
X1089340476Y-84665033D02*
X1089278571Y-84788842D01*
X1089278571Y-84788842D02*
X1089216666Y-84850747D01*
X1089216666Y-84850747D02*
X1089092857Y-84912652D01*
X1089092857Y-84912652D02*
X1088659523Y-84912652D01*
D10*
D11*
X1089402380Y-135469795D02*
X1089340476Y-135531700D01*
X1089340476Y-135531700D02*
X1089154761Y-135593604D01*
X1089154761Y-135593604D02*
X1089030952Y-135593604D01*
X1089030952Y-135593604D02*
X1088845238Y-135531700D01*
X1088845238Y-135531700D02*
X1088721428Y-135407890D01*
X1088721428Y-135407890D02*
X1088659523Y-135284080D01*
X1088659523Y-135284080D02*
X1088597619Y-135036461D01*
X1088597619Y-135036461D02*
X1088597619Y-134850747D01*
X1088597619Y-134850747D02*
X1088659523Y-134603128D01*
X1088659523Y-134603128D02*
X1088721428Y-134479319D01*
X1088721428Y-134479319D02*
X1088845238Y-134355509D01*
X1088845238Y-134355509D02*
X1089030952Y-134293604D01*
X1089030952Y-134293604D02*
X1089154761Y-134293604D01*
X1089154761Y-134293604D02*
X1089340476Y-134355509D01*
X1089340476Y-134355509D02*
X1089402380Y-134417414D01*
D10*
D11*
X1088659523Y-185593604D02*
X1088659523Y-184293604D01*
X1088659523Y-184293604D02*
X1088969047Y-184293604D01*
X1088969047Y-184293604D02*
X1089154761Y-184355509D01*
X1089154761Y-184355509D02*
X1089278571Y-184479319D01*
X1089278571Y-184479319D02*
X1089340476Y-184603128D01*
X1089340476Y-184603128D02*
X1089402380Y-184850747D01*
X1089402380Y-184850747D02*
X1089402380Y-185036461D01*
X1089402380Y-185036461D02*
X1089340476Y-185284080D01*
X1089340476Y-185284080D02*
X1089278571Y-185407890D01*
X1089278571Y-185407890D02*
X1089154761Y-185531700D01*
X1089154761Y-185531700D02*
X1088969047Y-185593604D01*
X1088969047Y-185593604D02*
X1088659523Y-185593604D01*
D10*
D11*
X1088721428Y-234912652D02*
X1089154762Y-234912652D01*
X1089340476Y-235593604D02*
X1088721428Y-235593604D01*
X1088721428Y-235593604D02*
X1088721428Y-234293604D01*
X1088721428Y-234293604D02*
X1089340476Y-234293604D01*
D10*
D11*
X1089185714Y-284912652D02*
X1088752380Y-284912652D01*
X1088752380Y-285593604D02*
X1088752380Y-284293604D01*
X1088752380Y-284293604D02*
X1089371428Y-284293604D01*
D10*
D11*
X1089340476Y-334355509D02*
X1089216666Y-334293604D01*
X1089216666Y-334293604D02*
X1089030952Y-334293604D01*
X1089030952Y-334293604D02*
X1088845238Y-334355509D01*
X1088845238Y-334355509D02*
X1088721428Y-334479319D01*
X1088721428Y-334479319D02*
X1088659523Y-334603128D01*
X1088659523Y-334603128D02*
X1088597619Y-334850747D01*
X1088597619Y-334850747D02*
X1088597619Y-335036461D01*
X1088597619Y-335036461D02*
X1088659523Y-335284080D01*
X1088659523Y-335284080D02*
X1088721428Y-335407890D01*
X1088721428Y-335407890D02*
X1088845238Y-335531700D01*
X1088845238Y-335531700D02*
X1089030952Y-335593604D01*
X1089030952Y-335593604D02*
X1089154761Y-335593604D01*
X1089154761Y-335593604D02*
X1089340476Y-335531700D01*
X1089340476Y-335531700D02*
X1089402380Y-335469795D01*
X1089402380Y-335469795D02*
X1089402380Y-335036461D01*
X1089402380Y-335036461D02*
X1089154761Y-335036461D01*
D10*
D11*
X1088628571Y-385593604D02*
X1088628571Y-384293604D01*
X1088628571Y-384912652D02*
X1089371428Y-384912652D01*
X1089371428Y-385593604D02*
X1089371428Y-384293604D01*
D10*
D11*
X1088999999Y-435593604D02*
X1088999999Y-434293604D01*
D10*
D11*
X1089185714Y-484293604D02*
X1089185714Y-485222176D01*
X1089185714Y-485222176D02*
X1089123809Y-485407890D01*
X1089123809Y-485407890D02*
X1089000000Y-485531700D01*
X1089000000Y-485531700D02*
X1088814285Y-485593604D01*
X1088814285Y-485593604D02*
X1088690476Y-485593604D01*
D10*
D11*
X1088659523Y-535593604D02*
X1088659523Y-534293604D01*
X1089402380Y-535593604D02*
X1088845238Y-534850747D01*
X1089402380Y-534293604D02*
X1088659523Y-535036461D01*
D10*
D11*
X1089402381Y-585593604D02*
X1088783333Y-585593604D01*
X1088783333Y-585593604D02*
X1088783333Y-584293604D01*
D10*
D11*
X1088566666Y-635593604D02*
X1088566666Y-634293604D01*
X1088566666Y-634293604D02*
X1089000000Y-635222176D01*
X1089000000Y-635222176D02*
X1089433333Y-634293604D01*
X1089433333Y-634293604D02*
X1089433333Y-635593604D01*
D10*
D11*
X1088628571Y-685593604D02*
X1088628571Y-684293604D01*
X1088628571Y-684293604D02*
X1089371428Y-685593604D01*
X1089371428Y-685593604D02*
X1089371428Y-684293604D01*
D10*
D11*
X1088876190Y-734293604D02*
X1089123809Y-734293604D01*
X1089123809Y-734293604D02*
X1089247619Y-734355509D01*
X1089247619Y-734355509D02*
X1089371428Y-734479319D01*
X1089371428Y-734479319D02*
X1089433333Y-734726938D01*
X1089433333Y-734726938D02*
X1089433333Y-735160271D01*
X1089433333Y-735160271D02*
X1089371428Y-735407890D01*
X1089371428Y-735407890D02*
X1089247619Y-735531700D01*
X1089247619Y-735531700D02*
X1089123809Y-735593604D01*
X1089123809Y-735593604D02*
X1088876190Y-735593604D01*
X1088876190Y-735593604D02*
X1088752381Y-735531700D01*
X1088752381Y-735531700D02*
X1088628571Y-735407890D01*
X1088628571Y-735407890D02*
X1088566667Y-735160271D01*
X1088566667Y-735160271D02*
X1088566667Y-734726938D01*
X1088566667Y-734726938D02*
X1088628571Y-734479319D01*
X1088628571Y-734479319D02*
X1088752381Y-734355509D01*
X1088752381Y-734355509D02*
X1088876190Y-734293604D01*
D10*
D11*
X1088659523Y-785593604D02*
X1088659523Y-784293604D01*
X1088659523Y-784293604D02*
X1089154761Y-784293604D01*
X1089154761Y-784293604D02*
X1089278571Y-784355509D01*
X1089278571Y-784355509D02*
X1089340476Y-784417414D01*
X1089340476Y-784417414D02*
X1089402380Y-784541223D01*
X1089402380Y-784541223D02*
X1089402380Y-784726938D01*
X1089402380Y-784726938D02*
X1089340476Y-784850747D01*
X1089340476Y-784850747D02*
X1089278571Y-784912652D01*
X1089278571Y-784912652D02*
X1089154761Y-784974557D01*
X1089154761Y-784974557D02*
X1088659523Y-784974557D01*
D10*
D11*
X1089495238Y-835717414D02*
X1089371428Y-835655509D01*
X1089371428Y-835655509D02*
X1089247619Y-835531700D01*
X1089247619Y-835531700D02*
X1089061905Y-835345985D01*
X1089061905Y-835345985D02*
X1088938095Y-835284080D01*
X1088938095Y-835284080D02*
X1088814286Y-835284080D01*
X1088876190Y-835593604D02*
X1088752381Y-835531700D01*
X1088752381Y-835531700D02*
X1088628571Y-835407890D01*
X1088628571Y-835407890D02*
X1088566667Y-835160271D01*
X1088566667Y-835160271D02*
X1088566667Y-834726938D01*
X1088566667Y-834726938D02*
X1088628571Y-834479319D01*
X1088628571Y-834479319D02*
X1088752381Y-834355509D01*
X1088752381Y-834355509D02*
X1088876190Y-834293604D01*
X1088876190Y-834293604D02*
X1089123809Y-834293604D01*
X1089123809Y-834293604D02*
X1089247619Y-834355509D01*
X1089247619Y-834355509D02*
X1089371428Y-834479319D01*
X1089371428Y-834479319D02*
X1089433333Y-834726938D01*
X1089433333Y-834726938D02*
X1089433333Y-835160271D01*
X1089433333Y-835160271D02*
X1089371428Y-835407890D01*
X1089371428Y-835407890D02*
X1089247619Y-835531700D01*
X1089247619Y-835531700D02*
X1089123809Y-835593604D01*
X1089123809Y-835593604D02*
X1088876190Y-835593604D01*
D10*
D11*
X1089402380Y-885593604D02*
X1088969047Y-884974557D01*
X1088659523Y-885593604D02*
X1088659523Y-884293604D01*
X1088659523Y-884293604D02*
X1089154761Y-884293604D01*
X1089154761Y-884293604D02*
X1089278571Y-884355509D01*
X1089278571Y-884355509D02*
X1089340476Y-884417414D01*
X1089340476Y-884417414D02*
X1089402380Y-884541223D01*
X1089402380Y-884541223D02*
X1089402380Y-884726938D01*
X1089402380Y-884726938D02*
X1089340476Y-884850747D01*
X1089340476Y-884850747D02*
X1089278571Y-884912652D01*
X1089278571Y-884912652D02*
X1089154761Y-884974557D01*
X1089154761Y-884974557D02*
X1088659523Y-884974557D01*
D10*
D11*
X1088628572Y-935531700D02*
X1088814286Y-935593604D01*
X1088814286Y-935593604D02*
X1089123810Y-935593604D01*
X1089123810Y-935593604D02*
X1089247619Y-935531700D01*
X1089247619Y-935531700D02*
X1089309524Y-935469795D01*
X1089309524Y-935469795D02*
X1089371429Y-935345985D01*
X1089371429Y-935345985D02*
X1089371429Y-935222176D01*
X1089371429Y-935222176D02*
X1089309524Y-935098366D01*
X1089309524Y-935098366D02*
X1089247619Y-935036461D01*
X1089247619Y-935036461D02*
X1089123810Y-934974557D01*
X1089123810Y-934974557D02*
X1088876191Y-934912652D01*
X1088876191Y-934912652D02*
X1088752381Y-934850747D01*
X1088752381Y-934850747D02*
X1088690476Y-934788842D01*
X1088690476Y-934788842D02*
X1088628572Y-934665033D01*
X1088628572Y-934665033D02*
X1088628572Y-934541223D01*
X1088628572Y-934541223D02*
X1088690476Y-934417414D01*
X1088690476Y-934417414D02*
X1088752381Y-934355509D01*
X1088752381Y-934355509D02*
X1088876191Y-934293604D01*
X1088876191Y-934293604D02*
X1089185714Y-934293604D01*
X1089185714Y-934293604D02*
X1089371429Y-934355509D01*
D10*
D11*
X1088628571Y-984293604D02*
X1089371428Y-984293604D01*
X1089000000Y-985593604D02*
X1089000000Y-984293604D01*
D10*
D11*
X1088628571Y-1034293604D02*
X1088628571Y-1035345985D01*
X1088628571Y-1035345985D02*
X1088690476Y-1035469795D01*
X1088690476Y-1035469795D02*
X1088752381Y-1035531700D01*
X1088752381Y-1035531700D02*
X1088876190Y-1035593604D01*
X1088876190Y-1035593604D02*
X1089123809Y-1035593604D01*
X1089123809Y-1035593604D02*
X1089247619Y-1035531700D01*
X1089247619Y-1035531700D02*
X1089309524Y-1035469795D01*
X1089309524Y-1035469795D02*
X1089371428Y-1035345985D01*
X1089371428Y-1035345985D02*
X1089371428Y-1034293604D01*
D10*
D11*
X1088566666Y-1084293604D02*
X1088999999Y-1085593604D01*
X1088999999Y-1085593604D02*
X1089433333Y-1084293604D01*
D10*
D11*
X1003455826Y-1083786128D02*
X1003455826Y-1082286128D01*
X1003455826Y-1082286128D02*
X1003812969Y-1082286128D01*
X1003812969Y-1082286128D02*
X1004027255Y-1082357557D01*
X1004027255Y-1082357557D02*
X1004170112Y-1082500414D01*
X1004170112Y-1082500414D02*
X1004241541Y-1082643271D01*
X1004241541Y-1082643271D02*
X1004312969Y-1082928985D01*
X1004312969Y-1082928985D02*
X1004312969Y-1083143271D01*
X1004312969Y-1083143271D02*
X1004241541Y-1083428985D01*
X1004241541Y-1083428985D02*
X1004170112Y-1083571842D01*
X1004170112Y-1083571842D02*
X1004027255Y-1083714700D01*
X1004027255Y-1083714700D02*
X1003812969Y-1083786128D01*
X1003812969Y-1083786128D02*
X1003455826Y-1083786128D01*
X1005598684Y-1083786128D02*
X1005598684Y-1083000414D01*
X1005598684Y-1083000414D02*
X1005527255Y-1082857557D01*
X1005527255Y-1082857557D02*
X1005384398Y-1082786128D01*
X1005384398Y-1082786128D02*
X1005098684Y-1082786128D01*
X1005098684Y-1082786128D02*
X1004955826Y-1082857557D01*
X1005598684Y-1083714700D02*
X1005455826Y-1083786128D01*
X1005455826Y-1083786128D02*
X1005098684Y-1083786128D01*
X1005098684Y-1083786128D02*
X1004955826Y-1083714700D01*
X1004955826Y-1083714700D02*
X1004884398Y-1083571842D01*
X1004884398Y-1083571842D02*
X1004884398Y-1083428985D01*
X1004884398Y-1083428985D02*
X1004955826Y-1083286128D01*
X1004955826Y-1083286128D02*
X1005098684Y-1083214700D01*
X1005098684Y-1083214700D02*
X1005455826Y-1083214700D01*
X1005455826Y-1083214700D02*
X1005598684Y-1083143271D01*
X1006098684Y-1082786128D02*
X1006670112Y-1082786128D01*
X1006312969Y-1082286128D02*
X1006312969Y-1083571842D01*
X1006312969Y-1083571842D02*
X1006384398Y-1083714700D01*
X1006384398Y-1083714700D02*
X1006527255Y-1083786128D01*
X1006527255Y-1083786128D02*
X1006670112Y-1083786128D01*
X1007741541Y-1083714700D02*
X1007598684Y-1083786128D01*
X1007598684Y-1083786128D02*
X1007312970Y-1083786128D01*
X1007312970Y-1083786128D02*
X1007170112Y-1083714700D01*
X1007170112Y-1083714700D02*
X1007098684Y-1083571842D01*
X1007098684Y-1083571842D02*
X1007098684Y-1083000414D01*
X1007098684Y-1083000414D02*
X1007170112Y-1082857557D01*
X1007170112Y-1082857557D02*
X1007312970Y-1082786128D01*
X1007312970Y-1082786128D02*
X1007598684Y-1082786128D01*
X1007598684Y-1082786128D02*
X1007741541Y-1082857557D01*
X1007741541Y-1082857557D02*
X1007812970Y-1083000414D01*
X1007812970Y-1083000414D02*
X1007812970Y-1083143271D01*
X1007812970Y-1083143271D02*
X1007098684Y-1083286128D01*
X1008455826Y-1083643271D02*
X1008527255Y-1083714700D01*
X1008527255Y-1083714700D02*
X1008455826Y-1083786128D01*
X1008455826Y-1083786128D02*
X1008384398Y-1083714700D01*
X1008384398Y-1083714700D02*
X1008455826Y-1083643271D01*
X1008455826Y-1083643271D02*
X1008455826Y-1083786128D01*
X1008455826Y-1082857557D02*
X1008527255Y-1082928985D01*
X1008527255Y-1082928985D02*
X1008455826Y-1083000414D01*
X1008455826Y-1083000414D02*
X1008384398Y-1082928985D01*
X1008384398Y-1082928985D02*
X1008455826Y-1082857557D01*
X1008455826Y-1082857557D02*
X1008455826Y-1083000414D01*
D10*
D11*
X980000000Y-1084500000D02*
X1088000000Y-1084500000D01*
D10*
D11*
X981455826Y-1086586128D02*
X981455826Y-1085086128D01*
X982312969Y-1086586128D02*
X981670112Y-1085728985D01*
X982312969Y-1085086128D02*
X981455826Y-1085943271D01*
X982955826Y-1086586128D02*
X982955826Y-1085586128D01*
X982955826Y-1085086128D02*
X982884398Y-1085157557D01*
X982884398Y-1085157557D02*
X982955826Y-1085228985D01*
X982955826Y-1085228985D02*
X983027255Y-1085157557D01*
X983027255Y-1085157557D02*
X982955826Y-1085086128D01*
X982955826Y-1085086128D02*
X982955826Y-1085228985D01*
X984527255Y-1086443271D02*
X984455827Y-1086514700D01*
X984455827Y-1086514700D02*
X984241541Y-1086586128D01*
X984241541Y-1086586128D02*
X984098684Y-1086586128D01*
X984098684Y-1086586128D02*
X983884398Y-1086514700D01*
X983884398Y-1086514700D02*
X983741541Y-1086371842D01*
X983741541Y-1086371842D02*
X983670112Y-1086228985D01*
X983670112Y-1086228985D02*
X983598684Y-1085943271D01*
X983598684Y-1085943271D02*
X983598684Y-1085728985D01*
X983598684Y-1085728985D02*
X983670112Y-1085443271D01*
X983670112Y-1085443271D02*
X983741541Y-1085300414D01*
X983741541Y-1085300414D02*
X983884398Y-1085157557D01*
X983884398Y-1085157557D02*
X984098684Y-1085086128D01*
X984098684Y-1085086128D02*
X984241541Y-1085086128D01*
X984241541Y-1085086128D02*
X984455827Y-1085157557D01*
X984455827Y-1085157557D02*
X984527255Y-1085228985D01*
X985812970Y-1086586128D02*
X985812970Y-1085800414D01*
X985812970Y-1085800414D02*
X985741541Y-1085657557D01*
X985741541Y-1085657557D02*
X985598684Y-1085586128D01*
X985598684Y-1085586128D02*
X985312970Y-1085586128D01*
X985312970Y-1085586128D02*
X985170112Y-1085657557D01*
X985812970Y-1086514700D02*
X985670112Y-1086586128D01*
X985670112Y-1086586128D02*
X985312970Y-1086586128D01*
X985312970Y-1086586128D02*
X985170112Y-1086514700D01*
X985170112Y-1086514700D02*
X985098684Y-1086371842D01*
X985098684Y-1086371842D02*
X985098684Y-1086228985D01*
X985098684Y-1086228985D02*
X985170112Y-1086086128D01*
X985170112Y-1086086128D02*
X985312970Y-1086014700D01*
X985312970Y-1086014700D02*
X985670112Y-1086014700D01*
X985670112Y-1086014700D02*
X985812970Y-1085943271D01*
X987170113Y-1086586128D02*
X987170113Y-1085086128D01*
X987170113Y-1086514700D02*
X987027255Y-1086586128D01*
X987027255Y-1086586128D02*
X986741541Y-1086586128D01*
X986741541Y-1086586128D02*
X986598684Y-1086514700D01*
X986598684Y-1086514700D02*
X986527255Y-1086443271D01*
X986527255Y-1086443271D02*
X986455827Y-1086300414D01*
X986455827Y-1086300414D02*
X986455827Y-1085871842D01*
X986455827Y-1085871842D02*
X986527255Y-1085728985D01*
X986527255Y-1085728985D02*
X986598684Y-1085657557D01*
X986598684Y-1085657557D02*
X986741541Y-1085586128D01*
X986741541Y-1085586128D02*
X987027255Y-1085586128D01*
X987027255Y-1085586128D02*
X987170113Y-1085657557D01*
X989027255Y-1085800414D02*
X989527255Y-1085800414D01*
X989741541Y-1086586128D02*
X989027255Y-1086586128D01*
X989027255Y-1086586128D02*
X989027255Y-1085086128D01*
X989027255Y-1085086128D02*
X989741541Y-1085086128D01*
X990384398Y-1086443271D02*
X990455827Y-1086514700D01*
X990455827Y-1086514700D02*
X990384398Y-1086586128D01*
X990384398Y-1086586128D02*
X990312970Y-1086514700D01*
X990312970Y-1086514700D02*
X990384398Y-1086443271D01*
X990384398Y-1086443271D02*
X990384398Y-1086586128D01*
X991098684Y-1086586128D02*
X991098684Y-1085086128D01*
X991098684Y-1085086128D02*
X991455827Y-1085086128D01*
X991455827Y-1085086128D02*
X991670113Y-1085157557D01*
X991670113Y-1085157557D02*
X991812970Y-1085300414D01*
X991812970Y-1085300414D02*
X991884399Y-1085443271D01*
X991884399Y-1085443271D02*
X991955827Y-1085728985D01*
X991955827Y-1085728985D02*
X991955827Y-1085943271D01*
X991955827Y-1085943271D02*
X991884399Y-1086228985D01*
X991884399Y-1086228985D02*
X991812970Y-1086371842D01*
X991812970Y-1086371842D02*
X991670113Y-1086514700D01*
X991670113Y-1086514700D02*
X991455827Y-1086586128D01*
X991455827Y-1086586128D02*
X991098684Y-1086586128D01*
X992598684Y-1086443271D02*
X992670113Y-1086514700D01*
X992670113Y-1086514700D02*
X992598684Y-1086586128D01*
X992598684Y-1086586128D02*
X992527256Y-1086514700D01*
X992527256Y-1086514700D02*
X992598684Y-1086443271D01*
X992598684Y-1086443271D02*
X992598684Y-1086586128D01*
X993241542Y-1086157557D02*
X993955828Y-1086157557D01*
X993098685Y-1086586128D02*
X993598685Y-1085086128D01*
X993598685Y-1085086128D02*
X994098685Y-1086586128D01*
X994598684Y-1086443271D02*
X994670113Y-1086514700D01*
X994670113Y-1086514700D02*
X994598684Y-1086586128D01*
X994598684Y-1086586128D02*
X994527256Y-1086514700D01*
X994527256Y-1086514700D02*
X994598684Y-1086443271D01*
X994598684Y-1086443271D02*
X994598684Y-1086586128D01*
X996527256Y-1086586128D02*
X996812970Y-1086586128D01*
X996812970Y-1086586128D02*
X996955827Y-1086514700D01*
X996955827Y-1086514700D02*
X997027256Y-1086443271D01*
X997027256Y-1086443271D02*
X997170113Y-1086228985D01*
X997170113Y-1086228985D02*
X997241542Y-1085943271D01*
X997241542Y-1085943271D02*
X997241542Y-1085371842D01*
X997241542Y-1085371842D02*
X997170113Y-1085228985D01*
X997170113Y-1085228985D02*
X997098685Y-1085157557D01*
X997098685Y-1085157557D02*
X996955827Y-1085086128D01*
X996955827Y-1085086128D02*
X996670113Y-1085086128D01*
X996670113Y-1085086128D02*
X996527256Y-1085157557D01*
X996527256Y-1085157557D02*
X996455827Y-1085228985D01*
X996455827Y-1085228985D02*
X996384399Y-1085371842D01*
X996384399Y-1085371842D02*
X996384399Y-1085728985D01*
X996384399Y-1085728985D02*
X996455827Y-1085871842D01*
X996455827Y-1085871842D02*
X996527256Y-1085943271D01*
X996527256Y-1085943271D02*
X996670113Y-1086014700D01*
X996670113Y-1086014700D02*
X996955827Y-1086014700D01*
X996955827Y-1086014700D02*
X997098685Y-1085943271D01*
X997098685Y-1085943271D02*
X997170113Y-1085871842D01*
X997170113Y-1085871842D02*
X997241542Y-1085728985D01*
X997884398Y-1086443271D02*
X997955827Y-1086514700D01*
X997955827Y-1086514700D02*
X997884398Y-1086586128D01*
X997884398Y-1086586128D02*
X997812970Y-1086514700D01*
X997812970Y-1086514700D02*
X997884398Y-1086443271D01*
X997884398Y-1086443271D02*
X997884398Y-1086586128D01*
X998884399Y-1085086128D02*
X999027256Y-1085086128D01*
X999027256Y-1085086128D02*
X999170113Y-1085157557D01*
X999170113Y-1085157557D02*
X999241542Y-1085228985D01*
X999241542Y-1085228985D02*
X999312970Y-1085371842D01*
X999312970Y-1085371842D02*
X999384399Y-1085657557D01*
X999384399Y-1085657557D02*
X999384399Y-1086014700D01*
X999384399Y-1086014700D02*
X999312970Y-1086300414D01*
X999312970Y-1086300414D02*
X999241542Y-1086443271D01*
X999241542Y-1086443271D02*
X999170113Y-1086514700D01*
X999170113Y-1086514700D02*
X999027256Y-1086586128D01*
X999027256Y-1086586128D02*
X998884399Y-1086586128D01*
X998884399Y-1086586128D02*
X998741542Y-1086514700D01*
X998741542Y-1086514700D02*
X998670113Y-1086443271D01*
X998670113Y-1086443271D02*
X998598684Y-1086300414D01*
X998598684Y-1086300414D02*
X998527256Y-1086014700D01*
X998527256Y-1086014700D02*
X998527256Y-1085657557D01*
X998527256Y-1085657557D02*
X998598684Y-1085371842D01*
X998598684Y-1085371842D02*
X998670113Y-1085228985D01*
X998670113Y-1085228985D02*
X998741542Y-1085157557D01*
X998741542Y-1085157557D02*
X998884399Y-1085086128D01*
X1000027255Y-1086443271D02*
X1000098684Y-1086514700D01*
X1000098684Y-1086514700D02*
X1000027255Y-1086586128D01*
X1000027255Y-1086586128D02*
X999955827Y-1086514700D01*
X999955827Y-1086514700D02*
X1000027255Y-1086443271D01*
X1000027255Y-1086443271D02*
X1000027255Y-1086586128D01*
X1000598684Y-1085086128D02*
X1001527256Y-1085086128D01*
X1001527256Y-1085086128D02*
X1001027256Y-1085657557D01*
X1001027256Y-1085657557D02*
X1001241541Y-1085657557D01*
X1001241541Y-1085657557D02*
X1001384399Y-1085728985D01*
X1001384399Y-1085728985D02*
X1001455827Y-1085800414D01*
X1001455827Y-1085800414D02*
X1001527256Y-1085943271D01*
X1001527256Y-1085943271D02*
X1001527256Y-1086300414D01*
X1001527256Y-1086300414D02*
X1001455827Y-1086443271D01*
X1001455827Y-1086443271D02*
X1001384399Y-1086514700D01*
X1001384399Y-1086514700D02*
X1001241541Y-1086586128D01*
X1001241541Y-1086586128D02*
X1000812970Y-1086586128D01*
X1000812970Y-1086586128D02*
X1000670113Y-1086514700D01*
X1000670113Y-1086514700D02*
X1000598684Y-1086443271D01*
D10*
D11*
X980000000Y-1081500000D02*
X1088000000Y-1081500000D01*
D10*
D12*
X1067411653Y-1083778328D02*
X1066911653Y-1083064042D01*
X1066554510Y-1083778328D02*
X1066554510Y-1082278328D01*
X1066554510Y-1082278328D02*
X1067125939Y-1082278328D01*
X1067125939Y-1082278328D02*
X1067268796Y-1082349757D01*
X1067268796Y-1082349757D02*
X1067340225Y-1082421185D01*
X1067340225Y-1082421185D02*
X1067411653Y-1082564042D01*
X1067411653Y-1082564042D02*
X1067411653Y-1082778328D01*
X1067411653Y-1082778328D02*
X1067340225Y-1082921185D01*
X1067340225Y-1082921185D02*
X1067268796Y-1082992614D01*
X1067268796Y-1082992614D02*
X1067125939Y-1083064042D01*
X1067125939Y-1083064042D02*
X1066554510Y-1083064042D01*
X1068625939Y-1083706900D02*
X1068483082Y-1083778328D01*
X1068483082Y-1083778328D02*
X1068197368Y-1083778328D01*
X1068197368Y-1083778328D02*
X1068054510Y-1083706900D01*
X1068054510Y-1083706900D02*
X1067983082Y-1083564042D01*
X1067983082Y-1083564042D02*
X1067983082Y-1082992614D01*
X1067983082Y-1082992614D02*
X1068054510Y-1082849757D01*
X1068054510Y-1082849757D02*
X1068197368Y-1082778328D01*
X1068197368Y-1082778328D02*
X1068483082Y-1082778328D01*
X1068483082Y-1082778328D02*
X1068625939Y-1082849757D01*
X1068625939Y-1082849757D02*
X1068697368Y-1082992614D01*
X1068697368Y-1082992614D02*
X1068697368Y-1083135471D01*
X1068697368Y-1083135471D02*
X1067983082Y-1083278328D01*
X1069197367Y-1082778328D02*
X1069554510Y-1083778328D01*
X1069554510Y-1083778328D02*
X1069911653Y-1082778328D01*
X1070483081Y-1083635471D02*
X1070554510Y-1083706900D01*
X1070554510Y-1083706900D02*
X1070483081Y-1083778328D01*
X1070483081Y-1083778328D02*
X1070411653Y-1083706900D01*
X1070411653Y-1083706900D02*
X1070483081Y-1083635471D01*
X1070483081Y-1083635471D02*
X1070483081Y-1083778328D01*
X1070483081Y-1082849757D02*
X1070554510Y-1082921185D01*
X1070554510Y-1082921185D02*
X1070483081Y-1082992614D01*
X1070483081Y-1082992614D02*
X1070411653Y-1082921185D01*
X1070411653Y-1082921185D02*
X1070483081Y-1082849757D01*
X1070483081Y-1082849757D02*
X1070483081Y-1082992614D01*
D10*
D11*
X981384398Y-1083714700D02*
X981598684Y-1083786128D01*
X981598684Y-1083786128D02*
X981955826Y-1083786128D01*
X981955826Y-1083786128D02*
X982098684Y-1083714700D01*
X982098684Y-1083714700D02*
X982170112Y-1083643271D01*
X982170112Y-1083643271D02*
X982241541Y-1083500414D01*
X982241541Y-1083500414D02*
X982241541Y-1083357557D01*
X982241541Y-1083357557D02*
X982170112Y-1083214700D01*
X982170112Y-1083214700D02*
X982098684Y-1083143271D01*
X982098684Y-1083143271D02*
X981955826Y-1083071842D01*
X981955826Y-1083071842D02*
X981670112Y-1083000414D01*
X981670112Y-1083000414D02*
X981527255Y-1082928985D01*
X981527255Y-1082928985D02*
X981455826Y-1082857557D01*
X981455826Y-1082857557D02*
X981384398Y-1082714700D01*
X981384398Y-1082714700D02*
X981384398Y-1082571842D01*
X981384398Y-1082571842D02*
X981455826Y-1082428985D01*
X981455826Y-1082428985D02*
X981527255Y-1082357557D01*
X981527255Y-1082357557D02*
X981670112Y-1082286128D01*
X981670112Y-1082286128D02*
X982027255Y-1082286128D01*
X982027255Y-1082286128D02*
X982241541Y-1082357557D01*
X982884397Y-1083786128D02*
X982884397Y-1082786128D01*
X982884397Y-1082286128D02*
X982812969Y-1082357557D01*
X982812969Y-1082357557D02*
X982884397Y-1082428985D01*
X982884397Y-1082428985D02*
X982955826Y-1082357557D01*
X982955826Y-1082357557D02*
X982884397Y-1082286128D01*
X982884397Y-1082286128D02*
X982884397Y-1082428985D01*
X983455826Y-1082786128D02*
X984241541Y-1082786128D01*
X984241541Y-1082786128D02*
X983455826Y-1083786128D01*
X983455826Y-1083786128D02*
X984241541Y-1083786128D01*
X985384398Y-1083714700D02*
X985241541Y-1083786128D01*
X985241541Y-1083786128D02*
X984955827Y-1083786128D01*
X984955827Y-1083786128D02*
X984812969Y-1083714700D01*
X984812969Y-1083714700D02*
X984741541Y-1083571842D01*
X984741541Y-1083571842D02*
X984741541Y-1083000414D01*
X984741541Y-1083000414D02*
X984812969Y-1082857557D01*
X984812969Y-1082857557D02*
X984955827Y-1082786128D01*
X984955827Y-1082786128D02*
X985241541Y-1082786128D01*
X985241541Y-1082786128D02*
X985384398Y-1082857557D01*
X985384398Y-1082857557D02*
X985455827Y-1083000414D01*
X985455827Y-1083000414D02*
X985455827Y-1083143271D01*
X985455827Y-1083143271D02*
X984741541Y-1083286128D01*
X986098683Y-1083643271D02*
X986170112Y-1083714700D01*
X986170112Y-1083714700D02*
X986098683Y-1083786128D01*
X986098683Y-1083786128D02*
X986027255Y-1083714700D01*
X986027255Y-1083714700D02*
X986098683Y-1083643271D01*
X986098683Y-1083643271D02*
X986098683Y-1083786128D01*
X986098683Y-1082857557D02*
X986170112Y-1082928985D01*
X986170112Y-1082928985D02*
X986098683Y-1083000414D01*
X986098683Y-1083000414D02*
X986027255Y-1082928985D01*
X986027255Y-1082928985D02*
X986098683Y-1082857557D01*
X986098683Y-1082857557D02*
X986098683Y-1083000414D01*
X987955826Y-1082286128D02*
X987955826Y-1083500414D01*
X987955826Y-1083500414D02*
X988027255Y-1083643271D01*
X988027255Y-1083643271D02*
X988098684Y-1083714700D01*
X988098684Y-1083714700D02*
X988241541Y-1083786128D01*
X988241541Y-1083786128D02*
X988527255Y-1083786128D01*
X988527255Y-1083786128D02*
X988670112Y-1083714700D01*
X988670112Y-1083714700D02*
X988741541Y-1083643271D01*
X988741541Y-1083643271D02*
X988812969Y-1083500414D01*
X988812969Y-1083500414D02*
X988812969Y-1082286128D01*
X989455827Y-1083714700D02*
X989598684Y-1083786128D01*
X989598684Y-1083786128D02*
X989884398Y-1083786128D01*
X989884398Y-1083786128D02*
X990027255Y-1083714700D01*
X990027255Y-1083714700D02*
X990098684Y-1083571842D01*
X990098684Y-1083571842D02*
X990098684Y-1083500414D01*
X990098684Y-1083500414D02*
X990027255Y-1083357557D01*
X990027255Y-1083357557D02*
X989884398Y-1083286128D01*
X989884398Y-1083286128D02*
X989670113Y-1083286128D01*
X989670113Y-1083286128D02*
X989527255Y-1083214700D01*
X989527255Y-1083214700D02*
X989455827Y-1083071842D01*
X989455827Y-1083071842D02*
X989455827Y-1083000414D01*
X989455827Y-1083000414D02*
X989527255Y-1082857557D01*
X989527255Y-1082857557D02*
X989670113Y-1082786128D01*
X989670113Y-1082786128D02*
X989884398Y-1082786128D01*
X989884398Y-1082786128D02*
X990027255Y-1082857557D01*
X991312970Y-1083714700D02*
X991170113Y-1083786128D01*
X991170113Y-1083786128D02*
X990884399Y-1083786128D01*
X990884399Y-1083786128D02*
X990741541Y-1083714700D01*
X990741541Y-1083714700D02*
X990670113Y-1083571842D01*
X990670113Y-1083571842D02*
X990670113Y-1083000414D01*
X990670113Y-1083000414D02*
X990741541Y-1082857557D01*
X990741541Y-1082857557D02*
X990884399Y-1082786128D01*
X990884399Y-1082786128D02*
X991170113Y-1082786128D01*
X991170113Y-1082786128D02*
X991312970Y-1082857557D01*
X991312970Y-1082857557D02*
X991384399Y-1083000414D01*
X991384399Y-1083000414D02*
X991384399Y-1083143271D01*
X991384399Y-1083143271D02*
X990670113Y-1083286128D01*
X992027255Y-1083786128D02*
X992027255Y-1082786128D01*
X992027255Y-1083071842D02*
X992098684Y-1082928985D01*
X992098684Y-1082928985D02*
X992170113Y-1082857557D01*
X992170113Y-1082857557D02*
X992312970Y-1082786128D01*
X992312970Y-1082786128D02*
X992455827Y-1082786128D01*
D10*
D11*
X1066455826Y-1086586128D02*
X1066455826Y-1085086128D01*
X1067812970Y-1086586128D02*
X1067812970Y-1085086128D01*
X1067812970Y-1086514700D02*
X1067670112Y-1086586128D01*
X1067670112Y-1086586128D02*
X1067384398Y-1086586128D01*
X1067384398Y-1086586128D02*
X1067241541Y-1086514700D01*
X1067241541Y-1086514700D02*
X1067170112Y-1086443271D01*
X1067170112Y-1086443271D02*
X1067098684Y-1086300414D01*
X1067098684Y-1086300414D02*
X1067098684Y-1085871842D01*
X1067098684Y-1085871842D02*
X1067170112Y-1085728985D01*
X1067170112Y-1085728985D02*
X1067241541Y-1085657557D01*
X1067241541Y-1085657557D02*
X1067384398Y-1085586128D01*
X1067384398Y-1085586128D02*
X1067670112Y-1085586128D01*
X1067670112Y-1085586128D02*
X1067812970Y-1085657557D01*
X1068527255Y-1086443271D02*
X1068598684Y-1086514700D01*
X1068598684Y-1086514700D02*
X1068527255Y-1086586128D01*
X1068527255Y-1086586128D02*
X1068455827Y-1086514700D01*
X1068455827Y-1086514700D02*
X1068527255Y-1086443271D01*
X1068527255Y-1086443271D02*
X1068527255Y-1086586128D01*
X1068527255Y-1085657557D02*
X1068598684Y-1085728985D01*
X1068598684Y-1085728985D02*
X1068527255Y-1085800414D01*
X1068527255Y-1085800414D02*
X1068455827Y-1085728985D01*
X1068455827Y-1085728985D02*
X1068527255Y-1085657557D01*
X1068527255Y-1085657557D02*
X1068527255Y-1085800414D01*
X1070312970Y-1085228985D02*
X1070384398Y-1085157557D01*
X1070384398Y-1085157557D02*
X1070527256Y-1085086128D01*
X1070527256Y-1085086128D02*
X1070884398Y-1085086128D01*
X1070884398Y-1085086128D02*
X1071027256Y-1085157557D01*
X1071027256Y-1085157557D02*
X1071098684Y-1085228985D01*
X1071098684Y-1085228985D02*
X1071170113Y-1085371842D01*
X1071170113Y-1085371842D02*
X1071170113Y-1085514700D01*
X1071170113Y-1085514700D02*
X1071098684Y-1085728985D01*
X1071098684Y-1085728985D02*
X1070241541Y-1086586128D01*
X1070241541Y-1086586128D02*
X1071170113Y-1086586128D01*
X1072884398Y-1085014700D02*
X1071598684Y-1086943271D01*
X1073241541Y-1085086128D02*
X1074170113Y-1085086128D01*
X1074170113Y-1085086128D02*
X1073670113Y-1085657557D01*
X1073670113Y-1085657557D02*
X1073884398Y-1085657557D01*
X1073884398Y-1085657557D02*
X1074027256Y-1085728985D01*
X1074027256Y-1085728985D02*
X1074098684Y-1085800414D01*
X1074098684Y-1085800414D02*
X1074170113Y-1085943271D01*
X1074170113Y-1085943271D02*
X1074170113Y-1086300414D01*
X1074170113Y-1086300414D02*
X1074098684Y-1086443271D01*
X1074098684Y-1086443271D02*
X1074027256Y-1086514700D01*
X1074027256Y-1086514700D02*
X1073884398Y-1086586128D01*
X1073884398Y-1086586128D02*
X1073455827Y-1086586128D01*
X1073455827Y-1086586128D02*
X1073312970Y-1086514700D01*
X1073312970Y-1086514700D02*
X1073241541Y-1086443271D01*
D10*
D11*
X980000000Y-1077500000D02*
X1088000000Y-1077500000D01*
D10*
D13*
X981691728Y-1078204438D02*
X982834585Y-1078204438D01*
X982013157Y-1080204438D02*
X982263157Y-1078204438D01*
X983251252Y-1080204438D02*
X983417919Y-1078871104D01*
X983501252Y-1078204438D02*
X983394109Y-1078299676D01*
X983394109Y-1078299676D02*
X983477443Y-1078394914D01*
X983477443Y-1078394914D02*
X983584586Y-1078299676D01*
X983584586Y-1078299676D02*
X983501252Y-1078204438D01*
X983501252Y-1078204438D02*
X983477443Y-1078394914D01*
X984084586Y-1078871104D02*
X984846490Y-1078871104D01*
X984453633Y-1078204438D02*
X984239348Y-1079918723D01*
X984239348Y-1079918723D02*
X984310776Y-1080109200D01*
X984310776Y-1080109200D02*
X984489348Y-1080204438D01*
X984489348Y-1080204438D02*
X984679824Y-1080204438D01*
X985632205Y-1080204438D02*
X985453633Y-1080109200D01*
X985453633Y-1080109200D02*
X985382205Y-1079918723D01*
X985382205Y-1079918723D02*
X985596490Y-1078204438D01*
X987167919Y-1080109200D02*
X986965538Y-1080204438D01*
X986965538Y-1080204438D02*
X986584585Y-1080204438D01*
X986584585Y-1080204438D02*
X986406014Y-1080109200D01*
X986406014Y-1080109200D02*
X986334585Y-1079918723D01*
X986334585Y-1079918723D02*
X986429824Y-1079156819D01*
X986429824Y-1079156819D02*
X986548871Y-1078966342D01*
X986548871Y-1078966342D02*
X986751252Y-1078871104D01*
X986751252Y-1078871104D02*
X987132204Y-1078871104D01*
X987132204Y-1078871104D02*
X987310776Y-1078966342D01*
X987310776Y-1078966342D02*
X987382204Y-1079156819D01*
X987382204Y-1079156819D02*
X987358395Y-1079347295D01*
X987358395Y-1079347295D02*
X986382204Y-1079537771D01*
X988132205Y-1080013961D02*
X988215538Y-1080109200D01*
X988215538Y-1080109200D02*
X988108395Y-1080204438D01*
X988108395Y-1080204438D02*
X988025062Y-1080109200D01*
X988025062Y-1080109200D02*
X988132205Y-1080013961D01*
X988132205Y-1080013961D02*
X988108395Y-1080204438D01*
X988263157Y-1078966342D02*
X988346490Y-1079061580D01*
X988346490Y-1079061580D02*
X988239348Y-1079156819D01*
X988239348Y-1079156819D02*
X988156014Y-1079061580D01*
X988156014Y-1079061580D02*
X988263157Y-1078966342D01*
X988263157Y-1078966342D02*
X988239348Y-1079156819D01*
D10*
D11*
X981955826Y-1075600414D02*
X981455826Y-1075600414D01*
X981455826Y-1076386128D02*
X981455826Y-1074886128D01*
X981455826Y-1074886128D02*
X982170112Y-1074886128D01*
X982741540Y-1076386128D02*
X982741540Y-1075386128D01*
X982741540Y-1074886128D02*
X982670112Y-1074957557D01*
X982670112Y-1074957557D02*
X982741540Y-1075028985D01*
X982741540Y-1075028985D02*
X982812969Y-1074957557D01*
X982812969Y-1074957557D02*
X982741540Y-1074886128D01*
X982741540Y-1074886128D02*
X982741540Y-1075028985D01*
X983670112Y-1076386128D02*
X983527255Y-1076314700D01*
X983527255Y-1076314700D02*
X983455826Y-1076171842D01*
X983455826Y-1076171842D02*
X983455826Y-1074886128D01*
X984812969Y-1076314700D02*
X984670112Y-1076386128D01*
X984670112Y-1076386128D02*
X984384398Y-1076386128D01*
X984384398Y-1076386128D02*
X984241540Y-1076314700D01*
X984241540Y-1076314700D02*
X984170112Y-1076171842D01*
X984170112Y-1076171842D02*
X984170112Y-1075600414D01*
X984170112Y-1075600414D02*
X984241540Y-1075457557D01*
X984241540Y-1075457557D02*
X984384398Y-1075386128D01*
X984384398Y-1075386128D02*
X984670112Y-1075386128D01*
X984670112Y-1075386128D02*
X984812969Y-1075457557D01*
X984812969Y-1075457557D02*
X984884398Y-1075600414D01*
X984884398Y-1075600414D02*
X984884398Y-1075743271D01*
X984884398Y-1075743271D02*
X984170112Y-1075886128D01*
X985527254Y-1076243271D02*
X985598683Y-1076314700D01*
X985598683Y-1076314700D02*
X985527254Y-1076386128D01*
X985527254Y-1076386128D02*
X985455826Y-1076314700D01*
X985455826Y-1076314700D02*
X985527254Y-1076243271D01*
X985527254Y-1076243271D02*
X985527254Y-1076386128D01*
X985527254Y-1075457557D02*
X985598683Y-1075528985D01*
X985598683Y-1075528985D02*
X985527254Y-1075600414D01*
X985527254Y-1075600414D02*
X985455826Y-1075528985D01*
X985455826Y-1075528985D02*
X985527254Y-1075457557D01*
X985527254Y-1075457557D02*
X985527254Y-1075600414D01*
X988027255Y-1076314700D02*
X987884397Y-1076386128D01*
X987884397Y-1076386128D02*
X987598683Y-1076386128D01*
X987598683Y-1076386128D02*
X987455826Y-1076314700D01*
X987455826Y-1076314700D02*
X987384397Y-1076243271D01*
X987384397Y-1076243271D02*
X987312969Y-1076100414D01*
X987312969Y-1076100414D02*
X987312969Y-1075671842D01*
X987312969Y-1075671842D02*
X987384397Y-1075528985D01*
X987384397Y-1075528985D02*
X987455826Y-1075457557D01*
X987455826Y-1075457557D02*
X987598683Y-1075386128D01*
X987598683Y-1075386128D02*
X987884397Y-1075386128D01*
X987884397Y-1075386128D02*
X988027255Y-1075457557D01*
X989312969Y-1076386128D02*
X989312969Y-1075600414D01*
X989312969Y-1075600414D02*
X989241540Y-1075457557D01*
X989241540Y-1075457557D02*
X989098683Y-1075386128D01*
X989098683Y-1075386128D02*
X988812969Y-1075386128D01*
X988812969Y-1075386128D02*
X988670111Y-1075457557D01*
X989312969Y-1076314700D02*
X989170111Y-1076386128D01*
X989170111Y-1076386128D02*
X988812969Y-1076386128D01*
X988812969Y-1076386128D02*
X988670111Y-1076314700D01*
X988670111Y-1076314700D02*
X988598683Y-1076171842D01*
X988598683Y-1076171842D02*
X988598683Y-1076028985D01*
X988598683Y-1076028985D02*
X988670111Y-1075886128D01*
X988670111Y-1075886128D02*
X988812969Y-1075814700D01*
X988812969Y-1075814700D02*
X989170111Y-1075814700D01*
X989170111Y-1075814700D02*
X989312969Y-1075743271D01*
X990027254Y-1076386128D02*
X990027254Y-1075386128D01*
X990027254Y-1075671842D02*
X990098683Y-1075528985D01*
X990098683Y-1075528985D02*
X990170112Y-1075457557D01*
X990170112Y-1075457557D02*
X990312969Y-1075386128D01*
X990312969Y-1075386128D02*
X990455826Y-1075386128D01*
X990741540Y-1075386128D02*
X991312968Y-1075386128D01*
X990955825Y-1074886128D02*
X990955825Y-1076171842D01*
X990955825Y-1076171842D02*
X991027254Y-1076314700D01*
X991027254Y-1076314700D02*
X991170111Y-1076386128D01*
X991170111Y-1076386128D02*
X991312968Y-1076386128D01*
X992384397Y-1076314700D02*
X992241540Y-1076386128D01*
X992241540Y-1076386128D02*
X991955826Y-1076386128D01*
X991955826Y-1076386128D02*
X991812968Y-1076314700D01*
X991812968Y-1076314700D02*
X991741540Y-1076171842D01*
X991741540Y-1076171842D02*
X991741540Y-1075600414D01*
X991741540Y-1075600414D02*
X991812968Y-1075457557D01*
X991812968Y-1075457557D02*
X991955826Y-1075386128D01*
X991955826Y-1075386128D02*
X992241540Y-1075386128D01*
X992241540Y-1075386128D02*
X992384397Y-1075457557D01*
X992384397Y-1075457557D02*
X992455826Y-1075600414D01*
X992455826Y-1075600414D02*
X992455826Y-1075743271D01*
X992455826Y-1075743271D02*
X991741540Y-1075886128D01*
X993312968Y-1076386128D02*
X993170111Y-1076314700D01*
X993170111Y-1076314700D02*
X993098682Y-1076171842D01*
X993098682Y-1076171842D02*
X993098682Y-1074886128D01*
X993884396Y-1076386128D02*
X993884396Y-1075386128D01*
X993884396Y-1075528985D02*
X993955825Y-1075457557D01*
X993955825Y-1075457557D02*
X994098682Y-1075386128D01*
X994098682Y-1075386128D02*
X994312968Y-1075386128D01*
X994312968Y-1075386128D02*
X994455825Y-1075457557D01*
X994455825Y-1075457557D02*
X994527254Y-1075600414D01*
X994527254Y-1075600414D02*
X994527254Y-1076386128D01*
X994527254Y-1075600414D02*
X994598682Y-1075457557D01*
X994598682Y-1075457557D02*
X994741539Y-1075386128D01*
X994741539Y-1075386128D02*
X994955825Y-1075386128D01*
X994955825Y-1075386128D02*
X995098682Y-1075457557D01*
X995098682Y-1075457557D02*
X995170111Y-1075600414D01*
X995170111Y-1075600414D02*
X995170111Y-1076386128D01*
X996527254Y-1076386128D02*
X996527254Y-1075600414D01*
X996527254Y-1075600414D02*
X996455825Y-1075457557D01*
X996455825Y-1075457557D02*
X996312968Y-1075386128D01*
X996312968Y-1075386128D02*
X996027254Y-1075386128D01*
X996027254Y-1075386128D02*
X995884396Y-1075457557D01*
X996527254Y-1076314700D02*
X996384396Y-1076386128D01*
X996384396Y-1076386128D02*
X996027254Y-1076386128D01*
X996027254Y-1076386128D02*
X995884396Y-1076314700D01*
X995884396Y-1076314700D02*
X995812968Y-1076171842D01*
X995812968Y-1076171842D02*
X995812968Y-1076028985D01*
X995812968Y-1076028985D02*
X995884396Y-1075886128D01*
X995884396Y-1075886128D02*
X996027254Y-1075814700D01*
X996027254Y-1075814700D02*
X996384396Y-1075814700D01*
X996384396Y-1075814700D02*
X996527254Y-1075743271D01*
X997027254Y-1075386128D02*
X997598682Y-1075386128D01*
X997241539Y-1074886128D02*
X997241539Y-1076171842D01*
X997241539Y-1076171842D02*
X997312968Y-1076314700D01*
X997312968Y-1076314700D02*
X997455825Y-1076386128D01*
X997455825Y-1076386128D02*
X997598682Y-1076386128D01*
X998098682Y-1076386128D02*
X998098682Y-1075386128D01*
X998098682Y-1075671842D02*
X998170111Y-1075528985D01*
X998170111Y-1075528985D02*
X998241540Y-1075457557D01*
X998241540Y-1075457557D02*
X998384397Y-1075386128D01*
X998384397Y-1075386128D02*
X998527254Y-1075386128D01*
X999027253Y-1076386128D02*
X999027253Y-1075386128D01*
X999027253Y-1074886128D02*
X998955825Y-1074957557D01*
X998955825Y-1074957557D02*
X999027253Y-1075028985D01*
X999027253Y-1075028985D02*
X999098682Y-1074957557D01*
X999098682Y-1074957557D02*
X999027253Y-1074886128D01*
X999027253Y-1074886128D02*
X999027253Y-1075028985D01*
X999598682Y-1075386128D02*
X1000384397Y-1075386128D01*
X1000384397Y-1075386128D02*
X999598682Y-1076386128D01*
X999598682Y-1076386128D02*
X1000384397Y-1076386128D01*
X1000955825Y-1076243271D02*
X1001027254Y-1076314700D01*
X1001027254Y-1076314700D02*
X1000955825Y-1076386128D01*
X1000955825Y-1076386128D02*
X1000884397Y-1076314700D01*
X1000884397Y-1076314700D02*
X1000955825Y-1076243271D01*
X1000955825Y-1076243271D02*
X1000955825Y-1076386128D01*
X1001670111Y-1076386128D02*
X1001670111Y-1074886128D01*
X1001812969Y-1075814700D02*
X1002241540Y-1076386128D01*
X1002241540Y-1075386128D02*
X1001670111Y-1075957557D01*
X1002884397Y-1076386128D02*
X1002884397Y-1075386128D01*
X1002884397Y-1074886128D02*
X1002812969Y-1074957557D01*
X1002812969Y-1074957557D02*
X1002884397Y-1075028985D01*
X1002884397Y-1075028985D02*
X1002955826Y-1074957557D01*
X1002955826Y-1074957557D02*
X1002884397Y-1074886128D01*
X1002884397Y-1074886128D02*
X1002884397Y-1075028985D01*
X1004241541Y-1076314700D02*
X1004098683Y-1076386128D01*
X1004098683Y-1076386128D02*
X1003812969Y-1076386128D01*
X1003812969Y-1076386128D02*
X1003670112Y-1076314700D01*
X1003670112Y-1076314700D02*
X1003598683Y-1076243271D01*
X1003598683Y-1076243271D02*
X1003527255Y-1076100414D01*
X1003527255Y-1076100414D02*
X1003527255Y-1075671842D01*
X1003527255Y-1075671842D02*
X1003598683Y-1075528985D01*
X1003598683Y-1075528985D02*
X1003670112Y-1075457557D01*
X1003670112Y-1075457557D02*
X1003812969Y-1075386128D01*
X1003812969Y-1075386128D02*
X1004098683Y-1075386128D01*
X1004098683Y-1075386128D02*
X1004241541Y-1075457557D01*
X1005527255Y-1076386128D02*
X1005527255Y-1075600414D01*
X1005527255Y-1075600414D02*
X1005455826Y-1075457557D01*
X1005455826Y-1075457557D02*
X1005312969Y-1075386128D01*
X1005312969Y-1075386128D02*
X1005027255Y-1075386128D01*
X1005027255Y-1075386128D02*
X1004884397Y-1075457557D01*
X1005527255Y-1076314700D02*
X1005384397Y-1076386128D01*
X1005384397Y-1076386128D02*
X1005027255Y-1076386128D01*
X1005027255Y-1076386128D02*
X1004884397Y-1076314700D01*
X1004884397Y-1076314700D02*
X1004812969Y-1076171842D01*
X1004812969Y-1076171842D02*
X1004812969Y-1076028985D01*
X1004812969Y-1076028985D02*
X1004884397Y-1075886128D01*
X1004884397Y-1075886128D02*
X1005027255Y-1075814700D01*
X1005027255Y-1075814700D02*
X1005384397Y-1075814700D01*
X1005384397Y-1075814700D02*
X1005527255Y-1075743271D01*
X1006884398Y-1076386128D02*
X1006884398Y-1074886128D01*
X1006884398Y-1076314700D02*
X1006741540Y-1076386128D01*
X1006741540Y-1076386128D02*
X1006455826Y-1076386128D01*
X1006455826Y-1076386128D02*
X1006312969Y-1076314700D01*
X1006312969Y-1076314700D02*
X1006241540Y-1076243271D01*
X1006241540Y-1076243271D02*
X1006170112Y-1076100414D01*
X1006170112Y-1076100414D02*
X1006170112Y-1075671842D01*
X1006170112Y-1075671842D02*
X1006241540Y-1075528985D01*
X1006241540Y-1075528985D02*
X1006312969Y-1075457557D01*
X1006312969Y-1075457557D02*
X1006455826Y-1075386128D01*
X1006455826Y-1075386128D02*
X1006741540Y-1075386128D01*
X1006741540Y-1075386128D02*
X1006884398Y-1075457557D01*
X1007241541Y-1076528985D02*
X1008384398Y-1076528985D01*
X1008741540Y-1075386128D02*
X1008741540Y-1076886128D01*
X1008741540Y-1075457557D02*
X1008884398Y-1075386128D01*
X1008884398Y-1075386128D02*
X1009170112Y-1075386128D01*
X1009170112Y-1075386128D02*
X1009312969Y-1075457557D01*
X1009312969Y-1075457557D02*
X1009384398Y-1075528985D01*
X1009384398Y-1075528985D02*
X1009455826Y-1075671842D01*
X1009455826Y-1075671842D02*
X1009455826Y-1076100414D01*
X1009455826Y-1076100414D02*
X1009384398Y-1076243271D01*
X1009384398Y-1076243271D02*
X1009312969Y-1076314700D01*
X1009312969Y-1076314700D02*
X1009170112Y-1076386128D01*
X1009170112Y-1076386128D02*
X1008884398Y-1076386128D01*
X1008884398Y-1076386128D02*
X1008741540Y-1076314700D01*
X1010741541Y-1076314700D02*
X1010598683Y-1076386128D01*
X1010598683Y-1076386128D02*
X1010312969Y-1076386128D01*
X1010312969Y-1076386128D02*
X1010170112Y-1076314700D01*
X1010170112Y-1076314700D02*
X1010098683Y-1076243271D01*
X1010098683Y-1076243271D02*
X1010027255Y-1076100414D01*
X1010027255Y-1076100414D02*
X1010027255Y-1075671842D01*
X1010027255Y-1075671842D02*
X1010098683Y-1075528985D01*
X1010098683Y-1075528985D02*
X1010170112Y-1075457557D01*
X1010170112Y-1075457557D02*
X1010312969Y-1075386128D01*
X1010312969Y-1075386128D02*
X1010598683Y-1075386128D01*
X1010598683Y-1075386128D02*
X1010741541Y-1075457557D01*
X1011384397Y-1076386128D02*
X1011384397Y-1074886128D01*
X1011384397Y-1075457557D02*
X1011527255Y-1075386128D01*
X1011527255Y-1075386128D02*
X1011812969Y-1075386128D01*
X1011812969Y-1075386128D02*
X1011955826Y-1075457557D01*
X1011955826Y-1075457557D02*
X1012027255Y-1075528985D01*
X1012027255Y-1075528985D02*
X1012098683Y-1075671842D01*
X1012098683Y-1075671842D02*
X1012098683Y-1076100414D01*
X1012098683Y-1076100414D02*
X1012027255Y-1076243271D01*
X1012027255Y-1076243271D02*
X1011955826Y-1076314700D01*
X1011955826Y-1076314700D02*
X1011812969Y-1076386128D01*
X1011812969Y-1076386128D02*
X1011527255Y-1076386128D01*
X1011527255Y-1076386128D02*
X1011384397Y-1076314700D01*
D10*
D11*
X980000000Y-1071500000D02*
X1088000000Y-1071500000D01*
D10*
D11*
X981384398Y-1073614700D02*
X981598684Y-1073686128D01*
X981598684Y-1073686128D02*
X981955826Y-1073686128D01*
X981955826Y-1073686128D02*
X982098684Y-1073614700D01*
X982098684Y-1073614700D02*
X982170112Y-1073543271D01*
X982170112Y-1073543271D02*
X982241541Y-1073400414D01*
X982241541Y-1073400414D02*
X982241541Y-1073257557D01*
X982241541Y-1073257557D02*
X982170112Y-1073114700D01*
X982170112Y-1073114700D02*
X982098684Y-1073043271D01*
X982098684Y-1073043271D02*
X981955826Y-1072971842D01*
X981955826Y-1072971842D02*
X981670112Y-1072900414D01*
X981670112Y-1072900414D02*
X981527255Y-1072828985D01*
X981527255Y-1072828985D02*
X981455826Y-1072757557D01*
X981455826Y-1072757557D02*
X981384398Y-1072614700D01*
X981384398Y-1072614700D02*
X981384398Y-1072471842D01*
X981384398Y-1072471842D02*
X981455826Y-1072328985D01*
X981455826Y-1072328985D02*
X981527255Y-1072257557D01*
X981527255Y-1072257557D02*
X981670112Y-1072186128D01*
X981670112Y-1072186128D02*
X982027255Y-1072186128D01*
X982027255Y-1072186128D02*
X982241541Y-1072257557D01*
X982884397Y-1073686128D02*
X982884397Y-1072186128D01*
X983527255Y-1073686128D02*
X983527255Y-1072900414D01*
X983527255Y-1072900414D02*
X983455826Y-1072757557D01*
X983455826Y-1072757557D02*
X983312969Y-1072686128D01*
X983312969Y-1072686128D02*
X983098683Y-1072686128D01*
X983098683Y-1072686128D02*
X982955826Y-1072757557D01*
X982955826Y-1072757557D02*
X982884397Y-1072828985D01*
X984812969Y-1073614700D02*
X984670112Y-1073686128D01*
X984670112Y-1073686128D02*
X984384398Y-1073686128D01*
X984384398Y-1073686128D02*
X984241540Y-1073614700D01*
X984241540Y-1073614700D02*
X984170112Y-1073471842D01*
X984170112Y-1073471842D02*
X984170112Y-1072900414D01*
X984170112Y-1072900414D02*
X984241540Y-1072757557D01*
X984241540Y-1072757557D02*
X984384398Y-1072686128D01*
X984384398Y-1072686128D02*
X984670112Y-1072686128D01*
X984670112Y-1072686128D02*
X984812969Y-1072757557D01*
X984812969Y-1072757557D02*
X984884398Y-1072900414D01*
X984884398Y-1072900414D02*
X984884398Y-1073043271D01*
X984884398Y-1073043271D02*
X984170112Y-1073186128D01*
X986098683Y-1073614700D02*
X985955826Y-1073686128D01*
X985955826Y-1073686128D02*
X985670112Y-1073686128D01*
X985670112Y-1073686128D02*
X985527254Y-1073614700D01*
X985527254Y-1073614700D02*
X985455826Y-1073471842D01*
X985455826Y-1073471842D02*
X985455826Y-1072900414D01*
X985455826Y-1072900414D02*
X985527254Y-1072757557D01*
X985527254Y-1072757557D02*
X985670112Y-1072686128D01*
X985670112Y-1072686128D02*
X985955826Y-1072686128D01*
X985955826Y-1072686128D02*
X986098683Y-1072757557D01*
X986098683Y-1072757557D02*
X986170112Y-1072900414D01*
X986170112Y-1072900414D02*
X986170112Y-1073043271D01*
X986170112Y-1073043271D02*
X985455826Y-1073186128D01*
X986598683Y-1072686128D02*
X987170111Y-1072686128D01*
X986812968Y-1072186128D02*
X986812968Y-1073471842D01*
X986812968Y-1073471842D02*
X986884397Y-1073614700D01*
X986884397Y-1073614700D02*
X987027254Y-1073686128D01*
X987027254Y-1073686128D02*
X987170111Y-1073686128D01*
X987670111Y-1073543271D02*
X987741540Y-1073614700D01*
X987741540Y-1073614700D02*
X987670111Y-1073686128D01*
X987670111Y-1073686128D02*
X987598683Y-1073614700D01*
X987598683Y-1073614700D02*
X987670111Y-1073543271D01*
X987670111Y-1073543271D02*
X987670111Y-1073686128D01*
X987670111Y-1072757557D02*
X987741540Y-1072828985D01*
X987741540Y-1072828985D02*
X987670111Y-1072900414D01*
X987670111Y-1072900414D02*
X987598683Y-1072828985D01*
X987598683Y-1072828985D02*
X987670111Y-1072757557D01*
X987670111Y-1072757557D02*
X987670111Y-1072900414D01*
D10*
D11*
X1000000000Y-1081500000D02*
X1000000000Y-1084500000D01*
D10*
D11*
X1064000000Y-1081500000D02*
X1064000000Y-1088000000D01*
D14*
%TO.P,J3,1,Pin_1*%
%TO.N,Net-(D1-K)*%
X22050000Y-338040000D03*
D15*
%TO.P,J3,2,Pin_2*%
%TO.N,Net-(D102-K)*%
X22050000Y-340580000D03*
%TO.P,J3,3,Pin_3*%
%TO.N,Net-(D103-K)*%
X22050000Y-343120000D03*
%TO.P,J3,4,Pin_4*%
%TO.N,Net-(D104-K)*%
X22050000Y-345660000D03*
%TO.P,J3,5,Pin_5*%
%TO.N,Net-(D105-K)*%
X22050000Y-348200000D03*
%TO.P,J3,6,Pin_6*%
%TO.N,Net-(D106-K)*%
X22050000Y-350740000D03*
%TO.P,J3,7,Pin_7*%
%TO.N,Net-(D107-K)*%
X22050000Y-353280000D03*
%TO.P,J3,8,Pin_8*%
%TO.N,Net-(D108-K)*%
X22050000Y-355820000D03*
%TO.P,J3,9,Pin_9*%
%TO.N,Net-(D109-K)*%
X22050000Y-358360000D03*
%TO.P,J3,10,Pin_10*%
%TO.N,Net-(D10-K)*%
X22050000Y-360900000D03*
%TO.P,J3,11,Pin_11*%
%TO.N,Net-(D11-K)*%
X22050000Y-363440000D03*
%TO.P,J3,12,Pin_12*%
%TO.N,Net-(D112-K)*%
X22050000Y-365980000D03*
%TO.P,J3,13,Pin_13*%
%TO.N,Net-(D113-K)*%
X22050000Y-368520000D03*
%TO.P,J3,14,Pin_14*%
%TO.N,Net-(D114-K)*%
X22050000Y-371060000D03*
%TO.P,J3,15,Pin_15*%
%TO.N,Net-(D115-K)*%
X22050000Y-373600000D03*
%TO.P,J3,16,Pin_16*%
%TO.N,Net-(D116-K)*%
X22050000Y-376140000D03*
%TO.P,J3,17,Pin_17*%
%TO.N,unconnected-(J3-Pin_17-Pad17)*%
X22050000Y-378680000D03*
%TO.P,J3,18,Pin_18*%
%TO.N,unconnected-(J3-Pin_18-Pad18)*%
X22050000Y-381220000D03*
%TO.P,J3,19,Pin_19*%
%TO.N,unconnected-(J3-Pin_19-Pad19)*%
X22050000Y-383760000D03*
%TO.P,J3,20,Pin_20*%
%TO.N,unconnected-(J3-Pin_20-Pad20)*%
X22050000Y-386300000D03*
%TD*%
D14*
%TO.P,J2,1,Pin_1*%
%TO.N,Net-(D1-A)*%
X189500000Y-211050000D03*
D15*
%TO.P,J2,2,Pin_2*%
%TO.N,Net-(D21-A)*%
X189500000Y-213590000D03*
%TO.P,J2,3,Pin_3*%
%TO.N,Net-(D41-A)*%
X189500000Y-216130000D03*
%TO.P,J2,4,Pin_4*%
%TO.N,Net-(D61-A)*%
X189500000Y-218670000D03*
%TO.P,J2,5,Pin_5*%
%TO.N,Net-(D81-A)*%
X189500000Y-221210000D03*
%TO.P,J2,6,Pin_6*%
%TO.N,Net-(D101-A)*%
X189500000Y-223750000D03*
%TO.P,J2,7,Pin_7*%
%TO.N,Net-(D121-A)*%
X189500000Y-226290000D03*
%TO.P,J2,8,Pin_8*%
%TO.N,Net-(D141-A)*%
X189500000Y-228830000D03*
%TO.P,J2,9,Pin_9*%
%TO.N,Net-(D161-A)*%
X189500000Y-231370000D03*
%TO.P,J2,10,Pin_10*%
%TO.N,Net-(D181-A)*%
X189500000Y-233910000D03*
%TO.P,J2,11,Pin_11*%
%TO.N,Net-(D201-A)*%
X189500000Y-236450000D03*
%TO.P,J2,12,Pin_12*%
%TO.N,Net-(D221-A)*%
X189500000Y-238990000D03*
%TO.P,J2,13,Pin_13*%
%TO.N,Net-(D241-A)*%
X189500000Y-241530000D03*
%TO.P,J2,14,Pin_14*%
%TO.N,Net-(D261-A)*%
X189500000Y-244070000D03*
%TO.P,J2,15,Pin_15*%
%TO.N,Net-(D281-A)*%
X189500000Y-246610000D03*
%TO.P,J2,16,Pin_16*%
%TO.N,Net-(D301-A)*%
X189500000Y-249150000D03*
%TO.P,J2,17,Pin_17*%
%TO.N,Net-(D321-A)*%
X189500000Y-251690000D03*
%TO.P,J2,18,Pin_18*%
%TO.N,Net-(D341-A)*%
X189500000Y-254230000D03*
%TO.P,J2,19,Pin_19*%
%TO.N,Net-(D361-A)*%
X189500000Y-256770000D03*
%TO.P,J2,20,Pin_20*%
%TO.N,Net-(D381-A)*%
X189500000Y-259310000D03*
%TO.P,J2,21,Pin_21*%
%TO.N,Net-(D401-A)*%
X189500000Y-261850000D03*
%TO.P,J2,22,Pin_22*%
%TO.N,Net-(D421-A)*%
X189500000Y-264390000D03*
%TO.P,J2,23,Pin_23*%
%TO.N,Net-(D441-A)*%
X189500000Y-266930000D03*
%TO.P,J2,24,Pin_24*%
%TO.N,Net-(D461-A)*%
X189500000Y-269470000D03*
%TD*%
D14*
%TO.P,J1,1,Pin_1*%
%TO.N,Net-(D1-K)*%
X17460000Y-338040000D03*
D15*
%TO.P,J1,2,Pin_2*%
%TO.N,Net-(D102-K)*%
X17460000Y-340580000D03*
%TO.P,J1,3,Pin_3*%
%TO.N,Net-(D103-K)*%
X17460000Y-343120000D03*
%TO.P,J1,4,Pin_4*%
%TO.N,Net-(D104-K)*%
X17460000Y-345660000D03*
%TO.P,J1,5,Pin_5*%
%TO.N,Net-(D105-K)*%
X17460000Y-348200000D03*
%TO.P,J1,6,Pin_6*%
%TO.N,Net-(D106-K)*%
X17460000Y-350740000D03*
%TO.P,J1,7,Pin_7*%
%TO.N,Net-(D107-K)*%
X17460000Y-353280000D03*
%TO.P,J1,8,Pin_8*%
%TO.N,Net-(D108-K)*%
X17460000Y-355820000D03*
%TO.P,J1,9,Pin_9*%
%TO.N,Net-(D109-K)*%
X17460000Y-358360000D03*
%TO.P,J1,10,Pin_10*%
%TO.N,Net-(D10-K)*%
X17460000Y-360900000D03*
%TO.P,J1,11,Pin_11*%
%TO.N,Net-(D11-K)*%
X17460000Y-363440000D03*
%TO.P,J1,12,Pin_12*%
%TO.N,Net-(D112-K)*%
X17460000Y-365980000D03*
%TO.P,J1,13,Pin_13*%
%TO.N,Net-(D113-K)*%
X17460000Y-368520000D03*
%TO.P,J1,14,Pin_14*%
%TO.N,Net-(D114-K)*%
X17460000Y-371060000D03*
%TO.P,J1,15,Pin_15*%
%TO.N,Net-(D115-K)*%
X17460000Y-373600000D03*
%TO.P,J1,16,Pin_16*%
%TO.N,Net-(D116-K)*%
X17460000Y-376140000D03*
%TO.P,J1,17,Pin_17*%
%TO.N,unconnected-(J1-Pin_17-Pad17)*%
X17460000Y-378680000D03*
%TO.P,J1,18,Pin_18*%
%TO.N,unconnected-(J1-Pin_18-Pad18)*%
X17460000Y-381220000D03*
%TO.P,J1,19,Pin_19*%
%TO.N,unconnected-(J1-Pin_19-Pad19)*%
X17460000Y-383760000D03*
%TO.P,J1,20,Pin_20*%
%TO.N,unconnected-(J1-Pin_20-Pad20)*%
X17460000Y-386300000D03*
%TD*%
D16*
%TO.P,D476,1,K*%
%TO.N,Net-(D116-K)*%
X182190000Y-272240000D03*
D17*
%TO.P,D476,2,A*%
%TO.N,Net-(D461-A)*%
X184730000Y-272240000D03*
%TD*%
D16*
%TO.P,D475,1,K*%
%TO.N,Net-(D115-K)*%
X182190000Y-264770000D03*
D17*
%TO.P,D475,2,A*%
%TO.N,Net-(D461-A)*%
X184730000Y-264770000D03*
%TD*%
D16*
%TO.P,D474,1,K*%
%TO.N,Net-(D114-K)*%
X182190000Y-257300000D03*
D17*
%TO.P,D474,2,A*%
%TO.N,Net-(D461-A)*%
X184730000Y-257300000D03*
%TD*%
D16*
%TO.P,D473,1,K*%
%TO.N,Net-(D113-K)*%
X182190000Y-249830000D03*
D17*
%TO.P,D473,2,A*%
%TO.N,Net-(D461-A)*%
X184730000Y-249830000D03*
%TD*%
D16*
%TO.P,D472,1,K*%
%TO.N,Net-(D112-K)*%
X182190000Y-242360000D03*
D17*
%TO.P,D472,2,A*%
%TO.N,Net-(D461-A)*%
X184730000Y-242360000D03*
%TD*%
D16*
%TO.P,D471,1,K*%
%TO.N,Net-(D11-K)*%
X182190000Y-234890000D03*
D17*
%TO.P,D471,2,A*%
%TO.N,Net-(D461-A)*%
X184730000Y-234890000D03*
%TD*%
D16*
%TO.P,D470,1,K*%
%TO.N,Net-(D10-K)*%
X182190000Y-227420000D03*
D17*
%TO.P,D470,2,A*%
%TO.N,Net-(D461-A)*%
X184730000Y-227420000D03*
%TD*%
D16*
%TO.P,D469,1,K*%
%TO.N,Net-(D109-K)*%
X182190000Y-219950000D03*
D17*
%TO.P,D469,2,A*%
%TO.N,Net-(D461-A)*%
X184730000Y-219950000D03*
%TD*%
D16*
%TO.P,D468,1,K*%
%TO.N,Net-(D108-K)*%
X182190000Y-212480000D03*
D17*
%TO.P,D468,2,A*%
%TO.N,Net-(D461-A)*%
X184730000Y-212480000D03*
%TD*%
D16*
%TO.P,D467,1,K*%
%TO.N,Net-(D107-K)*%
X174710000Y-332000000D03*
D17*
%TO.P,D467,2,A*%
%TO.N,Net-(D461-A)*%
X177250000Y-332000000D03*
%TD*%
D16*
%TO.P,D466,1,K*%
%TO.N,Net-(D106-K)*%
X174710000Y-324530000D03*
D17*
%TO.P,D466,2,A*%
%TO.N,Net-(D461-A)*%
X177250000Y-324530000D03*
%TD*%
D16*
%TO.P,D465,1,K*%
%TO.N,Net-(D105-K)*%
X174710000Y-317060000D03*
D17*
%TO.P,D465,2,A*%
%TO.N,Net-(D461-A)*%
X177250000Y-317060000D03*
%TD*%
D16*
%TO.P,D464,1,K*%
%TO.N,Net-(D104-K)*%
X174710000Y-309590000D03*
D17*
%TO.P,D464,2,A*%
%TO.N,Net-(D461-A)*%
X177250000Y-309590000D03*
%TD*%
D16*
%TO.P,D463,1,K*%
%TO.N,Net-(D103-K)*%
X174710000Y-302120000D03*
D17*
%TO.P,D463,2,A*%
%TO.N,Net-(D461-A)*%
X177250000Y-302120000D03*
%TD*%
D16*
%TO.P,D462,1,K*%
%TO.N,Net-(D102-K)*%
X174710000Y-294650000D03*
D17*
%TO.P,D462,2,A*%
%TO.N,Net-(D461-A)*%
X177250000Y-294650000D03*
%TD*%
D16*
%TO.P,D461,1,K*%
%TO.N,Net-(D1-K)*%
X174710000Y-287180000D03*
D17*
%TO.P,D461,2,A*%
%TO.N,Net-(D461-A)*%
X177250000Y-287180000D03*
%TD*%
D16*
%TO.P,D456,1,K*%
%TO.N,Net-(D116-K)*%
X174710000Y-279710000D03*
D17*
%TO.P,D456,2,A*%
%TO.N,Net-(D441-A)*%
X177250000Y-279710000D03*
%TD*%
D16*
%TO.P,D455,1,K*%
%TO.N,Net-(D115-K)*%
X174710000Y-272240000D03*
D17*
%TO.P,D455,2,A*%
%TO.N,Net-(D441-A)*%
X177250000Y-272240000D03*
%TD*%
D16*
%TO.P,D454,1,K*%
%TO.N,Net-(D114-K)*%
X174710000Y-264770000D03*
D17*
%TO.P,D454,2,A*%
%TO.N,Net-(D441-A)*%
X177250000Y-264770000D03*
%TD*%
D16*
%TO.P,D453,1,K*%
%TO.N,Net-(D113-K)*%
X174710000Y-257300000D03*
D17*
%TO.P,D453,2,A*%
%TO.N,Net-(D441-A)*%
X177250000Y-257300000D03*
%TD*%
D16*
%TO.P,D452,1,K*%
%TO.N,Net-(D112-K)*%
X174710000Y-249830000D03*
D17*
%TO.P,D452,2,A*%
%TO.N,Net-(D441-A)*%
X177250000Y-249830000D03*
%TD*%
D16*
%TO.P,D451,1,K*%
%TO.N,Net-(D11-K)*%
X174710000Y-242360000D03*
D17*
%TO.P,D451,2,A*%
%TO.N,Net-(D441-A)*%
X177250000Y-242360000D03*
%TD*%
D16*
%TO.P,D450,1,K*%
%TO.N,Net-(D10-K)*%
X174710000Y-234890000D03*
D17*
%TO.P,D450,2,A*%
%TO.N,Net-(D441-A)*%
X177250000Y-234890000D03*
%TD*%
D16*
%TO.P,D449,1,K*%
%TO.N,Net-(D109-K)*%
X174710000Y-227420000D03*
D17*
%TO.P,D449,2,A*%
%TO.N,Net-(D441-A)*%
X177250000Y-227420000D03*
%TD*%
D16*
%TO.P,D448,1,K*%
%TO.N,Net-(D108-K)*%
X174710000Y-219950000D03*
D17*
%TO.P,D448,2,A*%
%TO.N,Net-(D441-A)*%
X177250000Y-219950000D03*
%TD*%
D16*
%TO.P,D447,1,K*%
%TO.N,Net-(D107-K)*%
X174710000Y-212480000D03*
D17*
%TO.P,D447,2,A*%
%TO.N,Net-(D441-A)*%
X177250000Y-212480000D03*
%TD*%
D16*
%TO.P,D446,1,K*%
%TO.N,Net-(D106-K)*%
X167230000Y-332000000D03*
D17*
%TO.P,D446,2,A*%
%TO.N,Net-(D441-A)*%
X169770000Y-332000000D03*
%TD*%
D16*
%TO.P,D445,1,K*%
%TO.N,Net-(D105-K)*%
X167230000Y-324530000D03*
D17*
%TO.P,D445,2,A*%
%TO.N,Net-(D441-A)*%
X169770000Y-324530000D03*
%TD*%
D16*
%TO.P,D444,1,K*%
%TO.N,Net-(D104-K)*%
X167230000Y-317060000D03*
D17*
%TO.P,D444,2,A*%
%TO.N,Net-(D441-A)*%
X169770000Y-317060000D03*
%TD*%
D16*
%TO.P,D443,1,K*%
%TO.N,Net-(D103-K)*%
X167230000Y-309590000D03*
D17*
%TO.P,D443,2,A*%
%TO.N,Net-(D441-A)*%
X169770000Y-309590000D03*
%TD*%
D16*
%TO.P,D442,1,K*%
%TO.N,Net-(D102-K)*%
X167230000Y-302120000D03*
D17*
%TO.P,D442,2,A*%
%TO.N,Net-(D441-A)*%
X169770000Y-302120000D03*
%TD*%
D16*
%TO.P,D441,1,K*%
%TO.N,Net-(D1-K)*%
X167230000Y-294650000D03*
D17*
%TO.P,D441,2,A*%
%TO.N,Net-(D441-A)*%
X169770000Y-294650000D03*
%TD*%
D16*
%TO.P,D436,1,K*%
%TO.N,Net-(D116-K)*%
X167230000Y-287180000D03*
D17*
%TO.P,D436,2,A*%
%TO.N,Net-(D421-A)*%
X169770000Y-287180000D03*
%TD*%
D16*
%TO.P,D435,1,K*%
%TO.N,Net-(D115-K)*%
X167230000Y-279710000D03*
D17*
%TO.P,D435,2,A*%
%TO.N,Net-(D421-A)*%
X169770000Y-279710000D03*
%TD*%
D16*
%TO.P,D434,1,K*%
%TO.N,Net-(D114-K)*%
X167230000Y-272240000D03*
D17*
%TO.P,D434,2,A*%
%TO.N,Net-(D421-A)*%
X169770000Y-272240000D03*
%TD*%
D16*
%TO.P,D433,1,K*%
%TO.N,Net-(D113-K)*%
X167230000Y-264770000D03*
D17*
%TO.P,D433,2,A*%
%TO.N,Net-(D421-A)*%
X169770000Y-264770000D03*
%TD*%
D16*
%TO.P,D432,1,K*%
%TO.N,Net-(D112-K)*%
X167230000Y-257300000D03*
D17*
%TO.P,D432,2,A*%
%TO.N,Net-(D421-A)*%
X169770000Y-257300000D03*
%TD*%
D16*
%TO.P,D431,1,K*%
%TO.N,Net-(D11-K)*%
X167230000Y-249830000D03*
D17*
%TO.P,D431,2,A*%
%TO.N,Net-(D421-A)*%
X169770000Y-249830000D03*
%TD*%
D16*
%TO.P,D430,1,K*%
%TO.N,Net-(D10-K)*%
X167230000Y-242360000D03*
D17*
%TO.P,D430,2,A*%
%TO.N,Net-(D421-A)*%
X169770000Y-242360000D03*
%TD*%
D16*
%TO.P,D429,1,K*%
%TO.N,Net-(D109-K)*%
X167230000Y-234890000D03*
D17*
%TO.P,D429,2,A*%
%TO.N,Net-(D421-A)*%
X169770000Y-234890000D03*
%TD*%
D16*
%TO.P,D428,1,K*%
%TO.N,Net-(D108-K)*%
X167230000Y-227420000D03*
D17*
%TO.P,D428,2,A*%
%TO.N,Net-(D421-A)*%
X169770000Y-227420000D03*
%TD*%
D16*
%TO.P,D427,1,K*%
%TO.N,Net-(D107-K)*%
X167230000Y-219950000D03*
D17*
%TO.P,D427,2,A*%
%TO.N,Net-(D421-A)*%
X169770000Y-219950000D03*
%TD*%
D16*
%TO.P,D426,1,K*%
%TO.N,Net-(D106-K)*%
X167230000Y-212480000D03*
D17*
%TO.P,D426,2,A*%
%TO.N,Net-(D421-A)*%
X169770000Y-212480000D03*
%TD*%
D16*
%TO.P,D425,1,K*%
%TO.N,Net-(D105-K)*%
X159750000Y-332000000D03*
D17*
%TO.P,D425,2,A*%
%TO.N,Net-(D421-A)*%
X162290000Y-332000000D03*
%TD*%
D16*
%TO.P,D424,1,K*%
%TO.N,Net-(D104-K)*%
X159750000Y-324530000D03*
D17*
%TO.P,D424,2,A*%
%TO.N,Net-(D421-A)*%
X162290000Y-324530000D03*
%TD*%
D16*
%TO.P,D423,1,K*%
%TO.N,Net-(D103-K)*%
X159750000Y-317060000D03*
D17*
%TO.P,D423,2,A*%
%TO.N,Net-(D421-A)*%
X162290000Y-317060000D03*
%TD*%
D16*
%TO.P,D422,1,K*%
%TO.N,Net-(D102-K)*%
X159750000Y-309590000D03*
D17*
%TO.P,D422,2,A*%
%TO.N,Net-(D421-A)*%
X162290000Y-309590000D03*
%TD*%
D16*
%TO.P,D421,1,K*%
%TO.N,Net-(D1-K)*%
X159750000Y-302120000D03*
D17*
%TO.P,D421,2,A*%
%TO.N,Net-(D421-A)*%
X162290000Y-302120000D03*
%TD*%
D16*
%TO.P,D416,1,K*%
%TO.N,Net-(D116-K)*%
X159750000Y-294650000D03*
D17*
%TO.P,D416,2,A*%
%TO.N,Net-(D401-A)*%
X162290000Y-294650000D03*
%TD*%
D16*
%TO.P,D415,1,K*%
%TO.N,Net-(D115-K)*%
X159750000Y-287180000D03*
D17*
%TO.P,D415,2,A*%
%TO.N,Net-(D401-A)*%
X162290000Y-287180000D03*
%TD*%
D16*
%TO.P,D414,1,K*%
%TO.N,Net-(D114-K)*%
X159750000Y-279710000D03*
D17*
%TO.P,D414,2,A*%
%TO.N,Net-(D401-A)*%
X162290000Y-279710000D03*
%TD*%
D16*
%TO.P,D413,1,K*%
%TO.N,Net-(D113-K)*%
X159750000Y-272240000D03*
D17*
%TO.P,D413,2,A*%
%TO.N,Net-(D401-A)*%
X162290000Y-272240000D03*
%TD*%
D16*
%TO.P,D412,1,K*%
%TO.N,Net-(D112-K)*%
X159750000Y-264770000D03*
D17*
%TO.P,D412,2,A*%
%TO.N,Net-(D401-A)*%
X162290000Y-264770000D03*
%TD*%
D16*
%TO.P,D411,1,K*%
%TO.N,Net-(D11-K)*%
X159750000Y-257300000D03*
D17*
%TO.P,D411,2,A*%
%TO.N,Net-(D401-A)*%
X162290000Y-257300000D03*
%TD*%
D16*
%TO.P,D410,1,K*%
%TO.N,Net-(D10-K)*%
X159750000Y-249830000D03*
D17*
%TO.P,D410,2,A*%
%TO.N,Net-(D401-A)*%
X162290000Y-249830000D03*
%TD*%
D16*
%TO.P,D409,1,K*%
%TO.N,Net-(D109-K)*%
X159750000Y-242360000D03*
D17*
%TO.P,D409,2,A*%
%TO.N,Net-(D401-A)*%
X162290000Y-242360000D03*
%TD*%
D16*
%TO.P,D408,1,K*%
%TO.N,Net-(D108-K)*%
X159750000Y-234890000D03*
D17*
%TO.P,D408,2,A*%
%TO.N,Net-(D401-A)*%
X162290000Y-234890000D03*
%TD*%
D16*
%TO.P,D407,1,K*%
%TO.N,Net-(D107-K)*%
X159750000Y-227420000D03*
D17*
%TO.P,D407,2,A*%
%TO.N,Net-(D401-A)*%
X162290000Y-227420000D03*
%TD*%
D16*
%TO.P,D406,1,K*%
%TO.N,Net-(D106-K)*%
X159750000Y-219950000D03*
D17*
%TO.P,D406,2,A*%
%TO.N,Net-(D401-A)*%
X162290000Y-219950000D03*
%TD*%
D16*
%TO.P,D405,1,K*%
%TO.N,Net-(D105-K)*%
X159750000Y-212480000D03*
D17*
%TO.P,D405,2,A*%
%TO.N,Net-(D401-A)*%
X162290000Y-212480000D03*
%TD*%
D16*
%TO.P,D404,1,K*%
%TO.N,Net-(D104-K)*%
X152270000Y-332000000D03*
D17*
%TO.P,D404,2,A*%
%TO.N,Net-(D401-A)*%
X154810000Y-332000000D03*
%TD*%
D16*
%TO.P,D403,1,K*%
%TO.N,Net-(D103-K)*%
X152270000Y-324530000D03*
D17*
%TO.P,D403,2,A*%
%TO.N,Net-(D401-A)*%
X154810000Y-324530000D03*
%TD*%
D16*
%TO.P,D402,1,K*%
%TO.N,Net-(D102-K)*%
X152270000Y-317060000D03*
D17*
%TO.P,D402,2,A*%
%TO.N,Net-(D401-A)*%
X154810000Y-317060000D03*
%TD*%
D16*
%TO.P,D401,1,K*%
%TO.N,Net-(D1-K)*%
X152270000Y-309590000D03*
D17*
%TO.P,D401,2,A*%
%TO.N,Net-(D401-A)*%
X154810000Y-309590000D03*
%TD*%
D16*
%TO.P,D396,1,K*%
%TO.N,Net-(D116-K)*%
X152270000Y-302120000D03*
D17*
%TO.P,D396,2,A*%
%TO.N,Net-(D381-A)*%
X154810000Y-302120000D03*
%TD*%
D16*
%TO.P,D395,1,K*%
%TO.N,Net-(D115-K)*%
X152270000Y-294650000D03*
D17*
%TO.P,D395,2,A*%
%TO.N,Net-(D381-A)*%
X154810000Y-294650000D03*
%TD*%
D16*
%TO.P,D394,1,K*%
%TO.N,Net-(D114-K)*%
X152270000Y-287180000D03*
D17*
%TO.P,D394,2,A*%
%TO.N,Net-(D381-A)*%
X154810000Y-287180000D03*
%TD*%
D16*
%TO.P,D393,1,K*%
%TO.N,Net-(D113-K)*%
X152270000Y-279710000D03*
D17*
%TO.P,D393,2,A*%
%TO.N,Net-(D381-A)*%
X154810000Y-279710000D03*
%TD*%
D16*
%TO.P,D392,1,K*%
%TO.N,Net-(D112-K)*%
X152270000Y-272240000D03*
D17*
%TO.P,D392,2,A*%
%TO.N,Net-(D381-A)*%
X154810000Y-272240000D03*
%TD*%
D16*
%TO.P,D391,1,K*%
%TO.N,Net-(D11-K)*%
X152270000Y-264770000D03*
D17*
%TO.P,D391,2,A*%
%TO.N,Net-(D381-A)*%
X154810000Y-264770000D03*
%TD*%
D16*
%TO.P,D390,1,K*%
%TO.N,Net-(D10-K)*%
X152270000Y-257300000D03*
D17*
%TO.P,D390,2,A*%
%TO.N,Net-(D381-A)*%
X154810000Y-257300000D03*
%TD*%
D16*
%TO.P,D389,1,K*%
%TO.N,Net-(D109-K)*%
X152270000Y-249830000D03*
D17*
%TO.P,D389,2,A*%
%TO.N,Net-(D381-A)*%
X154810000Y-249830000D03*
%TD*%
D16*
%TO.P,D388,1,K*%
%TO.N,Net-(D108-K)*%
X152270000Y-242360000D03*
D17*
%TO.P,D388,2,A*%
%TO.N,Net-(D381-A)*%
X154810000Y-242360000D03*
%TD*%
D16*
%TO.P,D387,1,K*%
%TO.N,Net-(D107-K)*%
X152270000Y-234890000D03*
D17*
%TO.P,D387,2,A*%
%TO.N,Net-(D381-A)*%
X154810000Y-234890000D03*
%TD*%
D16*
%TO.P,D386,1,K*%
%TO.N,Net-(D106-K)*%
X152270000Y-227420000D03*
D17*
%TO.P,D386,2,A*%
%TO.N,Net-(D381-A)*%
X154810000Y-227420000D03*
%TD*%
D16*
%TO.P,D385,1,K*%
%TO.N,Net-(D105-K)*%
X152270000Y-219950000D03*
D17*
%TO.P,D385,2,A*%
%TO.N,Net-(D381-A)*%
X154810000Y-219950000D03*
%TD*%
D16*
%TO.P,D384,1,K*%
%TO.N,Net-(D104-K)*%
X152270000Y-212480000D03*
D17*
%TO.P,D384,2,A*%
%TO.N,Net-(D381-A)*%
X154810000Y-212480000D03*
%TD*%
D16*
%TO.P,D383,1,K*%
%TO.N,Net-(D103-K)*%
X144790000Y-332000000D03*
D17*
%TO.P,D383,2,A*%
%TO.N,Net-(D381-A)*%
X147330000Y-332000000D03*
%TD*%
D16*
%TO.P,D382,1,K*%
%TO.N,Net-(D102-K)*%
X144790000Y-324530000D03*
D17*
%TO.P,D382,2,A*%
%TO.N,Net-(D381-A)*%
X147330000Y-324530000D03*
%TD*%
D16*
%TO.P,D381,1,K*%
%TO.N,Net-(D1-K)*%
X144790000Y-317060000D03*
D17*
%TO.P,D381,2,A*%
%TO.N,Net-(D381-A)*%
X147330000Y-317060000D03*
%TD*%
D16*
%TO.P,D376,1,K*%
%TO.N,Net-(D116-K)*%
X144790000Y-309590000D03*
D17*
%TO.P,D376,2,A*%
%TO.N,Net-(D361-A)*%
X147330000Y-309590000D03*
%TD*%
D16*
%TO.P,D375,1,K*%
%TO.N,Net-(D115-K)*%
X144790000Y-302120000D03*
D17*
%TO.P,D375,2,A*%
%TO.N,Net-(D361-A)*%
X147330000Y-302120000D03*
%TD*%
D16*
%TO.P,D374,1,K*%
%TO.N,Net-(D114-K)*%
X144790000Y-294650000D03*
D17*
%TO.P,D374,2,A*%
%TO.N,Net-(D361-A)*%
X147330000Y-294650000D03*
%TD*%
D16*
%TO.P,D373,1,K*%
%TO.N,Net-(D113-K)*%
X144790000Y-287180000D03*
D17*
%TO.P,D373,2,A*%
%TO.N,Net-(D361-A)*%
X147330000Y-287180000D03*
%TD*%
D16*
%TO.P,D372,1,K*%
%TO.N,Net-(D112-K)*%
X144790000Y-279710000D03*
D17*
%TO.P,D372,2,A*%
%TO.N,Net-(D361-A)*%
X147330000Y-279710000D03*
%TD*%
D16*
%TO.P,D371,1,K*%
%TO.N,Net-(D11-K)*%
X144790000Y-272240000D03*
D17*
%TO.P,D371,2,A*%
%TO.N,Net-(D361-A)*%
X147330000Y-272240000D03*
%TD*%
D16*
%TO.P,D370,1,K*%
%TO.N,Net-(D10-K)*%
X144790000Y-264770000D03*
D17*
%TO.P,D370,2,A*%
%TO.N,Net-(D361-A)*%
X147330000Y-264770000D03*
%TD*%
D16*
%TO.P,D369,1,K*%
%TO.N,Net-(D109-K)*%
X144790000Y-257300000D03*
D17*
%TO.P,D369,2,A*%
%TO.N,Net-(D361-A)*%
X147330000Y-257300000D03*
%TD*%
D16*
%TO.P,D368,1,K*%
%TO.N,Net-(D108-K)*%
X144790000Y-249830000D03*
D17*
%TO.P,D368,2,A*%
%TO.N,Net-(D361-A)*%
X147330000Y-249830000D03*
%TD*%
D16*
%TO.P,D367,1,K*%
%TO.N,Net-(D107-K)*%
X144790000Y-242360000D03*
D17*
%TO.P,D367,2,A*%
%TO.N,Net-(D361-A)*%
X147330000Y-242360000D03*
%TD*%
D16*
%TO.P,D366,1,K*%
%TO.N,Net-(D106-K)*%
X144790000Y-234890000D03*
D17*
%TO.P,D366,2,A*%
%TO.N,Net-(D361-A)*%
X147330000Y-234890000D03*
%TD*%
D16*
%TO.P,D365,1,K*%
%TO.N,Net-(D105-K)*%
X144790000Y-227420000D03*
D17*
%TO.P,D365,2,A*%
%TO.N,Net-(D361-A)*%
X147330000Y-227420000D03*
%TD*%
D16*
%TO.P,D364,1,K*%
%TO.N,Net-(D104-K)*%
X144790000Y-219950000D03*
D17*
%TO.P,D364,2,A*%
%TO.N,Net-(D361-A)*%
X147330000Y-219950000D03*
%TD*%
D16*
%TO.P,D363,1,K*%
%TO.N,Net-(D103-K)*%
X144790000Y-212480000D03*
D17*
%TO.P,D363,2,A*%
%TO.N,Net-(D361-A)*%
X147330000Y-212480000D03*
%TD*%
D16*
%TO.P,D362,1,K*%
%TO.N,Net-(D102-K)*%
X137310000Y-332000000D03*
D17*
%TO.P,D362,2,A*%
%TO.N,Net-(D361-A)*%
X139850000Y-332000000D03*
%TD*%
D16*
%TO.P,D361,1,K*%
%TO.N,Net-(D1-K)*%
X137310000Y-324530000D03*
D17*
%TO.P,D361,2,A*%
%TO.N,Net-(D361-A)*%
X139850000Y-324530000D03*
%TD*%
D16*
%TO.P,D356,1,K*%
%TO.N,Net-(D116-K)*%
X137310000Y-317060000D03*
D17*
%TO.P,D356,2,A*%
%TO.N,Net-(D341-A)*%
X139850000Y-317060000D03*
%TD*%
D16*
%TO.P,D355,1,K*%
%TO.N,Net-(D115-K)*%
X137310000Y-309590000D03*
D17*
%TO.P,D355,2,A*%
%TO.N,Net-(D341-A)*%
X139850000Y-309590000D03*
%TD*%
D16*
%TO.P,D354,1,K*%
%TO.N,Net-(D114-K)*%
X137310000Y-302120000D03*
D17*
%TO.P,D354,2,A*%
%TO.N,Net-(D341-A)*%
X139850000Y-302120000D03*
%TD*%
D16*
%TO.P,D353,1,K*%
%TO.N,Net-(D113-K)*%
X137310000Y-294650000D03*
D17*
%TO.P,D353,2,A*%
%TO.N,Net-(D341-A)*%
X139850000Y-294650000D03*
%TD*%
D16*
%TO.P,D352,1,K*%
%TO.N,Net-(D112-K)*%
X137310000Y-287180000D03*
D17*
%TO.P,D352,2,A*%
%TO.N,Net-(D341-A)*%
X139850000Y-287180000D03*
%TD*%
D16*
%TO.P,D351,1,K*%
%TO.N,Net-(D11-K)*%
X137310000Y-279710000D03*
D17*
%TO.P,D351,2,A*%
%TO.N,Net-(D341-A)*%
X139850000Y-279710000D03*
%TD*%
D16*
%TO.P,D350,1,K*%
%TO.N,Net-(D10-K)*%
X137310000Y-272240000D03*
D17*
%TO.P,D350,2,A*%
%TO.N,Net-(D341-A)*%
X139850000Y-272240000D03*
%TD*%
D16*
%TO.P,D349,1,K*%
%TO.N,Net-(D109-K)*%
X137310000Y-264770000D03*
D17*
%TO.P,D349,2,A*%
%TO.N,Net-(D341-A)*%
X139850000Y-264770000D03*
%TD*%
D16*
%TO.P,D348,1,K*%
%TO.N,Net-(D108-K)*%
X137310000Y-257300000D03*
D17*
%TO.P,D348,2,A*%
%TO.N,Net-(D341-A)*%
X139850000Y-257300000D03*
%TD*%
D16*
%TO.P,D347,1,K*%
%TO.N,Net-(D107-K)*%
X137310000Y-249830000D03*
D17*
%TO.P,D347,2,A*%
%TO.N,Net-(D341-A)*%
X139850000Y-249830000D03*
%TD*%
D16*
%TO.P,D346,1,K*%
%TO.N,Net-(D106-K)*%
X137310000Y-242360000D03*
D17*
%TO.P,D346,2,A*%
%TO.N,Net-(D341-A)*%
X139850000Y-242360000D03*
%TD*%
D16*
%TO.P,D345,1,K*%
%TO.N,Net-(D105-K)*%
X137310000Y-234890000D03*
D17*
%TO.P,D345,2,A*%
%TO.N,Net-(D341-A)*%
X139850000Y-234890000D03*
%TD*%
D16*
%TO.P,D344,1,K*%
%TO.N,Net-(D104-K)*%
X137310000Y-227420000D03*
D17*
%TO.P,D344,2,A*%
%TO.N,Net-(D341-A)*%
X139850000Y-227420000D03*
%TD*%
D16*
%TO.P,D343,1,K*%
%TO.N,Net-(D103-K)*%
X137310000Y-219950000D03*
D17*
%TO.P,D343,2,A*%
%TO.N,Net-(D341-A)*%
X139850000Y-219950000D03*
%TD*%
D16*
%TO.P,D342,1,K*%
%TO.N,Net-(D102-K)*%
X137310000Y-212480000D03*
D17*
%TO.P,D342,2,A*%
%TO.N,Net-(D341-A)*%
X139850000Y-212480000D03*
%TD*%
D16*
%TO.P,D341,1,K*%
%TO.N,Net-(D1-K)*%
X129830000Y-332000000D03*
D17*
%TO.P,D341,2,A*%
%TO.N,Net-(D341-A)*%
X132370000Y-332000000D03*
%TD*%
D16*
%TO.P,D336,1,K*%
%TO.N,Net-(D116-K)*%
X129830000Y-324530000D03*
D17*
%TO.P,D336,2,A*%
%TO.N,Net-(D321-A)*%
X132370000Y-324530000D03*
%TD*%
D16*
%TO.P,D335,1,K*%
%TO.N,Net-(D115-K)*%
X129830000Y-317060000D03*
D17*
%TO.P,D335,2,A*%
%TO.N,Net-(D321-A)*%
X132370000Y-317060000D03*
%TD*%
D16*
%TO.P,D334,1,K*%
%TO.N,Net-(D114-K)*%
X129830000Y-309590000D03*
D17*
%TO.P,D334,2,A*%
%TO.N,Net-(D321-A)*%
X132370000Y-309590000D03*
%TD*%
D16*
%TO.P,D333,1,K*%
%TO.N,Net-(D113-K)*%
X129830000Y-302120000D03*
D17*
%TO.P,D333,2,A*%
%TO.N,Net-(D321-A)*%
X132370000Y-302120000D03*
%TD*%
D16*
%TO.P,D332,1,K*%
%TO.N,Net-(D112-K)*%
X129830000Y-294650000D03*
D17*
%TO.P,D332,2,A*%
%TO.N,Net-(D321-A)*%
X132370000Y-294650000D03*
%TD*%
D16*
%TO.P,D331,1,K*%
%TO.N,Net-(D11-K)*%
X129830000Y-287180000D03*
D17*
%TO.P,D331,2,A*%
%TO.N,Net-(D321-A)*%
X132370000Y-287180000D03*
%TD*%
D16*
%TO.P,D330,1,K*%
%TO.N,Net-(D10-K)*%
X129830000Y-279710000D03*
D17*
%TO.P,D330,2,A*%
%TO.N,Net-(D321-A)*%
X132370000Y-279710000D03*
%TD*%
D16*
%TO.P,D329,1,K*%
%TO.N,Net-(D109-K)*%
X129830000Y-272240000D03*
D17*
%TO.P,D329,2,A*%
%TO.N,Net-(D321-A)*%
X132370000Y-272240000D03*
%TD*%
D16*
%TO.P,D328,1,K*%
%TO.N,Net-(D108-K)*%
X129830000Y-264770000D03*
D17*
%TO.P,D328,2,A*%
%TO.N,Net-(D321-A)*%
X132370000Y-264770000D03*
%TD*%
D16*
%TO.P,D327,1,K*%
%TO.N,Net-(D107-K)*%
X129830000Y-257300000D03*
D17*
%TO.P,D327,2,A*%
%TO.N,Net-(D321-A)*%
X132370000Y-257300000D03*
%TD*%
D16*
%TO.P,D326,1,K*%
%TO.N,Net-(D106-K)*%
X129830000Y-249830000D03*
D17*
%TO.P,D326,2,A*%
%TO.N,Net-(D321-A)*%
X132370000Y-249830000D03*
%TD*%
D16*
%TO.P,D325,1,K*%
%TO.N,Net-(D105-K)*%
X129830000Y-242360000D03*
D17*
%TO.P,D325,2,A*%
%TO.N,Net-(D321-A)*%
X132370000Y-242360000D03*
%TD*%
D16*
%TO.P,D324,1,K*%
%TO.N,Net-(D104-K)*%
X129830000Y-234890000D03*
D17*
%TO.P,D324,2,A*%
%TO.N,Net-(D321-A)*%
X132370000Y-234890000D03*
%TD*%
D16*
%TO.P,D323,1,K*%
%TO.N,Net-(D103-K)*%
X129830000Y-227420000D03*
D17*
%TO.P,D323,2,A*%
%TO.N,Net-(D321-A)*%
X132370000Y-227420000D03*
%TD*%
D16*
%TO.P,D322,1,K*%
%TO.N,Net-(D102-K)*%
X129830000Y-219950000D03*
D17*
%TO.P,D322,2,A*%
%TO.N,Net-(D321-A)*%
X132370000Y-219950000D03*
%TD*%
D16*
%TO.P,D321,1,K*%
%TO.N,Net-(D1-K)*%
X129830000Y-212480000D03*
D17*
%TO.P,D321,2,A*%
%TO.N,Net-(D321-A)*%
X132370000Y-212480000D03*
%TD*%
D16*
%TO.P,D316,1,K*%
%TO.N,Net-(D116-K)*%
X122350000Y-332000000D03*
D17*
%TO.P,D316,2,A*%
%TO.N,Net-(D301-A)*%
X124890000Y-332000000D03*
%TD*%
D16*
%TO.P,D315,1,K*%
%TO.N,Net-(D115-K)*%
X122350000Y-324530000D03*
D17*
%TO.P,D315,2,A*%
%TO.N,Net-(D301-A)*%
X124890000Y-324530000D03*
%TD*%
D16*
%TO.P,D314,1,K*%
%TO.N,Net-(D114-K)*%
X122350000Y-317060000D03*
D17*
%TO.P,D314,2,A*%
%TO.N,Net-(D301-A)*%
X124890000Y-317060000D03*
%TD*%
D16*
%TO.P,D313,1,K*%
%TO.N,Net-(D113-K)*%
X122350000Y-309590000D03*
D17*
%TO.P,D313,2,A*%
%TO.N,Net-(D301-A)*%
X124890000Y-309590000D03*
%TD*%
D16*
%TO.P,D312,1,K*%
%TO.N,Net-(D112-K)*%
X122350000Y-302120000D03*
D17*
%TO.P,D312,2,A*%
%TO.N,Net-(D301-A)*%
X124890000Y-302120000D03*
%TD*%
D16*
%TO.P,D311,1,K*%
%TO.N,Net-(D11-K)*%
X122350000Y-294650000D03*
D17*
%TO.P,D311,2,A*%
%TO.N,Net-(D301-A)*%
X124890000Y-294650000D03*
%TD*%
D16*
%TO.P,D310,1,K*%
%TO.N,Net-(D10-K)*%
X122350000Y-287180000D03*
D17*
%TO.P,D310,2,A*%
%TO.N,Net-(D301-A)*%
X124890000Y-287180000D03*
%TD*%
D16*
%TO.P,D309,1,K*%
%TO.N,Net-(D109-K)*%
X122350000Y-279710000D03*
D17*
%TO.P,D309,2,A*%
%TO.N,Net-(D301-A)*%
X124890000Y-279710000D03*
%TD*%
D16*
%TO.P,D308,1,K*%
%TO.N,Net-(D108-K)*%
X122350000Y-272240000D03*
D17*
%TO.P,D308,2,A*%
%TO.N,Net-(D301-A)*%
X124890000Y-272240000D03*
%TD*%
D16*
%TO.P,D307,1,K*%
%TO.N,Net-(D107-K)*%
X122350000Y-264770000D03*
D17*
%TO.P,D307,2,A*%
%TO.N,Net-(D301-A)*%
X124890000Y-264770000D03*
%TD*%
D16*
%TO.P,D306,1,K*%
%TO.N,Net-(D106-K)*%
X122350000Y-257300000D03*
D17*
%TO.P,D306,2,A*%
%TO.N,Net-(D301-A)*%
X124890000Y-257300000D03*
%TD*%
D16*
%TO.P,D305,1,K*%
%TO.N,Net-(D105-K)*%
X122350000Y-249830000D03*
D17*
%TO.P,D305,2,A*%
%TO.N,Net-(D301-A)*%
X124890000Y-249830000D03*
%TD*%
D16*
%TO.P,D304,1,K*%
%TO.N,Net-(D104-K)*%
X122350000Y-242360000D03*
D17*
%TO.P,D304,2,A*%
%TO.N,Net-(D301-A)*%
X124890000Y-242360000D03*
%TD*%
D16*
%TO.P,D303,1,K*%
%TO.N,Net-(D103-K)*%
X122350000Y-234890000D03*
D17*
%TO.P,D303,2,A*%
%TO.N,Net-(D301-A)*%
X124890000Y-234890000D03*
%TD*%
D16*
%TO.P,D302,1,K*%
%TO.N,Net-(D102-K)*%
X122350000Y-227420000D03*
D17*
%TO.P,D302,2,A*%
%TO.N,Net-(D301-A)*%
X124890000Y-227420000D03*
%TD*%
D16*
%TO.P,D301,1,K*%
%TO.N,Net-(D1-K)*%
X122350000Y-219950000D03*
D17*
%TO.P,D301,2,A*%
%TO.N,Net-(D301-A)*%
X124890000Y-219950000D03*
%TD*%
D16*
%TO.P,D296,1,K*%
%TO.N,Net-(D116-K)*%
X122350000Y-212480000D03*
D17*
%TO.P,D296,2,A*%
%TO.N,Net-(D281-A)*%
X124890000Y-212480000D03*
%TD*%
D16*
%TO.P,D295,1,K*%
%TO.N,Net-(D115-K)*%
X114870000Y-332000000D03*
D17*
%TO.P,D295,2,A*%
%TO.N,Net-(D281-A)*%
X117410000Y-332000000D03*
%TD*%
D16*
%TO.P,D294,1,K*%
%TO.N,Net-(D114-K)*%
X114870000Y-324530000D03*
D17*
%TO.P,D294,2,A*%
%TO.N,Net-(D281-A)*%
X117410000Y-324530000D03*
%TD*%
D16*
%TO.P,D293,1,K*%
%TO.N,Net-(D113-K)*%
X114870000Y-317060000D03*
D17*
%TO.P,D293,2,A*%
%TO.N,Net-(D281-A)*%
X117410000Y-317060000D03*
%TD*%
D16*
%TO.P,D292,1,K*%
%TO.N,Net-(D112-K)*%
X114870000Y-309590000D03*
D17*
%TO.P,D292,2,A*%
%TO.N,Net-(D281-A)*%
X117410000Y-309590000D03*
%TD*%
D16*
%TO.P,D291,1,K*%
%TO.N,Net-(D11-K)*%
X114870000Y-302120000D03*
D17*
%TO.P,D291,2,A*%
%TO.N,Net-(D281-A)*%
X117410000Y-302120000D03*
%TD*%
D16*
%TO.P,D290,1,K*%
%TO.N,Net-(D10-K)*%
X114870000Y-294650000D03*
D17*
%TO.P,D290,2,A*%
%TO.N,Net-(D281-A)*%
X117410000Y-294650000D03*
%TD*%
D16*
%TO.P,D289,1,K*%
%TO.N,Net-(D109-K)*%
X114870000Y-287180000D03*
D17*
%TO.P,D289,2,A*%
%TO.N,Net-(D281-A)*%
X117410000Y-287180000D03*
%TD*%
D16*
%TO.P,D288,1,K*%
%TO.N,Net-(D108-K)*%
X114870000Y-279710000D03*
D17*
%TO.P,D288,2,A*%
%TO.N,Net-(D281-A)*%
X117410000Y-279710000D03*
%TD*%
D16*
%TO.P,D287,1,K*%
%TO.N,Net-(D107-K)*%
X114870000Y-272240000D03*
D17*
%TO.P,D287,2,A*%
%TO.N,Net-(D281-A)*%
X117410000Y-272240000D03*
%TD*%
D16*
%TO.P,D286,1,K*%
%TO.N,Net-(D106-K)*%
X114870000Y-264770000D03*
D17*
%TO.P,D286,2,A*%
%TO.N,Net-(D281-A)*%
X117410000Y-264770000D03*
%TD*%
D16*
%TO.P,D285,1,K*%
%TO.N,Net-(D105-K)*%
X114870000Y-257300000D03*
D17*
%TO.P,D285,2,A*%
%TO.N,Net-(D281-A)*%
X117410000Y-257300000D03*
%TD*%
D16*
%TO.P,D284,1,K*%
%TO.N,Net-(D104-K)*%
X114870000Y-249830000D03*
D17*
%TO.P,D284,2,A*%
%TO.N,Net-(D281-A)*%
X117410000Y-249830000D03*
%TD*%
D16*
%TO.P,D283,1,K*%
%TO.N,Net-(D103-K)*%
X114870000Y-242360000D03*
D17*
%TO.P,D283,2,A*%
%TO.N,Net-(D281-A)*%
X117410000Y-242360000D03*
%TD*%
D16*
%TO.P,D282,1,K*%
%TO.N,Net-(D102-K)*%
X114870000Y-234890000D03*
D17*
%TO.P,D282,2,A*%
%TO.N,Net-(D281-A)*%
X117410000Y-234890000D03*
%TD*%
D16*
%TO.P,D281,1,K*%
%TO.N,Net-(D1-K)*%
X114870000Y-227420000D03*
D17*
%TO.P,D281,2,A*%
%TO.N,Net-(D281-A)*%
X117410000Y-227420000D03*
%TD*%
D16*
%TO.P,D276,1,K*%
%TO.N,Net-(D116-K)*%
X114870000Y-219950000D03*
D17*
%TO.P,D276,2,A*%
%TO.N,Net-(D261-A)*%
X117410000Y-219950000D03*
%TD*%
D16*
%TO.P,D275,1,K*%
%TO.N,Net-(D115-K)*%
X114870000Y-212480000D03*
D17*
%TO.P,D275,2,A*%
%TO.N,Net-(D261-A)*%
X117410000Y-212480000D03*
%TD*%
D16*
%TO.P,D274,1,K*%
%TO.N,Net-(D114-K)*%
X107390000Y-332000000D03*
D17*
%TO.P,D274,2,A*%
%TO.N,Net-(D261-A)*%
X109930000Y-332000000D03*
%TD*%
D16*
%TO.P,D273,1,K*%
%TO.N,Net-(D113-K)*%
X107390000Y-324530000D03*
D17*
%TO.P,D273,2,A*%
%TO.N,Net-(D261-A)*%
X109930000Y-324530000D03*
%TD*%
D16*
%TO.P,D272,1,K*%
%TO.N,Net-(D112-K)*%
X107390000Y-317060000D03*
D17*
%TO.P,D272,2,A*%
%TO.N,Net-(D261-A)*%
X109930000Y-317060000D03*
%TD*%
D16*
%TO.P,D271,1,K*%
%TO.N,Net-(D11-K)*%
X107390000Y-309590000D03*
D17*
%TO.P,D271,2,A*%
%TO.N,Net-(D261-A)*%
X109930000Y-309590000D03*
%TD*%
D16*
%TO.P,D270,1,K*%
%TO.N,Net-(D10-K)*%
X107390000Y-302120000D03*
D17*
%TO.P,D270,2,A*%
%TO.N,Net-(D261-A)*%
X109930000Y-302120000D03*
%TD*%
D16*
%TO.P,D269,1,K*%
%TO.N,Net-(D109-K)*%
X107390000Y-294650000D03*
D17*
%TO.P,D269,2,A*%
%TO.N,Net-(D261-A)*%
X109930000Y-294650000D03*
%TD*%
D16*
%TO.P,D268,1,K*%
%TO.N,Net-(D108-K)*%
X107390000Y-287180000D03*
D17*
%TO.P,D268,2,A*%
%TO.N,Net-(D261-A)*%
X109930000Y-287180000D03*
%TD*%
D16*
%TO.P,D267,1,K*%
%TO.N,Net-(D107-K)*%
X107390000Y-279710000D03*
D17*
%TO.P,D267,2,A*%
%TO.N,Net-(D261-A)*%
X109930000Y-279710000D03*
%TD*%
D16*
%TO.P,D266,1,K*%
%TO.N,Net-(D106-K)*%
X107390000Y-272240000D03*
D17*
%TO.P,D266,2,A*%
%TO.N,Net-(D261-A)*%
X109930000Y-272240000D03*
%TD*%
D16*
%TO.P,D265,1,K*%
%TO.N,Net-(D105-K)*%
X107390000Y-264770000D03*
D17*
%TO.P,D265,2,A*%
%TO.N,Net-(D261-A)*%
X109930000Y-264770000D03*
%TD*%
D16*
%TO.P,D264,1,K*%
%TO.N,Net-(D104-K)*%
X107390000Y-257300000D03*
D17*
%TO.P,D264,2,A*%
%TO.N,Net-(D261-A)*%
X109930000Y-257300000D03*
%TD*%
D16*
%TO.P,D263,1,K*%
%TO.N,Net-(D103-K)*%
X107390000Y-249830000D03*
D17*
%TO.P,D263,2,A*%
%TO.N,Net-(D261-A)*%
X109930000Y-249830000D03*
%TD*%
D16*
%TO.P,D262,1,K*%
%TO.N,Net-(D102-K)*%
X107390000Y-242360000D03*
D17*
%TO.P,D262,2,A*%
%TO.N,Net-(D261-A)*%
X109930000Y-242360000D03*
%TD*%
D16*
%TO.P,D261,1,K*%
%TO.N,Net-(D1-K)*%
X107390000Y-234890000D03*
D17*
%TO.P,D261,2,A*%
%TO.N,Net-(D261-A)*%
X109930000Y-234890000D03*
%TD*%
D16*
%TO.P,D256,1,K*%
%TO.N,Net-(D116-K)*%
X107390000Y-227420000D03*
D17*
%TO.P,D256,2,A*%
%TO.N,Net-(D241-A)*%
X109930000Y-227420000D03*
%TD*%
D16*
%TO.P,D255,1,K*%
%TO.N,Net-(D115-K)*%
X107390000Y-219950000D03*
D17*
%TO.P,D255,2,A*%
%TO.N,Net-(D241-A)*%
X109930000Y-219950000D03*
%TD*%
D16*
%TO.P,D254,1,K*%
%TO.N,Net-(D114-K)*%
X107390000Y-212480000D03*
D17*
%TO.P,D254,2,A*%
%TO.N,Net-(D241-A)*%
X109930000Y-212480000D03*
%TD*%
D16*
%TO.P,D253,1,K*%
%TO.N,Net-(D113-K)*%
X99910000Y-332000000D03*
D17*
%TO.P,D253,2,A*%
%TO.N,Net-(D241-A)*%
X102450000Y-332000000D03*
%TD*%
D16*
%TO.P,D252,1,K*%
%TO.N,Net-(D112-K)*%
X99910000Y-324530000D03*
D17*
%TO.P,D252,2,A*%
%TO.N,Net-(D241-A)*%
X102450000Y-324530000D03*
%TD*%
D16*
%TO.P,D251,1,K*%
%TO.N,Net-(D11-K)*%
X99910000Y-317060000D03*
D17*
%TO.P,D251,2,A*%
%TO.N,Net-(D241-A)*%
X102450000Y-317060000D03*
%TD*%
D16*
%TO.P,D250,1,K*%
%TO.N,Net-(D10-K)*%
X99910000Y-309590000D03*
D17*
%TO.P,D250,2,A*%
%TO.N,Net-(D241-A)*%
X102450000Y-309590000D03*
%TD*%
D16*
%TO.P,D249,1,K*%
%TO.N,Net-(D109-K)*%
X99910000Y-302120000D03*
D17*
%TO.P,D249,2,A*%
%TO.N,Net-(D241-A)*%
X102450000Y-302120000D03*
%TD*%
D16*
%TO.P,D248,1,K*%
%TO.N,Net-(D108-K)*%
X99910000Y-294650000D03*
D17*
%TO.P,D248,2,A*%
%TO.N,Net-(D241-A)*%
X102450000Y-294650000D03*
%TD*%
D16*
%TO.P,D247,1,K*%
%TO.N,Net-(D107-K)*%
X99910000Y-287180000D03*
D17*
%TO.P,D247,2,A*%
%TO.N,Net-(D241-A)*%
X102450000Y-287180000D03*
%TD*%
D16*
%TO.P,D246,1,K*%
%TO.N,Net-(D106-K)*%
X99910000Y-279710000D03*
D17*
%TO.P,D246,2,A*%
%TO.N,Net-(D241-A)*%
X102450000Y-279710000D03*
%TD*%
D16*
%TO.P,D245,1,K*%
%TO.N,Net-(D105-K)*%
X99910000Y-272240000D03*
D17*
%TO.P,D245,2,A*%
%TO.N,Net-(D241-A)*%
X102450000Y-272240000D03*
%TD*%
D16*
%TO.P,D244,1,K*%
%TO.N,Net-(D104-K)*%
X99910000Y-264770000D03*
D17*
%TO.P,D244,2,A*%
%TO.N,Net-(D241-A)*%
X102450000Y-264770000D03*
%TD*%
D16*
%TO.P,D243,1,K*%
%TO.N,Net-(D103-K)*%
X99910000Y-257300000D03*
D17*
%TO.P,D243,2,A*%
%TO.N,Net-(D241-A)*%
X102450000Y-257300000D03*
%TD*%
D16*
%TO.P,D242,1,K*%
%TO.N,Net-(D102-K)*%
X99910000Y-249830000D03*
D17*
%TO.P,D242,2,A*%
%TO.N,Net-(D241-A)*%
X102450000Y-249830000D03*
%TD*%
D16*
%TO.P,D241,1,K*%
%TO.N,Net-(D1-K)*%
X99910000Y-242360000D03*
D17*
%TO.P,D241,2,A*%
%TO.N,Net-(D241-A)*%
X102450000Y-242360000D03*
%TD*%
D16*
%TO.P,D236,1,K*%
%TO.N,Net-(D116-K)*%
X99910000Y-234890000D03*
D17*
%TO.P,D236,2,A*%
%TO.N,Net-(D221-A)*%
X102450000Y-234890000D03*
%TD*%
D16*
%TO.P,D235,1,K*%
%TO.N,Net-(D115-K)*%
X99910000Y-227420000D03*
D17*
%TO.P,D235,2,A*%
%TO.N,Net-(D221-A)*%
X102450000Y-227420000D03*
%TD*%
D16*
%TO.P,D234,1,K*%
%TO.N,Net-(D114-K)*%
X99910000Y-219950000D03*
D17*
%TO.P,D234,2,A*%
%TO.N,Net-(D221-A)*%
X102450000Y-219950000D03*
%TD*%
D16*
%TO.P,D233,1,K*%
%TO.N,Net-(D113-K)*%
X99910000Y-212480000D03*
D17*
%TO.P,D233,2,A*%
%TO.N,Net-(D221-A)*%
X102450000Y-212480000D03*
%TD*%
D16*
%TO.P,D232,1,K*%
%TO.N,Net-(D112-K)*%
X92430000Y-332000000D03*
D17*
%TO.P,D232,2,A*%
%TO.N,Net-(D221-A)*%
X94970000Y-332000000D03*
%TD*%
D16*
%TO.P,D231,1,K*%
%TO.N,Net-(D11-K)*%
X92430000Y-324530000D03*
D17*
%TO.P,D231,2,A*%
%TO.N,Net-(D221-A)*%
X94970000Y-324530000D03*
%TD*%
D16*
%TO.P,D230,1,K*%
%TO.N,Net-(D10-K)*%
X92430000Y-317060000D03*
D17*
%TO.P,D230,2,A*%
%TO.N,Net-(D221-A)*%
X94970000Y-317060000D03*
%TD*%
D16*
%TO.P,D229,1,K*%
%TO.N,Net-(D109-K)*%
X92430000Y-309590000D03*
D17*
%TO.P,D229,2,A*%
%TO.N,Net-(D221-A)*%
X94970000Y-309590000D03*
%TD*%
D16*
%TO.P,D228,1,K*%
%TO.N,Net-(D108-K)*%
X92430000Y-302120000D03*
D17*
%TO.P,D228,2,A*%
%TO.N,Net-(D221-A)*%
X94970000Y-302120000D03*
%TD*%
D16*
%TO.P,D227,1,K*%
%TO.N,Net-(D107-K)*%
X92430000Y-294650000D03*
D17*
%TO.P,D227,2,A*%
%TO.N,Net-(D221-A)*%
X94970000Y-294650000D03*
%TD*%
D16*
%TO.P,D226,1,K*%
%TO.N,Net-(D106-K)*%
X92430000Y-287180000D03*
D17*
%TO.P,D226,2,A*%
%TO.N,Net-(D221-A)*%
X94970000Y-287180000D03*
%TD*%
D16*
%TO.P,D225,1,K*%
%TO.N,Net-(D105-K)*%
X92430000Y-279710000D03*
D17*
%TO.P,D225,2,A*%
%TO.N,Net-(D221-A)*%
X94970000Y-279710000D03*
%TD*%
D16*
%TO.P,D224,1,K*%
%TO.N,Net-(D104-K)*%
X92430000Y-272240000D03*
D17*
%TO.P,D224,2,A*%
%TO.N,Net-(D221-A)*%
X94970000Y-272240000D03*
%TD*%
D16*
%TO.P,D223,1,K*%
%TO.N,Net-(D103-K)*%
X92430000Y-264770000D03*
D17*
%TO.P,D223,2,A*%
%TO.N,Net-(D221-A)*%
X94970000Y-264770000D03*
%TD*%
D16*
%TO.P,D222,1,K*%
%TO.N,Net-(D102-K)*%
X92430000Y-257300000D03*
D17*
%TO.P,D222,2,A*%
%TO.N,Net-(D221-A)*%
X94970000Y-257300000D03*
%TD*%
D16*
%TO.P,D221,1,K*%
%TO.N,Net-(D1-K)*%
X92430000Y-249830000D03*
D17*
%TO.P,D221,2,A*%
%TO.N,Net-(D221-A)*%
X94970000Y-249830000D03*
%TD*%
D16*
%TO.P,D216,1,K*%
%TO.N,Net-(D116-K)*%
X92430000Y-242360000D03*
D17*
%TO.P,D216,2,A*%
%TO.N,Net-(D201-A)*%
X94970000Y-242360000D03*
%TD*%
D16*
%TO.P,D215,1,K*%
%TO.N,Net-(D115-K)*%
X92430000Y-234890000D03*
D17*
%TO.P,D215,2,A*%
%TO.N,Net-(D201-A)*%
X94970000Y-234890000D03*
%TD*%
D16*
%TO.P,D214,1,K*%
%TO.N,Net-(D114-K)*%
X92430000Y-227420000D03*
D17*
%TO.P,D214,2,A*%
%TO.N,Net-(D201-A)*%
X94970000Y-227420000D03*
%TD*%
D16*
%TO.P,D213,1,K*%
%TO.N,Net-(D113-K)*%
X92430000Y-219950000D03*
D17*
%TO.P,D213,2,A*%
%TO.N,Net-(D201-A)*%
X94970000Y-219950000D03*
%TD*%
D16*
%TO.P,D212,1,K*%
%TO.N,Net-(D112-K)*%
X92430000Y-212480000D03*
D17*
%TO.P,D212,2,A*%
%TO.N,Net-(D201-A)*%
X94970000Y-212480000D03*
%TD*%
D16*
%TO.P,D211,1,K*%
%TO.N,Net-(D11-K)*%
X84950000Y-332000000D03*
D17*
%TO.P,D211,2,A*%
%TO.N,Net-(D201-A)*%
X87490000Y-332000000D03*
%TD*%
D16*
%TO.P,D210,1,K*%
%TO.N,Net-(D10-K)*%
X84950000Y-324530000D03*
D17*
%TO.P,D210,2,A*%
%TO.N,Net-(D201-A)*%
X87490000Y-324530000D03*
%TD*%
D16*
%TO.P,D209,1,K*%
%TO.N,Net-(D109-K)*%
X84950000Y-317060000D03*
D17*
%TO.P,D209,2,A*%
%TO.N,Net-(D201-A)*%
X87490000Y-317060000D03*
%TD*%
D16*
%TO.P,D208,1,K*%
%TO.N,Net-(D108-K)*%
X84950000Y-309590000D03*
D17*
%TO.P,D208,2,A*%
%TO.N,Net-(D201-A)*%
X87490000Y-309590000D03*
%TD*%
D16*
%TO.P,D207,1,K*%
%TO.N,Net-(D107-K)*%
X84950000Y-302120000D03*
D17*
%TO.P,D207,2,A*%
%TO.N,Net-(D201-A)*%
X87490000Y-302120000D03*
%TD*%
D16*
%TO.P,D206,1,K*%
%TO.N,Net-(D106-K)*%
X84950000Y-294650000D03*
D17*
%TO.P,D206,2,A*%
%TO.N,Net-(D201-A)*%
X87490000Y-294650000D03*
%TD*%
D16*
%TO.P,D205,1,K*%
%TO.N,Net-(D105-K)*%
X84950000Y-287180000D03*
D17*
%TO.P,D205,2,A*%
%TO.N,Net-(D201-A)*%
X87490000Y-287180000D03*
%TD*%
D16*
%TO.P,D204,1,K*%
%TO.N,Net-(D104-K)*%
X84950000Y-279710000D03*
D17*
%TO.P,D204,2,A*%
%TO.N,Net-(D201-A)*%
X87490000Y-279710000D03*
%TD*%
D16*
%TO.P,D203,1,K*%
%TO.N,Net-(D103-K)*%
X84950000Y-272240000D03*
D17*
%TO.P,D203,2,A*%
%TO.N,Net-(D201-A)*%
X87490000Y-272240000D03*
%TD*%
D16*
%TO.P,D202,1,K*%
%TO.N,Net-(D102-K)*%
X84950000Y-264770000D03*
D17*
%TO.P,D202,2,A*%
%TO.N,Net-(D201-A)*%
X87490000Y-264770000D03*
%TD*%
D16*
%TO.P,D201,1,K*%
%TO.N,Net-(D1-K)*%
X84950000Y-257300000D03*
D17*
%TO.P,D201,2,A*%
%TO.N,Net-(D201-A)*%
X87490000Y-257300000D03*
%TD*%
D16*
%TO.P,D196,1,K*%
%TO.N,Net-(D116-K)*%
X84950000Y-249830000D03*
D17*
%TO.P,D196,2,A*%
%TO.N,Net-(D181-A)*%
X87490000Y-249830000D03*
%TD*%
D16*
%TO.P,D195,1,K*%
%TO.N,Net-(D115-K)*%
X84950000Y-242360000D03*
D17*
%TO.P,D195,2,A*%
%TO.N,Net-(D181-A)*%
X87490000Y-242360000D03*
%TD*%
D16*
%TO.P,D194,1,K*%
%TO.N,Net-(D114-K)*%
X84950000Y-234890000D03*
D17*
%TO.P,D194,2,A*%
%TO.N,Net-(D181-A)*%
X87490000Y-234890000D03*
%TD*%
D16*
%TO.P,D193,1,K*%
%TO.N,Net-(D113-K)*%
X84950000Y-227420000D03*
D17*
%TO.P,D193,2,A*%
%TO.N,Net-(D181-A)*%
X87490000Y-227420000D03*
%TD*%
D16*
%TO.P,D192,1,K*%
%TO.N,Net-(D112-K)*%
X84950000Y-219950000D03*
D17*
%TO.P,D192,2,A*%
%TO.N,Net-(D181-A)*%
X87490000Y-219950000D03*
%TD*%
D16*
%TO.P,D191,1,K*%
%TO.N,Net-(D11-K)*%
X84950000Y-212480000D03*
D17*
%TO.P,D191,2,A*%
%TO.N,Net-(D181-A)*%
X87490000Y-212480000D03*
%TD*%
D16*
%TO.P,D190,1,K*%
%TO.N,Net-(D10-K)*%
X77470000Y-332000000D03*
D17*
%TO.P,D190,2,A*%
%TO.N,Net-(D181-A)*%
X80010000Y-332000000D03*
%TD*%
D16*
%TO.P,D189,1,K*%
%TO.N,Net-(D109-K)*%
X77470000Y-324530000D03*
D17*
%TO.P,D189,2,A*%
%TO.N,Net-(D181-A)*%
X80010000Y-324530000D03*
%TD*%
D16*
%TO.P,D188,1,K*%
%TO.N,Net-(D108-K)*%
X77470000Y-317060000D03*
D17*
%TO.P,D188,2,A*%
%TO.N,Net-(D181-A)*%
X80010000Y-317060000D03*
%TD*%
D16*
%TO.P,D187,1,K*%
%TO.N,Net-(D107-K)*%
X77470000Y-309590000D03*
D17*
%TO.P,D187,2,A*%
%TO.N,Net-(D181-A)*%
X80010000Y-309590000D03*
%TD*%
D16*
%TO.P,D186,1,K*%
%TO.N,Net-(D106-K)*%
X77470000Y-302120000D03*
D17*
%TO.P,D186,2,A*%
%TO.N,Net-(D181-A)*%
X80010000Y-302120000D03*
%TD*%
D16*
%TO.P,D185,1,K*%
%TO.N,Net-(D105-K)*%
X77470000Y-294650000D03*
D17*
%TO.P,D185,2,A*%
%TO.N,Net-(D181-A)*%
X80010000Y-294650000D03*
%TD*%
D16*
%TO.P,D184,1,K*%
%TO.N,Net-(D104-K)*%
X77470000Y-287180000D03*
D17*
%TO.P,D184,2,A*%
%TO.N,Net-(D181-A)*%
X80010000Y-287180000D03*
%TD*%
D16*
%TO.P,D183,1,K*%
%TO.N,Net-(D103-K)*%
X77470000Y-279710000D03*
D17*
%TO.P,D183,2,A*%
%TO.N,Net-(D181-A)*%
X80010000Y-279710000D03*
%TD*%
D16*
%TO.P,D182,1,K*%
%TO.N,Net-(D102-K)*%
X77470000Y-272240000D03*
D17*
%TO.P,D182,2,A*%
%TO.N,Net-(D181-A)*%
X80010000Y-272240000D03*
%TD*%
D16*
%TO.P,D181,1,K*%
%TO.N,Net-(D1-K)*%
X77470000Y-264770000D03*
D17*
%TO.P,D181,2,A*%
%TO.N,Net-(D181-A)*%
X80010000Y-264770000D03*
%TD*%
D16*
%TO.P,D176,1,K*%
%TO.N,Net-(D116-K)*%
X77470000Y-257300000D03*
D17*
%TO.P,D176,2,A*%
%TO.N,Net-(D161-A)*%
X80010000Y-257300000D03*
%TD*%
D16*
%TO.P,D175,1,K*%
%TO.N,Net-(D115-K)*%
X77470000Y-249830000D03*
D17*
%TO.P,D175,2,A*%
%TO.N,Net-(D161-A)*%
X80010000Y-249830000D03*
%TD*%
D16*
%TO.P,D174,1,K*%
%TO.N,Net-(D114-K)*%
X77470000Y-242360000D03*
D17*
%TO.P,D174,2,A*%
%TO.N,Net-(D161-A)*%
X80010000Y-242360000D03*
%TD*%
D16*
%TO.P,D173,1,K*%
%TO.N,Net-(D113-K)*%
X77470000Y-234890000D03*
D17*
%TO.P,D173,2,A*%
%TO.N,Net-(D161-A)*%
X80010000Y-234890000D03*
%TD*%
D16*
%TO.P,D172,1,K*%
%TO.N,Net-(D112-K)*%
X77470000Y-227420000D03*
D17*
%TO.P,D172,2,A*%
%TO.N,Net-(D161-A)*%
X80010000Y-227420000D03*
%TD*%
D16*
%TO.P,D171,1,K*%
%TO.N,Net-(D11-K)*%
X77470000Y-219950000D03*
D17*
%TO.P,D171,2,A*%
%TO.N,Net-(D161-A)*%
X80010000Y-219950000D03*
%TD*%
D16*
%TO.P,D170,1,K*%
%TO.N,Net-(D10-K)*%
X77470000Y-212480000D03*
D17*
%TO.P,D170,2,A*%
%TO.N,Net-(D161-A)*%
X80010000Y-212480000D03*
%TD*%
D16*
%TO.P,D169,1,K*%
%TO.N,Net-(D109-K)*%
X69990000Y-332000000D03*
D17*
%TO.P,D169,2,A*%
%TO.N,Net-(D161-A)*%
X72530000Y-332000000D03*
%TD*%
D16*
%TO.P,D168,1,K*%
%TO.N,Net-(D108-K)*%
X69990000Y-324530000D03*
D17*
%TO.P,D168,2,A*%
%TO.N,Net-(D161-A)*%
X72530000Y-324530000D03*
%TD*%
D16*
%TO.P,D167,1,K*%
%TO.N,Net-(D107-K)*%
X69990000Y-317060000D03*
D17*
%TO.P,D167,2,A*%
%TO.N,Net-(D161-A)*%
X72530000Y-317060000D03*
%TD*%
D16*
%TO.P,D166,1,K*%
%TO.N,Net-(D106-K)*%
X69990000Y-309590000D03*
D17*
%TO.P,D166,2,A*%
%TO.N,Net-(D161-A)*%
X72530000Y-309590000D03*
%TD*%
D16*
%TO.P,D165,1,K*%
%TO.N,Net-(D105-K)*%
X69990000Y-302120000D03*
D17*
%TO.P,D165,2,A*%
%TO.N,Net-(D161-A)*%
X72530000Y-302120000D03*
%TD*%
D16*
%TO.P,D164,1,K*%
%TO.N,Net-(D104-K)*%
X69990000Y-294650000D03*
D17*
%TO.P,D164,2,A*%
%TO.N,Net-(D161-A)*%
X72530000Y-294650000D03*
%TD*%
D16*
%TO.P,D163,1,K*%
%TO.N,Net-(D103-K)*%
X69990000Y-287180000D03*
D17*
%TO.P,D163,2,A*%
%TO.N,Net-(D161-A)*%
X72530000Y-287180000D03*
%TD*%
D16*
%TO.P,D162,1,K*%
%TO.N,Net-(D102-K)*%
X69990000Y-279710000D03*
D17*
%TO.P,D162,2,A*%
%TO.N,Net-(D161-A)*%
X72530000Y-279710000D03*
%TD*%
D16*
%TO.P,D161,1,K*%
%TO.N,Net-(D1-K)*%
X69990000Y-272240000D03*
D17*
%TO.P,D161,2,A*%
%TO.N,Net-(D161-A)*%
X72530000Y-272240000D03*
%TD*%
D16*
%TO.P,D156,1,K*%
%TO.N,Net-(D116-K)*%
X69990000Y-264770000D03*
D17*
%TO.P,D156,2,A*%
%TO.N,Net-(D141-A)*%
X72530000Y-264770000D03*
%TD*%
D16*
%TO.P,D155,1,K*%
%TO.N,Net-(D115-K)*%
X69990000Y-257300000D03*
D17*
%TO.P,D155,2,A*%
%TO.N,Net-(D141-A)*%
X72530000Y-257300000D03*
%TD*%
D16*
%TO.P,D154,1,K*%
%TO.N,Net-(D114-K)*%
X69990000Y-249830000D03*
D17*
%TO.P,D154,2,A*%
%TO.N,Net-(D141-A)*%
X72530000Y-249830000D03*
%TD*%
D16*
%TO.P,D153,1,K*%
%TO.N,Net-(D113-K)*%
X69990000Y-242360000D03*
D17*
%TO.P,D153,2,A*%
%TO.N,Net-(D141-A)*%
X72530000Y-242360000D03*
%TD*%
D16*
%TO.P,D152,1,K*%
%TO.N,Net-(D112-K)*%
X69990000Y-234890000D03*
D17*
%TO.P,D152,2,A*%
%TO.N,Net-(D141-A)*%
X72530000Y-234890000D03*
%TD*%
D16*
%TO.P,D151,1,K*%
%TO.N,Net-(D11-K)*%
X69990000Y-227420000D03*
D17*
%TO.P,D151,2,A*%
%TO.N,Net-(D141-A)*%
X72530000Y-227420000D03*
%TD*%
D16*
%TO.P,D150,1,K*%
%TO.N,Net-(D10-K)*%
X69990000Y-219950000D03*
D17*
%TO.P,D150,2,A*%
%TO.N,Net-(D141-A)*%
X72530000Y-219950000D03*
%TD*%
D16*
%TO.P,D149,1,K*%
%TO.N,Net-(D109-K)*%
X69990000Y-212480000D03*
D17*
%TO.P,D149,2,A*%
%TO.N,Net-(D141-A)*%
X72530000Y-212480000D03*
%TD*%
D16*
%TO.P,D148,1,K*%
%TO.N,Net-(D108-K)*%
X62510000Y-332000000D03*
D17*
%TO.P,D148,2,A*%
%TO.N,Net-(D141-A)*%
X65050000Y-332000000D03*
%TD*%
D16*
%TO.P,D147,1,K*%
%TO.N,Net-(D107-K)*%
X62510000Y-324530000D03*
D17*
%TO.P,D147,2,A*%
%TO.N,Net-(D141-A)*%
X65050000Y-324530000D03*
%TD*%
D16*
%TO.P,D146,1,K*%
%TO.N,Net-(D106-K)*%
X62510000Y-317060000D03*
D17*
%TO.P,D146,2,A*%
%TO.N,Net-(D141-A)*%
X65050000Y-317060000D03*
%TD*%
D16*
%TO.P,D145,1,K*%
%TO.N,Net-(D105-K)*%
X62510000Y-309590000D03*
D17*
%TO.P,D145,2,A*%
%TO.N,Net-(D141-A)*%
X65050000Y-309590000D03*
%TD*%
D16*
%TO.P,D144,1,K*%
%TO.N,Net-(D104-K)*%
X62510000Y-302120000D03*
D17*
%TO.P,D144,2,A*%
%TO.N,Net-(D141-A)*%
X65050000Y-302120000D03*
%TD*%
D16*
%TO.P,D143,1,K*%
%TO.N,Net-(D103-K)*%
X62510000Y-294650000D03*
D17*
%TO.P,D143,2,A*%
%TO.N,Net-(D141-A)*%
X65050000Y-294650000D03*
%TD*%
D16*
%TO.P,D142,1,K*%
%TO.N,Net-(D102-K)*%
X62510000Y-287180000D03*
D17*
%TO.P,D142,2,A*%
%TO.N,Net-(D141-A)*%
X65050000Y-287180000D03*
%TD*%
D16*
%TO.P,D141,1,K*%
%TO.N,Net-(D1-K)*%
X62510000Y-279710000D03*
D17*
%TO.P,D141,2,A*%
%TO.N,Net-(D141-A)*%
X65050000Y-279710000D03*
%TD*%
D16*
%TO.P,D136,1,K*%
%TO.N,Net-(D116-K)*%
X62510000Y-272240000D03*
D17*
%TO.P,D136,2,A*%
%TO.N,Net-(D121-A)*%
X65050000Y-272240000D03*
%TD*%
D16*
%TO.P,D135,1,K*%
%TO.N,Net-(D115-K)*%
X62510000Y-264770000D03*
D17*
%TO.P,D135,2,A*%
%TO.N,Net-(D121-A)*%
X65050000Y-264770000D03*
%TD*%
D16*
%TO.P,D134,1,K*%
%TO.N,Net-(D114-K)*%
X62510000Y-257300000D03*
D17*
%TO.P,D134,2,A*%
%TO.N,Net-(D121-A)*%
X65050000Y-257300000D03*
%TD*%
D16*
%TO.P,D133,1,K*%
%TO.N,Net-(D113-K)*%
X62510000Y-249830000D03*
D17*
%TO.P,D133,2,A*%
%TO.N,Net-(D121-A)*%
X65050000Y-249830000D03*
%TD*%
D16*
%TO.P,D132,1,K*%
%TO.N,Net-(D112-K)*%
X62510000Y-242360000D03*
D17*
%TO.P,D132,2,A*%
%TO.N,Net-(D121-A)*%
X65050000Y-242360000D03*
%TD*%
D16*
%TO.P,D131,1,K*%
%TO.N,Net-(D11-K)*%
X62510000Y-234890000D03*
D17*
%TO.P,D131,2,A*%
%TO.N,Net-(D121-A)*%
X65050000Y-234890000D03*
%TD*%
D16*
%TO.P,D130,1,K*%
%TO.N,Net-(D10-K)*%
X62510000Y-227420000D03*
D17*
%TO.P,D130,2,A*%
%TO.N,Net-(D121-A)*%
X65050000Y-227420000D03*
%TD*%
D16*
%TO.P,D129,1,K*%
%TO.N,Net-(D109-K)*%
X62510000Y-219950000D03*
D17*
%TO.P,D129,2,A*%
%TO.N,Net-(D121-A)*%
X65050000Y-219950000D03*
%TD*%
D16*
%TO.P,D128,1,K*%
%TO.N,Net-(D108-K)*%
X62510000Y-212480000D03*
D17*
%TO.P,D128,2,A*%
%TO.N,Net-(D121-A)*%
X65050000Y-212480000D03*
%TD*%
D16*
%TO.P,D127,1,K*%
%TO.N,Net-(D107-K)*%
X55030000Y-332000000D03*
D17*
%TO.P,D127,2,A*%
%TO.N,Net-(D121-A)*%
X57570000Y-332000000D03*
%TD*%
D16*
%TO.P,D126,1,K*%
%TO.N,Net-(D106-K)*%
X55030000Y-324530000D03*
D17*
%TO.P,D126,2,A*%
%TO.N,Net-(D121-A)*%
X57570000Y-324530000D03*
%TD*%
D16*
%TO.P,D125,1,K*%
%TO.N,Net-(D105-K)*%
X55030000Y-317060000D03*
D17*
%TO.P,D125,2,A*%
%TO.N,Net-(D121-A)*%
X57570000Y-317060000D03*
%TD*%
D16*
%TO.P,D124,1,K*%
%TO.N,Net-(D104-K)*%
X55030000Y-309590000D03*
D17*
%TO.P,D124,2,A*%
%TO.N,Net-(D121-A)*%
X57570000Y-309590000D03*
%TD*%
D16*
%TO.P,D123,1,K*%
%TO.N,Net-(D103-K)*%
X55030000Y-302120000D03*
D17*
%TO.P,D123,2,A*%
%TO.N,Net-(D121-A)*%
X57570000Y-302120000D03*
%TD*%
D16*
%TO.P,D122,1,K*%
%TO.N,Net-(D102-K)*%
X55030000Y-294650000D03*
D17*
%TO.P,D122,2,A*%
%TO.N,Net-(D121-A)*%
X57570000Y-294650000D03*
%TD*%
D16*
%TO.P,D121,1,K*%
%TO.N,Net-(D1-K)*%
X55030000Y-287180000D03*
D17*
%TO.P,D121,2,A*%
%TO.N,Net-(D121-A)*%
X57570000Y-287180000D03*
%TD*%
D16*
%TO.P,D116,1,K*%
%TO.N,Net-(D116-K)*%
X55030000Y-279710000D03*
D17*
%TO.P,D116,2,A*%
%TO.N,Net-(D101-A)*%
X57570000Y-279710000D03*
%TD*%
D16*
%TO.P,D115,1,K*%
%TO.N,Net-(D115-K)*%
X55030000Y-272240000D03*
D17*
%TO.P,D115,2,A*%
%TO.N,Net-(D101-A)*%
X57570000Y-272240000D03*
%TD*%
D16*
%TO.P,D114,1,K*%
%TO.N,Net-(D114-K)*%
X55030000Y-264770000D03*
D17*
%TO.P,D114,2,A*%
%TO.N,Net-(D101-A)*%
X57570000Y-264770000D03*
%TD*%
D16*
%TO.P,D113,1,K*%
%TO.N,Net-(D113-K)*%
X55030000Y-257300000D03*
D17*
%TO.P,D113,2,A*%
%TO.N,Net-(D101-A)*%
X57570000Y-257300000D03*
%TD*%
D16*
%TO.P,D112,1,K*%
%TO.N,Net-(D112-K)*%
X55030000Y-249830000D03*
D17*
%TO.P,D112,2,A*%
%TO.N,Net-(D101-A)*%
X57570000Y-249830000D03*
%TD*%
D16*
%TO.P,D111,1,K*%
%TO.N,Net-(D11-K)*%
X55030000Y-242360000D03*
D17*
%TO.P,D111,2,A*%
%TO.N,Net-(D101-A)*%
X57570000Y-242360000D03*
%TD*%
D16*
%TO.P,D110,1,K*%
%TO.N,Net-(D10-K)*%
X55030000Y-234890000D03*
D17*
%TO.P,D110,2,A*%
%TO.N,Net-(D101-A)*%
X57570000Y-234890000D03*
%TD*%
D16*
%TO.P,D109,1,K*%
%TO.N,Net-(D109-K)*%
X55030000Y-227420000D03*
D17*
%TO.P,D109,2,A*%
%TO.N,Net-(D101-A)*%
X57570000Y-227420000D03*
%TD*%
D16*
%TO.P,D108,1,K*%
%TO.N,Net-(D108-K)*%
X55030000Y-219950000D03*
D17*
%TO.P,D108,2,A*%
%TO.N,Net-(D101-A)*%
X57570000Y-219950000D03*
%TD*%
D16*
%TO.P,D107,1,K*%
%TO.N,Net-(D107-K)*%
X55030000Y-212480000D03*
D17*
%TO.P,D107,2,A*%
%TO.N,Net-(D101-A)*%
X57570000Y-212480000D03*
%TD*%
D16*
%TO.P,D106,1,K*%
%TO.N,Net-(D106-K)*%
X47550000Y-332000000D03*
D17*
%TO.P,D106,2,A*%
%TO.N,Net-(D101-A)*%
X50090000Y-332000000D03*
%TD*%
D16*
%TO.P,D105,1,K*%
%TO.N,Net-(D105-K)*%
X47550000Y-324530000D03*
D17*
%TO.P,D105,2,A*%
%TO.N,Net-(D101-A)*%
X50090000Y-324530000D03*
%TD*%
D16*
%TO.P,D104,1,K*%
%TO.N,Net-(D104-K)*%
X47550000Y-317060000D03*
D17*
%TO.P,D104,2,A*%
%TO.N,Net-(D101-A)*%
X50090000Y-317060000D03*
%TD*%
D16*
%TO.P,D103,1,K*%
%TO.N,Net-(D103-K)*%
X47550000Y-309590000D03*
D17*
%TO.P,D103,2,A*%
%TO.N,Net-(D101-A)*%
X50090000Y-309590000D03*
%TD*%
D16*
%TO.P,D102,1,K*%
%TO.N,Net-(D102-K)*%
X47550000Y-302120000D03*
D17*
%TO.P,D102,2,A*%
%TO.N,Net-(D101-A)*%
X50090000Y-302120000D03*
%TD*%
D16*
%TO.P,D101,1,K*%
%TO.N,Net-(D1-K)*%
X47550000Y-294650000D03*
D17*
%TO.P,D101,2,A*%
%TO.N,Net-(D101-A)*%
X50090000Y-294650000D03*
%TD*%
D16*
%TO.P,D96,1,K*%
%TO.N,Net-(D116-K)*%
X47550000Y-287180000D03*
D17*
%TO.P,D96,2,A*%
%TO.N,Net-(D81-A)*%
X50090000Y-287180000D03*
%TD*%
D16*
%TO.P,D95,1,K*%
%TO.N,Net-(D115-K)*%
X47550000Y-279710000D03*
D17*
%TO.P,D95,2,A*%
%TO.N,Net-(D81-A)*%
X50090000Y-279710000D03*
%TD*%
D16*
%TO.P,D94,1,K*%
%TO.N,Net-(D114-K)*%
X47550000Y-272240000D03*
D17*
%TO.P,D94,2,A*%
%TO.N,Net-(D81-A)*%
X50090000Y-272240000D03*
%TD*%
D16*
%TO.P,D93,1,K*%
%TO.N,Net-(D113-K)*%
X47550000Y-264770000D03*
D17*
%TO.P,D93,2,A*%
%TO.N,Net-(D81-A)*%
X50090000Y-264770000D03*
%TD*%
D16*
%TO.P,D92,1,K*%
%TO.N,Net-(D112-K)*%
X47550000Y-257300000D03*
D17*
%TO.P,D92,2,A*%
%TO.N,Net-(D81-A)*%
X50090000Y-257300000D03*
%TD*%
D16*
%TO.P,D91,1,K*%
%TO.N,Net-(D11-K)*%
X47550000Y-249830000D03*
D17*
%TO.P,D91,2,A*%
%TO.N,Net-(D81-A)*%
X50090000Y-249830000D03*
%TD*%
D16*
%TO.P,D90,1,K*%
%TO.N,Net-(D10-K)*%
X47550000Y-242360000D03*
D17*
%TO.P,D90,2,A*%
%TO.N,Net-(D81-A)*%
X50090000Y-242360000D03*
%TD*%
D16*
%TO.P,D89,1,K*%
%TO.N,Net-(D109-K)*%
X47550000Y-234890000D03*
D17*
%TO.P,D89,2,A*%
%TO.N,Net-(D81-A)*%
X50090000Y-234890000D03*
%TD*%
D16*
%TO.P,D88,1,K*%
%TO.N,Net-(D108-K)*%
X47550000Y-227420000D03*
D17*
%TO.P,D88,2,A*%
%TO.N,Net-(D81-A)*%
X50090000Y-227420000D03*
%TD*%
D16*
%TO.P,D87,1,K*%
%TO.N,Net-(D107-K)*%
X47550000Y-219950000D03*
D17*
%TO.P,D87,2,A*%
%TO.N,Net-(D81-A)*%
X50090000Y-219950000D03*
%TD*%
D16*
%TO.P,D86,1,K*%
%TO.N,Net-(D106-K)*%
X47550000Y-212480000D03*
D17*
%TO.P,D86,2,A*%
%TO.N,Net-(D81-A)*%
X50090000Y-212480000D03*
%TD*%
D16*
%TO.P,D85,1,K*%
%TO.N,Net-(D105-K)*%
X40070000Y-332000000D03*
D17*
%TO.P,D85,2,A*%
%TO.N,Net-(D81-A)*%
X42610000Y-332000000D03*
%TD*%
D16*
%TO.P,D84,1,K*%
%TO.N,Net-(D104-K)*%
X40070000Y-324530000D03*
D17*
%TO.P,D84,2,A*%
%TO.N,Net-(D81-A)*%
X42610000Y-324530000D03*
%TD*%
D16*
%TO.P,D83,1,K*%
%TO.N,Net-(D103-K)*%
X40070000Y-317060000D03*
D17*
%TO.P,D83,2,A*%
%TO.N,Net-(D81-A)*%
X42610000Y-317060000D03*
%TD*%
D16*
%TO.P,D82,1,K*%
%TO.N,Net-(D102-K)*%
X40070000Y-309590000D03*
D17*
%TO.P,D82,2,A*%
%TO.N,Net-(D81-A)*%
X42610000Y-309590000D03*
%TD*%
D16*
%TO.P,D81,1,K*%
%TO.N,Net-(D1-K)*%
X40070000Y-302120000D03*
D17*
%TO.P,D81,2,A*%
%TO.N,Net-(D81-A)*%
X42610000Y-302120000D03*
%TD*%
D16*
%TO.P,D76,1,K*%
%TO.N,Net-(D116-K)*%
X40070000Y-294650000D03*
D17*
%TO.P,D76,2,A*%
%TO.N,Net-(D61-A)*%
X42610000Y-294650000D03*
%TD*%
D16*
%TO.P,D75,1,K*%
%TO.N,Net-(D115-K)*%
X40070000Y-287180000D03*
D17*
%TO.P,D75,2,A*%
%TO.N,Net-(D61-A)*%
X42610000Y-287180000D03*
%TD*%
D16*
%TO.P,D74,1,K*%
%TO.N,Net-(D114-K)*%
X40070000Y-279710000D03*
D17*
%TO.P,D74,2,A*%
%TO.N,Net-(D61-A)*%
X42610000Y-279710000D03*
%TD*%
D16*
%TO.P,D73,1,K*%
%TO.N,Net-(D113-K)*%
X40070000Y-272240000D03*
D17*
%TO.P,D73,2,A*%
%TO.N,Net-(D61-A)*%
X42610000Y-272240000D03*
%TD*%
D16*
%TO.P,D72,1,K*%
%TO.N,Net-(D112-K)*%
X40070000Y-264770000D03*
D17*
%TO.P,D72,2,A*%
%TO.N,Net-(D61-A)*%
X42610000Y-264770000D03*
%TD*%
D16*
%TO.P,D71,1,K*%
%TO.N,Net-(D11-K)*%
X40070000Y-257300000D03*
D17*
%TO.P,D71,2,A*%
%TO.N,Net-(D61-A)*%
X42610000Y-257300000D03*
%TD*%
D16*
%TO.P,D70,1,K*%
%TO.N,Net-(D10-K)*%
X40070000Y-249830000D03*
D17*
%TO.P,D70,2,A*%
%TO.N,Net-(D61-A)*%
X42610000Y-249830000D03*
%TD*%
D16*
%TO.P,D69,1,K*%
%TO.N,Net-(D109-K)*%
X40070000Y-242360000D03*
D17*
%TO.P,D69,2,A*%
%TO.N,Net-(D61-A)*%
X42610000Y-242360000D03*
%TD*%
D16*
%TO.P,D68,1,K*%
%TO.N,Net-(D108-K)*%
X40070000Y-234890000D03*
D17*
%TO.P,D68,2,A*%
%TO.N,Net-(D61-A)*%
X42610000Y-234890000D03*
%TD*%
D16*
%TO.P,D67,1,K*%
%TO.N,Net-(D107-K)*%
X40070000Y-227420000D03*
D17*
%TO.P,D67,2,A*%
%TO.N,Net-(D61-A)*%
X42610000Y-227420000D03*
%TD*%
D16*
%TO.P,D66,1,K*%
%TO.N,Net-(D106-K)*%
X40070000Y-219950000D03*
D17*
%TO.P,D66,2,A*%
%TO.N,Net-(D61-A)*%
X42610000Y-219950000D03*
%TD*%
D16*
%TO.P,D65,1,K*%
%TO.N,Net-(D105-K)*%
X40070000Y-212480000D03*
D17*
%TO.P,D65,2,A*%
%TO.N,Net-(D61-A)*%
X42610000Y-212480000D03*
%TD*%
D16*
%TO.P,D64,1,K*%
%TO.N,Net-(D104-K)*%
X32590000Y-332000000D03*
D17*
%TO.P,D64,2,A*%
%TO.N,Net-(D61-A)*%
X35130000Y-332000000D03*
%TD*%
D16*
%TO.P,D63,1,K*%
%TO.N,Net-(D103-K)*%
X32590000Y-324530000D03*
D17*
%TO.P,D63,2,A*%
%TO.N,Net-(D61-A)*%
X35130000Y-324530000D03*
%TD*%
D16*
%TO.P,D62,1,K*%
%TO.N,Net-(D102-K)*%
X32590000Y-317060000D03*
D17*
%TO.P,D62,2,A*%
%TO.N,Net-(D61-A)*%
X35130000Y-317060000D03*
%TD*%
D16*
%TO.P,D61,1,K*%
%TO.N,Net-(D1-K)*%
X32590000Y-309590000D03*
D17*
%TO.P,D61,2,A*%
%TO.N,Net-(D61-A)*%
X35130000Y-309590000D03*
%TD*%
D16*
%TO.P,D56,1,K*%
%TO.N,Net-(D116-K)*%
X32590000Y-302120000D03*
D17*
%TO.P,D56,2,A*%
%TO.N,Net-(D41-A)*%
X35130000Y-302120000D03*
%TD*%
D16*
%TO.P,D55,1,K*%
%TO.N,Net-(D115-K)*%
X32590000Y-294650000D03*
D17*
%TO.P,D55,2,A*%
%TO.N,Net-(D41-A)*%
X35130000Y-294650000D03*
%TD*%
D16*
%TO.P,D54,1,K*%
%TO.N,Net-(D114-K)*%
X32590000Y-287180000D03*
D17*
%TO.P,D54,2,A*%
%TO.N,Net-(D41-A)*%
X35130000Y-287180000D03*
%TD*%
D16*
%TO.P,D53,1,K*%
%TO.N,Net-(D113-K)*%
X32590000Y-279710000D03*
D17*
%TO.P,D53,2,A*%
%TO.N,Net-(D41-A)*%
X35130000Y-279710000D03*
%TD*%
D16*
%TO.P,D52,1,K*%
%TO.N,Net-(D112-K)*%
X32590000Y-272240000D03*
D17*
%TO.P,D52,2,A*%
%TO.N,Net-(D41-A)*%
X35130000Y-272240000D03*
%TD*%
D16*
%TO.P,D51,1,K*%
%TO.N,Net-(D11-K)*%
X32590000Y-264770000D03*
D17*
%TO.P,D51,2,A*%
%TO.N,Net-(D41-A)*%
X35130000Y-264770000D03*
%TD*%
D16*
%TO.P,D50,1,K*%
%TO.N,Net-(D10-K)*%
X32590000Y-257300000D03*
D17*
%TO.P,D50,2,A*%
%TO.N,Net-(D41-A)*%
X35130000Y-257300000D03*
%TD*%
D16*
%TO.P,D49,1,K*%
%TO.N,Net-(D109-K)*%
X32590000Y-249830000D03*
D17*
%TO.P,D49,2,A*%
%TO.N,Net-(D41-A)*%
X35130000Y-249830000D03*
%TD*%
D16*
%TO.P,D48,1,K*%
%TO.N,Net-(D108-K)*%
X32590000Y-242360000D03*
D17*
%TO.P,D48,2,A*%
%TO.N,Net-(D41-A)*%
X35130000Y-242360000D03*
%TD*%
D16*
%TO.P,D47,1,K*%
%TO.N,Net-(D107-K)*%
X32590000Y-234890000D03*
D17*
%TO.P,D47,2,A*%
%TO.N,Net-(D41-A)*%
X35130000Y-234890000D03*
%TD*%
D16*
%TO.P,D46,1,K*%
%TO.N,Net-(D106-K)*%
X32590000Y-227420000D03*
D17*
%TO.P,D46,2,A*%
%TO.N,Net-(D41-A)*%
X35130000Y-227420000D03*
%TD*%
D16*
%TO.P,D45,1,K*%
%TO.N,Net-(D105-K)*%
X32590000Y-219950000D03*
D17*
%TO.P,D45,2,A*%
%TO.N,Net-(D41-A)*%
X35130000Y-219950000D03*
%TD*%
D16*
%TO.P,D44,1,K*%
%TO.N,Net-(D104-K)*%
X32590000Y-212480000D03*
D17*
%TO.P,D44,2,A*%
%TO.N,Net-(D41-A)*%
X35130000Y-212480000D03*
%TD*%
D16*
%TO.P,D43,1,K*%
%TO.N,Net-(D103-K)*%
X25110000Y-332000000D03*
D17*
%TO.P,D43,2,A*%
%TO.N,Net-(D41-A)*%
X27650000Y-332000000D03*
%TD*%
D16*
%TO.P,D42,1,K*%
%TO.N,Net-(D102-K)*%
X25110000Y-324530000D03*
D17*
%TO.P,D42,2,A*%
%TO.N,Net-(D41-A)*%
X27650000Y-324530000D03*
%TD*%
D16*
%TO.P,D41,1,K*%
%TO.N,Net-(D1-K)*%
X25110000Y-317060000D03*
D17*
%TO.P,D41,2,A*%
%TO.N,Net-(D41-A)*%
X27650000Y-317060000D03*
%TD*%
D16*
%TO.P,D36,1,K*%
%TO.N,Net-(D116-K)*%
X25110000Y-309590000D03*
D17*
%TO.P,D36,2,A*%
%TO.N,Net-(D21-A)*%
X27650000Y-309590000D03*
%TD*%
D16*
%TO.P,D35,1,K*%
%TO.N,Net-(D115-K)*%
X25110000Y-302120000D03*
D17*
%TO.P,D35,2,A*%
%TO.N,Net-(D21-A)*%
X27650000Y-302120000D03*
%TD*%
D16*
%TO.P,D34,1,K*%
%TO.N,Net-(D114-K)*%
X25110000Y-294650000D03*
D17*
%TO.P,D34,2,A*%
%TO.N,Net-(D21-A)*%
X27650000Y-294650000D03*
%TD*%
D16*
%TO.P,D33,1,K*%
%TO.N,Net-(D113-K)*%
X25110000Y-287180000D03*
D17*
%TO.P,D33,2,A*%
%TO.N,Net-(D21-A)*%
X27650000Y-287180000D03*
%TD*%
D16*
%TO.P,D32,1,K*%
%TO.N,Net-(D112-K)*%
X25110000Y-279710000D03*
D17*
%TO.P,D32,2,A*%
%TO.N,Net-(D21-A)*%
X27650000Y-279710000D03*
%TD*%
D16*
%TO.P,D31,1,K*%
%TO.N,Net-(D11-K)*%
X25110000Y-272240000D03*
D17*
%TO.P,D31,2,A*%
%TO.N,Net-(D21-A)*%
X27650000Y-272240000D03*
%TD*%
D16*
%TO.P,D30,1,K*%
%TO.N,Net-(D10-K)*%
X25110000Y-264770000D03*
D17*
%TO.P,D30,2,A*%
%TO.N,Net-(D21-A)*%
X27650000Y-264770000D03*
%TD*%
D16*
%TO.P,D29,1,K*%
%TO.N,Net-(D109-K)*%
X25110000Y-257300000D03*
D17*
%TO.P,D29,2,A*%
%TO.N,Net-(D21-A)*%
X27650000Y-257300000D03*
%TD*%
D16*
%TO.P,D28,1,K*%
%TO.N,Net-(D108-K)*%
X25110000Y-249830000D03*
D17*
%TO.P,D28,2,A*%
%TO.N,Net-(D21-A)*%
X27650000Y-249830000D03*
%TD*%
D16*
%TO.P,D27,1,K*%
%TO.N,Net-(D107-K)*%
X25110000Y-242360000D03*
D17*
%TO.P,D27,2,A*%
%TO.N,Net-(D21-A)*%
X27650000Y-242360000D03*
%TD*%
D16*
%TO.P,D26,1,K*%
%TO.N,Net-(D106-K)*%
X25110000Y-234890000D03*
D17*
%TO.P,D26,2,A*%
%TO.N,Net-(D21-A)*%
X27650000Y-234890000D03*
%TD*%
D16*
%TO.P,D25,1,K*%
%TO.N,Net-(D105-K)*%
X25110000Y-227420000D03*
D17*
%TO.P,D25,2,A*%
%TO.N,Net-(D21-A)*%
X27650000Y-227420000D03*
%TD*%
D16*
%TO.P,D23,1,K*%
%TO.N,Net-(D103-K)*%
X25110000Y-219950000D03*
D17*
%TO.P,D23,2,A*%
%TO.N,Net-(D21-A)*%
X27650000Y-219950000D03*
%TD*%
D16*
%TO.P,D22,1,K*%
%TO.N,Net-(D102-K)*%
X25110000Y-212480000D03*
D17*
%TO.P,D22,2,A*%
%TO.N,Net-(D21-A)*%
X27650000Y-212480000D03*
%TD*%
D16*
%TO.P,D21,1,K*%
%TO.N,Net-(D1-K)*%
X17630000Y-332000000D03*
D17*
%TO.P,D21,2,A*%
%TO.N,Net-(D21-A)*%
X20170000Y-332000000D03*
%TD*%
D16*
%TO.P,D16,1,K*%
%TO.N,Net-(D116-K)*%
X17630000Y-324530000D03*
D17*
%TO.P,D16,2,A*%
%TO.N,Net-(D1-A)*%
X20170000Y-324530000D03*
%TD*%
D16*
%TO.P,D15,1,K*%
%TO.N,Net-(D115-K)*%
X17630000Y-317060000D03*
D17*
%TO.P,D15,2,A*%
%TO.N,Net-(D1-A)*%
X20170000Y-317060000D03*
%TD*%
D16*
%TO.P,D14,1,K*%
%TO.N,Net-(D114-K)*%
X17630000Y-309590000D03*
D17*
%TO.P,D14,2,A*%
%TO.N,Net-(D1-A)*%
X20170000Y-309590000D03*
%TD*%
D16*
%TO.P,D13,1,K*%
%TO.N,Net-(D113-K)*%
X17630000Y-302120000D03*
D17*
%TO.P,D13,2,A*%
%TO.N,Net-(D1-A)*%
X20170000Y-302120000D03*
%TD*%
D16*
%TO.P,D12,1,K*%
%TO.N,Net-(D112-K)*%
X17630000Y-294650000D03*
D17*
%TO.P,D12,2,A*%
%TO.N,Net-(D1-A)*%
X20170000Y-294650000D03*
%TD*%
D16*
%TO.P,D11,1,K*%
%TO.N,Net-(D11-K)*%
X17630000Y-287180000D03*
D17*
%TO.P,D11,2,A*%
%TO.N,Net-(D1-A)*%
X20170000Y-287180000D03*
%TD*%
D16*
%TO.P,D10,1,K*%
%TO.N,Net-(D10-K)*%
X17630000Y-279710000D03*
D17*
%TO.P,D10,2,A*%
%TO.N,Net-(D1-A)*%
X20170000Y-279710000D03*
%TD*%
D16*
%TO.P,D9,1,K*%
%TO.N,Net-(D109-K)*%
X17630000Y-272240000D03*
D17*
%TO.P,D9,2,A*%
%TO.N,Net-(D1-A)*%
X20170000Y-272240000D03*
%TD*%
D16*
%TO.P,D8,1,K*%
%TO.N,Net-(D108-K)*%
X17630000Y-264770000D03*
D17*
%TO.P,D8,2,A*%
%TO.N,Net-(D1-A)*%
X20170000Y-264770000D03*
%TD*%
D16*
%TO.P,D7,1,K*%
%TO.N,Net-(D107-K)*%
X17630000Y-257300000D03*
D17*
%TO.P,D7,2,A*%
%TO.N,Net-(D1-A)*%
X20170000Y-257300000D03*
%TD*%
D16*
%TO.P,D6,1,K*%
%TO.N,Net-(D106-K)*%
X17630000Y-249830000D03*
D17*
%TO.P,D6,2,A*%
%TO.N,Net-(D1-A)*%
X20170000Y-249830000D03*
%TD*%
D16*
%TO.P,D5,1,K*%
%TO.N,Net-(D105-K)*%
X17630000Y-242360000D03*
D17*
%TO.P,D5,2,A*%
%TO.N,Net-(D1-A)*%
X20170000Y-242360000D03*
%TD*%
D16*
%TO.P,D4,1,K*%
%TO.N,Net-(D104-K)*%
X17630000Y-234890000D03*
D17*
%TO.P,D4,2,A*%
%TO.N,Net-(D1-A)*%
X20170000Y-234890000D03*
%TD*%
D16*
%TO.P,D3,1,K*%
%TO.N,Net-(D103-K)*%
X17630000Y-227420000D03*
D17*
%TO.P,D3,2,A*%
%TO.N,Net-(D1-A)*%
X20170000Y-227420000D03*
%TD*%
D16*
%TO.P,D2,1,K*%
%TO.N,Net-(D102-K)*%
X17630000Y-219950000D03*
D17*
%TO.P,D2,2,A*%
%TO.N,Net-(D1-A)*%
X20170000Y-219950000D03*
%TD*%
D16*
%TO.P,D1,1,K*%
%TO.N,Net-(D1-K)*%
X17630000Y-212480000D03*
D17*
%TO.P,D1,2,A*%
%TO.N,Net-(D1-A)*%
X20170000Y-212480000D03*
%TD*%
D18*
%TO.P,D24,1,K*%
%TO.N,Net-(D104-K)*%
X305780000Y-168720000D03*
D17*
%TO.P,D24,2,A*%
%TO.N,Net-(D21-A)*%
X308320000Y-168720000D03*
%TD*%
M02*
