M48
; DRILL file {KiCad 9.0.3} date 2025-09-26T16:00:19-0300
; FORMAT={-:-/ absolute / metric / decimal}
; #@! TF.CreationDate,2025-09-26T16:00:19-03:00
; #@! TF.GenerationSoftware,Kicad,Pcbnew,9.0.3
; #@! TF.FileFunction,Plated,1,2,PTH
FMAT,2
METRIC
; #@! TA.AperFunction,Plated,PTH,ComponentDrill
T1C0.900
; #@! TA.AperFunction,Plated,PTH,ComponentDrill
T2C1.000
%
G90
G05
T1
X17.63Y-212.48
X17.63Y-219.95
X17.63Y-227.42
X17.63Y-234.89
X17.63Y-242.36
X17.63Y-249.83
X17.63Y-257.3
X17.63Y-264.77
X17.63Y-272.24
X17.63Y-279.71
X17.63Y-287.18
X17.63Y-294.65
X17.63Y-302.12
X17.63Y-309.59
X17.63Y-317.06
X17.63Y-324.53
X17.63Y-332.0
X20.17Y-212.48
X20.17Y-219.95
X20.17Y-227.42
X20.17Y-234.89
X20.17Y-242.36
X20.17Y-249.83
X20.17Y-257.3
X20.17Y-264.77
X20.17Y-272.24
X20.17Y-279.71
X20.17Y-287.18
X20.17Y-294.65
X20.17Y-302.12
X20.17Y-309.59
X20.17Y-317.06
X20.17Y-324.53
X20.17Y-332.0
X25.11Y-212.48
X25.11Y-219.95
X25.11Y-227.42
X25.11Y-234.89
X25.11Y-242.36
X25.11Y-249.83
X25.11Y-257.3
X25.11Y-264.77
X25.11Y-272.24
X25.11Y-279.71
X25.11Y-287.18
X25.11Y-294.65
X25.11Y-302.12
X25.11Y-309.59
X25.11Y-317.06
X25.11Y-324.53
X25.11Y-332.0
X27.65Y-212.48
X27.65Y-219.95
X27.65Y-227.42
X27.65Y-234.89
X27.65Y-242.36
X27.65Y-249.83
X27.65Y-257.3
X27.65Y-264.77
X27.65Y-272.24
X27.65Y-279.71
X27.65Y-287.18
X27.65Y-294.65
X27.65Y-302.12
X27.65Y-309.59
X27.65Y-317.06
X27.65Y-324.53
X27.65Y-332.0
X32.59Y-212.48
X32.59Y-219.95
X32.59Y-227.42
X32.59Y-234.89
X32.59Y-242.36
X32.59Y-249.83
X32.59Y-257.3
X32.59Y-264.77
X32.59Y-272.24
X32.59Y-279.71
X32.59Y-287.18
X32.59Y-294.65
X32.59Y-302.12
X32.59Y-309.59
X32.59Y-317.06
X32.59Y-324.53
X32.59Y-332.0
X35.13Y-212.48
X35.13Y-219.95
X35.13Y-227.42
X35.13Y-234.89
X35.13Y-242.36
X35.13Y-249.83
X35.13Y-257.3
X35.13Y-264.77
X35.13Y-272.24
X35.13Y-279.71
X35.13Y-287.18
X35.13Y-294.65
X35.13Y-302.12
X35.13Y-309.59
X35.13Y-317.06
X35.13Y-324.53
X35.13Y-332.0
X40.07Y-212.48
X40.07Y-219.95
X40.07Y-227.42
X40.07Y-234.89
X40.07Y-242.36
X40.07Y-249.83
X40.07Y-257.3
X40.07Y-264.77
X40.07Y-272.24
X40.07Y-279.71
X40.07Y-287.18
X40.07Y-294.65
X40.07Y-302.12
X40.07Y-309.59
X40.07Y-317.06
X40.07Y-324.53
X40.07Y-332.0
X42.61Y-212.48
X42.61Y-219.95
X42.61Y-227.42
X42.61Y-234.89
X42.61Y-242.36
X42.61Y-249.83
X42.61Y-257.3
X42.61Y-264.77
X42.61Y-272.24
X42.61Y-279.71
X42.61Y-287.18
X42.61Y-294.65
X42.61Y-302.12
X42.61Y-309.59
X42.61Y-317.06
X42.61Y-324.53
X42.61Y-332.0
X47.55Y-212.48
X47.55Y-219.95
X47.55Y-227.42
X47.55Y-234.89
X47.55Y-242.36
X47.55Y-249.83
X47.55Y-257.3
X47.55Y-264.77
X47.55Y-272.24
X47.55Y-279.71
X47.55Y-287.18
X47.55Y-294.65
X47.55Y-302.12
X47.55Y-309.59
X47.55Y-317.06
X47.55Y-324.53
X47.55Y-332.0
X50.09Y-212.48
X50.09Y-219.95
X50.09Y-227.42
X50.09Y-234.89
X50.09Y-242.36
X50.09Y-249.83
X50.09Y-257.3
X50.09Y-264.77
X50.09Y-272.24
X50.09Y-279.71
X50.09Y-287.18
X50.09Y-294.65
X50.09Y-302.12
X50.09Y-309.59
X50.09Y-317.06
X50.09Y-324.53
X50.09Y-332.0
X55.03Y-212.48
X55.03Y-219.95
X55.03Y-227.42
X55.03Y-234.89
X55.03Y-242.36
X55.03Y-249.83
X55.03Y-257.3
X55.03Y-264.77
X55.03Y-272.24
X55.03Y-279.71
X55.03Y-287.18
X55.03Y-294.65
X55.03Y-302.12
X55.03Y-309.59
X55.03Y-317.06
X55.03Y-324.53
X55.03Y-332.0
X57.57Y-212.48
X57.57Y-219.95
X57.57Y-227.42
X57.57Y-234.89
X57.57Y-242.36
X57.57Y-249.83
X57.57Y-257.3
X57.57Y-264.77
X57.57Y-272.24
X57.57Y-279.71
X57.57Y-287.18
X57.57Y-294.65
X57.57Y-302.12
X57.57Y-309.59
X57.57Y-317.06
X57.57Y-324.53
X57.57Y-332.0
X62.51Y-212.48
X62.51Y-219.95
X62.51Y-227.42
X62.51Y-234.89
X62.51Y-242.36
X62.51Y-249.83
X62.51Y-257.3
X62.51Y-264.77
X62.51Y-272.24
X62.51Y-279.71
X62.51Y-287.18
X62.51Y-294.65
X62.51Y-302.12
X62.51Y-309.59
X62.51Y-317.06
X62.51Y-324.53
X62.51Y-332.0
X65.05Y-212.48
X65.05Y-219.95
X65.05Y-227.42
X65.05Y-234.89
X65.05Y-242.36
X65.05Y-249.83
X65.05Y-257.3
X65.05Y-264.77
X65.05Y-272.24
X65.05Y-279.71
X65.05Y-287.18
X65.05Y-294.65
X65.05Y-302.12
X65.05Y-309.59
X65.05Y-317.06
X65.05Y-324.53
X65.05Y-332.0
X69.99Y-212.48
X69.99Y-219.95
X69.99Y-227.42
X69.99Y-234.89
X69.99Y-242.36
X69.99Y-249.83
X69.99Y-257.3
X69.99Y-264.77
X69.99Y-272.24
X69.99Y-279.71
X69.99Y-287.18
X69.99Y-294.65
X69.99Y-302.12
X69.99Y-309.59
X69.99Y-317.06
X69.99Y-324.53
X69.99Y-332.0
X72.53Y-212.48
X72.53Y-219.95
X72.53Y-227.42
X72.53Y-234.89
X72.53Y-242.36
X72.53Y-249.83
X72.53Y-257.3
X72.53Y-264.77
X72.53Y-272.24
X72.53Y-279.71
X72.53Y-287.18
X72.53Y-294.65
X72.53Y-302.12
X72.53Y-309.59
X72.53Y-317.06
X72.53Y-324.53
X72.53Y-332.0
X77.47Y-212.48
X77.47Y-219.95
X77.47Y-227.42
X77.47Y-234.89
X77.47Y-242.36
X77.47Y-249.83
X77.47Y-257.3
X77.47Y-264.77
X77.47Y-272.24
X77.47Y-279.71
X77.47Y-287.18
X77.47Y-294.65
X77.47Y-302.12
X77.47Y-309.59
X77.47Y-317.06
X77.47Y-324.53
X77.47Y-332.0
X80.01Y-212.48
X80.01Y-219.95
X80.01Y-227.42
X80.01Y-234.89
X80.01Y-242.36
X80.01Y-249.83
X80.01Y-257.3
X80.01Y-264.77
X80.01Y-272.24
X80.01Y-279.71
X80.01Y-287.18
X80.01Y-294.65
X80.01Y-302.12
X80.01Y-309.59
X80.01Y-317.06
X80.01Y-324.53
X80.01Y-332.0
X84.95Y-212.48
X84.95Y-219.95
X84.95Y-227.42
X84.95Y-234.89
X84.95Y-242.36
X84.95Y-249.83
X84.95Y-257.3
X84.95Y-264.77
X84.95Y-272.24
X84.95Y-279.71
X84.95Y-287.18
X84.95Y-294.65
X84.95Y-302.12
X84.95Y-309.59
X84.95Y-317.06
X84.95Y-324.53
X84.95Y-332.0
X87.49Y-212.48
X87.49Y-219.95
X87.49Y-227.42
X87.49Y-234.89
X87.49Y-242.36
X87.49Y-249.83
X87.49Y-257.3
X87.49Y-264.77
X87.49Y-272.24
X87.49Y-279.71
X87.49Y-287.18
X87.49Y-294.65
X87.49Y-302.12
X87.49Y-309.59
X87.49Y-317.06
X87.49Y-324.53
X87.49Y-332.0
X92.43Y-212.48
X92.43Y-219.95
X92.43Y-227.42
X92.43Y-234.89
X92.43Y-242.36
X92.43Y-249.83
X92.43Y-257.3
X92.43Y-264.77
X92.43Y-272.24
X92.43Y-279.71
X92.43Y-287.18
X92.43Y-294.65
X92.43Y-302.12
X92.43Y-309.59
X92.43Y-317.06
X92.43Y-324.53
X92.43Y-332.0
X94.97Y-212.48
X94.97Y-219.95
X94.97Y-227.42
X94.97Y-234.89
X94.97Y-242.36
X94.97Y-249.83
X94.97Y-257.3
X94.97Y-264.77
X94.97Y-272.24
X94.97Y-279.71
X94.97Y-287.18
X94.97Y-294.65
X94.97Y-302.12
X94.97Y-309.59
X94.97Y-317.06
X94.97Y-324.53
X94.97Y-332.0
X99.91Y-212.48
X99.91Y-219.95
X99.91Y-227.42
X99.91Y-234.89
X99.91Y-242.36
X99.91Y-249.83
X99.91Y-257.3
X99.91Y-264.77
X99.91Y-272.24
X99.91Y-279.71
X99.91Y-287.18
X99.91Y-294.65
X99.91Y-302.12
X99.91Y-309.59
X99.91Y-317.06
X99.91Y-324.53
X99.91Y-332.0
X102.45Y-212.48
X102.45Y-219.95
X102.45Y-227.42
X102.45Y-234.89
X102.45Y-242.36
X102.45Y-249.83
X102.45Y-257.3
X102.45Y-264.77
X102.45Y-272.24
X102.45Y-279.71
X102.45Y-287.18
X102.45Y-294.65
X102.45Y-302.12
X102.45Y-309.59
X102.45Y-317.06
X102.45Y-324.53
X102.45Y-332.0
X107.39Y-212.48
X107.39Y-219.95
X107.39Y-227.42
X107.39Y-234.89
X107.39Y-242.36
X107.39Y-249.83
X107.39Y-257.3
X107.39Y-264.77
X107.39Y-272.24
X107.39Y-279.71
X107.39Y-287.18
X107.39Y-294.65
X107.39Y-302.12
X107.39Y-309.59
X107.39Y-317.06
X107.39Y-324.53
X107.39Y-332.0
X109.93Y-212.48
X109.93Y-219.95
X109.93Y-227.42
X109.93Y-234.89
X109.93Y-242.36
X109.93Y-249.83
X109.93Y-257.3
X109.93Y-264.77
X109.93Y-272.24
X109.93Y-279.71
X109.93Y-287.18
X109.93Y-294.65
X109.93Y-302.12
X109.93Y-309.59
X109.93Y-317.06
X109.93Y-324.53
X109.93Y-332.0
X114.87Y-212.48
X114.87Y-219.95
X114.87Y-227.42
X114.87Y-234.89
X114.87Y-242.36
X114.87Y-249.83
X114.87Y-257.3
X114.87Y-264.77
X114.87Y-272.24
X114.87Y-279.71
X114.87Y-287.18
X114.87Y-294.65
X114.87Y-302.12
X114.87Y-309.59
X114.87Y-317.06
X114.87Y-324.53
X114.87Y-332.0
X117.41Y-212.48
X117.41Y-219.95
X117.41Y-227.42
X117.41Y-234.89
X117.41Y-242.36
X117.41Y-249.83
X117.41Y-257.3
X117.41Y-264.77
X117.41Y-272.24
X117.41Y-279.71
X117.41Y-287.18
X117.41Y-294.65
X117.41Y-302.12
X117.41Y-309.59
X117.41Y-317.06
X117.41Y-324.53
X117.41Y-332.0
X122.35Y-212.48
X122.35Y-219.95
X122.35Y-227.42
X122.35Y-234.89
X122.35Y-242.36
X122.35Y-249.83
X122.35Y-257.3
X122.35Y-264.77
X122.35Y-272.24
X122.35Y-279.71
X122.35Y-287.18
X122.35Y-294.65
X122.35Y-302.12
X122.35Y-309.59
X122.35Y-317.06
X122.35Y-324.53
X122.35Y-332.0
X124.89Y-212.48
X124.89Y-219.95
X124.89Y-227.42
X124.89Y-234.89
X124.89Y-242.36
X124.89Y-249.83
X124.89Y-257.3
X124.89Y-264.77
X124.89Y-272.24
X124.89Y-279.71
X124.89Y-287.18
X124.89Y-294.65
X124.89Y-302.12
X124.89Y-309.59
X124.89Y-317.06
X124.89Y-324.53
X124.89Y-332.0
X129.83Y-212.48
X129.83Y-219.95
X129.83Y-227.42
X129.83Y-234.89
X129.83Y-242.36
X129.83Y-249.83
X129.83Y-257.3
X129.83Y-264.77
X129.83Y-272.24
X129.83Y-279.71
X129.83Y-287.18
X129.83Y-294.65
X129.83Y-302.12
X129.83Y-309.59
X129.83Y-317.06
X129.83Y-324.53
X129.83Y-332.0
X132.37Y-212.48
X132.37Y-219.95
X132.37Y-227.42
X132.37Y-234.89
X132.37Y-242.36
X132.37Y-249.83
X132.37Y-257.3
X132.37Y-264.77
X132.37Y-272.24
X132.37Y-279.71
X132.37Y-287.18
X132.37Y-294.65
X132.37Y-302.12
X132.37Y-309.59
X132.37Y-317.06
X132.37Y-324.53
X132.37Y-332.0
X137.31Y-212.48
X137.31Y-219.95
X137.31Y-227.42
X137.31Y-234.89
X137.31Y-242.36
X137.31Y-249.83
X137.31Y-257.3
X137.31Y-264.77
X137.31Y-272.24
X137.31Y-279.71
X137.31Y-287.18
X137.31Y-294.65
X137.31Y-302.12
X137.31Y-309.59
X137.31Y-317.06
X137.31Y-324.53
X137.31Y-332.0
X139.85Y-212.48
X139.85Y-219.95
X139.85Y-227.42
X139.85Y-234.89
X139.85Y-242.36
X139.85Y-249.83
X139.85Y-257.3
X139.85Y-264.77
X139.85Y-272.24
X139.85Y-279.71
X139.85Y-287.18
X139.85Y-294.65
X139.85Y-302.12
X139.85Y-309.59
X139.85Y-317.06
X139.85Y-324.53
X139.85Y-332.0
X144.79Y-212.48
X144.79Y-219.95
X144.79Y-227.42
X144.79Y-234.89
X144.79Y-242.36
X144.79Y-249.83
X144.79Y-257.3
X144.79Y-264.77
X144.79Y-272.24
X144.79Y-279.71
X144.79Y-287.18
X144.79Y-294.65
X144.79Y-302.12
X144.79Y-309.59
X144.79Y-317.06
X144.79Y-324.53
X144.79Y-332.0
X147.33Y-212.48
X147.33Y-219.95
X147.33Y-227.42
X147.33Y-234.89
X147.33Y-242.36
X147.33Y-249.83
X147.33Y-257.3
X147.33Y-264.77
X147.33Y-272.24
X147.33Y-279.71
X147.33Y-287.18
X147.33Y-294.65
X147.33Y-302.12
X147.33Y-309.59
X147.33Y-317.06
X147.33Y-324.53
X147.33Y-332.0
X152.27Y-212.48
X152.27Y-219.95
X152.27Y-227.42
X152.27Y-234.89
X152.27Y-242.36
X152.27Y-249.83
X152.27Y-257.3
X152.27Y-264.77
X152.27Y-272.24
X152.27Y-279.71
X152.27Y-287.18
X152.27Y-294.65
X152.27Y-302.12
X152.27Y-309.59
X152.27Y-317.06
X152.27Y-324.53
X152.27Y-332.0
X154.81Y-212.48
X154.81Y-219.95
X154.81Y-227.42
X154.81Y-234.89
X154.81Y-242.36
X154.81Y-249.83
X154.81Y-257.3
X154.81Y-264.77
X154.81Y-272.24
X154.81Y-279.71
X154.81Y-287.18
X154.81Y-294.65
X154.81Y-302.12
X154.81Y-309.59
X154.81Y-317.06
X154.81Y-324.53
X154.81Y-332.0
X159.75Y-212.48
X159.75Y-219.95
X159.75Y-227.42
X159.75Y-234.89
X159.75Y-242.36
X159.75Y-249.83
X159.75Y-257.3
X159.75Y-264.77
X159.75Y-272.24
X159.75Y-279.71
X159.75Y-287.18
X159.75Y-294.65
X159.75Y-302.12
X159.75Y-309.59
X159.75Y-317.06
X159.75Y-324.53
X159.75Y-332.0
X162.29Y-212.48
X162.29Y-219.95
X162.29Y-227.42
X162.29Y-234.89
X162.29Y-242.36
X162.29Y-249.83
X162.29Y-257.3
X162.29Y-264.77
X162.29Y-272.24
X162.29Y-279.71
X162.29Y-287.18
X162.29Y-294.65
X162.29Y-302.12
X162.29Y-309.59
X162.29Y-317.06
X162.29Y-324.53
X162.29Y-332.0
X167.23Y-212.48
X167.23Y-219.95
X167.23Y-227.42
X167.23Y-234.89
X167.23Y-242.36
X167.23Y-249.83
X167.23Y-257.3
X167.23Y-264.77
X167.23Y-272.24
X167.23Y-279.71
X167.23Y-287.18
X167.23Y-294.65
X167.23Y-302.12
X167.23Y-309.59
X167.23Y-317.06
X167.23Y-324.53
X167.23Y-332.0
X169.77Y-212.48
X169.77Y-219.95
X169.77Y-227.42
X169.77Y-234.89
X169.77Y-242.36
X169.77Y-249.83
X169.77Y-257.3
X169.77Y-264.77
X169.77Y-272.24
X169.77Y-279.71
X169.77Y-287.18
X169.77Y-294.65
X169.77Y-302.12
X169.77Y-309.59
X169.77Y-317.06
X169.77Y-324.53
X169.77Y-332.0
X174.71Y-212.48
X174.71Y-219.95
X174.71Y-227.42
X174.71Y-234.89
X174.71Y-242.36
X174.71Y-249.83
X174.71Y-257.3
X174.71Y-264.77
X174.71Y-272.24
X174.71Y-279.71
X174.71Y-287.18
X174.71Y-294.65
X174.71Y-302.12
X174.71Y-309.59
X174.71Y-317.06
X174.71Y-324.53
X174.71Y-332.0
X177.25Y-212.48
X177.25Y-219.95
X177.25Y-227.42
X177.25Y-234.89
X177.25Y-242.36
X177.25Y-249.83
X177.25Y-257.3
X177.25Y-264.77
X177.25Y-272.24
X177.25Y-279.71
X177.25Y-287.18
X177.25Y-294.65
X177.25Y-302.12
X177.25Y-309.59
X177.25Y-317.06
X177.25Y-324.53
X177.25Y-332.0
X182.19Y-212.48
X182.19Y-219.95
X182.19Y-227.42
X182.19Y-234.89
X182.19Y-242.36
X182.19Y-249.83
X182.19Y-257.3
X182.19Y-264.77
X182.19Y-272.24
X184.73Y-212.48
X184.73Y-219.95
X184.73Y-227.42
X184.73Y-234.89
X184.73Y-242.36
X184.73Y-249.83
X184.73Y-257.3
X184.73Y-264.77
X184.73Y-272.24
X305.78Y-168.72
X308.32Y-168.72
T2
X17.46Y-338.04
X17.46Y-340.58
X17.46Y-343.12
X17.46Y-345.66
X17.46Y-348.2
X17.46Y-350.74
X17.46Y-353.28
X17.46Y-355.82
X17.46Y-358.36
X17.46Y-360.9
X17.46Y-363.44
X17.46Y-365.98
X17.46Y-368.52
X17.46Y-371.06
X17.46Y-373.6
X17.46Y-376.14
X17.46Y-378.68
X17.46Y-381.22
X17.46Y-383.76
X17.46Y-386.3
X22.05Y-338.04
X22.05Y-340.58
X22.05Y-343.12
X22.05Y-345.66
X22.05Y-348.2
X22.05Y-350.74
X22.05Y-353.28
X22.05Y-355.82
X22.05Y-358.36
X22.05Y-360.9
X22.05Y-363.44
X22.05Y-365.98
X22.05Y-368.52
X22.05Y-371.06
X22.05Y-373.6
X22.05Y-376.14
X22.05Y-378.68
X22.05Y-381.22
X22.05Y-383.76
X22.05Y-386.3
X189.5Y-211.05
X189.5Y-213.59
X189.5Y-216.13
X189.5Y-218.67
X189.5Y-221.21
X189.5Y-223.75
X189.5Y-226.29
X189.5Y-228.83
X189.5Y-231.37
X189.5Y-233.91
X189.5Y-236.45
X189.5Y-238.99
X189.5Y-241.53
X189.5Y-244.07
X189.5Y-246.61
X189.5Y-249.15
X189.5Y-251.69
X189.5Y-254.23
X189.5Y-256.77
X189.5Y-259.31
X189.5Y-261.85
X189.5Y-264.39
X189.5Y-266.93
X189.5Y-269.47
M30
